<svg width="200" height="119" viewBox="0 0 200 119" fill="none" xmlns="http://www.w3.org/2000/svg">
<path d="M170.385 30.4283H44.8834V108.804H170.385V30.4283Z" fill="#DCE6EF"/>
<path d="M88.9896 43.9017H57.2302V108.807H88.9896V43.9017Z" fill="#44526E"/>
<path d="M170.382 43.9017H99.5791V92.7407H170.382V43.9017Z" fill="#F5F6EE"/>
<path opacity="0.2" d="M44.8834 36.9198C45.716 40.6081 48.9939 43.3651 52.9231 43.3651C57.479 43.3651 61.1717 39.6583 61.1717 35.085C61.1717 39.6583 64.8644 43.3651 69.4203 43.3651C73.9762 43.3651 77.6689 39.6583 77.6689 35.085C77.6689 39.6583 81.3616 43.3651 85.9175 43.3651C90.4734 43.3651 94.1661 39.6583 94.1661 35.085C94.1661 39.6583 97.8587 43.3651 102.415 43.3651C106.971 43.3651 110.663 39.6583 110.663 35.085C110.663 39.6583 114.356 43.3651 118.912 43.3651C123.468 43.3651 127.16 39.6583 127.16 35.085C127.16 39.6583 130.853 43.3651 135.409 43.3651C139.965 43.3651 143.658 39.6583 143.658 35.085C143.658 39.6583 147.35 43.3651 151.906 43.3651C156.462 43.3651 160.155 39.6583 160.155 35.085C160.155 39.6583 163.847 43.3651 168.403 43.3651C169.088 43.3651 169.752 43.2726 170.388 43.1122V30.4283H44.8834V36.9198Z" fill="black"/>
<path d="M41.6454 23.3139H25.1482L48.4378 0H60.2777L41.6454 23.3139Z" fill="#44526E"/>
<path d="M58.1426 23.3139H41.6454L60.2777 0H72.1176L58.1426 23.3139Z" fill="#F9E047"/>
<path d="M74.6398 23.3139H58.1426L72.1176 0H83.9544L74.6398 23.3139Z" fill="#44526E"/>
<path d="M91.137 23.3139H74.6398L83.9544 0H95.7943L91.137 23.3139Z" fill="#F9E047"/>
<path d="M107.634 23.3139H91.137L95.7943 0H107.634V23.3139Z" fill="#44526E"/>
<path d="M124.131 23.3139H107.634V0H119.471L124.131 23.3139Z" fill="#F9E047"/>
<path d="M140.625 23.3139H124.131L119.471 0H131.311L140.625 23.3139Z" fill="#44526E"/>
<path d="M157.123 23.3139H140.625L131.311 0H143.151L157.123 23.3139Z" fill="#F9E047"/>
<path d="M173.62 23.3139H157.123L143.151 0H154.988L173.62 23.3139Z" fill="#44526E"/>
<path d="M190.117 23.3139H173.62L154.988 0H166.827L190.117 23.3139Z" fill="#F9E047"/>
<path d="M41.6454 23.3138H25.1482V33.3949C25.1482 37.0986 28.1374 40.0992 31.827 40.0992H34.9667C38.6563 40.0992 41.6454 37.0986 41.6454 33.3949V23.3138Z" fill="#F66199"/>
<path d="M58.1426 23.3138H41.6454V33.3949C41.6454 37.0986 44.6346 40.0992 48.3242 40.0992H51.4639C55.1535 40.0992 58.1426 37.0986 58.1426 33.3949V23.3138Z" fill="#FFD1EB"/>
<path d="M74.6398 23.3138H58.1426V33.3949C58.1426 37.0986 61.1318 40.0992 64.8214 40.0992H67.961C71.6506 40.0992 74.6398 37.0986 74.6398 33.3949V23.3138Z" fill="#F66199"/>
<path d="M91.137 23.3138H74.6398V33.3949C74.6398 37.0986 77.629 40.0992 81.3185 40.0992H84.4582C88.1478 40.0992 91.137 37.0986 91.137 33.3949V23.3138Z" fill="#FFD1EB"/>
<path d="M107.634 23.3138H91.137V31.8191C91.137 36.3924 94.8296 40.0992 99.3856 40.0992C103.941 40.0992 107.634 36.3924 107.634 31.8191V23.3138Z" fill="#F66199"/>
<path d="M124.131 23.3138H107.634V31.8191C107.634 36.3924 111.327 40.0992 115.883 40.0992C120.439 40.0992 124.131 36.3924 124.131 31.8191V23.3138Z" fill="#FFD1EB"/>
<path d="M140.625 23.3138H124.128V31.8191C124.128 36.3924 127.821 40.0992 132.377 40.0992C136.933 40.0992 140.625 36.3924 140.625 31.8191V23.3138Z" fill="#F66199"/>
<path d="M157.123 23.3138H140.625V33.3949C140.625 37.0986 143.615 40.0992 147.304 40.0992H150.444C154.134 40.0992 157.123 37.0986 157.123 33.3949V23.3138Z" fill="#FFD1EB"/>
<path d="M173.62 23.3138H157.123V33.3949C157.123 37.0986 160.112 40.0992 163.801 40.0992H166.941C170.631 40.0992 173.62 37.0986 173.62 33.3949V23.3138Z" fill="#F66199"/>
<path d="M190.117 23.3138H173.62V33.3949C173.62 37.0986 176.609 40.0992 180.299 40.0992H183.438C187.128 40.0992 190.117 37.0986 190.117 33.3949V23.3138Z" fill="#FFD1EB"/>
<path d="M41.6454 23.3138H25.1482V33.3949C25.1482 37.0986 28.1374 40.0992 31.827 40.0992H34.9667C38.6563 40.0992 41.6454 37.0986 41.6454 33.3949V23.3138Z" fill="#2C3346"/>
<path d="M58.1426 23.3138H41.6454V33.3949C41.6454 37.0986 44.6346 40.0992 48.3242 40.0992H51.4639C55.1535 40.0992 58.1426 37.0986 58.1426 33.3949V23.3138Z" fill="#F2B348"/>
<path d="M74.6398 23.3138H58.1426V33.3949C58.1426 37.0986 61.1318 40.0992 64.8214 40.0992H67.961C71.6506 40.0992 74.6398 37.0986 74.6398 33.3949V23.3138Z" fill="#2C3346"/>
<path d="M91.137 23.3138H74.6398V33.3949C74.6398 37.0986 77.629 40.0992 81.3185 40.0992H84.4582C88.1478 40.0992 91.137 37.0986 91.137 33.3949V23.3138Z" fill="#F2B348"/>
<path d="M107.634 23.3138H91.137V31.8191C91.137 36.3924 94.8296 40.0992 99.3856 40.0992C103.941 40.0992 107.634 36.3924 107.634 31.8191V23.3138Z" fill="#2C3346"/>
<path d="M124.131 23.3138H107.634V31.8191C107.634 36.3924 111.327 40.0992 115.883 40.0992C120.439 40.0992 124.131 36.3924 124.131 31.8191V23.3138Z" fill="#F2B348"/>
<path d="M140.625 23.3138H124.128V31.8191C124.128 36.3924 127.821 40.0992 132.377 40.0992C136.933 40.0992 140.625 36.3924 140.625 31.8191V23.3138Z" fill="#2C3346"/>
<path d="M157.123 23.3138H140.625V33.3949C140.625 37.0986 143.615 40.0992 147.304 40.0992H150.444C154.134 40.0992 157.123 37.0986 157.123 33.3949V23.3138Z" fill="#F2B348"/>
<path d="M173.62 23.3138H157.123V33.3949C157.123 37.0986 160.112 40.0992 163.801 40.0992H166.941C170.631 40.0992 173.62 37.0986 173.62 33.3949V23.3138Z" fill="#2C3346"/>
<path d="M190.117 23.3138H173.62V33.3949C173.62 37.0986 176.609 40.0992 180.299 40.0992H183.438C187.128 40.0992 190.117 37.0986 190.117 33.3949V23.3138Z" fill="#F2B348"/>
<path d="M85.2078 47.9076H60.2777V85.4781H85.2078V47.9076Z" fill="#F5F6EE"/>
<path d="M88.9926 76.3531C88.9926 77.7285 87.8806 78.8448 86.5104 78.8448C85.1402 78.8448 84.0281 77.7285 84.0281 76.3531C84.0281 74.9777 85.1402 73.8613 86.5104 73.8613C87.8806 73.8613 88.9926 74.9777 88.9926 76.3531Z" fill="#FFB618"/>
<g opacity="0.1">
<path opacity="0.1" d="M120.869 92.7407L169.519 43.9017H149.535L100.882 92.7407H120.869Z" fill="white"/>
<path opacity="0.1" d="M170.385 58.8336V48.8019L126.614 92.7405H136.607L170.385 58.8336Z" fill="white"/>
</g>
<g opacity="0.1">
<path opacity="0.1" d="M85.2078 58.8306L60.2777 83.8529V85.4781H65.8659L85.2078 66.0653V58.8306Z" fill="white"/>
<path opacity="0.1" d="M60.2777 79.6928L85.2078 54.6674V47.9076H77.5245L60.2777 65.2203V79.6928Z" fill="white"/>
</g>
<path d="M121.969 61.1313H115.883V58.0783C115.883 56.3914 117.244 55.0253 118.924 55.0253C120.605 55.0253 121.966 56.3914 121.966 58.0783V61.1313H121.969Z" fill="#44526E"/>
<path d="M119.176 43.9017H118.672V55.4292H119.176V43.9017Z" fill="#44526E"/>
<path d="M138.023 61.1313H131.938V58.0783C131.938 56.3914 133.298 55.0253 134.979 55.0253C136.659 55.0253 138.02 56.3914 138.02 58.0783V61.1313H138.023Z" fill="#44526E"/>
<path d="M135.234 43.9017H134.73V55.4292H135.234V43.9017Z" fill="#44526E"/>
<path d="M154.081 61.1313H147.995V58.0783C147.995 56.3914 149.356 55.0253 151.037 55.0253C152.717 55.0253 154.078 56.3914 154.078 58.0783V61.1313H154.081Z" fill="#44526E"/>
<path d="M151.292 43.9017H150.788V55.4292H151.292V43.9017Z" fill="#44526E"/>
<path d="M186.41 118H3.58975C1.60809 118 0 115.985 0 113.5C0 111.015 1.60809 109 3.58975 109H186.41C188.392 109 190 111.015 190 113.5C190 115.985 188.395 118 186.41 118Z" fill="#44526E"/>
<path d="M34.7301 85.5059H7.75708L14.8076 45.3604H41.7806L34.7301 85.5059Z" fill="#44526E"/>
<path d="M16.8659 47.8676L10.6971 82.9988H32.6718L38.8406 47.8676H16.8659Z" fill="#44526E"/>
<path d="M7.48981 108.807H3.66504L7.75708 85.5059H11.5818L7.48981 108.807Z" fill="#44526E"/>
<path d="M30.6381 108.807H26.8103L30.9023 85.5059H34.7302L30.6381 108.807Z" fill="#44526E"/>
<path d="M14.8076 45.3604L7.75708 85.5059L3.66504 108.807H7.4898L11.5818 85.5059H30.9023L26.8103 108.807H30.6381L34.7301 85.5059L41.7806 45.3604H14.8076Z" fill="#2C3346"/>
<path d="M21.8549 85.5059H48.828L41.7775 45.3604H14.8045L21.8549 85.5059Z" fill="#44526E"/>
<path d="M39.7192 47.8676L45.888 82.9988H23.9133L17.7445 47.8676H39.7192Z" fill="#44526E"/>
<path d="M49.0953 108.807H52.92L48.828 85.5059H45.0032L49.0953 108.807Z" fill="#44526E"/>
<path d="M25.9501 108.807H29.7748L25.6828 85.5059H21.8549L25.9501 108.807Z" fill="#44526E"/>
</svg>
