<svg width="236" height="129" viewBox="0 0 236 129" fill="none" xmlns="http://www.w3.org/2000/svg">
<path d="M235.98 55.9561C235.98 55.9357 236.09 49.2768 235.8 48.4962C235.055 46.8242 232.594 47.7563 230.864 47.631C228.908 47.5291 227.992 45.5367 226.415 44.7385C225.273 43.9754 223.258 44.2113 219.705 43.7103C218.117 43.3345 216.45 42.2073 214.699 42.3296C213.386 42.4112 212.166 43.119 210.291 42.7578C209.615 42.4927 208.998 41.9305 208.32 41.6422C207.517 41.2839 206.7 41.2751 206.242 40.3547C205.398 38.7759 205.453 38.4933 203.337 38.17C199.81 37.8117 196.712 40.075 193.335 39.5041C190.712 39.0555 189.268 37.3486 186.726 38.1904C185.573 38.6943 183.358 39.9265 179.811 36.6961C179.811 36.6757 179.869 33.2356 179.704 32.9181C179.141 31.817 175.741 31.2548 175.565 28.2429C175.565 27.6487 174.95 27.4098 174.365 27.2001C172.918 27.2525 171.776 28.2312 166.348 27.0719C163.571 26.4893 165.145 26.9933 165.521 26.1544C165.606 25.9592 165.582 19.1168 165.556 19.0207C165.206 17.7012 161.542 17.2234 161.067 15.6651C161.104 10.8471 158.183 13.16 154.238 12.3997C147.6 11.1588 150.673 13.8474 146.945 13.2707C146.235 13.1279 143.934 12.4609 143.531 12.4609C139.482 11.8142 137.98 14.8815 136.238 15.3184C134.96 15.6796 133.444 15.0388 132.282 14.596C130.529 16.4224 126.143 13.894 121.596 17.2031C119.228 18.9537 119.393 20.6548 119.43 22.7463C119.306 25.6096 119.967 25.2688 118.068 25.2688C116.268 25.0038 115.81 23.291 112.651 22.356C108.5 21.1908 107.135 23.7978 104.347 23.3755C102.695 23.0958 101.773 21.5811 101.104 21.1355C98.4891 19.1751 97.1298 21.8549 95.0574 21.5636C94.6748 21.4966 91.5792 19.9557 91.5561 19.9441C87.5185 19.4256 84.7911 22.6705 77.9971 19.9499C72.122 17.4157 72.5046 16.4341 58.4181 14.1707C55.1197 13.6464 39.7551 11.5258 37.6334 14.5523C37.332 14.8524 37.4131 16.6088 36.103 16.7574C34.8074 17.0108 33.4886 16.4428 32.2945 16.0059C31.5727 15.7408 30.0192 14.7679 29.3757 15.3534C28.8743 15.8078 28.6714 16.7516 28.5555 17.3924C28.2946 18.8284 28.5352 20.2703 28.4975 21.7093C28.3236 28.2604 29.6163 25.1989 32.0539 31.9364C30.0395 34.3192 25.1846 33.556 23.6136 35.5397C21.1644 38.6477 9.79384 40.1187 10.0344 47.3718C9.88369 52.347 10.3358 51.8664 9.64892 51.744C5.42299 50.9954 6.35339 50.5265 0.88692 57.194C0.144919 58.0912 -0.0985506 58.5718 0.0376763 60.3574C0.0318794 60.4419 0.0347778 65.4987 0.0376763 65.5365C-0.0115973 66.1686 0.373896 66.6609 0.866631 67.0629C0.910108 67.0978 1.33328 67.4678 1.33618 67.5756C1.09851 70.9225 2.73613 69.2243 5.74181 70.8263C7.10408 71.5604 7.96782 72.3876 10.0141 72.8683C11.7677 73.0518 14.0343 72.2012 15.4603 72.2682C19.5239 72.2682 23.0223 75.0792 27.1207 75.2918C29.8076 75.417 31.6162 74.6743 33.7089 75.6792C34.0799 75.6792 35.0016 77.3162 35.532 77.6804C36.9465 78.6795 39.2913 79.0028 41.3956 78.094C41.4478 78.1493 42.4071 77.4852 42.5955 77.3716C44.1114 76.4657 45.578 76.8123 47.5403 76.9987C56.1689 77.8231 57.2008 73.4683 62.9948 73.0722C69.0873 72.778 65.8005 68.7931 76.1798 70.4244C83.2027 71.3361 81.2492 74.1616 90.2662 75.5569C91.3155 75.7695 92.414 75.9705 93.3473 76.5909C93.9763 77.0104 94.4284 77.6541 95.0284 78.1144C95.7733 78.6882 96.9617 78.662 97.1095 79.7864C97.237 80.7651 97.0921 81.7992 97.1211 82.7866C96.953 88.3444 100.875 86.5239 102.118 88.7784C102.127 88.7988 102.109 90.0921 102.121 90.2815C101.961 93.4361 104.46 92.3729 106.431 94.6887C103.898 96.1684 102.144 93.9779 101.463 93.6371C98.6572 92.0583 98.3036 94.0245 96.066 94.0245C95.3356 93.9051 93.8429 92.571 93.614 92.807C93.4429 92.6293 91.643 92.8943 91.8314 94.3508C91.7879 94.7003 91.9213 99.1221 91.7097 99.3202C84.7824 105.836 82.4115 106.235 82.8781 108.609C82.8636 108.703 82.8694 113.751 82.8781 113.788C82.7448 114.572 83.0665 114.913 83.8114 115.163C83.8375 115.181 87.22 116.748 90.0634 116.748C93.156 116.748 93.7067 115.577 95.1211 115.14C95.8342 114.919 96.5965 114.942 97.3356 114.968C98.0834 114.994 98.8341 115.041 99.5818 115.082C100.886 115.158 102.341 115.487 102.353 113.739C102.361 112.734 101.979 111.461 102.564 110.555C102.93 109.99 103.585 110.098 104.185 110.063C104.872 110.022 105.593 109.999 106.234 109.722C107.176 109.314 107.495 108.423 108.544 108.137C109.837 107.8 110.889 108.697 113.854 106.288C130.752 92.5098 127.874 96.6228 130.053 97.6307C130.818 97.989 132.03 98.0035 132.702 97.5346C133.421 97.0365 133.346 96.0665 135.039 95.9587C135.027 96.0053 135.03 102.612 135.036 102.67C134.885 104.068 137.349 104.93 138.835 105.184C141.351 105.632 144.258 105.265 147.125 105.059C145.166 106.063 144.183 106.646 144.441 108.671C144.438 108.703 144.429 113.756 144.441 113.85C144.169 115.976 147.815 115.405 150.368 115.746C152.113 116.058 153.371 116.984 154.4 118.009C153.342 119.311 153.241 119.906 153.333 120.861C153.331 120.881 153.209 127.001 153.533 127.412C154.557 128.743 163.768 129.891 166.327 127.971C167.452 127.121 167.321 125.827 168.217 124.869C170.208 122.705 175.559 123.453 178.66 121.921C181.364 120.584 182.13 117.625 186.753 118.443C187.871 118.65 190.005 119.303 192.184 118.784C194.175 118.324 194.599 117.354 194.402 115.463C194.407 115.417 194.41 110.377 194.402 110.29C194.602 108.368 189.805 108.12 187.877 108.175C183.64 108.324 179.08 108.711 176.64 103.174C178.109 101.965 179.217 102.032 180.448 101.336C182.411 100.2 182.721 98.8279 190.822 96.4364C194.526 95.3412 198.233 94.2372 201.868 92.9235C203.306 92.4021 204.755 91.8603 206.108 91.1379C206.682 90.8291 207.227 90.465 207.833 90.2174C208.969 89.7543 210.215 89.53 211.41 89.2824C212.172 89.1251 212.937 88.9736 213.702 88.828C214.175 88.7377 214.644 88.6474 215.117 88.56C215.691 88.4522 216.421 88.5629 216.824 88.0677C217.32 87.4647 216.772 86.6287 216.847 85.9005C216.917 85.2276 217.178 84.5868 217.505 84.0042C218.299 82.5857 219.511 81.4059 220.772 80.4039C222.322 79.1688 224.371 77.7386 226.409 77.5493C229.006 77.3104 231.426 78.7814 233.316 76.3987C234.829 74.4471 234.849 72.8945 234.786 70.4739C234.858 63.5441 234.844 64.2665 233.296 61.5255C233.252 59.8855 233.189 60.7215 234.707 59.0903C234.731 59.0991 236.035 57.9368 235.98 55.9561Z" fill="#F2B348"/>
<path d="M235.629 51.1007C235.522 51.325 235.391 51.558 235.238 51.7736C235.162 51.8813 235.081 51.992 234.994 52.094C234.907 52.2017 234.811 52.3037 234.71 52.4057H234.704C234.609 52.5076 234.516 52.595 234.414 52.6911C233.696 53.3523 232.817 54.0048 232.51 54.7272C232.394 54.9719 232.362 55.2311 232.423 55.502C232.539 56.0264 233.032 56.4691 233.214 56.9789C233.539 57.9052 232.794 58.8635 232.754 59.8248C232.719 60.888 233.539 61.8521 234.067 62.8483C234.988 64.5757 235.014 66.504 234.203 68.2721C233.974 68.7702 233.675 69.2509 233.316 69.714C232.971 70.148 232.545 70.5908 231.901 70.8355C230.29 71.4676 228.258 70.6927 226.409 70.8617C224.858 71.0044 223.638 71.7792 222.548 72.5162C222.047 72.857 221.539 73.1978 221.053 73.5561C219.589 74.596 218.241 75.7146 217.429 77.0079C217.322 77.1856 217.227 77.3691 217.14 77.5526C216.873 78.1119 216.728 78.7498 216.743 79.3702C216.754 79.8567 216.969 80.3344 216.867 80.8179C216.653 81.8549 215.792 81.7471 214.948 81.9015C214.224 82.0355 213.502 82.1695 212.78 82.3035C211.331 82.5686 209.856 82.8424 208.514 83.3026C206.786 83.9085 205.346 84.8057 203.772 85.5688C199.897 87.4418 195.225 88.4555 190.825 89.7488C187.851 90.6256 184.648 91.6946 182.393 93.2734C181.744 93.7307 181.167 94.2318 180.448 94.6483C179.567 95.1464 178.39 95.362 177.544 95.8601C176.732 96.3436 176.008 96.9349 175.701 97.6224C175.205 98.7467 175.544 99.9294 175.883 101.074C176.715 103.865 178.138 107.11 182.309 108.001C184.315 108.362 186.121 108.24 187.877 108.179C188.831 108.152 190.294 108.199 191.596 108.429C193.39 108.744 194.868 109.417 194.277 110.736C193.998 111.368 193.152 111.872 192.184 112.096C191.126 112.347 189.7 112.335 188.607 112.137C187.857 111.989 187.306 111.858 186.752 111.756C185.947 111.613 185.115 111.537 184.248 111.695C181.7 112.152 180.767 114.191 178.66 115.234C175.559 116.766 170.208 116.017 168.217 118.181C167.324 119.14 167.452 120.433 166.327 121.284C165.42 121.965 163.95 122.19 162.588 122.257C160.658 122.359 158.707 122.236 156.852 121.91C156.345 121.814 155.843 121.712 155.356 121.59C154.632 121.412 153.881 121.176 153.533 120.724C153.229 120.337 153.304 119.868 153.478 119.446C154.243 117.608 156.872 116.029 156.478 114.159C156.342 113.492 155.82 112.892 155.313 112.306C154.122 110.946 152.664 109.469 150.368 109.058C148.791 108.849 147.247 108.951 146.081 108.738C145.403 108.621 144.855 108.397 144.571 107.954C144.055 107.139 145.052 106.239 146.076 105.633C148.006 104.488 150.302 103.605 152.765 103.046C153.096 102.97 153.429 102.903 153.759 102.828C155.458 102.466 156.997 102.094 157.464 100.902C157.713 100.235 157.327 99.7109 156.496 99.3235C155.777 98.9768 154.898 98.738 153.968 98.5749C152.777 98.3651 151.501 98.2748 150.371 98.2544C146.539 98.1729 142.313 99.1108 138.832 98.4933C138.073 98.3651 137.348 98.1525 136.679 97.8466C135.725 97.4097 134.94 96.7223 135.033 95.962C135.079 95.6154 135.311 95.2891 135.569 94.9745C136.232 94.1589 137.093 93.4016 137.595 92.5394C138.096 91.6742 138.192 90.6489 137.366 89.9119C137.035 89.6178 136.525 89.4138 135.983 89.3206C135.157 89.1779 134.244 89.2799 133.708 89.708C133.282 90.0547 133.16 90.5237 132.699 90.8441C132.212 91.1849 131.427 91.2723 130.743 91.1499C130.494 91.1091 130.256 91.0334 130.053 90.9402C129.288 90.5848 129.181 89.7343 128.224 89.5653C127.676 89.4692 127.378 89.6877 127.018 89.9061C124.926 91.1732 122.818 92.4374 121.033 93.888C120.282 94.4997 119.706 95.1551 119.001 95.7727C118.256 96.4135 117.262 96.9087 116.413 97.4825C115.465 98.135 114.714 98.8982 113.854 99.6002C113.074 100.232 112.207 100.765 111.138 101.179C110.257 101.526 109.451 101.214 108.544 101.45C107.494 101.735 107.176 102.627 106.234 103.034C104.871 103.635 102.55 103.081 101.709 103.993C101.324 104.406 101.486 104.925 101.648 105.394C101.869 106.038 102.651 107.482 102.234 108.129C101.84 108.738 100.837 108.467 100.263 108.435C99.4194 108.388 98.5759 108.336 97.7325 108.295C96.8513 108.254 95.9238 108.214 95.1181 108.452C94.3471 108.691 93.7964 109.154 93.121 109.472C93.0051 109.527 92.8834 109.58 92.7616 109.621C92.6341 109.667 92.5037 109.708 92.3761 109.749C91.8283 109.918 91.2254 110.014 90.6023 110.043C90.5211 110.049 90.4342 110.057 90.353 110.049C90.2574 110.055 90.1646 110.055 90.0632 110.055C89.7791 110.055 89.4951 110.04 89.211 110.02C89.156 110.014 89.1038 110.005 89.0487 110.005C88.7647 109.97 88.4806 109.938 88.1966 109.889C87.9531 109.848 87.7096 109.792 87.4778 109.74C86.7271 109.562 86.0141 109.323 85.3242 109.067C85.101 108.986 84.8779 108.904 84.6605 108.817C84.4228 108.72 84.1648 108.618 83.875 108.496C83.8547 108.49 83.8344 108.482 83.8141 108.47C83.7533 108.45 83.6982 108.423 83.646 108.403C83.591 108.377 83.5388 108.356 83.4895 108.327C83.362 108.272 83.246 108.205 83.1504 108.129C83.1098 108.103 83.075 108.068 83.0432 108.033C83.0026 107.992 82.9765 107.951 82.9475 107.911C82.8316 107.727 82.8605 107.529 82.933 107.325C83.3881 106.501 84.0518 105.854 84.7677 105.263C85.1938 104.916 85.6488 104.581 86.0807 104.249C88.1183 102.691 89.9125 101.001 91.7095 99.3147C92.3269 98.7351 92.9616 98.0768 93.266 97.4097C93.5094 96.8854 93.55 96.3611 93.2312 95.8571C92.9008 95.3474 92.2225 94.9454 91.924 94.4153C91.782 94.1706 91.7964 93.8764 91.9182 93.6113C92.0196 93.4016 92.1877 93.2035 92.4138 93.0608C92.4486 93.0404 92.4747 93.02 92.5095 92.9996C92.6167 92.9384 92.7471 92.8831 92.8747 92.8511C93.092 92.7753 93.3297 92.7549 93.579 92.7899C93.5848 92.7899 93.5935 92.7899 93.5993 92.7957C93.6051 92.7957 93.6051 92.7957 93.6138 92.8015C93.6196 92.7957 93.6196 92.7957 93.6283 92.8015C94.1703 92.9035 94.5355 93.1627 94.8891 93.4132C95.0166 93.5152 95.1528 93.6113 95.3007 93.6987C95.5296 93.8473 95.776 93.9725 96.0659 94.0191C96.1122 94.0191 96.1615 94.0249 96.2079 94.0249C96.2137 94.0249 96.2224 94.0308 96.2282 94.0249C97.3267 94.0249 97.9556 93.3928 98.802 93.1394C98.8629 93.1132 98.9295 93.0986 98.9991 93.0783C99.0252 93.0637 99.0541 93.0579 99.0802 93.052H99.1063C99.1063 93.052 99.1063 93.052 99.1121 93.052C100.338 93.1482 101.002 93.3725 101.463 93.6317C101.503 93.6521 101.55 93.687 101.59 93.7133C101.631 93.7395 101.677 93.7686 101.718 93.8006C101.793 93.8473 101.86 93.8968 101.927 93.9492C102.393 94.3104 102.874 94.6978 103.463 94.9512C103.619 95.0124 103.782 95.0677 104.051 95.1202C104.071 95.1348 104.097 95.1348 104.126 95.1406C104.153 95.1406 104.173 95.1464 104.202 95.1464C104.967 95.2134 105.645 95.0707 106.179 94.8143C106.245 94.7881 106.315 94.7532 106.376 94.7124C106.471 94.6658 106.552 94.6046 106.634 94.5434C106.721 94.4823 106.796 94.4153 106.871 94.3454C106.947 94.2755 107.007 94.2085 107.068 94.1356C107.196 93.9725 107.292 93.8094 107.373 93.6317C107.602 93.1219 107.642 92.5685 107.651 92.0325C107.665 90.1887 107.251 88.173 105.164 86.9408C104.155 86.3408 102.773 85.9271 102.3 85.1028C101.753 84.1503 102.645 83.0346 102.118 82.0821C101.521 81.0014 99.4165 80.6402 98.2455 79.7751C97.0948 78.9245 96.9644 77.6662 97.2368 76.536C97.4252 75.6854 97.8136 74.8494 98.0223 73.9901C98.0629 73.8474 98.089 73.6988 98.1093 73.5561C98.1295 73.4134 98.1498 73.2706 98.1556 73.1192C98.1614 72.991 98.1759 72.8395 98.1817 72.691C98.1817 72.4667 98.1614 72.257 98.0542 72.1317C97.518 72.1317 97.2281 72.1375 97.0194 72.1317C96.9441 72.1317 96.8716 72.1317 96.7963 72.1259C95.7267 71.8404 95.3673 71.6773 95.1384 71.5142C95.1036 71.4938 95.0775 71.4676 95.0427 71.4472C94.4195 70.9636 94.0196 70.3578 93.35 69.8946C93.2689 69.8393 93.1935 69.7927 93.1065 69.7461C93.0515 69.7198 93.0051 69.6907 92.95 69.6645C92.666 69.5072 92.3529 69.3849 92.0225 69.2771C91.9414 69.2567 91.8602 69.2305 91.7733 69.2013C91.6921 69.1751 91.6109 69.1547 91.524 69.1343C91.2544 69.0586 90.9675 68.9916 90.6834 68.945C90.6168 68.9304 90.5472 68.9188 90.4806 68.9042C90.4052 68.8897 90.3385 68.878 90.2719 68.8634C90.0951 68.8372 89.9125 68.8023 89.7357 68.7761C89.5588 68.7498 89.3763 68.7149 89.1936 68.6887C88.8284 68.6333 88.4632 68.5722 88.1038 68.511C87.556 68.409 87.0198 68.3013 86.5184 68.1498C83.7011 67.3254 82.0229 65.3942 79.3071 64.4329C78.71 64.2232 78.081 64.0601 77.4231 63.9348C77.255 63.9086 77.1042 63.8795 76.9622 63.8533C76.7042 63.8067 76.4463 63.7659 76.1825 63.7309C76.055 63.7106 75.9391 63.696 75.8318 63.6843C75.7767 63.6785 75.7246 63.6698 75.6695 63.6639C75.1739 63.6028 74.6753 63.5562 74.1797 63.5008C72.5624 63.3319 70.8001 63.1804 69.3364 63.6785C67.6379 64.2582 66.6959 65.6127 64.9945 66.1283C64.1888 66.3059 63.5598 66.3525 62.9975 66.3788C62.8961 66.3846 62.7946 66.3846 62.6932 66.3933C62.4845 66.3991 62.2787 66.4137 62.0758 66.4341C59.7397 66.6846 58.0788 68.0129 56.163 68.9188C53.6993 70.0839 50.5284 70.5937 47.543 70.3082C46.0996 70.1713 44.5373 69.8713 43.2707 70.349C43.033 70.4364 42.8156 70.5529 42.6012 70.6811C42.5345 70.7219 42.4649 70.7685 42.3983 70.8093C42.1287 70.9869 41.8707 71.1704 41.5867 71.3277C41.5258 71.354 41.4708 71.3831 41.4099 71.4035C41.4099 71.4093 41.4041 71.4035 41.4041 71.4035C40.7867 71.6686 40.1926 71.8258 39.6013 71.8928C39.581 71.8928 39.5549 71.8987 39.5259 71.8987C38.9578 71.9657 38.4013 71.9453 37.8738 71.8725C37.7984 71.8579 37.7318 71.8462 37.6651 71.8259C37.6593 71.8317 37.6506 71.8259 37.6448 71.8259C37.1173 71.7181 36.7318 71.6074 36.413 71.4792C36.2043 71.3918 35.9869 71.2899 35.7695 71.1588C35.6739 71.0976 35.6072 71.0365 35.5405 70.9899C35.4333 70.9141 35.3319 70.8209 35.242 70.7248C35.1406 70.6228 35.0536 70.515 34.9725 70.3985C34.8913 70.282 34.8101 70.1684 34.729 70.0519C34.5667 69.8218 34.4044 69.5888 34.1928 69.3703C34.1261 69.2887 34.0449 69.2217 33.9638 69.1606C33.8971 69.0994 33.8276 69.0528 33.7551 69.0033C33.7493 68.9974 33.7406 68.9974 33.7348 68.9974C33.7348 68.9916 33.729 68.9916 33.7203 68.9916C33.2653 68.7731 33.016 68.6799 32.8276 68.6246C32.732 68.5984 32.6392 68.578 32.5233 68.5576C32.4218 68.5372 32.3204 68.5226 32.2131 68.5168C31.645 68.4556 31.0422 68.4556 30.4335 68.4906C30.3784 68.4848 30.3262 68.4906 30.2712 68.4964C30.0538 68.5022 29.8306 68.5168 29.6074 68.5372C28.9089 68.578 28.2191 68.6333 27.5553 68.6188C27.4133 68.6188 27.2771 68.6129 27.1351 68.6042C26.9988 68.5984 26.8655 68.5838 26.7351 68.5692C26.5322 68.5489 26.3148 68.5226 26.0713 68.4877C26.025 68.4819 25.9757 68.4731 25.9293 68.4673C25.9032 68.4615 25.8829 68.4615 25.8626 68.4527C25.8018 68.4382 25.7409 68.4323 25.68 68.4178C25.5844 68.3974 25.4916 68.3828 25.396 68.3566C24.8743 68.2401 24.3931 68.1119 23.9323 67.9692C23.3352 67.7857 22.7526 67.573 22.17 67.3487C21.9816 67.2818 21.799 67.206 21.4802 67.0837C20.8165 66.8244 20.1527 66.5739 19.489 66.3409C19.3122 66.2797 19.1296 66.2244 18.9528 66.1719C18.831 66.1312 18.7093 66.0962 18.5875 66.0642C18.1876 65.9477 17.7615 65.8457 17.2746 65.7525C17.1122 65.7263 16.9557 65.6971 16.7992 65.6768C16.4688 65.6301 16.1558 65.601 15.8514 65.5894C15.7297 65.5835 15.6022 65.5835 15.4717 65.5835C15.3297 65.5777 15.1877 65.5835 15.0456 65.5894C14.9703 65.5894 14.8891 65.5894 14.8167 65.5952C14.7761 65.601 14.7355 65.601 14.7007 65.6098C12.982 65.7991 11.524 66.338 10.0284 66.1807C9.94149 66.1603 9.84584 66.1399 9.76468 66.1195C9.76468 66.1195 9.75889 66.1195 9.75019 66.1137C8.30097 65.7612 7.3184 65.0592 6.31554 64.4679C6.13293 64.3514 5.94164 64.2436 5.75324 64.1417C5.30688 63.9028 4.83153 63.6989 4.28952 63.5707C3.15913 63.2998 1.5331 63.2037 1.37659 62.4289C1.17949 61.4705 1.9186 61.2317 0.875157 60.3811C0.399812 59.9937 0.150546 59.618 0.0693897 59.2393C0.00272549 58.913 0.0635928 58.5781 0.211413 58.246C0.359234 57.9052 0.596906 57.5644 0.895446 57.2061C2.19685 55.6215 3.54462 54.0543 4.86342 52.4814C5.18225 52.0998 5.53296 51.6978 6.11554 51.5027C6.47495 51.3745 6.86624 51.3395 7.28072 51.3599C7.37637 51.3658 7.46912 51.3745 7.56477 51.3803C7.65172 51.3861 7.74157 51.4007 7.83432 51.4153C7.92127 51.4298 8.01692 51.4415 8.10388 51.456C8.46908 51.523 8.71255 51.5726 8.96471 51.6192C9.19369 51.6658 9.42557 51.7153 9.65454 51.7561C9.67483 51.7561 9.69512 51.7619 9.70961 51.7619C9.83135 51.7881 9.93279 51.8027 10.0284 51.8172C10.0951 51.8318 10.1647 51.8376 10.2255 51.8435C10.3212 51.8493 10.4023 51.858 10.4893 51.8639C10.9357 51.8493 11.1936 51.8231 11.3704 51.7969C11.3849 51.7969 11.3907 51.791 11.3965 51.791C11.498 51.7706 11.5733 51.7503 11.6458 51.724C11.6806 51.7095 11.7066 51.6891 11.7327 51.6774C11.9356 51.5667 12.066 51.4735 12.1675 51.3803C12.1878 51.357 12.2168 51.3337 12.2342 51.3104C12.2487 51.2958 12.2689 51.2755 12.2805 51.2551C12.3153 51.2085 12.3414 51.1677 12.3617 51.1182C12.5298 50.7628 12.4573 50.3433 12.24 49.9938C11.895 49.4549 11.2864 49.0267 10.8458 48.5228C9.86323 47.4071 9.83714 46.0177 10.411 44.7593C10.5386 44.4651 10.7009 44.1797 10.898 43.9029C11.9269 42.4407 13.6602 41.2202 15.4427 40.0842C17.947 38.4792 22.0193 37.5791 23.6163 35.5517C24.883 33.9525 28.5408 34.0807 30.7262 32.9709C31.6682 32.4932 32.2508 31.8465 32.5754 31.127C33.0566 30.0638 33.0015 28.8404 32.7725 27.7364C32.245 25.2867 31.2074 22.8836 29.6915 20.6173C29.2509 19.9707 28.7785 19.324 28.5872 18.6162C28.3843 17.8472 28.5408 17.0928 28.8712 16.35C29.1379 15.7499 29.3408 15.0625 30.1089 15.2023C31.1552 15.3945 32.2566 15.9888 33.2595 16.3558C33.7058 16.5189 34.2073 16.6762 34.7145 16.7636C35.3724 16.8248 35.7927 16.8248 36.1028 16.7636C36.1637 16.7578 36.2246 16.7374 36.2854 16.717C36.3666 16.6908 36.4478 16.6558 36.5289 16.615C36.8593 16.4461 37.0506 16.2189 37.1666 15.9626C37.2419 15.8053 37.2883 15.6421 37.3347 15.4586C37.4013 15.179 37.4622 14.8877 37.584 14.6226C37.5984 14.6022 37.61 14.5818 37.6303 14.5615C38.2274 13.7109 39.4245 13.3293 40.6969 13.1604C40.894 13.1341 41.0911 13.1138 41.2853 13.0992C41.4476 13.0846 41.6099 13.073 41.7664 13.0642C42.0041 13.0497 42.2417 13.0438 42.4707 13.038C47.2734 12.9506 52.0791 13.2477 56.7456 13.9294C57.3079 14.0051 57.8557 14.0925 58.4122 14.1799C58.7107 14.2265 59.015 14.2818 59.3658 14.343C59.5223 14.3692 59.6846 14.3983 59.8614 14.4246C60.6874 14.5731 61.4729 14.7158 62.2236 14.8586C62.9627 15.0013 63.6931 15.1382 64.4235 15.2809C66.9626 15.7645 69.5219 16.2626 71.7769 17.1394C72.8203 17.5413 73.8348 18.0249 74.8521 18.5142C75.6985 18.922 76.5448 19.3386 77.4057 19.7114C77.6028 19.793 77.7999 19.8746 77.9883 19.9561C78.8201 20.2911 79.6665 20.5824 80.5418 20.7805C80.7447 20.8271 80.9563 20.8679 81.2519 20.9232C81.3997 20.9494 81.5504 20.9698 81.707 20.9902C82.162 21.0455 82.62 21.0776 83.0953 21.0776C83.3243 21.0776 83.5562 21.0718 83.7851 21.0572C84.617 20.9611 85.1126 20.8882 85.4778 20.8271C85.4981 20.8271 85.5184 20.8212 85.5387 20.8125C85.6402 20.7979 85.7358 20.7776 85.8372 20.7572C85.9039 20.7426 85.9735 20.7309 86.0401 20.7164C86.1967 20.6814 86.3503 20.6494 86.5068 20.6144C86.6749 20.5737 86.8517 20.5387 87.0285 20.4979C87.1966 20.4571 87.3734 20.4164 87.5444 20.3814C87.8082 20.3202 88.0719 20.2649 88.3241 20.2183C89.5357 19.9678 90.5936 19.8221 91.5472 19.9474C91.5878 19.9678 91.6283 19.9823 91.6689 20.0027C93.8485 20.9815 94.3181 21.4388 95.0485 21.5669C95.0949 21.5728 95.1441 21.5728 95.1905 21.5728C96.7006 21.6281 97.6136 20.5591 98.9498 20.4222C98.9904 20.428 99.0252 20.428 99.0657 20.4367C100.129 20.5533 100.671 20.8183 101.098 21.1388C101.158 21.1795 101.213 21.2261 101.274 21.2815C101.335 21.3427 101.402 21.398 101.463 21.4592C101.611 21.6019 101.761 21.7446 101.909 21.8961C102.153 22.135 102.405 22.3796 102.674 22.5981C102.811 22.7059 102.953 22.8078 103.1 22.904C103.277 23.0117 103.46 23.1079 103.668 23.1894C103.77 23.2302 103.877 23.271 103.987 23.2972C104.095 23.3322 104.216 23.3584 104.341 23.3788C104.428 23.3933 104.518 23.405 104.61 23.405C104.666 23.4108 104.718 23.4195 104.773 23.4108C105.123 23.437 105.463 23.405 105.802 23.3292C105.897 23.3088 105.99 23.2885 106.08 23.2622C106.268 23.2069 106.46 23.1545 106.648 23.0933C106.836 23.0263 107.028 22.9564 107.216 22.8894C107.596 22.7467 107.976 22.5952 108.361 22.4612C108.625 22.3651 108.897 22.2835 109.167 22.2165C109.294 22.1816 109.416 22.1553 109.547 22.135C110.164 22.068 110.604 22.0476 110.975 22.068C111.036 22.068 111.097 22.0738 111.164 22.0825C111.332 22.0884 111.483 22.1087 111.639 22.1291C111.686 22.135 111.726 22.1495 111.767 22.1553H111.773C111.955 22.1903 112.112 22.2311 112.259 22.2631C112.387 22.2893 112.517 22.3243 112.639 22.3593C112.822 22.4146 112.978 22.4612 113.135 22.5165C113.352 22.5981 113.561 22.6855 113.772 22.7758C114.219 22.9797 114.645 23.204 115.114 23.504C115.454 23.7137 115.778 24.0079 116.129 24.2876C116.503 24.5818 116.894 24.8731 117.349 25.0711C117.465 25.1178 117.587 25.1673 117.729 25.1993C117.795 25.2255 117.865 25.2401 117.938 25.2547C117.972 25.2605 118.013 25.2692 118.059 25.275C118.074 25.275 118.085 25.2809 118.1 25.2809C118.222 25.3013 118.349 25.3071 118.485 25.3071C118.587 25.3071 118.694 25.3013 118.804 25.2925C119.665 25.2051 120.077 24.9401 120.239 24.5905C120.549 23.9176 119.935 22.936 119.682 22.3185C119.288 21.366 119.332 20.3377 119.764 19.3794C120.117 18.5842 120.737 17.8355 121.587 17.2093C123.476 15.8344 126.442 15.112 129.227 15.3509C130.752 15.4878 131.72 15.1819 132.273 14.6022C133.221 14.9634 133.554 15.0858 133.899 15.1877C134.137 15.2547 134.366 15.3101 134.604 15.3509C134.943 15.4062 135.186 15.4266 135.424 15.4266C135.693 15.4266 135.966 15.4004 136.23 15.3246C137.122 15.1003 137.653 14.5149 138.241 14.0255C138.444 13.8565 138.661 13.6905 138.899 13.5361C140.038 12.8021 141.554 12.2894 143.119 12.4059C143.261 12.4263 143.397 12.4467 143.525 12.4671C143.531 12.4671 143.539 12.4671 143.545 12.4729C144.026 12.5487 144.377 12.6215 144.676 12.6914C144.702 12.6972 144.731 12.706 144.757 12.7118C144.899 12.7526 145.041 12.7933 145.183 12.8341C145.25 12.8487 145.31 12.8691 145.38 12.8895C145.583 12.9448 145.78 13.006 145.983 13.0526C146.064 13.073 146.145 13.0992 146.232 13.1138C146.461 13.1808 146.699 13.2303 146.936 13.2769C147.023 13.2914 147.113 13.2973 147.194 13.3118C147.2 13.306 147.209 13.3118 147.215 13.3118C147.478 13.338 147.716 13.3526 147.919 13.3526C148.325 13.3526 148.623 13.2914 148.852 13.1633C149.102 13.0147 149.226 12.7963 149.42 12.6186C149.467 12.572 149.522 12.5312 149.583 12.4962C149.623 12.47 149.664 12.4409 149.71 12.4205C149.757 12.4001 149.797 12.3739 149.852 12.3535C149.893 12.3389 149.933 12.3273 149.98 12.3127C150.02 12.2981 150.061 12.2778 150.102 12.2719C150.426 12.1496 150.806 12.0739 151.191 12.0389C151.565 12.0127 151.951 12.0243 152.316 12.0651C152.533 12.0913 152.751 12.1263 152.965 12.1671C153.183 12.2078 153.391 12.2486 153.609 12.2894C153.71 12.3098 153.812 12.3302 153.913 12.3448C154.014 12.371 154.116 12.3855 154.223 12.4059C154.542 12.4671 154.861 12.5137 155.191 12.5341C155.232 12.5341 155.267 12.5399 155.307 12.5399C156.385 12.6011 157.304 12.4787 158.22 12.4846C158.539 12.4846 158.864 12.505 159.174 12.5516C159.208 12.5574 159.249 12.5661 159.281 12.572C159.336 12.5778 159.382 12.5923 159.429 12.5982C159.51 12.6186 159.591 12.6331 159.666 12.6535C159.742 12.6739 159.808 12.7001 159.884 12.7205C160 12.7555 160.107 12.7963 160.203 12.8429C160.345 12.904 160.472 12.9798 160.577 13.0671C160.623 13.1021 160.663 13.1341 160.704 13.1749V13.1808C161.429 13.9294 160.739 14.9314 161.09 15.782C161.536 16.8714 163.44 17.3403 164.692 18.1152C164.739 18.1501 164.794 18.1763 164.84 18.2113C165.179 18.4443 165.458 18.7152 165.539 19.0211C165.579 19.1696 165.565 19.3211 165.504 19.4638C165.408 19.6736 165.214 19.8571 164.915 19.959C164.571 20.0755 164.156 20.061 163.785 20.1425C163.724 20.1571 163.669 20.1688 163.608 20.1891C163.214 20.3173 162.889 20.5445 162.776 20.7892C162.701 20.9582 162.73 21.1358 162.892 21.2931C163.055 21.4504 163.191 21.6136 163.298 21.7825C163.313 21.8087 163.324 21.8291 163.339 21.8582C163.365 21.9048 163.385 21.9544 163.405 22.001C163.42 22.0214 163.426 22.0476 163.44 22.0767C163.608 22.4641 163.649 22.8719 163.562 23.2681C163.547 23.3351 163.527 23.405 163.501 23.472C163.481 23.5331 163.455 23.6001 163.42 23.67C163.374 23.7458 163.324 23.8128 163.284 23.8739C163.278 23.8798 163.269 23.8885 163.269 23.8943C162.924 24.3837 162.672 24.643 162.55 24.9226C162.545 24.9634 162.545 25.0041 162.545 25.0391C162.545 25.4469 162.762 25.7673 163.101 26.0178C163.608 26.4052 164.394 26.6383 165.107 26.8014C165.756 26.95 166.04 27.0111 166.333 27.0723C166.875 27.1888 167.084 27.2296 167.295 27.2704C167.402 27.2908 167.512 27.3053 167.614 27.3257C168.292 27.4335 168.921 27.5238 169.518 27.5762C169.686 27.5908 169.857 27.6024 170.025 27.6112C170.927 27.6665 171.753 27.6374 172.573 27.5034C172.68 27.483 172.776 27.4626 172.872 27.4422C172.912 27.4364 172.953 27.4277 172.988 27.4218C173.591 27.2995 173.991 27.2179 174.356 27.2034C175.556 27.6316 175.541 27.952 175.556 28.2375V28.2433C175.631 29.5308 176.509 30.7687 177.958 31.6397C178.622 32.0271 179.414 32.3737 179.692 32.9185C180.167 33.836 178.941 34.8322 179.176 35.7964C179.298 36.3265 179.854 36.7693 180.387 37.1771C180.469 37.2383 180.544 37.2994 180.631 37.3548C180.671 37.381 180.706 37.4101 180.747 37.4305C181.283 37.8179 181.906 38.1937 182.57 38.4646C182.944 38.6131 183.329 38.7297 183.715 38.7967C184.242 38.8782 184.663 38.884 185.068 38.817C185.236 38.7704 185.393 38.7151 185.529 38.6685C185.874 38.5607 186.132 38.45 186.349 38.3481C186.384 38.3335 186.41 38.3219 186.445 38.3131C186.486 38.2927 186.52 38.2723 186.561 38.2578C186.567 38.2519 186.576 38.2519 186.581 38.2519C186.628 38.2316 186.668 38.2112 186.718 38.1908C186.778 38.1704 186.839 38.1442 186.9 38.1238C186.915 38.118 186.935 38.1092 186.947 38.1034C187.291 37.9956 187.636 37.9461 187.981 37.9461C188.21 37.9461 188.448 37.9723 188.68 38.0073C188.694 38.0073 188.706 38.0131 188.72 38.0131C189.471 38.1413 190.216 38.45 190.981 38.7559C191.144 38.8229 191.312 38.884 191.477 38.9452C192.08 39.1753 192.688 39.3938 193.326 39.5045C193.929 39.6064 194.526 39.621 195.12 39.5715C195.343 39.5511 195.561 39.5249 195.784 39.4899C196.042 39.455 196.291 39.4025 196.549 39.353C197.613 39.1229 198.656 38.7821 199.685 38.517C199.923 38.4762 200.14 38.4355 200.343 38.4005C200.349 38.4005 200.349 38.3947 200.358 38.4005C200.853 38.3131 201.265 38.2519 201.624 38.2112C202.363 38.1296 202.865 38.1238 203.331 38.1704C204.042 38.2782 204.253 38.3277 204.442 38.3889C204.76 38.4908 205.044 38.6277 205.282 38.7967C205.369 38.8928 205.45 38.9947 205.52 39.0909C205.885 39.5598 206.042 39.988 206.239 40.358C206.265 40.4133 206.294 40.4657 206.334 40.5153C206.375 40.591 206.421 40.6638 206.482 40.7337C206.578 40.8415 206.685 40.9435 206.827 41.0396C207.233 41.3105 207.83 41.427 208.317 41.6455C208.763 41.8348 209.128 42.1086 209.523 42.3533C209.76 42.5018 210.009 42.6533 210.288 42.7611C210.43 42.7873 210.566 42.8077 210.702 42.8223C212.349 43.0203 213.485 42.4086 214.699 42.3329C214.989 42.3125 215.267 42.3183 215.54 42.3533C215.783 42.4086 216.001 42.4611 216.189 42.5106C216.508 42.5921 216.757 42.6591 216.974 42.7291C217.041 42.7553 217.111 42.7757 217.172 42.796C217.395 42.8776 217.572 42.9446 217.754 43.0203C217.876 43.0669 217.998 43.1223 218.119 43.1689C218.18 43.1951 218.247 43.2242 218.308 43.2446C218.763 43.4281 219.215 43.6 219.702 43.7136C219.992 43.7544 220.25 43.7893 220.482 43.8214C221.313 43.9379 221.768 43.9787 222.108 44.0049C222.264 44.0107 222.392 44.0195 222.522 44.0253C222.67 44.0311 222.821 44.0398 222.963 44.0457C223.56 44.0719 224.148 44.1127 224.71 44.203C225.455 44.3515 225.8 44.4535 226.119 44.5904C226.2 44.6253 226.281 44.6661 226.357 44.7069C226.377 44.7127 226.397 44.7273 226.418 44.7419C226.458 44.7622 226.499 44.7826 226.539 44.8176C226.615 44.8642 226.696 44.9195 226.783 44.9807C226.919 45.0681 227.052 45.1438 227.183 45.2458C227.426 45.4439 227.658 45.6594 227.887 45.8721C227.983 45.9594 228.075 46.0556 228.171 46.143C228.252 46.2245 228.333 46.3002 228.415 46.376C228.997 46.912 229.606 47.3955 230.452 47.6023C230.6 47.6169 230.736 47.6285 230.867 47.6373C231.429 47.678 231.814 47.6635 232.139 47.6373C232.316 47.6169 232.47 47.5907 232.635 47.5703C232.71 47.5557 232.783 47.5499 232.858 47.544C232.919 47.5382 232.974 47.5237 233.035 47.5237C233.441 47.4625 233.84 47.4217 234.214 47.4421C234.33 47.4771 234.432 47.5091 234.533 47.5499C234.539 47.5499 234.539 47.5499 234.548 47.5499C235.368 47.8557 235.667 48.182 235.809 48.5024C235.829 48.5577 235.849 48.6102 235.864 48.6655C235.878 48.6917 235.884 48.7209 235.89 48.7471C236.084 49.5219 235.988 50.3404 235.629 51.1007Z" fill="#F9E047"/>
<path d="M129.511 0C112.999 0 99.6137 13.4517 99.6137 30.0464C99.6137 43.434 108.326 54.7768 120.364 58.6626L128.32 72.2337C128.723 73.0551 130.297 73.0551 130.702 72.2337L138.662 58.6626C150.699 54.7768 159.409 43.4369 159.409 30.0493C159.409 13.4517 146.024 0 129.511 0ZM129.511 50.7687C118.091 50.7687 108.837 41.4649 108.837 29.9911C108.837 18.5172 118.094 9.21345 129.511 9.21345C140.931 9.21345 150.186 18.5172 150.186 29.9911C150.186 41.4649 140.931 50.7687 129.511 50.7687Z" fill="#44526E"/>
<path d="M150.185 30.0728C150.231 18.5976 141.013 9.25714 129.595 9.2102C118.176 9.16327 108.882 18.4277 108.836 29.9028C108.789 41.378 118.007 50.7185 129.426 50.7654C140.844 50.8123 150.138 41.5479 150.185 30.0728Z" fill="#DCE6EF"/>
<path d="M59.6471 5.55493C54.4125 5.55493 50.1721 9.81939 50.1721 15.0772C50.1721 19.3212 52.9343 22.9157 56.7486 24.145L59.2703 28.4444C59.3978 28.7036 59.8964 28.7036 60.0239 28.4444L62.5455 24.142C66.3599 22.9099 69.1221 19.3154 69.1221 15.0742C69.1221 9.81648 64.8788 5.55493 59.6471 5.55493ZM59.6471 21.6428C56.0269 21.6428 53.0937 18.695 53.0937 15.0568C53.0937 11.4186 56.0269 8.47073 59.6471 8.47073C63.2672 8.47073 66.2005 11.4186 66.2005 15.0568C66.2005 18.695 63.2643 21.6428 59.6471 21.6428Z" fill="#44526E"/>
<path d="M59.6471 21.6457C63.2664 21.6457 66.2005 18.697 66.2005 15.0597C66.2005 11.4223 63.2664 8.47363 59.6471 8.47363C56.0278 8.47363 53.0937 11.4223 53.0937 15.0597C53.0937 18.697 56.0278 21.6457 59.6471 21.6457Z" fill="#DCE6EF"/>
<path d="M172.376 48C164.988 48 159 54.018 159 61.443C159 67.4319 162.898 72.509 168.284 74.2451L171.843 80.3155C172.023 80.6826 172.727 80.6826 172.91 80.3155L176.472 74.2422C181.857 72.5032 185.756 67.4289 185.756 61.4401C185.753 54.018 179.764 48 172.376 48ZM172.376 70.7147C167.266 70.7147 163.124 66.5522 163.124 61.4167C163.124 56.2813 167.266 52.1188 172.376 52.1188C177.486 52.1188 181.628 56.2813 181.628 61.4167C181.628 66.5522 177.486 70.7147 172.376 70.7147Z" fill="#44526E"/>
<path d="M181.512 62.9041C182.331 57.8353 178.905 53.0592 173.862 52.2366C168.818 51.414 164.066 54.8562 163.247 59.9251C162.429 64.9939 165.854 69.7699 170.897 70.5926C175.941 71.4152 180.693 67.973 181.512 62.9041Z" fill="#DCE6EF"/>
<path d="M78.8812 31.2407C74.377 31.2407 70.7278 34.908 70.7278 39.4347C70.7278 43.0845 73.1046 46.178 76.3856 47.2383L78.5565 50.9376C78.6667 51.1619 79.0956 51.1619 79.2058 50.9376L81.3767 47.2383C84.6577 46.178 87.0345 43.0845 87.0345 39.4347C87.0345 34.908 83.3824 31.2407 78.8812 31.2407ZM78.8812 45.0857C75.7682 45.0857 73.2437 42.5485 73.2437 39.4201C73.2437 36.2917 75.7682 33.7545 78.8812 33.7545C81.9941 33.7545 84.5186 36.2917 84.5186 39.4201C84.5186 42.5485 81.9941 45.0857 78.8812 45.0857Z" fill="#44526E"/>
<path d="M78.8812 45.0827C81.9946 45.0827 84.5186 42.5462 84.5186 39.4172C84.5186 36.2882 81.9946 33.7516 78.8812 33.7516C75.7677 33.7516 73.2437 36.2882 73.2437 39.4172C73.2437 42.5462 75.7677 45.0827 78.8812 45.0827Z" fill="#DCE6EF"/>
<path d="M213.03 48.8636C208.526 48.8636 204.876 52.531 204.876 57.0576C204.876 60.7074 207.253 63.8009 210.534 64.8612L212.705 68.5606C212.815 68.7849 213.244 68.7849 213.354 68.5606L215.525 64.8612C218.806 63.8009 221.183 60.7074 221.183 57.0576C221.183 52.5339 217.534 48.8636 213.03 48.8636ZM213.03 62.7086C209.917 62.7086 207.392 60.1715 207.392 57.043C207.392 53.9146 209.917 51.3775 213.03 51.3775C216.143 51.3775 218.667 53.9146 218.667 57.043C218.67 60.1715 216.146 62.7086 213.03 62.7086Z" fill="#44526E"/>
<path d="M218.6 57.9497C219.099 54.8611 217.012 51.9509 213.938 51.4496C210.865 50.9484 207.969 53.0458 207.47 56.1345C206.972 59.2231 209.059 62.1333 212.132 62.6346C215.205 63.1358 218.101 61.0384 218.6 57.9497Z" fill="#DCE6EF"/>
<path d="M36.0161 22.4205C28.6105 22.4205 22.605 28.456 22.605 35.8984C22.605 41.9048 26.5121 46.9907 31.9119 48.7326L35.4798 54.8205C35.6596 55.1905 36.3668 55.1905 36.5494 54.8205L40.1203 48.7326C45.5201 46.9907 49.4272 41.9019 49.4272 35.8984C49.4272 28.456 43.4245 22.4205 36.0161 22.4205ZM36.0161 45.1935C30.8945 45.1935 26.741 41.0193 26.741 35.8722C26.741 30.7252 30.8945 26.551 36.0161 26.551C41.1376 26.551 45.2911 30.7252 45.2911 35.8722C45.2911 41.0222 41.1376 45.1935 36.0161 45.1935Z" fill="#44526E"/>
<path d="M45.172 37.3674C45.9927 32.2859 42.5589 27.4979 37.5025 26.6732C32.4461 25.8485 27.6819 29.2993 26.8613 34.3809C26.0407 39.4625 29.4744 44.2505 34.5308 45.0752C39.5872 45.8999 44.3514 42.449 45.172 37.3674Z" fill="#DCE6EF"/>
</svg>
