<svg width="205" height="120" viewBox="0 0 205 120" fill="none" xmlns="http://www.w3.org/2000/svg">
<g clip-path="url(#clip0)">
<path d="M198.517 118.255L122.971 118.232L6.41143 118.198C6.41143 118.198 -7.18235 95.4569 5.22273 64.7343C13.3116 44.7068 29.661 29.929 57.7322 38.9671C63.5136 40.8298 72.5592 39.6407 84.1887 31.9529C84.7799 31.5608 85.3679 31.156 85.9495 30.7322C86.2674 30.4982 86.5852 30.2642 86.8998 30.0207C90.8601 26.9817 94.5628 23.1394 97.6172 18.4084C99.3685 15.6982 101.434 13.298 103.751 11.2077C105.198 9.90475 106.742 8.71885 108.37 7.64681C109.409 6.96373 110.483 6.32809 111.586 5.73988C114.523 4.1745 117.673 2.93801 120.972 2.02091C121.293 1.93237 121.614 1.84698 121.938 1.7616C122.688 1.56869 123.448 1.3916 124.21 1.23032C124.735 1.11963 125.262 1.01527 125.79 0.920403C126.438 0.803394 127.09 0.695873 127.748 0.604164C129.537 0.34801 131.349 0.174079 133.18 0.0823694C133.526 0.0665574 133.876 0.0507455 134.222 0.0380959C134.445 0.0317711 134.667 0.0254464 134.887 0.0191216C135.567 0.00330964 136.25 0.000147253 136.933 0.00647203C153.985 0.180403 171.828 7.22621 182.695 19.9106C188.165 26.2986 191.868 34.1128 192.809 43.2015C193.155 46.5568 193.126 50.0861 192.672 53.7797C192.659 53.8936 192.647 54.0043 192.631 54.115C192.608 54.2952 192.583 54.4755 192.558 54.6526C192.465 55.3293 192.354 56.0155 192.23 56.7049C191.957 58.2355 191.769 59.8389 191.185 61.3758C179.097 93.1452 213.894 90.3243 198.517 118.255Z" fill="#DCE6EF"/>
<path d="M159.68 70.692H135.372V44.577C148.797 44.577 159.68 55.405 159.68 68.763V70.692Z" fill="#F2B348"/>
<path d="M131.434 107.512H171.513L172.082 78.8859C172.091 78.3894 172.012 77.896 171.844 77.4249L163.574 54.0548C162.931 52.2427 161.11 51.0157 159.057 51.0157H131.434V107.512Z" fill="#F9E047"/>
<path d="M172.079 107.512C169.816 107.512 167.982 105.687 167.982 103.435V101.886C167.982 99.6343 169.816 97.8096 172.079 97.8096V107.512Z" fill="#2C3346"/>
<path d="M175.085 67.3083H176.354V62.8873C176.354 59.2537 173.385 56.3 169.733 56.3H158.943V57.565H169.733C172.683 57.565 175.082 59.9526 175.082 62.8873V67.3083H175.085Z" fill="#2C3346"/>
<path d="M175.584 76.4224C173.655 76.4224 172.091 74.8665 172.091 72.9469V67.9851C172.091 66.0655 173.655 64.5096 175.584 64.5096C177.514 64.5096 179.077 66.0655 179.077 67.9851V72.9469C179.077 74.8665 177.514 76.4224 175.584 76.4224Z" fill="#2C3346"/>
<path d="M177.936 72.95V67.9882C177.936 66.6948 176.884 65.6481 175.584 65.6481C174.285 65.6481 173.232 66.6948 173.232 67.9882V72.95C173.232 74.2434 174.285 75.2902 175.584 75.2902C176.884 75.287 177.936 74.2403 177.936 72.95Z" fill="#88B2F0"/>
<path d="M163.211 77.5071H142.336C141.042 77.5071 139.993 76.4635 139.993 75.1764V58.0931C139.993 56.806 141.042 55.7625 142.336 55.7625H157.948C158.978 55.7625 159.887 56.4329 160.189 57.4101L165.452 74.4933C165.913 75.9891 164.784 77.5071 163.211 77.5071Z" fill="#2C3346"/>
<path d="M162.569 65.1421L165.449 74.4869C165.91 75.9859 164.784 77.5039 163.208 77.5039H142.333C141.039 77.5039 139.99 76.4603 139.99 75.1732V65.1421H162.569Z" fill="#44526E"/>
<path d="M165.91 107.012C165.913 113.406 160.703 118.593 154.274 118.59C147.955 118.586 142.66 113.318 142.657 107.031C142.654 100.637 147.863 95.4503 154.293 95.4567C160.611 95.4567 165.903 100.722 165.91 107.012Z" fill="#2C3346"/>
<path d="M49.293 118.229C55.4402 118.229 60.4235 113.131 60.4235 106.841C60.4235 100.552 55.4402 95.4536 49.293 95.4536C43.1457 95.4536 38.1624 100.552 38.1624 106.841C38.1624 113.131 43.1457 118.229 49.293 118.229Z" fill="#2C3346"/>
<path d="M123.015 91.6557H26.072C19.2481 91.6557 13.7177 86.1531 13.7177 79.3635V30.2579C13.7177 23.4683 19.2481 17.9657 26.072 17.9657H123.015C129.839 17.9657 135.369 23.4683 135.369 30.2579V79.3635C135.372 86.1531 129.839 91.6557 123.015 91.6557Z" fill="#B0B8BF"/>
<path d="M16.9946 88.6481C16.8548 88.6481 16.7404 88.5343 16.7404 88.3951V21.2228C16.7404 21.0837 16.8548 20.9698 16.9946 20.9698H74.4813V88.6481H16.9946Z" fill="#44526E"/>
<path d="M16.9946 38.9163C16.8548 38.9163 16.7404 38.8847 16.7404 38.8499V21.0172C16.7404 20.9793 16.8548 20.9508 16.9946 20.9508H74.4813V38.9195H16.9946V38.9163Z" fill="#DCE6EF"/>
<path d="M132.092 17.9624H77.5039V91.6555H132.092C133.9 91.6555 135.369 90.1945 135.369 88.3951V21.2228C135.372 19.4234 133.904 17.9624 132.092 17.9624Z" fill="#44526E"/>
<path d="M47.208 68.3456H22.7188V88.6481H47.208V68.3456Z" fill="#F6CB84"/>
<path d="M74.4813 64.3737H43.5815V88.6481H74.4813V64.3737Z" fill="#F9DFB4"/>
<path d="M74.4781 41.2692H48.1138V64.3736H74.4781V41.2692Z" fill="#F6CB84"/>
<path d="M126.133 107.512H21.6286V91.6555H126.133C130.535 91.6555 134.101 95.2037 134.101 99.5836C134.101 103.964 130.535 107.512 126.133 107.512Z" fill="#44526E"/>
<path d="M75.8703 93.7933H22.7188V105.614H75.8703V93.7933Z" fill="#B0B8BF"/>
<path d="M74.119 98.2744H58.7612V102.967H74.119V98.2744Z" fill="#F9E047"/>
<path d="M74.119 98.2744H64.851V102.967H74.119V98.2744Z" fill="#F2B348"/>
<path d="M41.506 98.2744H26.1483V102.967H41.506V98.2744Z" fill="#F9E047"/>
<path d="M33.1025 98.2744H26.1483V102.967H33.1025V98.2744Z" fill="#F2B348"/>
<path d="M96.8092 106.841C96.8092 113.131 95.255 118.229 86.1331 118.229C79.9862 118.229 74.5449 113.131 74.5449 106.841C74.5449 100.551 79.5285 95.4536 85.6755 95.4536C91.8224 95.4536 96.8092 100.551 96.8092 106.841Z" fill="#2C3346"/>
<path d="M100.245 106.528C100.245 113.188 94.9371 118.229 88.7902 118.229C82.6433 118.229 77.9807 113.188 77.9807 106.528C77.9807 99.8683 82.9643 94.4701 89.1112 94.4701C95.2613 94.4701 100.245 99.8683 100.245 106.528Z" fill="#2C3346"/>
<path d="M156.2 118.59C162.347 118.59 167.33 113.313 167.33 106.803C167.33 100.294 162.347 95.0171 156.2 95.0171C150.052 95.0171 145.069 100.294 145.069 106.803C145.069 113.313 150.052 118.59 156.2 118.59Z" fill="#2C3346"/>
<path d="M161.673 106.528C161.673 109.804 159.222 112.458 156.2 112.458C153.177 112.458 150.727 109.804 150.727 106.528C150.727 103.252 153.177 100.599 156.2 100.599C159.222 100.599 161.673 103.255 161.673 106.528Z" fill="#44526E"/>
<path d="M94.5875 106.528C94.5875 109.804 92.137 112.458 89.1144 112.458C86.0918 112.458 83.6413 109.804 83.6413 106.528C83.6413 103.252 86.0918 100.599 89.1144 100.599C92.137 100.599 94.5875 103.255 94.5875 106.528Z" fill="#44526E"/>
<path d="M41.1151 34.255H51.4574C51.4574 35.716 50.2655 36.9019 48.7971 36.9019H43.7785C42.3069 36.9019 41.1151 35.716 41.1151 34.255Z" fill="#F9E047"/>
<path d="M161.323 85.5743H166.777V83.1741H158.908C158.911 84.4991 159.988 85.5743 161.323 85.5743Z" fill="#F2B348"/>
<path d="M106.042 113.375C106.351 115.111 106.573 115.677 106.573 115.677C104.666 116.977 103.28 115.864 103.868 115.304C104.164 114.77 103.862 113.444 103.573 112.613C104.593 112.407 106.042 113.375 106.042 113.375Z" fill="#FAB986"/>
<path d="M119.274 113.201C119.665 113.786 120.059 114.175 120.059 114.175C118.609 116.202 117.961 115.326 117.961 115.326C117.529 114.526 117.43 114.358 117.43 114.358C118.431 113.337 119.274 113.201 119.274 113.201Z" fill="#FAB986"/>
<path d="M106.452 115.275C106.452 115.275 106.799 115.756 106.888 116.566C106.977 117.375 106.748 118.137 106.748 118.137C106.748 118.137 102.8 118.359 101.253 118.074C99.7047 117.79 99.568 117.521 99.6061 117.084C99.6443 116.648 101.742 116.781 102.371 116.256C102.997 115.734 103.875 114.608 104.247 114.792C104.618 114.975 104.545 115.674 105.047 115.718C105.55 115.762 106.23 115.01 106.452 115.275Z" fill="#2C251F"/>
<path d="M119.607 113.536C119.607 113.536 120.195 113.609 120.857 114.09C121.518 114.573 121.928 115.253 121.928 115.253C121.928 115.253 119.423 118.299 118.164 119.241C116.909 120.184 116.617 120.101 116.318 119.779C116.022 119.456 117.535 118.005 117.573 117.192C117.611 116.379 117.37 114.978 117.754 114.83C118.142 114.681 118.609 115.209 118.981 114.871C119.36 114.529 119.261 113.52 119.607 113.536Z" fill="#2C251F"/>
<path d="M112.974 90.1091C112.974 90.1091 111.223 102 111.223 103.477C111.223 104.95 119.576 112.764 119.576 112.764C119.576 112.764 118.695 115.06 116.69 115.329C116.2 115.396 107.46 107.448 106.923 106.209C106.306 104.786 104.618 94.7009 104.618 94.7009C104.618 94.7009 100.83 100.371 100.995 101.538C101.256 103.372 106.923 113.21 106.923 113.21C106.923 113.21 106.15 114.915 103.401 113.738C103.401 113.738 95.6841 104.273 94.7115 103.024C92.4104 100.067 102.848 86.7949 102.848 86.7949L112.974 90.1091Z" fill="#B0B8BF"/>
<path opacity="0.32" d="M99.212 101.241C99.212 99.2611 104.25 92.345 104.25 92.345L104.615 94.6978C104.615 94.6978 100.827 100.368 100.992 101.535C101.253 103.369 106.919 113.207 106.919 113.207C106.919 113.207 106.745 113.596 106.262 113.871C103.49 111.082 99.212 103.028 99.212 101.241Z" fill="#44526E"/>
<path opacity="0.32" d="M108.124 90.7322C108.188 90.0965 108.312 89.3913 108.486 88.6355L112.974 90.106C112.974 90.106 112.739 91.6935 112.443 93.7775C111.528 94.2614 110.641 94.5808 110.139 94.4827C109.268 94.312 108.121 92.9964 108.124 90.7322C108.121 90.7322 108.121 90.7322 108.124 90.7322Z" fill="#44526E"/>
<path d="M108.582 89.0782C109.163 83.37 115.371 71.8526 117.522 68.0009C118.536 68.0704 119.433 68.4056 119.938 69.2152C121.667 71.9791 119.566 83.7148 117.653 87.1554C116.922 88.471 116.064 89.4671 115.285 90.1945C114.157 91.2507 111.534 92.7497 110.524 92.5568C109.685 92.3987 108.579 91.178 108.582 89.0782C108.579 89.0782 108.579 89.0782 108.582 89.0782Z" fill="#F9E047"/>
<path d="M101.291 87.769C101.316 87.7279 110.018 70.0185 111.913 69.2152C111.951 69.1994 112.053 69.1552 112.107 69.133C113.429 68.5954 115.164 68.0926 116.579 68.0041C117.144 67.9661 117.491 68.0009 117.519 68.0009C115.368 71.8527 109.16 83.3701 108.579 89.0782C106.373 88.003 103.687 87.127 101.291 87.769Z" fill="white"/>
<g opacity="0.5">
<path opacity="0.5" d="M112.281 78.2312C110.921 81.188 109.685 84.2397 109.027 86.7475C104.78 87.4243 103.684 87.0321 101.872 86.5925C102.756 84.8248 103.388 83.5978 103.63 83.1202L112.281 78.2312Z" fill="#DCB5C3"/>
</g>
<path d="M112.018 86.485C111.376 86.64 110.292 86.7191 109.03 86.7475C109.685 84.2397 110.924 81.1881 112.285 78.2312L120.574 73.5477C120.574 73.5699 120.57 73.5888 120.57 73.611C120.348 77.1623 118.848 80.5113 116.353 83.057C114.659 84.7774 112.99 86.2447 112.018 86.485Z" fill="#F2B348"/>
<path d="M91.1538 86.1077H110.084V67.2724H91.1538V86.1077Z" fill="#F6CB84"/>
<path d="M91.1541 86.1077H97.7968V67.2724H91.1541V86.1077Z" fill="#F9DFB4"/>
<path d="M100.394 82.7914C100.261 82.8009 97.9915 83.6674 96.2276 83.0918C95.3853 82.8167 94.6161 82.6586 94.9562 83.4239C95.2963 84.1923 96.8473 83.8666 97.0635 84.0816C97.2796 84.2967 94.3841 85.8715 93.5927 86.0044C92.8013 86.1372 94.0981 86.8139 94.4064 86.8139C94.7147 86.8139 94.4668 86.9373 94.7782 87.244C95.0865 87.5508 95.8334 87.478 96.199 87.5508C97.3845 87.7879 100.541 85.6186 101.014 85.1474C101.485 84.6762 100.394 82.7914 100.394 82.7914Z" fill="#FAB986"/>
<path d="M117.402 67.9914C117.402 67.9914 116.146 69.3955 115.428 70.8723C114.703 72.3618 110.676 79.6796 110.231 79.6796C109.786 79.6796 99.8509 82.8989 99.8509 82.8989C99.8509 82.8989 100.547 84.3283 100.547 85.9253C100.547 85.9253 111.229 84.2049 112.033 84.2049C112.838 84.2049 113.762 82.7914 114.567 81.9944C115.371 81.1943 119.36 77.5829 120.513 74.7494C121.667 71.9159 121.047 67.3779 117.402 67.9914Z" fill="#F9E047"/>
<path d="M113.658 64.0985L112.37 69.7718L117.402 67.9914L116.42 64.1175L113.658 64.0985Z" fill="#FAB986"/>
<path opacity="0.68" d="M113.658 64.0985L116.42 64.1175L116.648 65.0188C115.86 65.8157 114.91 66.4577 114.138 66.6379C113.829 66.7106 113.464 66.7138 113.076 66.6664L113.658 64.0985Z" fill="#FC7F53"/>
<path d="M115.711 58.6433C115.711 58.6433 114.849 58.6497 113.797 59.3359C112.745 60.0221 111.786 61.9322 111.786 61.9322C111.786 61.9322 111.306 63.1466 111.242 63.8581C111.178 64.5696 113.712 65.7239 114.97 65.5595C116.226 65.3982 117.875 63.9846 118.292 62.6912C118.708 61.3978 116.27 58.5706 115.711 58.6433Z" fill="#FAB986"/>
<path opacity="0.68" d="M113.426 59.63C113.546 59.5193 113.67 59.4182 113.797 59.3359C114.849 58.6497 115.711 58.6434 115.711 58.6434C115.978 58.6086 116.664 59.2252 117.268 60.0222L116.836 59.9937C116.836 59.9937 115.387 60.389 113.956 59.8735C113.766 59.8071 113.588 59.7217 113.426 59.63Z" fill="#FC7F53"/>
<path d="M116.836 59.9937C116.836 59.9937 116.35 61.0499 116.032 62.5236C115.714 63.9973 115.876 65.4899 115.876 65.4899C116.928 66.0275 118.619 65.9769 120.059 64.1175C121.499 62.258 119.868 60.7369 119.503 60.4554C119.137 60.174 119.706 60.0728 119.452 59.3359C119.197 58.5991 118.746 59.064 118.253 58.5517C117.764 58.0393 119.048 56.9705 118.136 56.1356C117.224 55.3007 116.032 56.9135 116.032 56.9135C116.032 56.9135 115.53 55.3134 114.608 56.2241C113.686 57.1349 113.651 57.7769 114.401 58.7699C115.158 59.7692 116.836 59.9937 116.836 59.9937Z" fill="#2C251F"/>
<path d="M116.025 61.8468C116.025 61.8468 117.166 61.2966 117.166 62.2579C117.166 63.2193 116.776 63.7316 116.213 63.4913C115.647 63.2541 116.025 61.8468 116.025 61.8468Z" fill="#FAB986"/>
</g>
<defs>
<clipPath id="clip0">
<rect width="205" height="120" fill="white"/>
</clipPath>
</defs>
</svg>
