<svg width="118" height="374" viewBox="0 0 118 374" fill="none" xmlns="http://www.w3.org/2000/svg">
<g clip-path="url(#clip0)">
<path d="M33.9637 33.7499C34.1178 35.4605 33.1186 36.9355 31.7272 37.0439C30.3358 37.1522 29.0844 35.8516 28.9304 34.1411C28.7763 32.4305 29.7755 30.9555 31.1669 30.8471C32.5583 30.7387 33.8097 32.0394 33.9637 33.7499Z" fill="#275266"/>
<path d="M34.1599 38.1042L32.4463 38.2832C31.914 38.3398 31.433 37.9863 31.3677 37.4963L30.4245 30.0649C30.3591 29.5701 30.7467 29.1224 31.2836 29.0659L32.9972 28.8868C33.5295 28.8303 34.0104 29.1837 34.0758 29.6738L35.019 37.1051C35.0844 37.5999 34.6968 38.0476 34.1599 38.1042Z" fill="#72AED9"/>
<path d="M68.4972 354.688L69.9446 362.436L54.4896 364.613L53.8686 362.115L54.8771 358.604L68.4972 354.688Z" fill="#F9E047"/>
<path d="M91.7684 367.323L90.928 371.343H68.4365L65.2847 369.806L59.1541 371.343H52.323C52.323 371.343 52.5051 363.459 54.004 361.692C54.004 361.692 63.2863 363.949 68.9594 357.408C68.9594 357.408 81.7997 366.051 84.6806 366.475C87.5662 366.899 91.7684 367.323 91.7684 367.323Z" fill="#14181D"/>
<path d="M38.6143 230.024C39.6135 220.401 27.0393 199.719 27.4222 190.045C27.8938 178.136 31.7085 163.227 31.7085 163.227L80.2729 165.484C80.2729 165.484 99.8181 219.643 67.9648 356.975L54.4475 360.085C54.4475 360.085 59.6023 281.521 60.5408 275.192C61.4793 268.863 63.5244 268.547 63.5244 253.675C63.5244 238.803 61.2692 198.126 61.2692 198.126" fill="#353C50"/>
<path d="M69.1415 65.4069C68.9174 64.8603 61.1291 55.2094 61.1291 55.2094L38.3248 49.2812L38.4088 55.9492L8.56331 71.7262C8.56331 71.7262 -3.33848 120.532 0.919831 141.299C0.919831 141.299 22.7156 154.173 34.6828 149.47L33.9918 135.126C33.9918 135.126 21.0067 131.017 20.8993 130.013C20.8993 130.013 22.9538 122.648 25.7133 100.966C25.7133 100.966 27.8051 115.81 29.486 140.291C29.486 140.291 30.3264 150.681 29.3833 151.534C28.4401 152.387 29.2992 155.95 29.7241 156.671C30.1443 157.392 31.7179 159.814 31.7179 159.814C31.7179 159.814 60.5782 170.803 71.378 166.232H74.0675C74.0675 166.232 76.7523 168.103 76.1313 167.208C75.5103 166.312 74.9173 162.01 75.3515 161.265C75.7811 160.521 77.6068 143.9 78.0503 137.426C78.4939 130.951 69.1415 65.4069 69.1415 65.4069Z" fill="#F9E047"/>
<path d="M49.4095 66.8025C49.5262 66.2606 54.7417 56.671 54.7417 56.671L59.1401 53.6504L59.9665 56.1479C66.3353 57.6606 75.9025 60.4409 80.5577 65.0825L81.4915 66.4963C84.3444 69.3425 86.7024 71.7081 88.4627 75.346C95.4151 89.7281 92.9591 122.38 97.4135 132.695C97.4135 132.695 95.1116 153.185 84.7366 148.755L81.1367 136.376C81.1367 136.376 81.1694 137.365 81.1367 136.376C81.1367 136.376 79.9274 116.801 78.3445 97.1972C78.3445 97.1972 79.9274 116.805 80.6184 139.806C80.6184 139.806 80.6931 150.88 81.5709 151.705C82.4487 152.53 82.0939 157.511 81.8324 158.222C81.5756 158.934 79.834 163.75 79.834 163.75C79.834 163.75 71.1493 170.323 57.0529 166.7L54.9705 166.242C54.9705 166.242 52.5285 167.703 52.93 166.817C53.3269 165.931 53.2942 161.695 52.8507 160.974C52.4071 160.253 48.9052 143.967 47.7566 137.615C46.6126 131.253 49.4095 66.8025 49.4095 66.8025Z" fill="#F9E047"/>
<path d="M60.9797 45.9883C60.9797 45.9883 61.7361 61.8312 59.2942 69.7762L55.3487 69.9034C55.3487 69.9034 47.8079 61.0914 46.7387 58.5797C45.6648 56.068 60.9797 45.9883 60.9797 45.9883Z" fill="#FAB986"/>
<path d="M46.7387 58.5797C45.6648 56.0633 60.9797 45.9883 60.9797 45.9883C60.9797 45.9883 61.2132 50.8891 61.0031 56.6052C60.186 54.9417 59.2008 53.0238 59.1447 53.1793C59.0607 53.4197 53.7518 62.4297 53.2475 63.0187C52.9581 63.3533 53.2522 65.766 53.5604 67.7735C51.2585 64.9979 47.4764 60.3044 46.7387 58.5797Z" fill="#F49963"/>
<path d="M63.4824 47.3873C63.4824 47.3873 56.1985 60.7374 53.467 62.1181C51.1978 63.268 47.6772 63.3763 44.927 63.235C42.4477 63.1077 40.2251 61.661 39.0812 59.4368C38.194 57.7074 37.0081 55.3936 35.6353 52.6699C34.6221 50.6624 34.0151 48.4712 33.8517 46.2234C33.4268 40.4225 32.507 28.9385 31.7832 26.6436C30.8074 23.5429 30.1584 21.1914 30.4712 20.0652C30.7887 18.9342 31.6525 16.6629 31.7132 15.612C31.7739 14.5659 33.2167 12.1437 33.2167 12.1437C33.2167 12.1437 34.3746 16.5309 35.075 16.7665C35.075 16.7665 33.5949 10.2494 36.9334 7.63871C40.2765 5.02807 49.8157 0 49.8157 0C49.8157 0 60.3307 2.50226 60.6669 3.21853C61.0031 3.93481 61.7128 5.52287 61.7128 5.52287C61.7128 5.52287 58.2249 4.12802 56.1238 5.68309C56.1238 5.68309 65.1587 6.91301 66.9143 8.88748L65.5556 11.5405C65.5556 11.5405 68.3618 10.5792 68.8287 11.1164C69.2956 11.6536 72.536 22.591 72.2232 22.6051C71.9103 22.624 69.2256 22.6193 69.2582 23.0528C69.2909 23.4863 72.3959 25.0037 72.3026 25.9038C72.2045 26.8038 69.6271 31.3607 69.6271 31.3607C69.6271 31.3607 64.1968 36.5725 63.4824 47.3873Z" fill="#2C251F"/>
<path d="M50.446 55.1859C50.446 55.1859 54.1067 52.5281 55.0312 49.2201C55.0312 49.2201 54.8304 48.829 54.7137 48.6876C54.5969 48.5462 50.7869 46.1759 50.5441 46.1476C50.3013 46.1194 50.2359 46.2466 50.0818 46.355C49.9277 46.4634 46.4212 48.009 43.7644 47.288C41.1076 46.5717 39.5248 46.1052 39.366 46.1288C39.2073 46.1523 38.717 46.2325 38.6423 46.388C38.5676 46.5435 38.0306 48.9091 38.1987 49.2059C38.3621 49.5028 42.8539 54.0974 43.2928 54.0314C43.7317 53.9654 44.8943 52.1464 44.8897 52.0569C44.885 51.9674 44.2266 50.695 44.2266 50.695C44.2266 50.695 48.3262 51.0155 49.755 50.4311C49.755 50.4311 49.1853 50.8081 47.6538 51.0626C47.6538 51.0626 47.369 52.1889 47.4811 52.3585C47.5838 52.5234 50.0398 55.5063 50.446 55.1859Z" fill="#FAB986"/>
<path d="M31.377 17.1907C31.8112 19.005 33.2587 19.9757 35.4345 20.0558C36.6579 20.1029 37.9139 19.9144 39.1045 19.971C39.0859 19.9474 39.0625 19.9192 39.0485 19.8862C39.0158 19.8108 38.9785 19.7354 38.9458 19.6553C38.8944 19.7825 38.7357 19.8815 38.5956 19.7825C36.1723 18.119 34.9209 14.2596 35.4485 11.5736C35.7754 9.91485 36.9614 8.84043 38.2174 7.70004C39.0999 6.89895 39.917 6.05072 40.664 5.15067C41.0376 4.92447 41.4205 4.69357 41.8033 4.46738C41.4391 4.99516 41.0516 5.5088 40.636 6.00831C39.5014 7.35133 37.9372 8.43046 36.924 9.84416C34.7248 12.9119 36.7373 16.055 38.4929 18.7693C37.489 16.9928 36.0789 15.1126 36.84 13.124C37.6011 11.1353 40.3372 9.65096 42.2562 8.79802C44.9457 7.60109 47.9573 7.23352 50.6608 6.06957C53.1915 4.97631 55.5728 3.51548 57.9541 2.13477C58.1082 2.18189 58.2576 2.22901 58.4023 2.27142C56.4179 3.44009 54.4335 4.61817 52.3884 5.69259C50.2919 6.79056 48.0694 7.39845 45.7815 8.04876C43.022 8.83101 40.2158 9.96197 38.2594 12.0071C35.7287 14.6602 38.9084 17.1342 39.7209 19.7165C39.7629 19.8438 39.7209 19.938 39.6462 20.0087C40.4306 20.1029 41.1823 20.3338 41.878 20.8522C42.0088 20.9464 41.8734 21.1585 41.7193 21.1114C39.6929 20.4705 37.7738 20.7768 35.6914 20.7438C34.3326 20.725 32.8805 20.4988 31.8766 19.5752C31.4937 19.2217 31.2136 18.8118 31.0035 18.3641C31.1389 17.9777 31.2649 17.5724 31.377 17.1907Z" fill="#4A3D35"/>
<path d="M52.7293 10.0847C55.0405 9.13756 57.6039 8.77471 60.1159 8.67575C62.3291 8.59093 64.6124 8.95849 66.8489 8.99619L66.6995 9.28836C65.4762 9.24595 64.2435 9.114 63.0295 9.08101C60.6342 9.01033 58.2202 9.09515 55.881 9.59937C53.5417 10.0989 50.6888 11.0272 49.4842 13.1195C48.0367 15.6265 49.7877 18.1523 50.8102 20.4519C50.9129 20.6828 50.5254 20.8006 50.39 20.6121C49.1153 18.8544 48.0647 16.5595 48.4803 14.3965C48.8865 12.2854 50.7075 10.9141 52.7293 10.0847Z" fill="#4A3D35"/>
<path d="M53.6071 22.0864C52.4351 18.4956 52.1783 14.0472 57.0296 13.1377C61.1805 12.3601 65.4061 13.3544 69.5757 13.0764C69.6131 13.1895 69.6504 13.3073 69.6925 13.4251C66.7789 13.6655 63.8513 13.2932 60.905 13.2696C58.8926 13.2555 56.0817 13.2414 54.5269 14.6362C52.5238 16.4363 53.5884 19.8009 53.9106 22.011C53.9339 22.1901 53.6678 22.2655 53.6071 22.0864Z" fill="#4A3D35"/>
<path d="M111.286 146.691C111.286 146.691 97.1427 154.899 89.2097 152.195C78.0643 148.392 98.6929 136.371 98.6929 136.371L115.544 135.112L111.286 146.691Z" fill="#FABE8F"/>
<path d="M100.565 135.961C100.565 135.961 87.244 148.736 89.5459 152.977L90.3256 153.788C90.3256 153.788 88.5513 154.169 88.1731 153.227C87.7996 152.285 80.8612 143.463 84.4238 139.622C94.8361 128.402 100.565 135.961 100.565 135.961Z" fill="#F2B348"/>
<path d="M55.7689 46.6144C55.7689 46.6144 57.2397 41.1622 57.3658 40.8983C57.4872 40.6344 61.9276 34.2256 61.993 33.8251C62.0537 33.4245 61.6007 25.6586 61.6007 25.6586C61.6007 25.6586 57.9961 23.5333 58.0428 23.3637C58.0895 23.194 57.1603 19.6645 56.8055 19.3535C56.4506 19.0425 49.1013 16.7051 47.7379 17.1952C46.3745 17.6853 39.8936 18.9105 39.0532 18.9341C38.2127 18.9623 36.4524 19.8106 36.1163 19.9567C35.7801 20.1027 33.9731 27.6331 33.9731 27.6331L33.4081 28.2504C33.4081 28.2504 34.6081 41.8973 38.7964 45.5211C38.7964 45.5211 41.0516 44.8331 42.0275 45.0216C43.008 45.2101 47.9667 44.5645 49.12 44.6164C50.2733 44.6729 55.7689 46.6144 55.7689 46.6144Z" fill="#FAB986"/>
<path d="M58.0662 31.6099C58.0662 31.6099 57.1697 30.658 56.3526 30.347C55.5355 30.0313 49.8624 29.593 49.2741 29.5883C48.6857 29.5836 46.8087 29.6071 46.5939 29.1877C46.3792 28.7683 46.3185 26.7138 46.6173 26.4593C46.9161 26.2048 48.1628 25.6582 48.1628 25.6582C48.1628 25.6582 47.6679 26.6289 48.1114 26.5064C48.555 26.3839 50.3433 25.7807 50.8056 25.9409C51.2678 26.1059 52.874 27.3594 53.2896 27.4583C53.7051 27.562 56.3666 28.5186 56.7868 29.0228C57.2024 29.5223 58.0662 31.6099 58.0662 31.6099Z" fill="#2C251F"/>
<path d="M40.1458 29.5178C40.1458 29.5178 39.8096 27.9204 39.4968 27.5858C39.1839 27.2512 38.1053 26.6904 38.1053 26.6904C38.1053 26.6904 38.3668 27.303 38.0073 27.2465C37.6431 27.1899 36.4851 27.0721 35.8548 27.1522C35.2198 27.2276 33.777 28.3822 33.5622 28.5235C33.3521 28.6649 33.791 31.4216 33.791 31.4216C33.791 31.4216 34.2019 30.5121 34.5194 30.1022C34.8416 29.6875 40.2999 30.1493 40.1458 29.5178Z" fill="#2C251F"/>
<path d="M56.0304 33.4341C56.0304 33.4341 56.1564 33.9948 54.5409 34.6734C52.9254 35.352 50.5814 35.3614 49.2974 34.9656C49.2974 34.9656 48.5036 34.8666 48.3682 34.9891C48.2328 35.1117 48.4803 33.2314 48.4803 33.2314C48.4803 33.2314 51.8281 30.3192 56.0304 33.4341Z" fill="white"/>
<path d="M39.4734 35.2295C39.4734 35.2295 37.9279 35.8563 36.6626 35.3945C36.6626 35.3945 35.668 34.009 36.6019 32.831C37.531 31.6529 39.0672 32.0723 39.4734 35.2295Z" fill="white"/>
<path d="M54.8164 32.7319C54.8164 32.7319 54.9985 34.1786 54.5409 34.6734C54.5409 34.6734 52.7153 35.5028 51.5199 35.0268C51.5199 35.0268 50.7355 34.1409 50.955 32.7272C50.955 32.7272 52.8413 31.7141 54.8164 32.7319Z" fill="black"/>
<path d="M39.7722 33.684C39.7722 33.684 39.917 34.9705 39.4734 35.2344C39.0298 35.4983 38.194 35.4464 38.194 35.4464C38.194 35.4464 37.3676 35.0789 37.3256 33.8913C37.2836 32.7038 38.1567 32.3457 38.1567 32.3457C38.1567 32.3457 39.4734 33.241 39.7722 33.684Z" fill="black"/>
<path d="M46.2858 42.8212C46.3838 42.7364 46.776 41.6337 46.8227 41.5253C46.8694 41.4122 43.5263 37.4774 43.2041 37.3643C42.8819 37.2512 41.8267 37.1334 41.6773 37.3784C41.5278 37.6235 40.015 41.8457 39.7302 42.0861C39.4454 42.3264 42.1629 44.5553 42.7792 44.3904C43.4049 44.2302 44.9971 43.938 46.2858 42.8212Z" fill="#F49963"/>
<path d="M42.7839 44.3947C42.1629 44.5596 39.4501 42.3307 39.7349 42.0904C39.8376 42.0055 40.0991 41.3976 40.4026 40.6437C40.3746 41.2421 40.3372 41.9396 40.3279 42.0951C40.3045 42.3825 41.3971 43.391 42.4384 43.8763C43.4796 44.3617 45.8235 42.5474 45.9589 42.1516C46.0943 41.7558 46.0523 40.5117 46.0523 40.5117C46.5146 41.0725 46.8414 41.4919 46.8274 41.5296C46.7807 41.6427 46.3885 42.7407 46.2904 42.8255C44.9971 43.9376 43.4049 44.2298 42.7839 44.3947Z" fill="#93462D"/>
<path d="M53.6351 49.319C53.6351 49.319 53.99 49.107 53.9526 48.909C53.9199 48.7111 53.8592 48.5085 53.8592 48.5085C53.8592 48.5085 52.0055 47.7545 51.3332 47.6461C50.6608 47.5377 48.0787 47.6556 46.9254 48.0043C45.7722 48.353 42.5644 47.9948 41.0329 47.2786C39.5061 46.5623 39.2493 46.5293 39.2493 46.5293L39.8423 47.5613C39.8423 47.5613 39.8843 48.8713 40.0057 49.0598C40.1271 49.253 40.1271 49.253 40.1271 49.253C40.1271 49.253 41.215 50.007 44.4508 50.007C48.0881 50.007 50.4927 49.8704 53.6351 49.319Z" fill="#682323"/>
<path d="M53.0981 48.6127L53.1542 48.4147C53.1542 48.4147 51.6227 48.2121 51.2725 48.0943C50.9223 47.9765 50.3526 48.0377 47.5558 48.2969C43.6757 48.6598 40.594 47.5995 40.4679 47.7126C40.3419 47.8257 40.7714 48.7069 40.8415 48.7964C40.9115 48.886 41.3177 49.1404 41.4345 49.131C41.5512 49.1216 43.2601 49.6164 45.8002 49.5787C47.9013 49.5457 52.6826 49.0085 53.0981 48.6127Z" fill="white"/>
<path d="M41.6446 50.1064C41.6446 50.1064 39.0111 49.8802 39.3847 48.2969C39.3847 48.2969 38.3855 50.309 41.6446 50.1064Z" fill="#F49963"/>
<path d="M63.4404 38.1418C63.4031 38.0381 64.3556 29.4287 67.8061 29.7397C71.2566 30.0507 70.1407 36.2992 69.4497 37.7271C68.5392 39.6214 64.9672 42.2792 63.4404 38.1418Z" fill="#FAB986"/>
<path d="M64.9672 34.3998C65.4715 33.7636 66.1812 33.1746 67.0357 33.1463C67.9836 33.118 68.8193 33.8343 69.1182 34.6637C69.417 35.4931 69.2816 36.4073 69.0295 37.2508C68.8614 37.8162 68.6372 38.3817 68.259 38.853C67.8575 39.3525 67.2738 39.7389 66.6108 39.8661C65.9478 39.9933 65.2194 39.8426 64.7244 39.4137C64.4816 39.2064 64.3042 38.9425 64.1595 38.6692C63.8513 38.0801 63.5665 37.2885 63.7673 36.6287C64.0101 35.8465 64.4536 35.0501 64.9672 34.3998Z" fill="#F49963"/>
<path d="M55.3487 69.9025L54.0273 68.715L49.0079 78.512L41.878 64.2383L48.8632 83.2102L55.3487 69.9025Z" fill="#F2B348"/>
<path d="M59.2942 69.7755L68.0116 80.3877C68.0116 80.3877 65.3081 58.4753 65.126 58.4376C64.9486 58.3999 66.4007 76.5235 66.4007 76.5235L59.8545 67.6832L59.2942 69.7755Z" fill="#F2B348"/>
<path d="M42.5878 136.46C42.5878 136.46 65.14 136.13 66.2046 135.824C67.2691 135.523 72.7788 130.395 74.2683 130.037C75.7531 129.679 79.5165 129.085 80.2915 128.624C81.0666 128.162 83.8074 127.714 84.1903 128.148C84.5732 128.577 84.5639 129.571 84.4471 130.037C84.3304 130.504 81.7483 132.898 79.974 132.766C78.1997 132.634 77.8495 133.671 77.8495 133.671L101.527 140.607C101.527 140.607 101.84 141.955 101.149 142.096C100.458 142.238 85.5304 140.258 84.914 140.428C84.2977 140.598 70.8458 142.483 70.3835 142.695C69.9213 142.907 41.9948 149.726 41.9948 149.726L42.5878 136.46Z" fill="url(#paint0_linear)"/>
<path d="M112.364 148.288C112.364 148.288 116.842 144.216 117.37 142.393C117.902 140.569 117.907 139.523 117.991 138.693C118.075 137.864 117.552 134.325 117.388 133.694C117.225 133.062 114.629 130.032 114.325 129.693C114.022 129.353 106.504 126.545 106.504 126.545C106.504 126.545 105.697 128.953 108.624 130.433C111.552 131.912 111.552 131.912 111.552 131.912L112.047 132.76L105.248 131.436C105.248 131.436 104.791 133.75 107.009 134.457C109.227 135.164 110.361 136.573 110.361 136.573L103.89 134.235C103.89 134.235 103.124 136.719 105.449 137.784C107.77 138.844 109.516 139.89 109.516 139.89L112.696 144.447L102.181 140.927C102.181 140.927 101.56 142.859 104.609 144.113C107.667 145.366 112.238 149.042 112.364 148.288Z" fill="url(#paint1_linear)"/>
<path d="M111.799 132.713L112.051 132.76L111.557 131.912C111.557 131.912 111.557 131.912 108.629 130.433C108.615 130.428 108.606 130.418 108.592 130.414C108.013 130.056 107.49 129.674 107.079 129.222C106.052 127.911 106.509 126.545 106.509 126.545C106.509 126.545 106.602 126.578 106.757 126.639C106.817 129.608 109.768 130.056 111.617 131.724C113.307 133.246 114.517 135.781 115.53 137.779C115.595 137.906 115.423 138.001 115.343 137.888C114.461 136.648 113.737 135.286 112.883 134.023C112.546 133.533 112.187 133.104 111.799 132.713Z" fill="#EB6D5E"/>
<path d="M113.583 141.205C112.71 139.876 111.888 138.519 110.837 137.318C110.59 137.04 110.329 136.743 110.062 136.469L110.361 136.578C110.361 136.578 109.231 135.169 107.009 134.462C104.791 133.755 105.248 131.441 105.248 131.441L105.407 131.474C105.575 134.462 108.732 134.175 110.366 135.918C111.748 137.393 113.018 139.203 113.914 141.012C114.031 141.234 113.723 141.417 113.583 141.205Z" fill="#EB6D5E"/>
<path d="M80.7351 160.305C80.7351 160.305 65.0233 165.695 31.7085 159.814V166.054C31.7085 166.054 66.0878 172.005 80.2729 165.955L80.7351 160.305Z" fill="#14181D"/>
<path d="M57.6506 170.074C57.758 170.323 70.0613 169.301 70.5329 168.834C71.0045 168.368 69.8419 160.668 69.8419 160.668C68.4785 160.616 57.4498 161.733 57.4498 161.733C57.4498 161.733 57.5432 169.829 57.6506 170.074ZM58.5564 162.751L68.4178 161.902L68.6699 164.895L66.5641 165.074L66.6435 166.224L68.7726 166.101L68.9127 167.783L59.028 168.33L58.5564 162.751Z" fill="#ACAFB8"/>
<path d="M40.7901 172.538L38.2547 171.256C38.2547 171.256 32.7871 187.471 29.4486 188.498L29.9202 189.61C29.9156 189.606 36.3917 186.364 40.7901 172.538Z" fill="#44526E"/>
<path d="M69.2442 169.79C69.2442 169.79 67.9462 186.472 65.0233 188.291H60.1953L59.7284 170.426L60.9377 187.593H64.4863C64.4863 187.593 67.9088 182.089 69.2442 169.79Z" fill="#44526E"/>
<path d="M44.1286 150.847C44.208 150.532 43.5449 137.931 44.1379 135.174C44.1379 135.174 40.4866 134.293 39.7862 134.825C39.0859 135.358 38.7123 135.556 38.2688 135.551C37.8252 135.546 36.4011 134.618 35.075 134.161C33.749 133.704 29.8268 131.677 29.486 132.149C29.1451 132.62 26.1709 147.299 27.4129 152.435C27.4129 152.435 29.9389 152.982 31.321 152.332C32.7077 151.686 35.8361 150.819 37.1248 151.38C38.4135 151.936 44.1286 150.847 44.1286 150.847Z" fill="#F2B348"/>
<path d="M56.0304 33.4336C56.0304 33.4336 56.2125 33.2593 56.1238 33.0991C56.0351 32.9389 53.7191 31.8126 53.4063 31.7938C53.0935 31.7749 49.3861 32.1001 48.8912 32.4488C48.3962 32.7975 48.485 33.231 48.485 33.231C48.485 33.231 49.1106 32.887 49.3488 32.8022C49.5822 32.7221 53.2896 32.6891 53.5884 32.6655C53.8872 32.6467 56.0304 33.4336 56.0304 33.4336Z" fill="black"/>
<path d="M39.7722 33.6836C39.7909 33.613 38.9364 32.3877 38.731 32.2652C38.5256 32.138 37.2789 31.7516 37.1341 31.8835C36.9894 32.0155 36.5552 32.9202 36.5552 32.9202C36.5552 32.9202 37.1248 32.7836 37.2789 32.6988C37.4376 32.6139 38.5442 32.826 38.7077 32.9155C38.8758 33.0004 39.7722 33.6836 39.7722 33.6836Z" fill="black"/>
<path d="M63.4404 38.1414C63.5431 38.4195 63.6552 38.6645 63.7766 38.8813C63.8466 38.721 63.9167 38.5561 63.9867 38.3676C64.5377 39.0038 65.5976 39.2158 66.3773 38.7823C67.4092 38.2027 68.0583 36.7937 68.0302 35.7099C68.0022 34.725 67.0077 34.414 66.1112 34.7815C65.7423 34.9323 65.4062 35.1679 65.1073 35.4507C66.0785 33.1982 67.4886 31.0729 69.9633 31.7373C69.9259 31.6007 69.8746 31.464 69.8232 31.3368C67.0777 30.5121 64.6264 33.905 63.6319 36.6994C63.4871 37.5382 63.4311 38.1132 63.4404 38.1414ZM64.1548 37.9199C64.2949 37.5382 64.4443 37.1236 64.6077 36.69C64.9019 36.313 65.2801 35.9737 65.6443 35.6769C65.8871 35.479 66.1766 35.2763 66.4987 35.1962C67.3485 34.9842 67.4559 35.8512 67.3159 36.4026C67.1524 37.0529 66.7322 37.9199 66.0645 38.2781C65.3641 38.6598 64.7385 38.2498 64.1548 37.9199Z" fill="#A55034"/>
<path d="M77.3967 167.406C77.3967 167.406 76.785 160.955 76.4628 160.813C76.1406 160.672 74.6652 160.912 74.6185 161.285C74.5718 161.657 75.5477 167.877 75.5477 167.877L77.3967 167.406Z" fill="#353C50"/>
<path d="M40.5333 168.339C40.5333 168.339 41.1076 161.082 40.5333 160.761C39.959 160.441 38.7403 159.564 38.4835 159.885C38.2267 160.205 37.9092 167.415 37.9092 167.415L40.5333 168.339Z" fill="#353C50"/>
<path d="M42.1348 352.39L41.2757 367.545L27.8378 366.569L27.2214 364.072L28.3981 357.842L42.1348 352.39Z" fill="#F9E047"/>
<path d="M62.5719 370.352L61.6614 373.528L37.3442 374L33.9357 371.94L33.3661 374H25.0502C25.0502 374 25.2464 365.857 26.8666 364.028C26.8666 364.028 36.6672 369.052 42.8025 362.299C42.8025 362.299 52.2623 369.037 55.3767 369.476C58.4957 369.914 62.5719 370.352 62.5719 370.352Z" fill="#14181D"/>
<path d="M27.693 198.192C27.693 198.192 34.5427 239.349 34.5427 254.222C34.5427 269.094 32.9599 269.41 32.026 275.738C31.0875 282.067 27.8004 360.16 27.8004 360.16L41.9901 361.008C67.3579 227.333 63.5198 190.949 63.5198 190.949C63.5198 190.949 46.8834 186.119 36.7466 187.749C30.6673 188.725 27.3195 192.292 27.693 198.192Z" fill="#353C50"/>
<path d="M27.4269 190.044C27.4269 190.044 36.1256 257.515 36.5085 261.313C36.8913 265.112 34.5474 274.885 33.0813 278.999C31.6151 283.113 28.2487 361.319 28.2487 361.319C28.2487 361.319 29.0844 283.174 30.0183 276.845C30.9568 270.517 33.3708 270.87 33.3708 255.998C33.3708 241.126 27.693 199.601 27.693 199.601L27.4269 190.044Z" fill="#2C3346"/>
<path d="M61.3626 189.813C61.0918 188.225 57.5432 187.589 57.3891 187.589C57.235 187.589 69.9726 187.589 70.4442 187.589L64.3462 189.031C64.3462 189.031 65.1073 255.56 65.4902 259.358C65.8731 263.156 63.0622 272.929 61.5961 277.043C60.1299 281.157 54.8958 359.363 54.8958 359.363C54.8958 359.363 57.5992 281.218 58.5331 274.89C59.4716 268.561 61.8856 268.915 61.8856 254.042C61.8856 239.17 61.3626 189.813 61.3626 189.813Z" fill="#2C3346"/>
<path d="M66.5454 33.5191C66.1579 35.7716 67.3299 37.8168 69.1649 38.0854C70.9998 38.354 72.7928 36.7424 73.1804 34.4852C73.5679 32.2327 72.3959 30.1875 70.5609 29.9189C68.7259 29.6503 66.933 31.2619 66.5454 33.5191Z" fill="#275266"/>
<path d="M57.716 46.7508C67.61 46.5906 68.6139 37.5947 68.6232 37.5005L67.1524 37.3779C67.1197 37.6984 66.2466 45.2523 57.6926 45.3889L57.716 46.7508Z" fill="#447999"/>
<path d="M52.8553 48.1885H56.488C57.6086 48.1885 58.5237 47.2649 58.5237 46.134V46.0067C58.5237 44.8758 57.6086 43.9521 56.488 43.9521H52.8553C51.7347 43.9521 50.8196 44.8758 50.8196 46.0067V46.134C50.8149 47.2649 51.7347 48.1885 52.8553 48.1885Z" fill="#275266"/>
<path d="M34.3233 17.9306C36.5598 12.2098 39.4734 10.9327 48.1908 10.8715C58.5424 10.7961 66.9657 19.3254 66.9657 29.7208C66.9657 31.3372 66.7602 32.9394 66.3587 34.485L67.7921 34.8008C68.2217 33.1514 68.4365 31.4409 68.4365 29.7161C68.4365 18.5714 59.3502 9.50488 48.1861 9.50488C39.7069 9.50488 35.3272 12.6292 34.5894 17.087" fill="#447999"/>
<path d="M65.831 39.2731L68.0816 39.6642C68.782 39.7867 69.459 39.3626 69.5944 38.7123L71.6302 28.9483C71.7656 28.298 71.3033 27.6666 70.5983 27.544L68.3477 27.1529C67.6474 27.0304 66.9703 27.4545 66.8349 28.1048L64.7991 37.8688C64.6591 38.5238 65.1213 39.1552 65.831 39.2731Z" fill="#72AED9"/>
</g>
<defs>
<linearGradient id="paint0_linear" x1="74.4777" y1="136.658" x2="90.835" y2="119.854" gradientUnits="userSpaceOnUse">
<stop stop-color="#FAB986"/>
<stop offset="0.3237" stop-color="#FA9F74"/>
<stop offset="1" stop-color="#FA5E47"/>
</linearGradient>
<linearGradient id="paint1_linear" x1="117.94" y1="139.914" x2="103.32" y2="136.182" gradientUnits="userSpaceOnUse">
<stop stop-color="#FAB986"/>
<stop offset="0.3237" stop-color="#FA9F74"/>
<stop offset="1" stop-color="#FA5E47"/>
</linearGradient>
<clipPath id="clip0">
<rect width="118" height="374" fill="white"/>
</clipPath>
</defs>
</svg>
