<svg width="119" height="352" viewBox="0 0 119 352" fill="none" xmlns="http://www.w3.org/2000/svg">
<g clip-path="url(#clip0)">
<path d="M49.5949 47.666C49.5949 47.8603 50.453 55.6645 50.453 55.6645L47.5579 75.2259L35.1851 77.4557L28.0274 61.9078L28.2537 46.5894L49.5949 47.666Z" fill="#FF9960"/>
<path d="M44.493 69.5688C44.5213 69.1802 47.4636 59.6241 47.1335 59.9585C46.8034 60.293 39.2151 61.8347 38.6115 61.2773C38.008 60.7199 28.7064 51.4695 28.5712 52.1926C28.436 52.9157 28.6089 62.0163 28.6089 62.0163L41.9499 72.0439L44.493 69.5688Z" fill="#FFB983"/>
<path d="M94.8266 335.607L95.4301 338.872L94.3802 341.726C94.3802 341.726 80.794 338.57 80.794 338.375C80.794 338.181 80.0301 334.83 80.0301 334.83L94.8266 335.607Z" fill="#F9E047"/>
<path d="M52.3423 335.802V340.332C52.3423 340.332 38.9919 339.382 38.8661 339.188C38.7404 338.994 39.432 334.021 39.432 334.021L45.2191 334.385L52.3423 335.802Z" fill="#F9E047"/>
<path d="M17.1666 148.706C17.1666 148.706 17.9085 178.244 25.8143 237.463C33.7202 296.683 39.3439 312.463 38.8473 335.92L54.2535 336.602C54.2535 336.602 54.3887 284.954 53.9392 278.09C53.4896 271.222 48.1803 254.343 47.3064 248.622C46.4325 242.901 45.4297 200.156 43.8077 183.079L46.6148 186.539C46.6148 186.539 51.8802 228.309 54.659 240.037C57.4379 251.766 59.7169 255.486 60.5531 262.354C61.3892 269.222 61.6721 275.229 64.495 283.811C67.3179 292.392 80.6463 336.602 80.6463 336.602H96.1154C96.1154 336.602 77.245 243.997 72.9636 165.098L17.1666 148.706Z" fill="#2E3950"/>
<path d="M23.7491 30.2834C23.3561 29.8948 22.872 29.5221 22.3219 29.5444C21.6618 29.5699 21.14 30.1815 20.9891 30.8313C20.835 31.4811 20.9671 32.1628 21.1054 32.8158C21.3569 33.988 21.6335 35.1698 22.1553 36.2464C22.6771 37.3231 23.4693 38.3042 24.5287 38.8425C24.9971 39.0782 25.632 39.1961 25.9873 38.8107C26.2104 38.5686 26.2419 38.2086 26.2545 37.8805C26.3016 36.4248 26.1381 34.9659 25.7766 33.558C25.4497 32.2934 24.6701 31.1944 23.7491 30.2834Z" fill="#FFB983"/>
<path d="M23.3656 32.6119C23.1738 32.459 22.9852 32.3029 22.7621 32.2074C22.5389 32.1118 22.2748 32.0832 22.0579 32.1915C21.8567 32.2902 21.7216 32.4941 21.6587 32.7139C21.5958 32.9305 21.5958 33.1598 21.6052 33.386C21.6964 35.1984 22.5294 36.96 23.8686 38.1672C24.1515 38.422 24.4658 38.6578 24.8305 38.7629C25.1951 38.868 25.6226 38.8202 25.9024 38.5622C26.1193 38.3615 26.2262 38.0621 26.245 37.7659C26.2639 37.4696 26.1979 37.1734 26.1193 36.8867C25.8773 36.0012 25.3994 35.2717 25.0537 34.4435C24.7236 33.6504 24.0132 33.128 23.3656 32.6119Z" fill="#FF9960"/>
<path d="M20.9231 31.36C20.9294 31.1816 20.9482 31.0064 20.9891 30.8312C20.9985 30.7962 21.0111 30.7611 21.0205 30.7261C22.3156 31.1561 23.5259 32.443 24.2961 33.4528C25.0379 34.4243 25.4466 35.4723 25.8144 36.5585C25.9244 36.6286 25.9904 36.7592 25.9275 36.8993C26.0344 37.2179 26.1413 37.5428 26.2513 37.8677C26.2513 37.8709 26.2513 37.8741 26.2513 37.8772C26.2419 38.1799 26.2073 38.4984 26.0313 38.7373C25.8835 38.2213 25.7358 37.7148 25.5723 37.2211C25.2485 37.3357 24.8147 37.2338 24.5035 37.1319C23.9754 36.9599 23.6076 36.4693 23.419 35.9565C23.265 35.5392 23.1581 34.8734 23.5227 34.5294C23.7459 34.3192 24.0131 34.316 24.2615 34.402C24.1703 34.2618 24.076 34.1217 23.9723 33.9815C23.111 32.8221 21.9667 32.2105 20.9231 31.36ZM23.9691 34.8097C23.6705 34.9594 23.6799 34.9563 23.7051 35.2493C23.7365 35.6061 23.8685 35.9501 24.0823 36.2304C24.2615 36.4629 24.4438 36.619 24.7424 36.67C24.9688 36.7082 25.1542 36.6477 25.3491 36.584C25.1196 35.9724 24.8525 35.3831 24.5192 34.8129C24.3086 34.6887 24.2395 34.6728 23.9691 34.8097Z" fill="#BB4F2F"/>
<path d="M57.5448 29.4263C58.2363 29.42 58.843 29.9615 59.1071 30.6081C59.3711 31.2547 59.3523 31.981 59.2674 32.6754C59.1794 33.4017 59.0285 34.1184 58.8147 34.816C58.5632 35.6283 58.2237 36.4214 57.7145 37.0999C57.2053 37.7784 56.5168 38.3326 55.7121 38.5843C55.3852 38.6862 55.0174 38.734 54.7062 38.5875C54.3384 38.4155 54.1246 38.0014 54.0775 37.5904C54.0303 37.1827 54.1246 36.7718 54.2221 36.3704C54.5899 34.8638 55.1683 33.3857 55.4826 31.8727C55.7058 30.8151 56.2559 29.4391 57.5448 29.4263Z" fill="#FFB983"/>
<path d="M54.571 35.1441C54.8791 34.5389 55.184 33.9369 55.5392 33.3603C55.7687 32.9908 56.0233 32.6277 56.3628 32.3633C56.7023 32.0989 57.1455 31.9365 57.5699 32.0193C57.9283 32.0894 58.2426 32.3283 58.4532 32.6341C58.6607 32.9399 58.7707 33.3062 58.821 33.6725C58.9782 34.867 58.5067 36.0743 57.8245 37.0617C57.6925 37.2529 57.551 37.4408 57.375 37.5905C56.9286 37.9696 56.3219 38.0683 55.7467 38.1511C55.4701 38.1925 55.1809 38.2308 54.9168 38.1384C54.5867 38.0237 54.351 37.7115 54.2347 37.3771C54.1215 37.0426 54.1121 36.6795 54.1121 36.3259L54.571 35.1441Z" fill="#FF9960"/>
<path d="M59.1511 30.7578C59.1825 30.8502 59.2139 30.9426 59.2359 31.0381C57.7396 31.4299 56.7494 32.8888 56.0233 34.4528C56.0296 34.4465 56.039 34.4369 56.0453 34.4305C56.5105 34.0483 57.1361 34.1471 57.2775 34.7937C57.4221 35.4594 57.0638 36.5361 56.6017 37.0075C56.1773 37.4407 55.3852 37.6446 54.9073 37.2432C54.8979 37.2655 54.8885 37.291 54.8822 37.3101C54.8036 37.514 54.4735 37.514 54.4798 37.256C54.5081 35.7206 55.4574 34.112 56.3251 32.9079C57.0575 31.895 57.8874 30.9012 59.1511 30.7578ZM55.58 35.6856C55.4889 35.8544 55.3946 36.0232 55.3034 36.1889C55.2437 36.345 55.1871 36.4979 55.1305 36.6476C55.558 36.7113 55.8913 36.7909 56.2779 36.4501C56.6331 36.1411 56.9852 35.5614 56.9255 35.0676C56.9915 34.7395 56.7934 34.6089 56.3313 34.6695C56.1742 34.7841 56.039 34.9211 55.929 35.0836C55.7938 35.2747 55.6901 35.4817 55.58 35.6856Z" fill="#BB4F2F"/>
<path d="M53.6217 42.2476C53.6217 42.2476 51.0283 53.492 50.5819 54.4413C50.1355 55.3905 47.7433 58.1873 46.9606 58.5026C46.1779 58.818 41.7518 60.5986 39.2402 59.9551C32.1265 58.1363 27.8042 50.0773 28.0525 48.8C28.326 47.392 23.595 28.9137 23.5164 28.439C23.4379 27.9644 21.404 21.6255 21.404 20.9916C21.404 20.3577 22.1867 11.4833 23.1235 10.3748C24.0603 9.26626 25.1573 8.55273 25.4686 7.83921C25.7798 7.12569 29.596 16.0798 29.596 16.0798C29.596 16.0798 27.8136 9.90015 27.9708 9.26626C28.128 8.63237 29.3445 7.60349 29.596 6.9696C29.8474 6.33571 29.4136 5.78146 29.8254 5.46292C30.2372 5.14757 31.6958 3.00699 31.6958 3.00699C31.6958 3.00699 35.3926 2.69164 35.4743 2.05775C35.5623 1.42705 37.5144 0 37.5144 0C37.5144 0 41.6324 0.0796344 41.2929 0.474621C40.9534 0.869608 40.5322 1.90167 40.353 2.29666C40.1738 2.69164 41.208 5.62537 40.8465 5.94073C40.485 6.25608 40.353 7.76276 40.353 7.76276C40.353 7.76276 42.3617 4.59331 43.377 4.11869C44.3924 3.64407 47.0643 2.29666 47.0643 2.29666L55.8095 5.06793L56.5923 6.01717L53.1533 7.83921C53.1533 7.83921 55.03 7.60031 55.8127 7.91884C56.5954 8.2342 58.9405 9.34589 59.019 9.97978C59.0976 10.6137 60.8391 16.3824 60.5531 16.8666C60.2702 17.3476 59.72 19.2492 59.72 19.2492L58.4689 19.4881L59.6415 22.183C59.6415 22.183 57.0606 26.0659 56.6709 26.9355C56.2811 27.8083 56.9821 27.7828 56.9821 27.7828L53.6217 42.2476Z" fill="#2A2019"/>
<path d="M51.7639 17.0068C53.9769 16.2519 55.0362 15.0128 55.8944 12.8627C55.929 12.7735 56.0736 12.8053 56.0422 12.9009C55.5549 14.3821 54.9985 15.72 53.6563 16.6023C52.1851 17.5707 50.1827 18.0771 48.5292 18.6218C48.4129 18.6601 48.3092 18.488 48.4066 18.4052C49.3497 17.6025 50.6165 17.3986 51.7639 17.0068Z" fill="#4D3B31"/>
<path d="M45.3292 18.4209C44.8734 19.0643 44.3641 19.6632 43.7731 20.1856C43.5877 20.3512 43.355 20.1059 43.5059 19.9148C44.8765 18.1724 45.9767 16.4013 47.0581 14.4678C47.8502 13.0503 48.6927 11.6424 49.8118 10.4574C51.2704 8.91571 53.1659 8.01425 55.184 7.78809C55.4229 7.81357 55.643 7.85498 55.8096 7.92187C55.8693 7.94735 55.9447 7.97921 56.0233 8.01106C52.9081 8.11299 50.3902 9.98281 48.6235 12.7222C47.6805 14.1843 46.9229 15.8662 45.9956 17.3984C47.1492 16.5383 48.3249 15.726 49.3717 14.7131C50.6102 13.5122 51.6224 12.0183 53.0276 11.0053C55.3538 9.32981 57.8151 10.2026 59.5943 12.2412C59.6038 12.2699 59.61 12.3018 59.6195 12.3304C59.6038 12.3623 59.5629 12.3814 59.5283 12.3495C58.2206 11.1391 56.4477 9.91592 54.5962 10.5084C53.1156 10.983 52.1505 12.2986 51.1918 13.4421C49.5949 15.347 47.6522 17.3506 45.3795 18.4081C45.3575 18.4145 45.3449 18.4177 45.3292 18.4209Z" fill="#4D3B31"/>
<path d="M39.2968 19.0106C39.2182 19.1252 39.0107 19.1316 38.9856 18.966C38.4983 15.7169 39.2559 12.2321 40.1392 9.11679C40.3153 8.49883 40.5007 7.84264 40.7239 7.20557C40.9848 6.81695 41.3589 6.27862 41.7613 5.75622C40.9503 7.23105 40.5919 9.12953 40.2461 10.598C39.5954 13.3502 39.3596 16.0545 39.3314 18.8768C40.287 16.9751 41.6921 15.1881 42.9055 13.4457C44.1409 11.6715 45.4172 9.86217 46.9575 8.34275C49.4031 5.92505 52.8358 4.31962 56.1082 5.42813L56.5011 5.90593C52.2888 4.34829 48.2966 7.43491 45.7189 10.6713C44.537 12.1556 43.4525 13.7228 42.3963 15.2996C41.5318 16.5897 40.7459 18.0454 39.6583 19.1571C39.5105 19.2973 39.3094 19.1762 39.2968 19.0106Z" fill="#4D3B31"/>
<path d="M39.432 0.0830078C39.7369 0.10212 40.0387 0.127603 40.3121 0.159457C37.3227 1.25841 35.2983 4.56483 34.811 7.70243C34.2106 11.5663 36.2885 14.3853 37.6087 17.7395C37.9985 18.0581 38.3757 18.3862 38.731 18.7461C38.929 18.9468 38.6807 19.2717 38.4355 19.1379C36.892 18.2874 35.3674 16.9719 34.0283 15.8124C32.7049 14.6657 31.6235 13.2673 31.0263 11.5981C30.2278 9.36838 30.1618 6.23397 31.1552 3.79397C31.4632 3.35757 31.7021 3.01037 31.7021 3.01037C31.7021 3.01037 31.853 2.99763 32.0919 2.97214C30.627 5.80076 30.6742 9.80159 32.0668 12.4614C33.035 14.3153 34.6067 15.4716 36.1879 16.6438C35.4869 15.3696 34.9588 13.8948 34.5721 12.6334C33.9686 10.668 33.8586 8.61026 34.3647 6.61303C35.0531 3.89272 36.9109 1.25841 39.432 0.0830078Z" fill="#4D3B31"/>
<path d="M35.8892 19.6602C31.7587 17.5164 28.8101 13.3563 28.2034 8.81718C28.3229 8.64199 28.4706 8.45724 28.6309 8.26611C28.8038 9.87154 29.2628 11.4387 30.0486 12.904C31.5512 15.7103 34.0534 17.1119 36.1187 19.3544C36.2633 19.5169 36.081 19.759 35.8892 19.6602Z" fill="#4D3B31"/>
<path d="M22.1867 13.9712C22.7306 15.7837 23.595 17.456 24.8021 18.934C26.1193 20.549 27.8136 21.4728 29.3476 22.8042C29.4545 22.8966 29.3413 23.0782 29.2125 23.0431C27.3169 22.5239 25.6194 20.7242 24.4532 19.2048C23.397 17.8287 22.6111 16.2774 22.0862 14.6306C22.1207 14.4044 22.1522 14.1846 22.1867 13.9712Z" fill="#4D3B31"/>
<path d="M48.2275 163.932C47.9257 169.679 47.7685 178.932 47.6208 184.688C47.5956 185.628 46.2156 185.618 46.2313 184.679C46.3131 178.923 46.6148 169.666 46.9921 163.926C47.0424 163.095 48.2715 163.095 48.2275 163.932Z" fill="#3B5170"/>
<path d="M21.8378 16.5195C22.2433 17.2968 22.6708 18.0644 23.1738 18.7843C23.9251 19.8642 24.865 20.6191 25.8489 21.4664C25.9558 21.5588 25.8426 21.7658 25.7106 21.7117C23.8371 20.9822 22.6614 19.0583 21.7592 17.1948C21.7812 16.975 21.8095 16.7489 21.8378 16.5195Z" fill="#4D3B31"/>
<path d="M41.142 18.8193C41.142 18.746 40.1644 14.8981 38.3223 15.309C36.4802 15.7168 38.3223 19.4628 38.3223 19.4628L41.142 18.8193Z" fill="#2A2019"/>
<path d="M49.5131 42.8432C49.5131 42.8432 52.7101 38.5366 52.8484 37.8899C52.9867 37.2433 55.4072 29.4423 55.2249 29.1302C55.0425 28.818 53.1219 27.6139 53.0307 26.8717C52.9395 26.1295 52.4837 20.2971 51.9808 19.4625C51.4778 18.628 50.2456 16.9174 49.5131 16.8697C48.7807 16.8219 48.0514 17.2869 47.7779 17.3315C47.5044 17.3793 37.6182 20.1984 31.7052 17.3475L30.9508 17.9813L29.8349 17.666C29.8349 17.666 27.7445 20.1219 27.6659 20.7558C27.5873 21.3897 26.4148 26.0626 26.4148 26.0626C26.4148 26.0626 25.478 27.4897 25.478 28.2797C25.478 29.0728 27.5904 41.7474 27.5904 41.7474L31.7052 45.5508L32.1296 46.5797C32.1296 46.5797 35.6975 43.1745 36.0999 43.2509C36.5022 43.3306 40.2555 43.3401 43.6945 40.6421C43.6914 40.6485 45.6372 40.7695 49.5131 42.8432Z" fill="#FFB983"/>
<path d="M49.8683 32.4528C49.8683 32.4528 48.7335 34.2398 46.5645 34.1506C44.3955 34.0614 44.1283 33.2205 43.5751 33.3033C43.0218 33.3861 42.8898 33.5677 42.8898 33.5677C42.8898 33.5677 43.3141 32.01 44.232 31.5896C44.2289 31.5896 46.7091 30.239 49.8683 32.4528Z" fill="#FFFAF7"/>
<path d="M36.2161 32.379C36.411 33.1626 34.6287 33.7742 32.8778 33.4461C31.13 33.1181 29.5991 31.9172 29.5991 31.9172C29.5991 31.9172 29.6557 31.4394 30.3158 31.0762C30.9791 30.7131 32.8306 29.7288 33.9811 30.1556C35.1379 30.5825 36.1438 32.086 36.2161 32.379Z" fill="#FFFAF7"/>
<path d="M52.1222 29.2256C52.1222 29.2256 52.8358 29.369 52.4554 28.9612C52.0751 28.5503 48.9536 27.5119 45.0714 27.8527C41.1892 28.1904 40.6894 29.4709 40.8811 29.7831C41.0729 30.0952 41.9059 30.796 43.858 30.315C45.8101 29.8277 49.3843 28.8402 52.1222 29.2256Z" fill="#271C15"/>
<path d="M37.0963 27.318C37.0963 27.318 37.5741 27.0537 37.2629 26.6173C36.9549 26.184 35.9773 24.808 33.6196 23.7218C31.262 22.6355 30.2372 22.6355 29.904 22.7311C29.5708 22.8267 27.8325 23.9607 27.6407 24.3716C27.449 24.7825 26.6631 26.6873 26.9492 26.8084C27.2352 26.9294 27.735 25.1424 28.3543 24.8526C28.9736 24.5627 30.1178 24.0562 30.9037 24.5404C31.6895 25.0246 32.8338 26.3975 33.6888 27.0505C34.547 27.7035 36.826 27.7321 37.0963 27.318Z" fill="#271C15"/>
<path d="M44.0749 31.6306C46.2062 30.4998 48.3249 30.9267 50.1041 32.4557C50.1858 32.5257 49.9689 32.4843 49.8652 32.4525C48.6487 32.0607 47.9131 31.7931 46.7029 31.7262C45.7692 31.6721 44.713 31.6657 43.7951 31.8918C43.7826 31.8982 44.0749 31.6306 44.0749 31.6306Z" fill="black"/>
<path d="M36.1753 32.4016C35.7824 31.841 35.3171 31.5065 34.7167 31.1816C33.8114 30.691 33.3493 30.5891 32.4817 30.7261C31.4192 30.8949 30.6899 31.0892 29.7469 31.5829C29.6777 31.6212 29.6934 31.4683 29.8192 31.3791C30.8659 30.6114 32.554 29.8533 33.7705 29.9903C34.7167 30.0954 35.8704 31.4173 36.2162 32.3825C36.2382 32.4398 36.2099 32.4557 36.1753 32.4016Z" fill="black"/>
<path d="M48.152 31.4648C48.1834 31.6018 48.2023 31.7452 48.2023 31.8917C48.2023 32.9492 47.3567 33.8061 46.313 33.8061C45.2694 33.8061 44.4238 32.9492 44.4238 31.8917C44.4238 31.7483 44.4427 31.6114 44.471 31.4744C45.9515 30.9456 47.5044 31.2769 48.152 31.4648Z" fill="black"/>
<path d="M33.5819 30.0601C34.3741 29.9104 35.0562 30.6494 35.446 31.2037C35.4649 31.312 35.4774 31.4203 35.4774 31.5318C35.4774 32.5893 34.6319 33.4462 33.5882 33.4462C32.5446 33.4462 31.699 32.5893 31.699 31.5318C31.699 31.0858 31.8561 30.6813 32.1076 30.3564C32.4566 30.2799 32.9564 30.178 33.5819 30.0601Z" fill="black"/>
<path d="M48.2023 44.5254C48.2023 44.5254 45.2537 42.439 45.0211 42.2542C44.7853 42.0695 43.1916 46.4271 39.2591 46.9813C35.3266 47.5356 35.6346 47.2967 35.4806 48.0102C35.3266 48.7238 34.4684 50.9408 34.3898 51.1797C34.3112 51.4186 36.2319 53.0813 36.2319 53.0813H39.6426V49.9119C39.6426 49.9119 39.9915 48.883 41.296 49.0391C42.6006 49.1984 41.7393 50.1476 43.3016 50.4661C44.8639 50.7815 45.7252 50.6254 45.7252 50.6254C45.7252 50.6254 48.1017 45.4747 48.2023 44.5254Z" fill="#FFB983"/>
<path d="M36.2947 48.3316C39.2716 48.7616 45.0525 47.4588 44.9079 43.3305C44.9016 43.1298 45.1405 42.9865 45.3071 43.0948C45.8321 43.4293 46.2722 43.7605 46.7123 44.1938C46.9103 44.3881 46.6588 44.7257 46.4199 44.5856C46.049 44.3658 45.7189 44.1205 45.3952 43.8593C44.9111 47.6371 39.3879 50.3638 36.0684 48.8954C35.7257 48.7457 35.9835 48.287 36.2947 48.3316Z" fill="#BB4F2F"/>
<path d="M50.4562 55.3428C50.4562 55.3428 77.0533 59.9966 79.7378 61.6307C79.7378 61.6307 84.4373 81.0679 88.8382 116.426L72.929 126.033C72.929 126.033 75.7582 144.845 75.7582 146.687C75.7582 148.531 76.0788 148.279 74.5825 149.471C73.083 150.662 72.1211 151.64 72.7624 152.073C73.4037 152.506 75.865 153.156 74.5825 154.134C73.2968 155.109 70.9455 156.268 71.6936 156.883C72.4418 157.495 73.7275 158.581 73.7275 158.581C73.7275 158.581 31.853 164.009 18.16 146.881L19.8732 144.928C19.8732 144.928 18.8044 146.808 19.0181 146.046C19.2319 145.288 18.883 138.962 18.883 138.962C18.883 138.962 12.4891 138.749 11.0965 136.146C9.7071 133.544 -1.26369 79.2649 0.125732 74.2798L28.0902 58.1427L42.2548 73.7511C42.2548 73.7511 43.6348 73.4962 44.7256 72.7222C47.8282 65.9055 50.4562 55.3428 50.4562 55.3428Z" fill="#F9E047"/>
<path d="M49.9847 129.747L53.7946 130.129C64.0895 131.588 87.2822 115.486 87.2822 115.486C87.9517 114.807 85.3646 101.582 85.4495 93.7998C85.9776 100.397 89.0677 107.952 88.8414 116.426L77.5248 124.07C60.2482 132.837 50.4562 130.702 50.4562 130.702L49.9847 129.747Z" fill="#F2B348"/>
<path d="M11.0902 136.146C10.1598 134.407 5.32193 116.725 3.21579 98.791C6.25555 116.413 12.618 135.487 12.618 135.487C29.9952 144.1 45.436 129.638 45.2002 129.938C39.1553 137.497 25.6415 139.831 25.6415 139.831C25.6415 139.831 12.4828 138.748 11.0902 136.146Z" fill="#F2B348"/>
<path d="M55.2469 112.425C55.1054 112.02 44.2572 110.893 44.2572 110.893L42.2517 112.425C42.2517 112.425 45.2631 121.369 41.5947 129.052C41.5947 129.052 48.8184 130.129 49.9847 130.801C51.1509 131.473 55.2469 130.228 55.2469 130.228C55.2469 130.228 58.3055 121.229 55.2469 112.425Z" fill="#F2B348"/>
<path d="M42.2516 128.403C42.2516 128.403 30.1429 125.708 29.5551 125.294C28.9641 124.88 24.4658 118.799 24.4658 118.799C24.4658 118.799 30.2624 111.753 43.6914 112.995C43.6914 112.998 46.1999 124.673 42.2516 128.403Z" fill="#FFBE8D"/>
<path d="M24.8965 118.343C24.8965 118.343 29.5771 124.188 29.9889 124.398C30.3976 124.605 40.5573 125.988 40.5573 125.988C43.311 122.376 42.3554 115.562 41.8399 112.883C42.4434 112.906 43.0564 112.941 43.6945 113.001C43.6945 113.001 46.203 124.679 42.2548 128.409C42.2548 128.409 30.1461 125.714 29.5583 125.3C28.9673 124.886 24.469 118.805 24.469 118.805C24.469 118.805 24.6041 118.627 24.8965 118.343Z" fill="#F89D71"/>
<path d="M73.7243 158.578L74.5007 160.024L72.9636 165.098C72.9636 165.098 39.6991 166.994 17.2892 151.834L18.1568 146.878C18.1568 146.878 55.0488 156.667 73.7243 158.578Z" fill="#04090D"/>
<path d="M66.2459 165.464L67.5505 157.995C67.5505 157.995 65.7681 156.759 65.0263 157.472L63.2219 165.104L66.2459 165.464Z" fill="#2E3950"/>
<path d="M30.6648 160.183C30.6648 159.954 33.4373 149.968 33.4373 149.968C33.4373 149.968 32.1076 148.127 31.2337 148.894L28.2349 158.323L30.6648 160.183Z" fill="#2E3950"/>
<path d="M66.7458 167.315C66.7552 172.249 69.9835 175.275 72.1306 179.324C72.3129 179.668 71.8351 180.085 71.5647 179.76C68.635 176.231 66.2554 172.026 66.4597 167.315C66.4691 167.13 66.7458 167.127 66.7458 167.315Z" fill="#3B5170"/>
<path d="M24.9876 160.753C25.3145 164.095 24.9027 167.716 23.9408 170.924C23.1958 173.409 21.9793 176.508 19.8732 178.117C19.5431 178.368 19.1376 177.884 19.323 177.559C20.0272 176.33 20.9891 175.291 21.6524 174.023C22.2936 172.797 22.7966 171.501 23.1801 170.169C24.0666 167.073 24.1137 163.932 24.4124 160.753C24.4469 160.377 24.9499 160.377 24.9876 160.753Z" fill="#3B5170"/>
<path d="M118.554 348.757C118.554 348.757 119.56 350.796 118.554 351.631C117.548 352.465 99.8876 351.631 99.8876 351.631L90.1868 348.757L88.0806 351.353L80.3036 350.984C80.3036 350.984 78.4741 341.154 79.5712 337.723C79.5712 337.723 80.3948 336.519 80.6683 336.612C80.9418 336.704 91.4662 342.915 95.493 337.354C95.493 337.354 105.008 344.957 106.109 345.327C107.206 345.696 118.554 348.757 118.554 348.757Z" fill="#0A1117"/>
<path d="M18.2165 347.632C18.2165 347.632 17.2955 349.671 18.2165 350.506C19.1376 351.34 35.2983 350.506 35.2983 350.506L44.1755 347.632L46.1024 350.229L53.2193 349.859C53.2193 349.859 54.8948 340.029 53.8889 336.598C53.8889 336.598 53.1344 335.394 52.8829 335.487C52.6315 335.579 43.0029 341.79 39.3188 336.229C39.3188 336.229 30.6113 343.832 29.6054 344.202C28.5995 344.571 18.2165 347.632 18.2165 347.632Z" fill="#0A1117"/>
<path d="M41.3338 38.8361C41.4218 38.9508 41.5067 39.0655 41.5884 39.1801C41.8084 39.4796 42.4277 40.1963 42.2988 40.6104C42.1856 40.9799 39.6897 42.7191 38.5675 42.6522C37.4453 42.5821 35.3863 40.8461 35.3643 40.7505C35.3423 40.6582 35.204 40.2409 36.1439 39.1961C37.0806 38.1513 37.9294 37.3422 38.2028 37.202C38.4763 37.0619 39.85 37.1096 40.0575 37.3167C40.5165 37.7818 40.9377 38.3073 41.3338 38.8361Z" fill="#FF9960"/>
<path d="M35.3674 40.7505C35.3454 40.6581 35.2071 40.2408 36.147 39.196C36.1816 39.1578 36.213 39.1227 36.2476 39.0877C35.9616 39.6165 35.8484 40.0975 35.8484 40.4033C35.8484 40.8206 37.5176 41.7953 38.5486 41.9577C39.5797 42.1202 41.821 40.8206 41.9122 40.4733C42.0033 40.1293 41.01 38.4252 40.9943 38.3965C41.1106 38.543 41.2237 38.6895 41.3338 38.8361C41.4218 38.9507 41.5067 39.0654 41.5884 39.1801C41.8084 39.4795 42.4277 40.1962 42.2988 40.6103C42.1856 40.9798 39.6897 42.719 38.5675 42.6521C37.4484 42.5821 35.3894 40.846 35.3674 40.7505Z" fill="#A74427"/>
<path d="M44.7225 72.722L45.5712 70.6898L53.0276 72.0467L51.5061 58.1426L55.2469 75.42L44.7225 72.722Z" fill="#F2B348"/>
<path d="M42.2517 73.7508L34.3866 83.7719C34.3866 83.7719 30.231 71.8809 29.5551 64.7871C29.5551 64.7871 32.1642 74.8433 34.3866 80.5611L40.9974 72.4862L42.2517 73.7508Z" fill="#F2B348"/>
<path d="M41.8242 245.539C42.5189 242.353 41.4344 185.074 41.4344 185.074L38.8473 180.057V179.573C38.8473 178.502 40.4285 178.48 41.4344 178.799C49.4566 181.344 51.4024 189.033 51.4024 189.033C50.2739 187.89 47.4196 186.749 47.4196 186.749C48.02 193.448 59.6478 250.434 59.6478 250.434C62.4895 256.512 65.152 267.575 65.897 274.561C66.642 281.546 80.027 334.385 80.027 334.385C80.027 334.385 67.3116 292.395 64.4887 283.814C61.6659 275.233 61.383 269.222 60.5468 262.357C59.7106 255.49 57.4316 251.772 54.6528 240.041C51.8739 228.312 46.6086 186.542 46.6086 186.542L41.8305 180.659C43.4525 197.732 46.4231 242.904 47.3001 248.625C48.174 254.346 53.4834 271.225 53.9329 278.093C54.3824 284.961 53.9329 336.605 53.9329 336.605C53.9329 336.605 51.7387 279.52 51.7387 276.176C51.7387 272.831 41.1326 248.724 41.8242 245.539Z" fill="#243045"/>
<path d="M42.4811 161.396C42.4183 165.241 42.6855 169.379 42.0631 173.173C41.9436 173.905 40.944 173.641 40.8843 173.01C40.7051 171.109 40.9409 169.108 41.0194 167.2C41.1012 165.263 41.1892 163.327 41.2898 161.39C41.3338 160.619 42.4937 160.616 42.4811 161.396Z" fill="#3B5170"/>
<path d="M41.4218 152.567L52.905 154.943L51.0346 165.012L40.0072 161.906L41.4218 152.567ZM50.0947 160.645L47.2875 159.224L47.5107 158.02L50.2361 158.326L50.6196 156.15L42.6383 154.198L41.6324 160.798L49.6074 163.48L50.0947 160.645Z" fill="#ABB0B9"/>
<path d="M71.0681 111.033C71.0681 111.033 63.8695 112.871 60.3048 111.673C56.74 110.475 57.4756 103.197 62.9233 97.8612C68.371 92.5257 75.4187 107.927 71.0681 111.033Z" fill="#FFBE8D"/>
<path d="M51.3829 90.3557C49.5745 87.7278 50.2109 84.112 52.8042 82.2795C55.3976 80.4471 58.9658 81.0919 60.7742 83.7198C62.5825 86.3477 61.9462 89.9635 59.3528 91.796C56.7595 93.6284 53.1912 92.9836 51.3829 90.3557Z" fill="#E6F7FF"/>
<path d="M52.4774 85.9961C52.5403 86.2064 52.2354 86.4835 51.8016 86.6173C51.3646 86.7511 50.9623 86.6874 50.8994 86.4771C50.8365 86.2669 51.1415 85.9898 51.5753 85.856C52.0122 85.7254 52.4146 85.7891 52.4774 85.9961Z" fill="#C9E4F2"/>
<path d="M51.4879 88.4372C51.426 88.2283 51.7289 87.9515 52.1645 87.8189C52.6001 87.6863 53.0035 87.7482 53.0654 87.9572C53.1273 88.1661 52.8244 88.4429 52.3887 88.5755C51.9531 88.708 51.5498 88.6461 51.4879 88.4372Z" fill="#C9E4F2"/>
<path d="M53.6374 89.9175C53.7003 90.1278 53.3954 90.4049 52.9616 90.5387C52.5246 90.6725 52.1222 90.6088 52.0594 90.3985C51.9965 90.1883 52.3014 89.9112 52.7352 89.7774C53.1722 89.6468 53.5777 89.7105 53.6374 89.9175Z" fill="#C9E4F2"/>
<path d="M74.878 89.0473C74.878 89.0473 73.7054 91.9078 75.5664 93.9783C77.1036 95.6888 73.7652 96.3131 71.0429 94.5261C68.3207 92.7423 72.4638 87.4291 74.878 89.0473Z" fill="#E6F7FF"/>
<path d="M74.878 89.0472C73.171 87.9037 70.6122 90.2226 70.213 92.3091L70.3293 92.6977L74.7239 92.4779C74.1864 90.7514 74.878 89.0472 74.878 89.0472Z" fill="#CEEAF7"/>
<path d="M75.5004 111.896C73.7526 112.221 72.4952 111.648 71.3667 111.071C68.7796 109.749 67.3084 107.016 66.2302 104.27C65.4946 102.397 64.0738 100.502 63.552 98.5556C63.0113 96.5265 62.26 94.0069 62.6341 91.9173C62.6906 91.5956 62.7598 91.2802 62.917 90.9999C63.7657 89.4932 69.226 89.0791 69.226 89.0791C70.7474 91.3598 72.272 93.6406 73.7935 95.9245C75.3432 98.2466 77.0501 100.454 78.449 102.878C79.3354 104.41 80.3634 106.232 80.1936 108.077C79.9924 110.214 77.8203 111.466 75.5004 111.896Z" fill="#31ACDF"/>
<path d="M74.1958 96.5074C74.0575 96.3099 73.9223 96.1156 73.7966 95.9245C72.2752 93.6438 70.7506 91.363 69.2291 89.0791C69.2291 89.0791 63.7689 89.4932 62.9201 90.9999C62.7629 91.2802 62.6938 91.5956 62.6372 91.9173C62.4077 93.2042 62.6058 94.6503 62.9138 96.0455L74.1958 96.5074Z" fill="#127DBF"/>
<path d="M94.8831 51.7881L107.627 94.7907C92.799 91.3951 86.7761 86.9674 66.6703 92.9846C64.6805 93.5802 62.7284 92.4781 62.238 90.8153L59.1668 80.4501C58.6733 78.7873 59.7295 76.8602 61.6847 76.1626C81.4856 69.107 85.745 62.1692 94.8831 51.7881Z" fill="#E6F7FF"/>
<path d="M94.8831 51.7881C94.4273 52.3073 93.9873 52.8138 93.5535 53.3139C94.9995 55.91 95.9299 58.7577 96.216 61.787C97.5928 76.427 83.6169 89.7546 64.998 91.5543C64.2278 91.6276 63.464 91.6754 62.7032 91.7072C63.5143 92.8317 65.0766 93.4624 66.6766 92.9814C86.7824 86.9642 92.8053 91.3919 107.633 94.7875L94.8831 51.7881Z" fill="#D6F2FF"/>
<path d="M104.408 72.3306C107.929 84.2057 109.236 94.3001 107.627 94.7907C106.017 95.2812 103.21 96.1349 96.8384 74.6336C90.3376 52.6991 93.2705 52.2787 94.8831 51.7881C96.4926 51.3008 100.887 60.4555 104.408 72.3306Z" fill="#31ACDF"/>
<path d="M100.466 73.5286C97.6446 64.0093 95.9238 56.1202 96.6221 55.9077C97.3205 55.6952 100.173 63.2398 102.995 72.759C105.816 82.2783 107.536 90.1674 106.838 90.3799C106.14 90.5924 103.287 83.0478 100.466 73.5286Z" fill="#127DBF"/>
<path d="M104.999 66.052L101.038 66.5107L98.5736 66.7974C99.1206 68.8775 99.7587 71.1582 100.466 73.5345C101.17 75.9108 101.874 78.166 102.547 80.2047L104.76 79.0675L108.315 77.2391C109.412 76.6721 109.956 75.3852 109.598 74.1843L107.731 67.8836C107.375 66.6827 106.225 65.9119 104.999 66.052Z" fill="#E6F7FF"/>
<path d="M101.276 69.2923C101.137 68.8222 101.989 68.1475 103.179 67.7852C104.37 67.423 105.448 67.5104 105.587 67.9804C105.726 68.4505 104.874 69.1252 103.684 69.4875C102.493 69.8497 101.415 69.7624 101.276 69.2923Z" fill="white"/>
<path d="M63.2062 94.8671L68.9808 93.1088C69.4114 92.9782 69.6535 92.5195 69.5246 92.0863L64.5422 75.2771C64.4133 74.8407 63.9606 74.5954 63.5331 74.726L57.7585 76.4843C53.8794 77.6661 51.679 81.8103 52.8421 85.741L54.0712 89.8852C55.2374 93.816 59.3271 96.0457 63.2062 94.8671Z" fill="#31ACDF"/>
<path d="M53.8826 83.7722C53.8763 83.7753 53.87 83.7753 53.8669 83.7785C53.6405 83.8359 53.4111 83.6989 53.3545 83.4695C52.4995 80.0835 55.5706 78.185 57.3153 77.653C57.5385 77.5862 57.7711 77.7136 57.8402 77.9397C57.9063 78.1659 57.7805 78.4016 57.5605 78.4717C57.3876 78.5258 53.3042 79.8191 54.1718 83.2593C54.2252 83.4791 54.0964 83.7053 53.8826 83.7722Z" fill="#65CEEF"/>
<path d="M59.9967 77.2807C59.9118 76.994 59.6132 76.8315 59.3303 76.9175C59.0474 77.0036 58.887 77.3062 58.9719 77.5928C59.0568 77.8795 59.3554 78.042 59.6383 77.956C59.9212 77.87 60.0816 77.5705 59.9967 77.2807Z" fill="#65CEEF"/>
<path d="M69.1663 76.6369C68.723 76.7707 68.2515 76.5159 68.1195 76.0667C67.9843 75.6144 68.2358 75.1398 68.6822 75.0028C82.3438 70.8172 89.0457 60.9904 89.1117 60.8916C89.3726 60.503 89.8976 60.4011 90.2811 60.6623C90.6646 60.9267 90.7683 61.4554 90.5074 61.8472C90.2214 62.2709 83.4283 72.2666 69.1663 76.6369Z" fill="white"/>
<path d="M96.6655 70.2121C96.4423 70.279 96.2097 70.1516 96.1405 69.9254C95.3672 67.3134 92.9027 58.4294 93.7263 53.8425C93.7672 53.61 93.9872 53.4571 94.2167 53.4985C94.4462 53.5399 94.5971 53.7628 94.5562 53.9954C93.9275 57.4897 95.3798 64.3893 96.9484 69.6802C97.0144 69.9063 96.8887 70.1452 96.6655 70.2121Z" fill="#65CEEF"/>
<path d="M94.9963 52.5206C94.9177 52.2594 94.6474 52.1097 94.3896 52.1894C94.1319 52.269 93.9873 52.5429 94.0627 52.8041C94.1413 53.0653 94.4116 53.2151 94.6694 53.1354C94.9272 53.059 95.0749 52.7818 94.9963 52.5206Z" fill="#65CEEF"/>
<path d="M72.1431 99.9063L67.1544 101.426C66.9312 101.493 66.6986 101.365 66.6294 101.139C66.5634 100.913 66.6892 100.677 66.9124 100.607L71.9011 99.0876C72.1243 99.0207 72.3569 99.1481 72.426 99.3743C72.4921 99.6036 72.3663 99.8394 72.1431 99.9063Z" fill="#F7435A"/>
<path d="M74.2964 103.105L69.3046 104.624C69.0814 104.691 68.8488 104.563 68.7796 104.337C68.7136 104.111 68.8393 103.875 69.0625 103.805L74.0544 102.286C74.2776 102.219 74.5102 102.346 74.5793 102.573C74.6453 102.799 74.5196 103.038 74.2964 103.105Z" fill="#F7435A"/>
<path d="M76.236 106.366L71.2441 107.886C71.0209 107.953 70.7883 107.825 70.7191 107.599C70.6531 107.373 70.7789 107.137 71.0021 107.067L75.9908 105.548C76.214 105.481 76.4466 105.608 76.5157 105.834C76.5849 106.06 76.4592 106.299 76.236 106.366Z" fill="#F7435A"/>
<path d="M76.1511 96.0424L63.9952 99.8617C63.2219 99.9764 62.5052 99.4317 62.392 98.6481L62.2725 97.8231C62.1594 97.0395 62.6969 96.3132 63.4702 96.1985L75.623 92.3761C76.3963 92.2614 77.113 92.8061 77.2261 93.5897L77.3456 94.4147C77.4588 95.1983 76.9244 95.9278 76.1511 96.0424Z" fill="#FFBE8D"/>
<path d="M76.9558 99.4223L72.6367 100.053C71.8634 100.165 61.8231 103.025 61.713 102.241L61.5967 101.416C61.4867 100.633 62.0211 99.9065 62.7944 99.7918L76.434 95.7592C77.2073 95.6477 77.924 96.1892 78.0372 96.9728L78.1535 97.7978C78.2667 98.5846 77.7291 99.3109 76.9558 99.4223Z" fill="#FFBE8D"/>
<path d="M78.2038 102.407L73.9381 103.334C73.1742 103.5 63.0993 106.411 62.9358 105.637V104.401C62.7724 103.627 72.4072 99.8846 63.8475 103.121L68.1132 102.194C78.1975 98.6263 78.9519 99.1169 79.1154 99.8909L79.2883 100.706C79.4549 101.48 78.9677 102.242 78.2038 102.407Z" fill="#FFBE8D"/>
<path d="M79.0997 105.159L66.0228 109.791C65.3501 110.01 64.6302 109.638 64.4133 108.956L64.3567 107.816C64.1398 107.134 73.6583 103.423 65.0074 106.605L68.7639 105.379C78.757 101.757 79.48 102.13 79.6969 102.811L79.9264 103.531C80.1402 104.207 79.7724 104.939 79.0997 105.159Z" fill="#FFBE8D"/>
<path d="M72.8033 95.2847L76.959 99.4257L79.1028 105.159C79.1028 105.159 76.5409 108.443 68.6098 111.992L61.5873 105.532L64.9508 98.4286L72.8033 95.2847Z" fill="#FFBE8D"/>
<path d="M66.6106 112.463C66.6106 112.463 78.9362 108.277 79.9233 103.525C79.9233 103.525 79.9956 102.314 79.0997 102.362C79.0997 102.362 78.449 105.771 66.6106 112.463Z" fill="#F89D71"/>
<path d="M79.1154 99.8901C79.1154 99.8901 79.9924 102.27 77.6223 102.681C77.6223 102.681 79.2474 101.722 79.1154 99.8901Z" fill="#F89D71"/>
<path d="M77.7825 96.335C77.7825 96.335 79.0117 98.4755 76.9589 99.4248C76.9558 99.4216 78.2321 97.7525 77.7825 96.335Z" fill="#F89D71"/>
<path d="M76.9558 92.793C76.9558 92.793 78.2981 95.2075 76.434 95.7586C76.4371 95.7586 77.5185 94.6437 76.9558 92.793Z" fill="#F89D71"/>
<path d="M74.9408 108.644C74.9408 108.644 65.2054 115.903 60.3016 111.673C60.3016 111.673 58.7644 110.532 58.4784 109.851C58.4815 109.851 65.7461 111.084 74.9408 108.644Z" fill="#F89D71"/>
</g>
<defs>
<clipPath id="clip0">
<rect width="119" height="352" fill="white" transform="matrix(-1 0 0 1 119 0)"/>
</clipPath>
</defs>
</svg>
