<svg width="322" height="342" viewBox="0 0 322 342" fill="none" xmlns="http://www.w3.org/2000/svg">
<g clip-path="url(#clip0)">
<path d="M261.728 257.373L168.107 253.248L166.91 240.03L260.895 246.231L261.728 257.373Z" fill="#282825"/>
<path d="M317.468 231.674H306.522L311.995 221.268L315.841 221.697L318.571 227.495L317.468 231.674Z" fill="#374D56"/>
<path d="M277.126 246.097L250.634 247.035L254.655 231.5L272.164 228.955L278.228 239.696L277.126 246.097Z" fill="#374D56"/>
<path d="M160.792 227.897H169.976L167.704 236.455C168.631 239.615 169.169 243.445 169.169 247.544C169.169 251.95 168.564 256.007 167.515 259.275L169.976 267.203H160.792C156.166 267.203 152.414 258.405 152.414 247.557C152.414 236.696 156.166 227.897 160.792 227.897Z" fill="#282825"/>
<path d="M169.976 267.204C174.602 267.204 178.354 258.405 178.354 247.557C178.354 236.709 174.602 227.911 169.976 227.911C165.35 227.911 161.598 236.709 161.598 247.557C161.598 258.405 165.35 267.204 169.976 267.204Z" fill="#32322E"/>
<path d="M320.332 207.327C322.551 205.385 322.215 202.104 321.247 198.903L320.615 199.184C320.615 199.184 321.287 201.688 321.166 202.974C321.032 204.394 320.83 206.135 319.015 205.05L320.332 207.327Z" fill="#4D4D4D"/>
<path d="M321.247 200.55V192.702H318.557V200.215L321.247 200.55Z" fill="#333333"/>
<path d="M257.17 233.589H266.354L264.082 242.147C265.01 245.307 265.547 249.124 265.547 253.235C265.547 257.641 264.942 261.699 263.893 264.967L266.354 272.895H257.17C252.544 272.895 248.792 264.097 248.792 253.249C248.805 242.388 252.544 233.589 257.17 233.589Z" fill="#282825"/>
<path d="M255.516 254.28V267.203H228.338L227.141 247.557L255.516 254.28Z" fill="#374D56"/>
<path d="M178.3 244.557V261.726L150.988 259.383L149.926 242.066L178.3 244.557Z" fill="#374D56"/>
<path d="M307.813 223.491H313.474L311.39 236.294L313.474 247.557H307.813C306.119 247.557 304.733 242.174 304.733 235.531C304.733 228.875 306.119 223.491 307.813 223.491Z" fill="#282825"/>
<path d="M309.682 186.019L315.666 189.086L319.27 205.478L320.467 207.179V223.799L318.934 223.745L316.876 220.33L309.682 220.25V186.019Z" fill="#78A0BA"/>
<path d="M309.682 220.237L276.278 220.317L276.198 186.006H309.682V220.237Z" fill="#5F8193"/>
<path d="M314.913 190.024L310.65 187.787V202.867L314.026 205.827H318.288L314.913 190.024Z" fill="#333333"/>
<path d="M320.454 208.21L318.961 207.862V212.576H320.454V208.21Z" fill="#F9E047"/>
<path d="M209.203 235.517V105.103L113.147 127.642V230.401L209.203 235.517Z" fill="#E6E8E7"/>
<path d="M308.31 161.096L209.189 105.103V235.504L308.31 220.826V161.096Z" fill="white"/>
<path d="M266.368 272.895C270.994 272.895 274.746 264.096 274.746 253.249C274.746 242.401 270.994 233.602 266.368 233.602C261.742 233.602 257.99 242.401 257.99 253.249C257.99 264.11 261.742 272.895 266.368 272.895Z" fill="#32322E"/>
<path d="M266.892 263.668C269.098 263.668 270.9 259.462 270.9 254.28C270.9 249.097 269.111 244.892 266.892 244.892C264.673 244.892 262.885 249.097 262.885 254.28C262.885 259.462 264.673 263.668 266.892 263.668Z" fill="#F9D19B"/>
<path d="M313.474 247.544C315.169 247.544 316.554 242.16 316.554 235.518C316.554 228.875 315.182 223.491 313.474 223.491C311.766 223.491 310.395 228.875 310.395 235.518C310.395 242.16 311.78 247.544 313.474 247.544Z" fill="#32322E"/>
<path d="M313.474 242.08C314.402 242.08 315.142 239.147 315.142 235.517C315.142 231.901 314.389 228.955 313.474 228.955C312.546 228.955 311.807 231.888 311.807 235.517C311.807 239.133 312.546 242.08 313.474 242.08Z" fill="#F9D19B"/>
<path d="M320.454 223.799H321.906L321.166 229.879L317.441 231.674C317.441 231.674 316.742 222.205 313.461 222.714C310.18 223.223 309.924 232.022 309.669 234.66L277.112 246.097C277.112 246.097 275.579 229.719 265.924 231.768C256.269 233.817 255.327 250.169 255.502 254.28L215.079 249.687L209.189 235.517L308.31 220.839L309.682 220.237L316.863 220.317L318.921 223.732L320.454 223.799Z" fill="#5F8193"/>
<path d="M215.092 249.686L119.024 242.294L113.147 230.401L209.203 235.517L215.092 249.686Z" fill="#567684"/>
<path d="M116.052 130.2L206.083 109.736V233.602L116.052 227.843V130.2Z" fill="#353C50"/>
<path d="M116.052 227.83L206.083 223.478V233.575L116.052 227.83Z" fill="#555556"/>
<path d="M142.637 228.54L123.165 227.495V212.616L142.637 213.902V228.54Z" fill="#FBB03B"/>
<path d="M142.637 213.889L160.832 213.125C160.832 213.125 161.477 226.946 160.832 226.571C160.186 226.196 142.637 228.54 142.637 228.54V213.889Z" fill="#D89235"/>
<path d="M146.093 228.54V217.223L166.211 218.04V229.973L146.093 228.54Z" fill="#5F8193"/>
<path d="M166.211 229.986L183.007 227.08V215.75L166.211 218.053V229.986Z" fill="#567684"/>
<path d="M160.832 213.125L141.037 212.268L123.152 212.616L142.624 213.902L160.832 213.125Z" fill="#F7B257"/>
<path d="M146.093 217.237L166.211 215.75H183.007L166.211 218.053L146.093 217.237Z" fill="#6B90A0"/>
<path d="M198.028 211.679L198.391 230.401L206.083 228.968V211.679H198.028Z" fill="#F2B348"/>
<path d="M206.083 196.881L199.534 195.461V211.679H206.083V196.881Z" fill="#D89235"/>
<path d="M142.637 213.34L124.739 212.576C124.739 212.576 124.739 200.349 124.739 200.47C124.739 200.604 142.637 199.934 142.637 199.934V213.34Z" fill="#FBB03B"/>
<path d="M142.637 213.34L158.828 213.032V201.648L142.637 199.947V213.34Z" fill="#D89235"/>
<path d="M127.173 200.456C127.159 200.456 127.173 179.926 127.173 179.926L145.623 176.511V200.456H127.173Z" fill="#F9E047"/>
<path d="M145.623 176.511L163.131 181.372V201.086L145.623 200.456V176.511Z" fill="#F2B348"/>
<path d="M176.014 186.836V172.426L163.145 175.747L163.32 187.345L176.014 186.836Z" fill="#F9E047"/>
<path d="M187.068 179.885L176.014 172.426V186.836L187.068 189.997V179.885Z" fill="#F2B348"/>
<path d="M151.876 195.166V186.756L168.873 184.801V194.658L151.876 195.166Z" fill="#FBB03B"/>
<path d="M167.677 217.853L148.958 216.902V195.314L167.34 194.43L167.677 217.853Z" fill="#5F8193"/>
<path d="M167.34 194.43L183.397 196.733L183.007 215.737L167.677 217.839L167.34 194.43Z" fill="#567684"/>
<path d="M178.341 228.955L198.391 230.388L198.028 211.666H178.004L178.341 228.955Z" fill="#F9E047"/>
<path d="M168.873 184.801L187.068 189.997V197.43L168.873 194.658V184.801Z" fill="#D89235"/>
<path d="M199.547 195.461H181.985V211.679H199.547V195.461Z" fill="#FBB03B"/>
<path d="M187.068 195.461V186.073L197.665 184.787V195.447H187.068V195.461Z" fill="#5F8193"/>
<path d="M197.665 184.801V195.461H199.547L206.096 196.881V187.613L197.665 184.801Z" fill="#567684"/>
<path d="M209.203 105.103V235.504L247.017 249.673C247.017 249.673 248.846 77.9297 248.819 78.4386C248.765 78.9609 209.203 105.103 209.203 105.103Z" fill="white"/>
<path d="M248.805 78.4521L247.003 249.687H248.805L250.701 78.4521H248.805Z" fill="#E6E8E7"/>
<path d="M113.147 127.642L62.2215 121.991V230.402H113.147V127.642Z" fill="white"/>
<path d="M62.208 121.977H61.1053V230.388H62.208V121.977Z" fill="#E6E8E7"/>
<path d="M6.57582 111.344C6.57582 111.344 9.07705 126.263 11.1345 128.004C13.192 129.745 26.1285 125.057 35.7972 112.04C35.7972 112.04 34.4928 119.821 34.4928 121.2C34.4928 122.58 31.9243 132.53 32.5295 133.307C33.1481 134.07 33.9549 138.517 32.8791 139.588C31.8033 140.66 33.3363 145.414 34.4121 146.324C35.4879 147.235 35.7165 150.463 35.7165 150.918C35.7165 151.373 36.1737 153.971 36.1737 153.971L80.5504 149.498L85.0015 135.557C85.0015 135.557 87.4624 133.562 87.0052 132.035C86.548 130.508 85.9294 129.437 85.9294 128.365C85.9294 127.294 86.0505 91.7775 86.0505 91.7775L102.093 114.223L100.506 119.326L114.922 124.575C114.922 124.575 121.377 114.973 121.229 113.42C121.148 112.562 116.617 100.241 111.789 86.8357C107.862 75.9612 98.1801 63.4661 97.3598 63.051C95.5175 62.1269 77.323 54.9888 77.323 54.9888L61.455 66.9481H57.5687V56.328L32.8119 64.2429C32.8119 64.2429 24.9316 77.2334 22.4707 89.0187C20.5478 98.1924 21.3412 106.643 20.6688 107.621L19.593 101.728L6.57582 111.344Z" fill="#F9E047"/>
<path d="M62.1812 319.982V326.946L73.3829 332.986L75.669 331.045L74.9563 324.75L62.1812 319.982Z" fill="#F9E047"/>
<path d="M117.787 324.188L119.696 328.433L112.246 332.102L107.795 331.821L105.63 323.772L117.787 324.188Z" fill="#F9E047"/>
<path d="M34.5735 340.419C34.5735 340.419 33.4977 336.362 33.8204 336.254C34.1431 336.147 50.1322 333.268 51.6249 332.089C53.131 330.911 62.4636 323.786 62.4636 323.786C62.4636 323.786 68.0443 329.96 70.9355 329.853C73.8267 329.746 75.0101 327.71 75.0101 327.71C75.0101 327.71 77.7399 333.054 77.0675 340.419H67.2777L64.9244 337.004L56.2374 340.419H34.5735Z" fill="#0A1117"/>
<path d="M109.086 342H127.536V337.621L125.169 336.656L119.481 326.934C119.481 326.934 111.87 327.898 111.654 328.326C111.439 328.755 108.978 332.706 108.333 331.099C107.687 329.492 106.827 328.005 106.827 328.005C106.827 328.005 107.257 339.014 109.086 342Z" fill="#0A1117"/>
<path d="M35.4879 155.927C35.4879 155.927 34.1297 191.417 45.6273 238.651C57.1249 285.886 54.2337 323.773 54.2337 323.773L75.7631 326.706C75.7631 326.706 71.043 252.298 69.2949 247.075C67.5467 241.852 66.4171 238.37 66.4574 232.143C66.4978 225.915 64.7362 179.631 62.9342 175.185L63.6469 174.783C63.6469 174.783 76.18 229.906 76.2876 233.147C76.3951 236.388 74.9294 239.12 81.3976 253.302C87.8793 267.485 100.009 326.706 100.009 326.706L118.513 324.965C118.513 324.965 96.136 204.005 85.9428 147.088L35.4879 155.927Z" fill="#2E3950"/>
<path d="M52.9024 153.985C54.2337 158.109 55.2826 162.382 56.3853 166.587C56.6543 167.631 56.9366 168.676 57.219 169.721C57.3266 170.149 57.3401 170.979 57.7569 171.247C58.1873 171.529 58.9807 171.274 59.4244 171.247C60.5944 171.18 61.7777 171.247 62.9342 171.381C63.0284 171.395 63.109 171.314 63.1628 171.247C63.6738 170.538 64.2252 169.895 64.8169 169.265C65.0051 169.064 65.2203 168.904 65.2741 168.622C65.3817 168.02 64.8841 167.096 64.7093 166.56C64.4269 165.73 64.1176 164.913 63.7949 164.096C62.4501 160.654 61.3609 157.467 60.9171 153.784C60.8768 153.462 60.4195 153.449 60.3927 153.784C60.2044 156.891 61.4953 160.051 62.598 162.904C62.9208 163.721 63.2435 164.538 63.5528 165.355C63.8218 166.091 64.3731 167.069 64.4 167.846C64.4403 168.77 63.7949 169.279 63.3108 169.948C62.6653 170.846 62.2484 170.765 61.1592 170.712C60.4061 170.671 59.5455 170.805 58.8193 170.658C58.0259 170.511 58.2007 170.578 58.0259 169.801C57.9318 169.413 57.8376 169.038 57.7435 168.649C57.3132 166.935 56.856 165.221 56.3719 163.52C55.9012 161.819 55.4171 160.105 54.9195 158.417C54.4758 156.877 54.1396 155.203 53.3596 153.784C53.2251 153.543 52.8083 153.703 52.9024 153.985Z" fill="#3B5170"/>
<path d="M35.4879 155.927L35.1114 151.106C35.1114 151.106 63.1359 151.373 71.2717 147.932L73.1274 152.592C73.1274 152.592 50.697 159.65 35.4879 155.927Z" fill="#04090D"/>
<path d="M62.9477 155.565C62.9477 155.565 61.4953 149.351 62.1005 149.177C62.7056 149.003 63.7007 149.057 63.9966 149.137C64.2924 149.217 65.5968 155.123 65.5968 155.123L62.9477 155.565Z" fill="#2E3950"/>
<path d="M38.8229 157.012C38.8229 157.012 37.8278 150.088 38.8229 149.887C39.818 149.686 40.6786 149.793 40.7728 150.181C40.8669 150.583 41.6738 157.253 41.6738 157.253L38.8229 157.012Z" fill="#2E3950"/>
<path d="M75.7766 157.882L76.96 157.011C76.96 157.011 81.0211 167.042 87.7583 170.685L86.8842 171.716C86.8842 171.703 77.3634 167.457 75.7766 157.882Z" fill="#3B5170"/>
<path d="M78.3585 234.874C77.5382 232.571 67.9501 176.162 67.9501 176.162L71.3927 173.805H56.0894L58.9941 174.984C58.9941 174.984 62.4367 229.839 61.9391 234.245C61.4415 238.651 65.7985 246.418 67.3181 248.936C68.8377 251.454 75.7631 326.705 75.7631 326.705C75.7631 326.705 71.043 252.298 69.2949 247.075C67.5467 241.852 63.7276 238.37 63.768 232.142C63.8083 225.915 62.6384 179.43 60.8364 174.97L66.3364 176.109C66.3364 176.109 76.18 229.892 76.2876 233.133C76.3951 236.374 74.9294 239.106 81.3976 253.289C87.8793 267.471 101.354 326.692 101.354 326.692C101.354 326.692 87.1666 261.739 82.5272 252.499C77.9147 243.271 79.1788 237.178 78.3585 234.874Z" fill="#243045"/>
<path d="M61.7105 148.387H50.3743L50.966 158.257L62.1543 157.828L61.7105 148.387ZM52.3779 154.373L54.8792 153.596L54.7716 152.431L52.3914 152.257L52.0687 150.074L60.6213 150.047L60.8768 156.449L52.6872 157.159L52.3779 154.373Z" fill="#ABB0B9"/>
<path d="M77.3365 54.9885C77.3365 54.9885 76.5969 45.8549 78.6947 38.7168C80.7925 31.5787 57.5687 50.7029 57.5687 50.7029V66.9478H61.455L77.3365 54.9885Z" fill="#FFB983"/>
<path d="M57.5687 50.7033V66.9482H57.6225C57.8242 64.4171 58.5772 56.9843 58.5772 56.9843L60.823 58.3771L67.345 56.9843L76.812 47.0204L77.2154 50.5962C77.2423 47.3017 77.5247 42.6813 78.6947 38.6904C80.779 31.5791 57.5687 50.7033 57.5687 50.7033Z" fill="#FF9960"/>
<path d="M46.8645 19.9141L52.0283 42.4132L59.6799 56.2609C59.6799 56.2609 65.3144 56.4082 65.7178 56.2609C66.1213 56.1136 76.3145 46.7791 76.4624 46.2434C76.6103 45.6944 81.1287 30.5744 81.4245 29.2887C81.7203 28.0165 84.9612 20.7043 84.9612 20.7043L81.5186 16.3785L80.9673 15.7357C80.9673 15.7357 82.4196 11.1154 82.5675 10.6734C82.7155 10.2315 80.0798 6.05305 79.5822 5.81199C79.0846 5.55753 77.2423 5.51736 77.2423 5.51736C76.7448 5.86556 76.7448 5.86556 76.7448 5.86556C76.7448 5.86556 73.9477 0.548802 71.8633 0.106855C69.779 -0.335092 68.4477 0.749687 67.856 0.548802C67.2778 0.347917 67.224 1.04432 67.224 1.04432C67.224 1.04432 68.5687 3.82992 66.9685 6.74945C66.9685 6.74945 63.5931 2.38355 63.0552 2.4773C62.5308 2.57104 60.2178 3.8701 59.0748 3.81653C57.9318 3.76296 53.1445 5.15576 51.7997 7.48603C51.7997 7.48603 55.6726 9.66898 56.1029 10.419C56.1029 10.419 49.9574 8.38332 49.554 8.63777C49.1505 8.89223 48.5589 10.2716 48.5051 10.6734C48.4513 11.0752 48.1016 14.3027 47.8596 14.7982C47.6041 15.2938 46.6628 16.3919 46.8645 16.5794C47.0662 16.7803 48.5589 18.1195 48.5589 18.1195L46.8645 19.9141Z" fill="#2A2019"/>
<path d="M67.8022 20.2355C68.3401 20.3158 68.8915 20.3426 69.4428 20.3426C71.8365 22.5122 74.136 24.1996 77.6189 23.9451C80.3084 23.7443 82.9172 22.4854 84.9612 20.7176L84.6385 20.3158C82.5541 21.9095 80.3487 23.2487 77.6054 23.463C74.4049 23.7041 72.2802 22.1506 69.9807 20.3292C74.9159 20.0212 79.9587 16.3919 82.1776 11.9322C82.3793 11.3028 82.5272 10.8207 82.5676 10.6867C82.5945 10.6198 82.5541 10.4859 82.4734 10.285C81.5187 13.0304 79.3805 15.4812 77.0675 17.1151C74.8756 18.6686 72.5761 19.3248 70.0883 19.6596C70.2497 19.4319 70.4245 19.2043 70.5858 18.9632C72.8047 17.6909 74.647 15.3874 75.7766 13.2581C77.0137 10.901 77.5785 8.16898 77.3634 5.5173C77.2827 5.5173 77.2289 5.5173 77.2289 5.5173C77.081 5.62444 76.9868 5.6914 76.9062 5.74497C77.0272 8.34308 76.5565 10.901 75.2656 13.2715C74.2974 15.0526 73.0198 16.2847 71.5675 17.4097C73.0064 14.8651 73.8939 12.026 73.5846 9.06627C73.2484 5.95925 72.5492 1.90137 69.6714 0.146973C69.51 0.18715 69.3621 0.227327 69.2276 0.267504C72.092 2.38349 72.9661 6.54851 73.0736 9.92338C73.1812 13.017 71.944 15.7758 70.3303 18.307C69.9 18.615 69.4563 18.923 68.999 19.231C68.8108 19.365 68.9184 19.6998 69.1604 19.6194C69.2949 19.5792 69.4159 19.5257 69.5504 19.4721C69.4832 19.5659 69.4159 19.6596 69.3487 19.7533C69.3218 19.7533 69.2949 19.7667 69.2545 19.7667C69.2545 19.7667 69.2545 19.7667 69.2411 19.7667C69.1604 19.6998 69.0528 19.7266 68.999 19.7935C68.8511 19.8069 68.7166 19.8203 68.5687 19.8337C68.6629 19.8069 68.6763 19.6462 68.5687 19.6328C68.5284 19.6328 68.4746 19.6194 68.4342 19.6194C68.4074 19.4989 68.3132 19.4051 68.1787 19.4319C67.9098 19.4587 67.6677 19.4855 67.4122 19.4989C66.7533 19.4185 66.0675 19.3516 65.3817 19.3114C65.3413 19.298 65.3144 19.298 65.2741 19.2846C64.8572 18.6016 64.5345 17.8249 64.279 17.0883C63.6604 15.2267 63.0284 13.3652 62.2081 11.584C60.7154 8.35647 58.3755 6.49494 55.4843 4.79411C55.3902 4.83429 55.2961 4.87447 55.2019 4.91464C57.1115 6.05299 59.021 7.33866 60.3389 9.13323C61.8046 11.1287 62.6115 13.7 63.3645 16.0169C63.6335 16.8472 64.0235 17.9588 64.5614 19.0034C64.1042 18.7757 63.6738 18.4677 63.2301 18.0659C62.1812 17.0749 61.3609 15.8294 60.4733 14.7044C59.532 13.5259 58.5772 12.3072 57.5283 11.209C56.7753 10.4189 55.8474 9.90998 54.8926 9.44125C55.4709 9.84302 55.9415 10.218 56.076 10.4457C56.076 10.4457 55.955 10.4055 55.7667 10.3385C55.8743 10.4055 55.9684 10.4591 56.076 10.526C56.977 11.1153 57.6359 11.9724 58.3083 12.7893C59.5051 14.2089 60.6213 15.6821 61.7643 17.1418C62.5174 18.0927 63.257 18.8025 64.1042 19.298C63.5528 19.3114 63.0015 19.365 62.4905 19.4721C62.0198 19.5659 61.576 19.6998 61.1457 19.8605C60.5271 19.7132 59.8951 19.5391 59.29 19.298C57.2325 18.4945 55.6457 17.2624 54.2472 15.5615C52.6604 13.6331 50.9391 11.2626 48.5051 10.6466C48.5051 10.6733 48.4916 10.6867 48.4916 10.7135C48.4782 10.7671 48.4647 10.8876 48.4513 11.0483C51.7325 12.0126 53.3865 15.9767 55.9953 18.0793C57.1787 19.0436 58.6445 19.7801 60.1909 20.289C59.7337 20.5167 59.29 20.7846 58.8596 21.0658C57.8914 20.731 56.9098 20.4096 56.0222 19.8471C54.5699 18.9096 53.8168 17.3561 52.7948 16.0303C51.598 14.5036 50.065 13.2045 48.2361 12.8697C48.2227 13.0036 48.1958 13.1375 48.1823 13.2581C50.8853 13.8205 52.378 16.5392 54.0454 18.7221C55.0809 20.0748 56.6005 20.9854 58.2411 21.4944C58.0528 21.6283 57.8511 21.7756 57.6628 21.9229C57.5014 22.0434 57.7166 22.3247 57.878 22.2041C58.1469 22.0033 58.4024 21.8158 58.6848 21.6283C59.1958 21.7622 59.7068 21.8426 60.2044 21.8961C60.3658 21.9095 60.4196 21.6684 60.2851 21.6015C59.9623 21.4542 59.6396 21.3336 59.3169 21.2131C59.7875 20.9319 60.2716 20.664 60.7692 20.4498C62.1946 20.8515 63.6738 21.0524 65.0724 21.039C65.2875 21.039 65.3279 20.731 65.1127 20.6774C64.0638 20.4096 63.0015 20.2355 61.9526 20.0212C62.3156 19.9141 62.6922 19.8337 63.0822 19.7935C63.7411 19.7132 64.4 19.7533 65.0724 19.8203C66.1347 21.4944 67.6408 22.6729 69.7118 21.4944C69.9404 21.3738 69.7924 20.972 69.5369 21.0658C67.856 21.6685 66.6323 21.0256 65.7582 19.9141C66.3499 20.0346 66.9954 20.0748 67.6946 20.0212C67.6543 20.1015 67.6812 20.2087 67.8022 20.2355Z" fill="#4D3B31"/>
<path d="M84.1813 22.4985C83.993 22.6191 83.7913 22.7396 83.5896 22.8601C82.5945 23.436 81.4649 23.8244 80.537 24.494C80.416 24.5743 80.4832 24.7886 80.6446 24.7484C81.7338 24.4538 82.8365 23.9047 83.872 23.2217C83.9795 22.9673 84.0871 22.7262 84.1813 22.4985Z" fill="#4D3B31"/>
<path d="M55.6457 43.7527L57.5687 41.9715C57.5687 41.9715 63.9966 43.3107 67.8426 41.0742C67.8426 41.0742 70.5455 42.3197 70.5455 42.6679C70.5455 43.0161 70.5455 45.1455 70.5455 45.1455C70.5455 45.1455 66.054 49.6587 65.7582 49.6185C65.4624 49.565 63.0687 47.5293 63.0956 47.2347C63.1225 46.9401 63.0956 45.1053 63.0956 45.1053L60.4733 45.0116L61.0247 47.2481L59.0748 48.8819L55.6457 43.7527Z" fill="#FFB983"/>
<path d="M55.2826 42.1857C55.2826 42.1857 51.6115 37.9939 51.6115 37.7261C51.6115 37.4448 49.8229 27.2934 50.0112 26.9854C50.2129 26.6774 51.9207 24.548 52.0418 24.3471C52.1628 24.1463 52.2569 19.6732 52.3645 19.5259C52.4586 19.3786 53.9244 17.4367 53.9244 17.4367C53.9244 17.4367 65.0858 20.5705 71.4196 16.3921C71.4196 16.3921 74.6873 19.4723 74.9697 19.4188C75.2521 19.3652 80.6849 16.6867 80.6849 16.6867L76.3414 20.1687L75.548 23.6507C75.548 23.6507 77.8475 27.1327 77.8878 27.4676C77.9416 27.8158 75.4942 39.0921 75.4942 39.0921C75.4942 39.0921 73.1274 41.7304 72.8181 41.7304C72.5088 41.7304 67.856 38.9984 67.856 38.9984C67.856 38.9984 61.6029 41.9313 57.2997 40.7394L55.2826 42.1857Z" fill="#FFB983"/>
<path d="M66.7399 30.909L66.5785 31.4715C66.5785 31.4715 70.0748 34.3241 72.8181 30.4671C72.8047 30.4671 67.5467 29.3421 66.7399 30.909Z" fill="#FFFAF7"/>
<path d="M53.9109 30.7752C53.9109 30.7752 55.1616 32.5162 56.8559 32.5698C58.5503 32.6233 59.2765 31.9135 59.2765 31.9135L59.0748 30.4002C59.0748 30.4002 54.9867 29.8511 53.9109 30.7752Z" fill="#FFFAF7"/>
<path d="M51.9476 28.1506C51.9476 28.1506 51.7594 27.7354 52.0687 27.5077C52.378 27.2667 56.3584 26.048 57.8645 26.1283C59.3707 26.2221 59.6799 26.7711 59.6799 26.7711L60.0565 27.7622L60.554 27.1327C60.554 27.1327 60.3658 28.3514 60.0565 28.472C59.7472 28.5925 57.9856 28.713 56.4794 28.472C54.9868 28.2443 52.0014 28.3247 51.9476 28.1506Z" fill="#2A2019"/>
<path d="M63.9831 24.6682C63.9831 24.6682 63.4183 24.3468 63.5663 24.079C63.7142 23.8111 66.0675 22.646 66.5651 22.646C67.0626 22.646 71.312 24.0254 71.8096 24.1727C72.3071 24.32 72.6971 24.762 73.2484 25.6727C73.8132 26.5833 74.3646 27.3735 74.4318 27.7217C74.4991 28.0699 74.9294 29.6904 74.7008 29.5966C74.4587 29.5029 73.3157 28.0431 73.0871 27.6012C72.845 27.1592 69.8731 26.2084 68.488 25.8334C67.103 25.4584 64.2924 24.9093 63.9831 24.6682Z" fill="#2A2019"/>
<path d="M53.911 30.7753C53.9379 30.7352 54.4892 30.012 54.6371 29.9986C54.7985 29.9852 58.7117 30.0388 58.9 30.1593C59.0882 30.2798 59.1286 30.6414 59.021 30.6548C58.9134 30.6682 55.2019 30.5209 55.0809 30.628C54.9599 30.7218 53.8034 30.9361 53.911 30.7753Z" fill="black"/>
<path d="M66.7399 30.9093C66.7399 30.9093 67.1164 30.146 67.3181 30.1192C67.5064 30.079 71.5406 29.771 72.7778 30.3335C72.7778 30.3335 73.0198 30.5477 72.5492 30.5076C72.0785 30.4674 68.0577 30.6013 67.8022 30.6147C67.5333 30.6013 66.6457 31.0968 66.7399 30.9093Z" fill="black"/>
<path d="M55.565 30.2129C55.4978 30.4004 55.4574 30.5879 55.4574 30.7888C55.4574 31.686 56.197 32.4226 57.098 32.4226C57.999 32.4226 58.7386 31.686 58.7386 30.7888C58.7386 30.6414 58.7117 30.4941 58.6714 30.3602L55.565 30.2129Z" fill="black"/>
<path d="M68.098 30.3066C68.0712 30.4271 68.0577 30.5476 68.0577 30.6815C68.0577 31.5788 68.7973 32.3154 69.6983 32.3154C70.5993 32.3154 71.3389 31.5788 71.3389 30.6815C71.3389 30.5074 71.2986 30.3467 71.2582 30.186L68.098 30.3066Z" fill="black"/>
<path d="M57.5687 38.8241C57.5687 38.8241 58.9403 40.6722 61.2936 40.4981C61.2936 40.4981 63.2435 39.9892 64.0638 38.8777C64.0638 38.8777 62.2081 35.4091 61.7105 35.168C61.2264 34.9403 60.554 34.8734 60.2851 35.0341C60.0296 35.1948 57.5418 38.3152 57.5687 38.8241Z" fill="#FF9960"/>
<path d="M61.2936 40.4981C61.2936 40.4981 63.2435 39.9892 64.0638 38.8776C64.0638 38.8776 63.6335 38.0875 63.1359 37.2304L63.6066 38.9044C61.1726 41.5427 57.9587 38.8107 57.9587 38.8107C57.9318 38.5562 58.3352 37.6991 58.7386 36.9224C58.12 37.7527 57.5552 38.5964 57.5687 38.8375C57.5687 38.8241 58.9403 40.6856 61.2936 40.4981Z" fill="#A74427"/>
<path d="M57.5418 43.1365C58.1604 44.7837 60.9305 44.0739 62.2081 44.007C63.3376 43.94 64.4672 43.8864 65.5968 43.7391C66.1213 43.6722 66.7264 43.632 67.2105 43.4445C67.6408 43.2704 67.7215 42.7481 68.3132 42.7347C68.6494 42.7213 68.6494 42.2124 68.3132 42.2124C67.8426 42.2124 67.735 42.3463 67.3316 42.5338C66.4306 42.9758 65.4624 42.9758 64.4672 43.0427C63.5125 43.1097 62.5711 43.1633 61.6164 43.2302C60.8768 43.2838 58.1604 43.8597 57.6763 43.0963C57.6225 43.0159 57.5149 43.0561 57.5418 43.1365Z" fill="#BB4F2F"/>
<path d="M78.0492 34.4717C78.2374 33.8288 78.4257 33.186 78.7081 32.5833C78.9905 31.9807 79.3805 31.3914 79.9453 31.0298C80.5101 30.6682 81.2766 30.5477 81.8683 30.8825C82.5944 31.2843 82.8634 32.195 82.9037 33.0119C82.971 34.0431 82.7961 35.1011 82.4062 36.0653C82.1372 36.735 81.7472 37.3778 81.1959 37.8331C80.5235 38.3822 79.6629 38.6501 78.8022 38.7572C78.0088 38.851 76.9196 38.5563 77.1482 37.5519C77.3768 36.5207 77.7533 35.4761 78.0492 34.4717Z" fill="#FFB983"/>
<path d="M78.8426 34.0566C79.3402 33.4673 80.0529 33.0254 80.8194 33.0254C80.9942 33.0254 81.1825 33.0522 81.3169 33.1593C81.4245 33.2397 81.4918 33.3602 81.559 33.4941C82.0297 34.4718 81.9759 35.6905 81.438 36.6279C80.9001 37.5654 79.8646 38.2216 78.7754 38.3154C78.614 38.3288 78.4392 38.3288 78.2913 38.2484C78.1837 38.1948 78.103 38.0877 78.0357 37.9806C77.2558 36.7752 78.0089 35.0476 78.8426 34.0566Z" fill="#FF9960"/>
<path d="M82.7424 32.0474C82.6751 31.8197 82.5675 31.6055 82.4331 31.418C80.8059 31.7394 79.1384 33.1054 78.0223 34.5652C77.8206 35.2482 77.592 35.958 77.3903 36.6544C77.5785 37.1365 78.2375 37.1633 78.7216 37.0829C79.367 36.9758 79.9318 36.6008 80.0394 35.9044C80.1336 35.3285 79.7974 34.7527 79.2595 34.525C79.1519 34.4714 79.0443 34.4446 78.9367 34.4312C80.026 33.2661 81.4514 32.2081 82.7424 32.0474ZM79.2729 35.1142C79.5015 35.3419 79.5553 35.6767 79.4343 35.9714C79.1653 36.574 78.2106 36.6678 77.7668 36.266C77.713 36.2258 77.6458 36.199 77.5785 36.199C77.8206 35.7705 78.1568 35.3151 78.5602 34.8464C78.8022 34.833 79.125 34.9803 79.2729 35.1142Z" fill="#BB4F2F"/>
<path d="M18.5979 99.3706L15.9353 70.1485C15.9353 70.1485 18.4231 68.2736 18.5979 65.3005C18.7727 62.3274 18.6786 59.6757 19.0282 59.1267C19.3644 58.591 22.3497 52.859 22.269 52.4037C22.1883 51.9618 19.5392 51.9618 17.6565 54.1581C17.6565 54.1581 16.9707 57.2116 16.7152 57.3857C16.4597 57.5598 14.5771 58.3231 14.5771 58.3231C14.5771 58.3231 12.7886 45.2254 12.5331 41.5023C12.2776 37.7659 12.1027 37.6989 11.3362 37.7257C10.5832 37.7659 8.87534 38.9042 8.87534 40.9265C8.87534 42.9487 10.0722 51.185 10.0722 51.185C10.0722 51.185 7.16751 50.2475 6.49513 51.6136C6.49513 51.6136 3.17361 51.3189 2.9181 52.4037C2.6626 53.4885 2.6626 53.4885 2.6626 53.4885C2.6626 53.4885 0 53.8635 0 55.2429C0 56.6223 0.699269 69.3718 4.80075 70.9789L5.55381 106.147L18.5979 99.3706Z" fill="url(#paint0_linear)"/>
<path d="M2.55502 62.8768C1.53301 62.542 0.295845 56.7298 0.0403425 54.9754C0.0134475 55.0557 0 55.1495 0 55.2432C0 56.6226 0.699269 69.3721 4.80075 70.9792L5.59415 103.549L6.13205 103.295L5.13694 71.5417L6.92546 70.8988C2.35331 71.1399 2.4071 63.4795 2.4071 63.4795C3.05258 64.1759 5.83621 62.542 5.83621 62.542C7.49025 62.3947 8.41813 61.1091 8.41813 61.1091C8.86189 61.9528 11.2555 61.0555 11.5917 60.8144C11.9414 60.5734 10.8925 54.1317 10.6504 52.846C10.4084 51.5603 10.0587 51.1987 10.0587 51.1987C10.0587 51.1987 11.39 59.8234 11.3362 60.0645C11.2824 60.3055 10.3411 61.0555 9.19808 60.7073C8.06849 60.3591 7.07338 52.6317 6.87167 52.096C6.66995 51.5469 6.32032 52.096 6.32032 52.096C6.32032 52.096 7.81299 60.2118 7.7592 61.0555C7.70541 61.8992 6.26653 61.8456 5.56726 61.551C4.86799 61.2564 2.62226 53.4888 2.62226 53.4888C2.62226 53.4888 4.66628 61.6983 4.77386 61.993C4.89488 62.2876 3.75185 63.2786 2.55502 62.8768Z" fill="#FF9960"/>
<path d="M21.6639 52.1763C21.7446 52.4977 21.7446 52.8727 21.5429 53.2744C20.9646 54.4128 18.3962 59.2608 18.3962 59.7831C18.3962 60.3054 19.593 68.2337 15.0746 69.8408L17.3069 89.9828L15.9353 70.1354C15.9353 70.1354 18.4231 68.2605 18.5979 65.2874C18.7727 62.3143 18.6786 59.6626 19.0282 59.1135C19.3644 58.5778 22.3497 52.8459 22.269 52.3905C22.2421 52.2834 22.0135 52.1897 21.6639 52.1763Z" fill="#FF9960"/>
<path d="M36.0796 112.535C36.0527 111.652 36.873 79.8716 36.873 79.8716C36.873 79.8716 34.6542 112.777 34.3449 113.125C34.6542 112.79 34.9635 112.455 35.2728 112.12C35.2728 112.12 34.6676 119.647 34.5466 121.026C34.4525 122.124 33.1077 128.62 32.8522 131.593C32.8791 131.472 34.9097 121.843 35.0979 120.879C35.2728 119.915 36.1065 113.433 36.0796 112.535Z" fill="#F2B348"/>
<path d="M96.7816 124.481L82.702 146.07L74.9428 141.048L70.4783 138.476L62.7998 138.436C62.7998 138.436 61.9929 139.494 64.5614 140.405C67.1299 141.316 69.2546 141.101 69.2546 141.101L72.3878 143.673C72.3878 143.673 68.1115 142.936 67.4929 143.324C66.8744 143.713 62.4905 151.28 62.4905 151.28C62.4905 151.28 63.2435 153.101 64.4673 152.07L63.7142 153.704C63.7142 153.704 64.279 154.092 65.1127 153.918L64.4673 155.525C64.4673 155.525 66.4306 157.065 67.9098 154.373C69.3756 151.681 70.3707 149.927 70.3707 149.927C70.3707 149.927 76.0993 158.016 83.3341 156.007C83.3341 156.007 104.352 139.601 109.637 127.763L96.7816 124.481Z" fill="url(#paint1_linear)"/>
<path d="M72.4282 147.878C71.3927 147.61 69.8193 147.208 68.7301 147.516C67.9636 147.73 67.6677 148.427 67.2778 149.056C66.323 150.61 65.4893 152.243 64.8303 153.944C64.9245 153.931 65.0051 153.931 65.0993 153.904L64.4538 155.511C64.4538 155.511 64.4941 155.538 64.5479 155.578C65.1127 153.944 65.7851 152.364 66.5919 150.837C66.8071 150.449 67.0223 150.06 67.2509 149.672C67.7619 148.815 67.8964 148.427 68.8915 148.132C70.1017 147.784 71.1238 148.052 72.334 148.306C72.6433 148.373 72.6971 147.945 72.4282 147.878Z" fill="#FF9960"/>
<path d="M73.6788 145.748C72.213 145.293 68.9856 144.69 67.8291 145.909C67.3719 146.391 67.076 147.248 66.7399 147.824C66.3633 148.48 65.9868 149.123 65.6103 149.779C65.1799 150.556 64.7496 151.346 64.3462 152.136C64.3865 152.11 64.4269 152.083 64.4672 152.056L63.7142 153.69C63.7142 153.69 63.7411 153.703 63.7814 153.73C64.8034 151.775 65.8389 149.82 66.9012 147.891C67.5736 146.672 67.8963 145.735 69.4562 145.641C70.8951 145.547 72.213 145.748 73.6115 146.03C73.7594 146.07 73.8536 145.802 73.6788 145.748Z" fill="#FF9960"/>
<path d="M72.4013 143.659C72.4013 143.659 68.125 142.923 67.5064 143.311C66.8878 143.699 62.5039 151.266 62.5039 151.266C62.5039 151.266 62.5577 151.387 62.6518 151.547C63.7276 149.659 64.8034 147.771 65.9061 145.896C66.713 144.543 67.2643 143.351 69.1335 143.298C70.5186 143.257 72.0382 143.673 73.3291 144.074C73.6519 144.181 73.7998 143.713 73.4636 143.619C73.0064 143.498 72.4416 143.338 71.8499 143.19L72.4013 143.659Z" fill="#FF9960"/>
<path d="M109.637 127.763L106.692 127.013C106.585 127.267 106.491 127.562 106.41 127.883C104.702 134.579 87.7717 152.351 83.361 155.083C78.9502 157.815 70.3572 149.927 70.3572 149.927C70.3572 149.927 76.0859 158.016 83.3206 156.007C83.3341 156.007 104.352 139.615 109.637 127.763Z" fill="#F89D71"/>
<path d="M77.202 144.088C77.1617 143.86 74.6604 138.115 77.2827 136.762C77.2827 136.762 77.8071 139.173 78.8023 140.392C79.7839 141.597 82.2179 145.681 81.0749 148.882C79.9453 152.096 77.202 144.088 77.202 144.088Z" fill="url(#paint2_linear)"/>
<path d="M100.143 115.937C100.022 116.178 96.8757 122.151 96.3512 123.182C95.8268 124.213 93.5138 127.977 94.119 128.352C94.7241 128.727 106.235 133.682 106.746 133.91C107.271 134.137 117.518 122.071 117.518 122.071C117.518 122.071 115.581 121.187 112.085 120.812C108.615 120.45 100.52 115.241 100.143 115.937Z" fill="#F2B348"/>
<path d="M5.09659 114.558C5.09659 114.558 5.44623 108.745 4.22251 105.705C2.99879 102.665 5.13694 99.8126 5.13694 99.8126C5.13694 99.8126 17.9793 94.8708 18.5979 93.5718L21.6504 104.071C21.637 104.058 14.846 116.285 5.09659 114.558Z" fill="#F2B348"/>
<path d="M54.3009 58.752L49.433 73.979L57.5687 66.9481L57.5418 65.341L52.2166 70.3497L54.3009 58.752Z" fill="#F2B348"/>
<path d="M61.455 66.948C61.724 66.7472 63.7949 65.1802 63.7949 65.1802C63.7949 65.1802 69.6445 73.3764 69.6445 73.1889C69.6445 72.988 76.8658 56.3413 76.8658 56.3413L70.048 76.4968L61.455 66.948Z" fill="#F2B348"/>
<path d="M8.8619 113.459L6.84477 112.87C7.54404 116.714 9.48048 126.611 11.1345 128.003C11.4169 128.245 11.9414 128.365 12.6406 128.352C9.44014 126.892 8.8619 113.459 8.8619 113.459Z" fill="#F2B348"/>
<path d="M101.098 113.419L99.1214 118.749L100.52 119.767L102.093 113.781L93.4062 101.46L101.098 113.419Z" fill="#F2B348"/>
</g>
<defs>
<linearGradient id="paint0_linear" x1="2.56323" y1="66.9199" x2="-16.4755" y2="51.1049" gradientUnits="userSpaceOnUse">
<stop stop-color="#FFB983"/>
<stop offset="1" stop-color="#FF5E44"/>
</linearGradient>
<linearGradient id="paint1_linear" x1="73.7497" y1="140.569" x2="56.0132" y2="140.759" gradientUnits="userSpaceOnUse">
<stop stop-color="#FFB983"/>
<stop offset="1" stop-color="#FF5E44"/>
</linearGradient>
<linearGradient id="paint2_linear" x1="73.0331" y1="142.706" x2="55.3616" y2="141.185" gradientUnits="userSpaceOnUse">
<stop stop-color="#FFB983"/>
<stop offset="1" stop-color="#FF5E44"/>
</linearGradient>
<clipPath id="clip0">
<rect width="322" height="342" fill="white"/>
</clipPath>
</defs>
</svg>
