<svg width="277" height="374" viewBox="0 0 277 374" fill="none" xmlns="http://www.w3.org/2000/svg">
<path d="M158.991 344.469L160.469 352.05L144.663 354.185L144.032 351.74L145.06 348.304L158.991 344.469Z" fill="#F2E048"/>
<path d="M182.791 356.836L181.932 360.769H158.928L155.704 359.263L149.435 360.769H142.448C142.448 360.769 142.632 353.054 144.169 351.321C144.169 351.321 153.662 353.529 159.467 347.131C159.467 347.131 172.6 355.591 175.548 356.006C178.493 356.421 182.791 356.836 182.791 356.836Z" fill="#1C1E23"/>
<path d="M128.427 222.436C129.448 213.017 116.589 192.774 116.982 183.305C117.464 171.649 121.366 157.056 121.366 157.056L171.037 159.264C171.037 159.264 191.026 212.28 158.448 346.707L144.624 349.753C144.624 349.753 149.895 272.848 150.853 266.655C151.812 260.459 153.907 260.151 153.907 245.593C153.907 231.035 151.597 191.219 151.597 191.219" fill="#3A3E51"/>
<path d="M159.649 61.3006C159.421 60.7651 151.454 51.3185 151.454 51.3185L130.012 47.1084L128.219 52.0414L97.6944 67.4853C97.6944 67.4853 85.5215 115.26 89.8756 135.588C89.8756 135.588 112.166 148.192 124.408 143.589L123.699 129.546C123.699 129.546 110.417 125.524 110.309 124.54C110.309 124.54 112.408 117.331 115.233 96.1085C115.233 96.1085 117.37 110.638 119.093 134.604C119.093 134.604 119.952 144.776 118.987 145.611C118.021 146.445 118.903 149.932 119.333 150.637C119.763 151.342 121.37 153.716 121.37 153.716C121.37 153.716 150.886 164.47 161.934 159.999H164.687C164.687 159.999 167.433 161.831 166.8 160.956C166.168 160.082 165.56 155.867 166.001 155.14C166.442 154.412 168.309 138.143 168.762 131.802C169.214 125.457 159.649 61.3006 159.649 61.3006Z" fill="#F2E048"/>
<path d="M139.47 62.667C139.59 62.1382 144.924 52.7475 144.924 52.7475L149.423 49.7891L150.269 52.2321C156.783 53.7113 166.567 56.4355 171.328 60.9758L172.284 62.3591C175.204 65.1435 177.615 67.4594 179.414 71.0224C186.524 85.1006 184.016 117.061 188.568 127.159C188.568 127.159 186.212 147.214 175.603 142.879L171.919 130.76C171.919 130.76 171.954 131.726 171.919 130.76C171.919 130.76 170.683 111.602 169.062 92.4097C169.062 92.4097 170.681 111.602 171.388 134.116C171.388 134.116 171.464 144.957 172.36 145.762C173.256 146.567 172.894 151.442 172.628 152.141C172.365 152.839 170.584 157.551 170.584 157.551C170.584 157.551 161.7 163.986 147.282 160.44L145.155 159.992C145.155 159.992 142.66 161.422 143.067 160.554C143.476 159.686 143.441 155.541 142.988 154.834C142.536 154.126 138.953 138.185 137.78 131.969C136.608 125.756 139.47 62.667 139.47 62.667Z" fill="#F2E048"/>
<path d="M151.301 42.2881C151.301 42.2881 152.075 57.7966 149.578 65.5742L145.543 65.6992C145.543 65.6992 137.833 57.0737 136.735 54.6128C135.638 52.1541 151.301 42.2881 151.301 42.2881Z" fill="#EAB783"/>
<path d="M136.735 54.6151C135.638 52.1541 151.301 42.2881 151.301 42.2881C151.301 42.2881 151.539 47.085 151.324 52.6785C150.488 51.0497 149.481 49.1711 149.423 49.3251C149.336 49.5616 143.908 58.3812 143.392 58.9569C143.099 59.2848 143.399 61.6454 143.711 63.6132C141.36 60.8979 137.491 56.304 136.735 54.6151Z" fill="#DF9761"/>
<path d="M202.753 140.865C202.753 140.865 188.287 148.902 180.174 146.253C168.775 142.529 189.876 130.764 189.876 130.764L207.11 129.53L202.753 140.865Z" fill="#EBBC8C"/>
<path d="M191.791 130.363C191.791 130.363 178.167 142.868 180.519 147.023L181.316 147.819C181.316 147.819 179.5 148.192 179.117 147.273C178.733 146.351 171.637 137.717 175.282 133.955C185.931 122.964 191.791 130.363 191.791 130.363Z" fill="#E2B147"/>
<path d="M131.524 46.3232C131.524 46.3232 128.831 46.1046 129.212 44.5498C129.215 44.552 128.196 46.5195 131.524 46.3232Z" fill="#DF9761"/>
<path d="M145.543 65.7L144.189 64.5353L139.057 74.1249L131.765 60.1533L138.909 78.7278L145.543 65.7Z" fill="#E2B147"/>
<path d="M149.578 65.5751L158.494 75.9628C158.494 75.9628 155.727 54.5136 155.545 54.4756C155.362 54.4377 156.847 72.179 156.847 72.179L150.153 63.5248L149.578 65.5751Z" fill="#E2B147"/>
<path d="M132.49 130.851C132.49 130.851 155.558 130.525 156.644 130.229C157.73 129.932 163.368 124.916 164.89 124.564C166.41 124.213 170.261 123.629 171.053 123.178C171.845 122.727 174.647 122.29 175.04 122.712C175.43 123.134 175.423 124.104 175.303 124.561C175.181 125.017 172.543 127.362 170.73 127.234C168.916 127.107 168.556 128.118 168.556 128.118L192.772 134.91C192.772 134.91 193.091 136.231 192.384 136.367C191.678 136.503 176.412 134.568 175.779 134.736C175.146 134.903 161.391 136.748 160.917 136.956C160.441 137.161 131.885 143.837 131.885 143.837L132.49 130.851Z" fill="url(#paint0_linear)"/>
<path d="M203.857 142.431C203.857 142.431 208.435 138.446 208.978 136.659C209.521 134.872 209.528 133.85 209.613 133.038C209.697 132.226 209.163 128.76 208.997 128.145C208.83 127.527 206.174 124.559 205.865 124.227C205.555 123.894 197.866 121.147 197.866 121.147C197.866 121.147 197.039 123.504 200.032 124.954C203.028 126.404 203.028 126.404 203.028 126.404L203.536 127.234L196.584 125.94C196.584 125.94 196.115 128.205 198.383 128.899C200.651 129.593 201.811 130.969 201.811 130.969L195.193 128.682C195.193 128.682 194.412 131.114 196.787 132.154C199.161 133.194 200.947 134.214 200.947 134.214L204.199 138.674L193.444 135.229C193.444 135.229 192.809 137.121 195.93 138.346C199.051 139.569 203.728 143.168 203.857 142.431Z" fill="url(#paint1_linear)"/>
<path d="M203.278 127.183L203.536 127.232L203.028 126.402C203.028 126.402 203.028 126.402 200.032 124.952C200.018 124.945 200.007 124.938 199.993 124.932C199.402 124.579 198.868 124.207 198.445 123.765C197.394 122.484 197.863 121.146 197.863 121.146C197.863 121.146 197.958 121.179 198.117 121.237C198.18 124.144 201.196 124.581 203.088 126.215C204.816 127.707 206.054 130.186 207.093 132.143C207.158 132.265 206.985 132.359 206.902 132.25C205.999 131.036 205.259 129.704 204.384 128.468C204.044 127.986 203.675 127.567 203.278 127.183Z" fill="#D16C5B"/>
<path d="M205.105 135.495C204.211 134.197 203.372 132.865 202.296 131.692C202.044 131.417 201.778 131.127 201.503 130.86L201.811 130.967C201.811 130.967 200.653 129.59 198.383 128.896C196.115 128.203 196.584 125.938 196.584 125.938L196.748 125.97C196.921 128.892 200.15 128.613 201.818 130.32C203.229 131.761 204.527 133.534 205.444 135.306C205.56 135.524 205.245 135.7 205.105 135.495Z" fill="#D16C5B"/>
<path d="M171.508 154.19C171.508 154.19 155.438 159.467 121.368 153.713V159.822C121.368 159.822 156.531 165.645 171.039 159.726L171.508 154.19Z" fill="#1C1E23"/>
<path d="M147.897 163.756C148.005 163.999 160.592 163.002 161.072 162.542C161.552 162.083 160.368 154.548 160.368 154.548C158.975 154.494 147.696 155.59 147.696 155.59C147.696 155.59 147.788 163.513 147.897 163.756ZM148.825 156.587L158.91 155.757L159.169 158.689L157.014 158.865L157.097 159.992L159.275 159.874L159.421 161.518L149.308 162.054L148.825 156.587Z" fill="#AAACB6"/>
<path d="M130.651 166.164L128.055 164.91C128.055 164.91 122.461 180.784 119.049 181.788L119.529 182.875C119.529 182.875 126.154 179.702 130.651 166.164Z" fill="#49526E"/>
<path d="M159.753 163.478C159.753 163.478 158.425 179.809 155.438 181.587H150.5L150.022 164.1L151.258 180.902H154.889C154.889 180.902 158.388 175.516 159.753 163.478Z" fill="#49526E"/>
<path d="M134.068 144.934C134.151 144.626 133.469 132.291 134.077 129.591C134.077 129.591 130.344 128.73 129.628 129.252C128.912 129.772 128.531 129.966 128.076 129.962C127.623 129.959 126.163 129.047 124.807 128.601C123.452 128.154 119.442 126.169 119.093 126.631C118.742 127.093 115.704 141.46 116.972 146.489C116.972 146.489 119.555 147.022 120.971 146.389C122.389 145.755 125.588 144.91 126.907 145.456C128.221 146.001 134.068 144.934 134.068 144.934Z" fill="#E2B147"/>
<path d="M168.092 161.144C168.092 161.144 167.468 154.83 167.138 154.692C166.807 154.556 165.299 154.788 165.253 155.154C165.207 155.519 166.204 161.605 166.204 161.605L168.092 161.144Z" fill="#3A3E51"/>
<path d="M130.39 162.056C130.39 162.056 130.979 154.954 130.39 154.639C129.801 154.327 128.556 153.468 128.295 153.78C128.034 154.093 127.706 161.152 127.706 161.152L130.39 162.056Z" fill="#3A3E51"/>
<path d="M132.028 342.219L131.15 357.054L117.407 356.099L116.774 353.653L117.977 347.553L132.028 342.219Z" fill="#F2E048"/>
<path d="M152.932 359.8L152.001 362.91L127.131 363.372L123.646 361.355L123.063 363.372H114.554C114.554 363.372 114.753 355.403 116.413 353.611C116.413 353.611 126.438 358.529 132.714 351.918C132.714 351.918 142.39 358.513 145.575 358.941C148.761 359.37 152.932 359.8 152.932 359.8Z" fill="#1C1E23"/>
<path d="M117.257 191.276C117.257 191.276 124.262 231.564 124.262 246.122C124.262 260.68 122.645 260.99 121.687 267.184C120.728 273.38 117.367 349.823 117.367 349.823L131.88 350.653C157.827 219.801 153.902 184.186 153.902 184.186C153.902 184.186 136.886 179.458 126.521 181.053C120.301 182.011 116.875 185.505 117.257 191.276Z" fill="#3A3E51"/>
<path d="M116.982 183.306C116.982 183.306 125.879 249.354 126.27 253.071C126.66 256.788 124.262 266.355 122.763 270.382C121.264 274.409 117.82 350.963 117.82 350.963C117.82 350.963 118.675 274.469 119.633 268.274C120.592 262.078 123.061 262.426 123.061 247.868C123.061 233.31 117.257 192.663 117.257 192.663L116.982 183.306Z" fill="#313648"/>
<path d="M151.696 183.078C151.417 181.523 147.793 180.902 147.631 180.902C147.469 180.902 160.501 180.902 160.984 180.902L154.748 182.312C154.748 182.312 155.526 247.439 155.916 251.154C156.307 254.871 153.431 264.438 151.932 268.465C150.433 272.492 145.079 349.046 145.079 349.046C145.079 349.046 147.844 272.552 148.802 266.357C149.761 260.161 152.23 260.509 152.23 245.951C152.228 231.395 151.696 183.078 151.696 183.078Z" fill="#313648"/>
<path d="M188.594 334.435C188.49 334.834 187.94 337.034 187.94 337.034C187.94 337.034 187.46 339.917 186.838 345.898C186.219 351.88 186.014 358.656 185.91 359.455C185.806 360.251 189.315 365.037 193.442 365.037C197.57 365.037 200.46 362.944 200.873 362.146C201.286 361.349 198.517 338.031 197.63 336.73C196.745 335.432 188.594 334.435 188.594 334.435Z" fill="#1C1E23"/>
<path d="M251.747 334.435C251.747 334.435 250.509 335.53 250.613 338.522C250.717 341.512 251.747 347.194 251.747 347.194L253.812 365.037H254.741C254.741 365.037 255.669 354.47 256.392 353.076C256.392 353.076 261.139 365.137 261.964 365.037C262.788 364.936 273.005 365.037 273.005 365.037C273.005 365.037 276.308 362.145 276.617 359.155C276.617 359.155 277.569 358.243 269.82 349.08C262.068 339.916 251.747 334.435 251.747 334.435Z" fill="#1C1E23"/>
<path d="M185.91 322.971C186.014 323.569 187.972 332.141 188.076 333.038C188.18 333.935 186.942 352.872 188.076 354.369C189.211 355.864 198.189 356.663 199.325 355.565C199.325 355.565 197.983 340.115 197.674 338.022C197.364 335.929 198.397 334.234 197.674 332.04C196.951 329.847 195.918 326.159 195.918 323.569C195.921 320.979 185.91 322.971 185.91 322.971Z" fill="#FAB986"/>
<path d="M196.39 327.562C196.099 326.199 195.891 324.824 195.891 323.669C195.891 321.085 185.912 323.073 185.912 323.073C185.954 323.314 186.296 324.845 186.698 326.645C189.215 327.23 192.724 327.783 196.39 327.562Z" fill="#CC705D"/>
<path d="M247.724 322.672C247.724 322.672 249.789 328.254 250.509 331.046C251.232 333.837 250.819 339.419 252.265 341.71C253.708 344.004 255.877 344.303 256.806 347.393C257.734 350.483 260.419 356.761 261.657 357.16C262.895 357.56 273.525 356.163 274.245 355.467C274.245 355.467 267.332 345.599 266.195 343.607C265.061 341.612 262.377 336.032 260.52 332.842C258.663 329.651 257.734 320.481 257.734 320.481L247.724 322.672Z" fill="#FAB986"/>
<path d="M258.464 325.656C257.977 322.882 257.734 320.479 257.734 320.479L247.724 322.673C247.724 322.673 248.899 325.852 249.786 328.612C251.794 328.699 256.309 328.543 258.464 325.656Z" fill="#CC705D"/>
<path d="M178.07 147.758C178.07 147.758 173.173 153.535 172.24 167.232C171.307 180.929 174.143 211.062 178.07 224.971C181.997 238.88 182.214 242.461 182.214 247.097C182.214 251.733 176.76 275.756 178.07 285.028C179.38 294.301 185.27 324.222 185.27 324.222C185.27 324.222 195.087 326.54 200.104 324.222C200.104 324.222 197.923 281.023 198.577 264.799C199.231 248.574 199.013 242.673 199.013 242.673C199.013 242.673 201.594 175.663 203.575 173.555C205.557 171.449 225.193 242.461 225.41 245.622C225.627 248.784 226.607 272.172 232.116 285.238C237.627 298.303 244.388 320.429 245.044 324.01C245.044 324.01 258.393 327.984 258.878 323.167C259.005 321.902 242.861 244.779 242.861 243.302C242.861 241.825 241.803 182.287 225.316 150.63C208.83 118.977 180.532 143.394 178.07 147.758Z" fill="#3A3E51"/>
<path d="M225.318 150.632C224.232 148.546 223.091 146.71 221.913 145.088C220.495 144.923 220.225 145.579 222.274 147.758C229.367 155.309 233.574 177.528 236.186 187.627C238.798 197.725 242.028 241.23 242.028 243.755C242.028 246.279 246.948 269.146 248.638 275.828C250.329 282.51 258.032 323.936 258.032 323.936C255.589 326.457 246.178 323.344 246.178 323.344C246.178 323.344 243.718 315.475 241.106 307.307C238.493 299.141 233.045 287.492 229.966 276.627C226.887 265.759 227.27 250.884 227.117 248.358C226.963 245.835 226.503 244.201 220.798 223.637C215.092 203.073 204.285 170.944 204.074 170.741C203.864 170.538 206.491 167.649 206.962 167.14C207.435 166.634 207.329 165.619 207.329 165.619C207.329 165.619 204.335 168.51 203.34 169.675C202.342 170.842 202.829 170.65 201.554 175.598C200.277 180.547 196.886 269.442 197.297 281.718C197.706 293.994 199.33 322.972 199.33 322.972C196.648 325.62 185.914 322.972 185.914 322.972C185.914 322.972 179.26 285.676 178.472 280.926C177.682 276.174 183.976 250.634 183.951 248.061C183.926 245.487 181.313 231.43 179.056 223.907C176.802 216.384 172.323 182.566 173.079 173.222C173.834 163.881 176.823 149.675 176.823 149.673C175.305 152.363 172.875 157.993 172.245 167.232C171.312 180.929 174.148 211.062 178.075 224.971C182.002 238.88 182.221 242.461 182.221 247.097C182.221 251.734 176.767 275.756 178.075 285.029C179.384 294.302 185.275 324.223 185.275 324.223C185.275 324.223 195.091 326.542 200.108 324.223C200.108 324.223 197.928 281.024 198.582 264.799C199.235 248.574 199.018 242.673 199.018 242.673C199.018 242.673 201.598 175.663 203.58 173.555C205.562 171.449 225.198 242.461 225.415 245.623C225.632 248.784 226.612 272.173 232.121 285.239C237.632 298.304 244.393 320.43 245.049 324.011C245.049 324.011 258.397 327.985 258.883 323.168C259.01 321.903 242.866 244.779 242.866 243.302C242.864 241.83 241.806 182.29 225.318 150.632Z" fill="#313648"/>
<path d="M195.715 144.265C195.715 144.265 205.001 145.563 207.784 144.265C210.567 142.967 200.649 140.799 200.649 140.799L194.759 143.603L195.715 144.265Z" fill="#D9DADD"/>
<path d="M177.451 83.7434C177.594 83.8527 162.195 90.2271 145.125 121.818C145.125 121.818 147.989 129.888 158.494 137.152C168.999 144.417 172.46 146.722 172.46 146.722C172.46 146.722 173.587 144.647 175.887 142.226C175.887 142.226 172.935 139.114 167.565 131.503C162.195 123.893 160.642 120.318 158.136 118.473L178.906 103.714C178.906 103.714 177.846 112.938 185.18 116.512C185.18 116.512 189.171 130.118 189.171 131.385C189.171 132.652 182.935 141.07 182.935 141.07C182.935 141.07 185.293 146.606 187.471 146.72C189.649 146.836 201.215 141.878 201.215 141.878C201.215 141.878 209.701 145.798 211.611 145.682C213.522 145.566 220.066 141.416 220.066 141.416C220.066 141.416 215.497 138.533 215.642 136.459C215.788 134.384 218.892 115.231 218.892 115.231C218.892 115.231 227.249 111.439 223.907 100.832C223.907 100.832 242.289 116.166 244.915 118.241C244.915 118.241 241.452 121.47 235.008 131.385C228.561 141.3 226.602 143.261 226.602 143.261C226.602 143.261 229.28 145.914 230.591 147.757C230.591 147.757 236.56 141.07 245.035 134.613C253.51 128.156 258.883 119.279 258.883 119.279C258.883 119.279 246.296 96.5167 224.002 81.7822C201.705 67.05 177.451 83.7434 177.451 83.7434Z" fill="#F2E048"/>
<path d="M159.418 137.151C148.913 129.886 146.049 121.817 146.049 121.817C163.119 90.2266 178.518 83.8523 178.375 83.743C178.375 83.743 189.79 75.8896 204.155 75.7133C189.358 75.5505 177.451 83.743 177.451 83.743C177.594 83.8523 162.195 90.2266 145.125 121.817C145.125 121.817 147.989 129.886 158.494 137.151C168.999 144.415 172.46 146.72 172.46 146.72C172.46 146.72 172.55 146.557 172.723 146.276C171.293 145.312 167.38 142.657 159.418 137.151Z" fill="#E2B147"/>
<path d="M183.859 141.072C183.859 141.072 190.095 132.656 190.095 131.386C190.095 130.119 186.104 116.514 186.104 116.514C178.77 112.939 179.83 103.716 179.83 103.716L178.862 104.403C178.786 106.607 179.057 113.528 185.18 116.514C185.18 116.514 189.171 130.119 189.171 131.386C189.171 132.654 182.935 141.072 182.935 141.072C182.935 141.072 185.293 146.607 187.471 146.721C187.631 146.73 187.841 146.71 188.093 146.667C186.005 146.103 183.859 141.072 183.859 141.072Z" fill="#E2B147"/>
<path d="M227.524 143.263C227.524 143.263 229.485 141.302 235.929 131.387C242.376 121.471 245.836 118.243 245.836 118.243C243.21 116.168 224.828 100.833 224.828 100.833C224.937 101.177 225.032 101.514 225.117 101.844C229.256 105.295 242.697 116.491 244.913 118.243C244.913 118.243 241.45 121.471 235.006 131.387C228.559 141.302 226.6 143.263 226.6 143.263C226.6 143.263 229.277 145.916 230.589 147.759C230.589 147.759 230.767 147.561 231.097 147.206C229.709 145.428 227.524 143.263 227.524 143.263Z" fill="#E2B147"/>
<path d="M202.139 141.881C202.139 141.881 201.965 141.954 201.661 142.084C203.425 142.882 209.964 145.783 211.611 145.683C211.708 145.676 211.822 145.659 211.942 145.632C209.292 145.181 202.139 141.881 202.139 141.881Z" fill="#E2B147"/>
<path d="M187.864 84.7222C186.506 78.7828 192.465 77.5133 192.465 77.5133C192.465 77.5133 208.715 67.8635 212.023 79.2424C215.33 90.6213 206.516 113.04 201.584 112.933C198.113 112.857 193.426 101.871 190.139 93.2876C190.141 93.2854 189.144 90.3201 187.864 84.7222Z" fill="#F9F9F9"/>
<path d="M223.315 99.4414C223.315 99.4414 223.66 99.7337 223.937 100.858C224.563 101.38 242.335 116.204 244.915 118.243C244.915 118.243 241.452 121.472 235.008 131.387C228.561 141.302 226.602 143.263 226.602 143.263C226.602 143.263 226.847 143.504 227.219 143.89C229.176 141.054 241.974 122.487 243.148 120.789C244.418 118.948 246.144 118.248 246.144 118.248C243.145 116.666 223.315 99.4414 223.315 99.4414Z" fill="#E2B147"/>
<path d="M183.979 141.387C183.073 140.118 186.046 137.793 186.046 137.793C186.046 137.793 189.873 132.181 189.645 131.744C189.416 131.307 186.046 117.233 186.046 117.233V116.425C176.139 111.887 180.082 100.363 180.082 100.363C179.548 100.801 179.255 102.818 179.255 102.818C176.624 105.359 156.931 118.596 156.931 118.596C160.107 120.35 160.652 122.717 166.369 130.666C171.034 137.157 174.585 141.146 175.733 142.393C175.786 142.338 175.837 142.282 175.89 142.224C175.89 142.224 172.938 139.111 167.567 131.501C162.197 123.891 160.645 120.316 158.136 118.471L178.906 103.712C178.906 103.712 177.846 112.936 185.18 116.51C185.18 116.51 189.171 130.115 189.171 131.383C189.171 132.65 182.935 141.068 182.935 141.068C182.935 141.068 184.351 144.379 186 145.93L188.243 146.637C191.576 146.006 201.215 141.876 201.215 141.876C201.215 141.876 190.871 145.066 189.654 145.562C188.437 146.059 184.887 142.657 183.979 141.387Z" fill="#E2B147"/>
<path d="M211.882 145.646C208.565 145.039 201.215 141.88 201.215 141.88C201.215 141.88 209.701 145.8 211.611 145.684C211.692 145.68 211.785 145.664 211.882 145.646Z" fill="#E2B147"/>
<path d="M220.065 141.418C220.065 141.418 215.497 138.536 215.642 136.461C215.788 134.386 218.892 115.234 218.892 115.234C218.892 115.234 227.03 111.533 224.02 101.229C224.242 102.343 224.385 104.108 224.191 106.87C223.75 113.202 217.552 115.002 217.552 115.002L218.46 115.618C218.46 115.618 215.284 132.974 215.37 136.813C215.455 140.653 217.827 142.179 217.827 142.179C217.827 142.179 216.273 143.346 214.917 144.395C217.358 143.134 220.065 141.418 220.065 141.418Z" fill="#E2B147"/>
<path d="M192.539 77.0126C192.539 77.0126 191.855 90.2447 195.246 90.6999C198.635 91.155 201.215 88.7455 201.215 88.7455C201.215 88.7455 204.051 91.5298 206.934 90.9274C209.817 90.325 210.413 82.4206 208.616 76.7783L206.897 86.9406C206.897 86.9406 200.196 88.7856 197.235 87.2797C194.271 85.7715 192.539 77.0126 192.539 77.0126Z" fill="#D9DADD"/>
<path d="M191.772 75.2024C191.772 75.2024 194.324 84.6177 197.826 86.2777C201.328 87.9376 201.328 87.6097 201.328 87.6097C201.328 87.6097 205.34 85.673 206.484 83.9171C207.629 82.1612 208.92 75.8918 208.92 75.8918L207.565 66.791L194.955 67.7593L192.005 70.1199L191.772 75.2024Z" fill="#EAB783"/>
<path d="M175.234 84.8282C175.234 84.8282 174.642 80.4932 173.876 78.8957C173.109 77.2982 173.226 76.5575 173.522 76.0444C173.818 75.5312 176.356 74.5607 176.594 72.6219C176.83 70.683 176.948 68.742 177.186 66.9169C177.421 65.0919 176.419 63.3159 176.832 61.9795C177.246 60.6431 178.25 60.3575 177.599 57.7337C176.95 55.1099 176.063 53.7646 176.476 52.1849C176.89 50.6031 177.435 50.8864 177.812 48.2337C178.188 45.5831 179.371 41.7612 180.315 41.1321C181.26 40.5051 182.854 40.2195 183.505 39.3628C184.154 38.5061 187.056 33.1447 187.878 32.404C188.702 31.6633 190.945 30.8065 191.359 30.9783C191.772 31.1501 193.726 33.6021 193.726 33.6021C193.726 33.6021 191.772 30.8645 192.303 29.4946C192.835 28.1247 196.32 28.5241 196.32 28.5241C196.32 28.5241 196.969 26.641 198.741 26.8128C200.513 26.9846 205.414 28.4683 207.659 28.5821C209.905 28.6959 211.263 29.3228 211.794 31.0341C212.325 32.7453 212.452 33.0889 212.452 33.0889C212.452 33.0889 216.695 34.4655 217.049 35.4271C217.402 36.391 217.049 37.7653 218.703 40.2195C220.357 42.6715 221.479 45.9802 221.893 47.8633C222.306 49.7464 225.318 53.624 225.022 55.2795C224.727 56.935 222.955 57.968 223.191 58.905C223.426 59.8421 227.03 62.8652 226.556 66.3168C226.083 69.7683 227.03 70.3952 225.847 75.7588C225.847 75.7588 225.08 77.0149 225.551 78.7262C226.025 80.4374 227.087 81.6355 225.729 82.8336C224.371 84.0317 223.78 84.0317 223.191 83.8041C222.599 83.5766 220.77 82.3785 220.239 82.4923C219.707 82.6061 215.986 83.9759 214.746 83.1772C213.506 82.3785 210.205 80.9528 210.112 80.3259C210.02 79.6989 210.433 78.6146 210.433 78.6146C210.433 78.6146 207.657 76.4281 207.421 73.6705C207.186 70.9128 207.1 69.6322 207.1 69.6322L193.592 69.7794C193.592 69.7794 193.731 72.9654 193.726 74.2193C193.722 75.4754 192.539 77.0149 192.539 77.0149C192.539 77.0149 192.775 79.5249 192.186 80.1518C191.594 80.7788 187.46 82.0907 187.402 82.8894C187.342 83.6881 183.799 85.1718 181.436 84.6007C179.073 84.0295 176.948 87.51 175.234 84.8282Z" fill="#634031"/>
<path d="M194.955 67.7592L192.005 70.1196L191.772 75.2016C191.772 75.2016 192.056 76.2501 192.564 77.7069C193.174 76.8391 194.167 75.3622 194.214 74.9094C194.281 74.2557 194.214 70.7911 194.214 70.7911C194.214 70.7911 198.032 73.9077 199.378 73.9322C202.386 73.988 202.792 73.5552 203.164 73.3633C203.765 73.051 206.89 70.7643 206.89 70.7643C206.89 70.7643 206.911 75.0298 207.227 75.3622C207.398 75.5407 208.038 76.4933 208.597 77.3388C208.798 76.4777 208.918 75.891 208.918 75.891L207.562 66.791L194.955 67.7592Z" fill="#A8412D"/>
<path d="M215.642 78.2043C213.556 76.705 213.501 74.0121 213.443 73.0639C213.385 72.1134 215.679 65.4179 216.393 63.4234C217.109 61.4288 215.642 58.1156 214.85 55.9916C214.057 53.8676 212.205 48.3457 212.205 48.3457L205.511 64.1953L204.472 69.6592L207.1 69.6302C207.1 69.6302 207.186 70.9109 207.421 73.6685C207.657 76.4261 210.433 78.6126 210.433 78.6126C210.433 78.6126 210.02 79.6969 210.112 80.3238C210.205 80.9507 213.505 82.3764 214.746 83.1751C215.737 83.8132 218.31 83.068 219.576 82.6843C218.783 81.5219 217.15 79.2863 215.642 78.2043Z" fill="#482D22"/>
<path d="M192.098 38.5371C192.008 38.5661 190.954 38.6219 189.88 39.7352C188.806 40.8486 187.993 42.3702 187.875 42.7495C187.758 43.1288 186.503 44.2019 186.503 44.2019C186.503 44.2019 185.58 46.0694 185.346 46.5714C185.111 47.0712 181.644 52.8654 181.41 53.421C181.41 53.421 184.72 50.4313 185.385 48.8427C186.048 47.2541 187.656 44.5388 187.686 44.4496C187.716 44.3604 189.606 42.185 189.606 42.185L192.098 38.5371Z" fill="#482D22"/>
<path d="M198.718 63.2165C198.628 63.0469 196.131 50.1107 196.131 50.1107L189.104 42.9375C189.104 42.9375 187.455 43.3793 186.633 45.9094C185.81 48.4395 182.422 52.8952 180.897 53.7095C180.897 53.7095 179.433 60.0126 182.699 64.2785C185.965 68.5445 186.947 66.9671 188.409 71.6882C189.474 75.1242 191.359 78.4263 192.308 79.9703C192.742 79.147 192.541 77.0118 192.541 77.0118C192.541 77.0118 193.722 75.4723 193.729 74.2161C193.733 72.96 193.595 69.7761 193.595 69.7761L197.316 69.7359C197.865 67.0876 198.776 63.3281 198.718 63.2165Z" fill="#482D22"/>
<path d="M201.806 38.9854C201.806 38.9854 206.098 37.2852 206.484 36.888C206.869 36.4908 208.83 35.9866 209.135 36.6091C209.442 37.2316 208.89 38.5124 208.89 38.5124C208.89 38.5124 207.525 40.1992 207.629 40.9667C207.736 41.7343 201.806 38.9854 201.806 38.9854Z" fill="#482D22"/>
<path d="M223.544 52.2174C224.221 53.4958 224.955 54.8412 224.475 56.3004C224.364 56.6373 224.182 56.943 223.994 57.2442C224.422 56.6887 224.884 56.0505 225.02 55.2763C225.316 53.6208 222.304 49.743 221.89 47.8599C221.853 47.6925 221.805 47.5029 221.756 47.3155C221.735 47.2619 221.71 47.2106 221.692 47.157C221.237 45.9321 220.835 44.6871 220.424 43.4466C220.241 43.0204 220.047 42.5965 219.837 42.1748C220.671 45.6688 221.851 49.0178 223.544 52.2174Z" fill="#A35D40"/>
<path d="M219.878 82.4343C218.945 81.8676 218.973 81.5954 218.546 80.8279C217.686 79.2862 216.176 78.3804 215 77.0975C212.875 74.7772 214 71.9237 214.975 69.3803C215.771 67.2964 216.492 65.1858 216.728 62.9637C217.178 58.6711 214.591 55.3289 213.464 51.3621C212.919 49.4456 212.584 47.6139 211.302 46.003C210.022 44.3967 208.606 43.203 207.983 41.1884C207.973 41.1571 207.925 41.1661 207.927 41.1973C207.985 42.9219 209.329 44.2717 210.383 45.5546C211.896 47.393 212.385 49.285 213.009 51.5026C213.217 52.2389 213.485 52.9528 213.778 53.6556C213.432 58.2918 212.979 62.6669 210.736 66.8837C209.214 69.7439 208.32 72.593 208.722 75.6362C208.65 75.953 208.602 76.2698 208.581 76.5844C208.648 76.6826 208.715 76.7785 208.784 76.87C208.793 76.6915 208.81 76.513 208.837 76.3345C208.895 76.6246 208.969 76.9168 209.052 77.2113C209.11 77.2827 209.168 77.3497 209.225 77.4166C209.098 76.9124 208.997 76.4037 208.923 75.8928C209.198 74.6969 209.817 73.5256 210.364 72.4457C211.23 70.739 212.161 69.0612 213.007 67.3433C214.344 64.6258 215.621 61.6072 215.778 58.5506C216.196 59.9696 216.319 61.3707 216.19 62.7763C214.674 67.8854 210.362 72.2717 209.239 77.43C209.364 77.575 209.484 77.7066 209.6 77.8271C210.316 75.1788 211.598 72.7603 213.011 70.3195C214.187 68.2915 215.323 66.2746 215.995 64.0859C215.887 64.6504 215.748 65.2148 215.57 65.786C214.734 68.4789 212.743 71.792 213.171 74.7348C212.69 77.1957 212.251 79.873 213.025 82.2246C213.129 82.2781 213.233 82.3339 213.335 82.3874C212.498 80.0671 212.787 77.4902 213.214 75.0048C213.321 75.5447 213.508 76.0735 213.813 76.5799C213.944 78.9672 214.744 81.3767 216.053 83.4226C216.171 83.4182 216.293 83.4093 216.416 83.3981C215.245 81.3745 214.494 79.2929 214.101 76.9904C214.157 77.0663 214.201 77.1444 214.263 77.218C214.725 77.7803 215.24 78.2689 215.758 78.7485C216.127 80.3281 216.975 81.8297 218.058 83.1058C218.162 83.0813 218.266 83.0545 218.368 83.0277C217.435 81.8029 216.73 80.4977 216.099 79.0631C216.906 79.8038 217.7 80.5512 218.305 81.5262C218.689 82.1442 218.989 82.432 219.49 82.7109C219.728 82.6395 219.925 82.5793 220.065 82.5391C220.003 82.5012 219.938 82.47 219.878 82.4343ZM211.424 69.9202C210.627 71.4328 209.38 73.3136 208.833 75.2011C208.687 73.684 208.791 72.1557 209.202 70.6609C209.812 68.4499 211.189 66.6115 212.078 64.5187C213.466 61.2524 214.055 57.5645 213.93 54.026C214.487 55.3245 215.111 56.5962 215.584 57.9281C215.605 57.9884 215.619 58.0508 215.64 58.1111C215.069 62.3657 213.445 66.085 211.424 69.9202Z" fill="#A35D40"/>
<path d="M224.706 61.952C226.099 63.8685 226.632 65.8787 226.244 68.2012C225.935 70.0529 225.175 71.8065 224.87 73.6605C224.408 76.4716 225.177 79.227 226.371 81.7837C226.422 81.4848 226.385 81.1769 226.3 80.8534C225.875 79.865 225.501 78.8611 225.286 77.7946C224.821 75.4967 225.295 73.4597 225.937 71.2577C226.124 70.6129 226.297 69.9793 226.438 69.3546C226.406 68.4734 226.387 67.5854 226.561 66.3159C226.722 65.1268 226.399 63.9912 225.898 62.9738C225.78 62.753 225.653 62.5321 225.505 62.309C225.055 61.6263 224.161 60.803 223.891 59.9798C223.639 59.6563 223.44 59.3863 223.315 59.1699C223.35 60.2096 224.068 61.0775 224.706 61.952Z" fill="#A35D40"/>
<path d="M209.484 46.2801C209.593 46.347 209.791 46.1418 209.704 46.0458C208.05 44.2185 207.156 42.235 208.149 39.8143C208.475 39.02 210.089 37.1101 209.242 36.2489C208.47 35.4635 206.629 36.6193 205.925 37.0008C203.758 38.1744 201.358 39.1494 198.822 38.9463C198.785 38.9441 198.716 39.0311 198.766 39.0467C198.824 39.0624 198.882 39.0691 198.942 39.0824C198.783 39.0802 198.623 39.0847 198.45 39.0958C198.348 39.1025 198.256 39.1025 198.161 39.1025C198.164 39.1003 198.164 39.0981 198.166 39.0981C201.125 38.538 203.361 36.1708 206.264 35.3542C206.313 35.3408 206.37 35.2293 206.287 35.2471C203.331 35.8718 201.222 38.2614 198.309 38.9285C199.75 37.2395 201.238 35.4457 202.975 34.1293C205.003 32.5921 208.997 32.7415 210.639 34.6849C211.397 35.5818 212.196 36.4385 213.055 37.244C213.275 37.4492 213.512 37.6478 213.757 37.8464C215.256 41.1239 213.628 44.8767 214.824 48.2859C215.413 49.9659 216.333 51.5144 217.09 53.1252C217.97 54.9972 218.511 56.9561 218.661 59.0132C218.811 61.0926 218.58 63.21 218.026 65.2247C217.462 67.2818 216.402 69.1426 215.702 71.1506C214.921 73.3885 214.573 76.6258 216.769 78.268C216.862 78.3371 217.019 78.2323 216.936 78.1319C213.963 74.513 216.312 70.8137 217.728 67.0743C218.892 63.9976 219.373 60.6442 218.807 57.3979C218.192 53.8704 215.954 51.1194 214.864 47.775C213.81 44.5376 215.439 40.9678 213.822 37.9044C214.603 38.5403 215.434 39.1873 215.875 40.0441C216.809 41.8513 216.303 44.0311 217.06 45.8986C217.06 45.903 217.056 45.9053 217.058 45.9097C217.063 45.9187 217.07 45.9254 217.074 45.9343C217.137 46.086 217.206 46.2355 217.287 46.3827C217.305 46.4162 217.34 46.4028 217.37 46.376C218.384 47.8664 219.516 49.2609 219.994 51.0347C220.622 53.364 220.327 56.0637 220.075 58.422C219.689 62.0498 218.213 65.8695 219.123 69.513C219.629 71.5366 220.419 73.4219 220.812 75.4857C221.089 76.9516 221.394 78.4175 222.223 79.6981C223.078 81.0167 224.269 82.0408 225.374 83.1274C225.487 83.0359 225.6 82.9444 225.727 82.8329C225.764 82.8016 225.792 82.7682 225.824 82.7369C224.891 81.8556 223.87 81.0301 223.094 80.0819C221.8 78.5045 221.5 76.5879 221.121 74.6691C220.698 72.5272 219.594 70.5415 219.296 68.3862C218.998 66.2243 219.555 64.0623 219.906 61.9405C220.257 59.8254 220.463 57.6902 220.532 55.5505C220.592 53.692 220.615 51.7932 219.902 50.0351C219.331 48.6295 218.405 47.3109 217.372 46.1708C216.647 43.8682 217.222 40.7558 215.43 38.8973C214.395 37.8241 213.154 36.9428 212.12 35.8607C211.297 34.9995 210.616 33.7902 209.473 33.2859C207.77 32.5363 204.825 32.6991 203.275 33.6987C202.113 34.4461 201.143 35.6621 200.217 36.6483C199.51 37.4024 198.831 38.1766 198.166 38.9664C197.963 39.0088 197.752 39.0378 197.542 39.0624C197.399 39.0378 197.253 38.9999 197.103 38.9553C198.632 35.7826 200.527 33.1052 203.342 30.7647C205.088 29.3123 207.25 29.319 209.452 29.4751C209.939 29.5108 210.353 29.6068 210.718 29.7518C210.715 29.7607 210.708 29.7674 210.713 29.7764C211.283 30.8205 211.357 31.9963 211.863 33.0606C212.212 33.7924 212.686 34.4551 213.217 35.0709C214.476 36.5256 216.03 37.7214 217.238 39.2185C218.65 40.9655 219.1 42.9892 219.604 45.0976C220.109 47.2194 220.92 48.9329 222.114 50.7669C223.627 53.0895 224.424 55.1846 223.001 57.7705C222.117 59.3791 220.835 60.7401 220.317 62.5273C219.273 66.1216 220.276 70.3987 221.805 73.7276C221.807 73.7321 221.809 73.7321 221.812 73.7343C222.666 75.6821 223.657 77.5897 224.565 79.5063C225.046 80.5192 225.514 81.541 225.993 82.5562C226.078 82.4514 226.147 82.3487 226.203 82.2439C225.665 81.1372 225.119 80.035 224.588 78.9306C223.75 77.1836 222.962 75.3831 222.05 73.6607C222.047 73.6562 222.052 73.654 222.05 73.6517C220.375 69.7606 219.139 64.6469 221.435 60.7557C222.405 59.1114 223.932 57.6165 224.223 55.6754C224.496 53.8548 223.565 52.235 222.599 50.7468C221.225 48.6273 220.435 46.6929 219.878 44.2565C219.423 42.2596 218.851 40.4323 217.513 38.8169C216.321 37.3756 214.836 36.2043 213.593 34.8098C212.852 33.9776 212.2 33.0963 211.824 32.0499C211.524 31.2154 211.443 30.4546 210.819 29.8054C210.988 29.879 211.143 29.9638 211.29 30.0552C211.08 29.763 210.819 29.5265 210.517 29.3301C210.297 29.2721 210.066 29.2275 209.821 29.2074C207.98 29.0445 205.613 28.8817 204.044 29.9638C201.141 31.9629 198.067 35.3475 196.942 38.7946C197.039 37.3154 197.133 35.8384 197.318 34.3658C197.475 33.0963 197.531 31.945 198.66 30.9544C199.233 30.4524 200.002 30.0999 200.704 29.7987C202.414 29.0624 204.238 28.7545 206.049 28.3841C205.742 28.3283 205.421 28.2659 205.088 28.1967C202.825 28.6675 200.573 29.2989 198.773 30.6242C197.662 31.4408 197.369 32.3154 197.184 33.6228C196.939 35.3497 196.771 37.0967 196.727 38.8392C196.692 38.8259 196.658 38.8169 196.623 38.8058C195.611 36.5613 194.902 34.6157 195.399 32.1146C195.595 31.1284 195.925 30.1579 196.23 29.1985C196.489 28.3864 196.581 27.9825 197.33 27.4403C197.812 27.0901 198.256 26.9428 198.743 26.8268C198.739 26.8268 198.734 26.8246 198.729 26.8246C196.958 26.6528 196.309 28.5358 196.309 28.5358C196.309 28.5358 192.823 28.1365 192.292 29.5064C191.761 30.8763 192.421 31.7063 192.421 31.7063C192.421 31.7063 191.758 31.1619 191.345 30.9901C190.931 30.8183 188.686 31.6751 187.864 32.4158C187.039 33.1565 184.14 38.5202 183.491 39.3747C183.489 39.377 183.489 39.377 183.487 39.3792C183.48 39.397 183.471 39.4127 183.464 39.4305C183.454 39.4327 183.443 39.435 183.434 39.4372C182.755 40.2426 181.223 40.5327 180.304 41.144C179.973 41.3649 179.613 41.9807 179.269 42.7973C179.632 42.0655 180.151 41.4207 180.921 40.9298C182.022 40.2292 183.385 40.1266 184.639 39.8745C185.887 39.6246 187.039 39.2275 188.162 38.6496C189.275 38.0762 190.259 37.2797 191.366 36.7085C193.451 35.6309 194.625 36.4899 195.51 37.891C192.83 35.6822 188.98 39.2163 187.044 40.8584C185.134 42.4782 183.189 43.6072 180.983 44.8009C180.006 45.3296 179.093 45.9187 178.357 46.6661C178.461 45.7781 178.578 44.8723 178.812 44.0244C178.364 45.372 177.985 46.9494 177.8 48.248C177.557 49.9526 177.246 50.4434 176.945 50.999C176.765 51.6884 176.643 52.3756 176.763 53.1141C176.821 53.4688 176.927 53.8102 177.045 54.1471C177.047 54.5286 177.102 54.9235 177.225 55.3296C177.248 55.4055 177.384 55.3854 177.37 55.3051C177.349 55.1734 177.345 55.0529 177.333 54.9258C177.463 55.2515 177.59 55.5795 177.691 55.9142C177.987 56.8803 177.948 57.7415 177.756 58.6049C178.003 60.4545 177.185 60.8204 176.821 61.994C176.633 62.6031 176.74 63.3059 176.89 64.0578C176.885 63.8303 176.876 63.6049 176.888 63.3773C177.003 61.0123 178.74 58.953 178.306 56.5344C178.13 55.5594 177.631 54.6803 177.361 53.7321C177.356 53.7143 177.356 53.6986 177.352 53.6808C177.791 50.5594 181.108 48.8281 183.434 46.7397C185.73 44.6781 187.125 41.887 189.481 39.8968C188.608 40.9968 188.012 42.3533 187.099 43.4309C185.496 45.3252 184.891 47.5764 183.528 49.6045C182.498 51.1395 181.281 52.5808 180.657 54.2988C178.571 56.173 179.038 59.252 178.285 61.7241C177.828 63.2278 177.241 64.571 177.331 66.1707C177.423 67.8039 178.012 69.359 178.387 70.9409C178.902 73.123 178.946 75.247 178.597 77.4558C178.396 78.7298 178.248 79.9279 178.657 81.1818C179.07 82.4514 179.872 83.5825 180.865 84.5575C181.052 84.5553 181.242 84.5732 181.433 84.62C181.588 84.6579 181.75 84.6847 181.916 84.7048C180.528 83.5781 179.352 82.2907 178.973 80.4009C178.673 78.8971 179.172 77.3978 179.278 75.894C179.371 74.5576 179.292 73.2055 179.036 71.8891C178.756 70.4634 178.227 69.1002 177.902 67.6857C177.495 65.9298 177.666 64.4037 178.25 62.7169C179.151 60.1065 178.71 56.7018 180.588 54.5019C180.479 54.8298 180.385 55.1667 180.327 55.5193C180.103 56.8691 180.239 58.2836 180.544 59.6625C179.44 61.2756 179.551 63.6428 179.768 65.459C180.091 68.1386 180.962 70.7401 181.089 73.4465C181.214 76.0904 180.265 78.5625 180.782 81.2108C181.02 82.429 181.475 83.6361 182.129 84.7227C182.443 84.7494 182.764 84.7472 183.092 84.7249C182.189 79.1983 186.45 73.5023 186.231 67.9311C186.305 67.9936 186.381 68.0538 186.45 68.1185C186.028 69.9458 185.986 71.9271 185.81 73.7834C185.642 75.5571 185.374 77.3621 185.429 79.1448C185.48 80.7178 185.912 82.2729 186.679 83.6495C186.774 83.5915 186.861 83.5335 186.938 83.4777C186.002 81.7686 185.586 79.8699 185.7 77.737C185.861 74.6892 186.624 71.5768 186.605 68.5179C186.767 70.6263 186.79 72.6946 186.584 74.8075C186.432 76.3626 186.231 77.9422 186.55 79.4929C186.783 80.6307 187.296 81.5522 187.998 82.2929C188.083 82.2394 188.176 82.1836 188.275 82.1278C187.09 80.8739 186.711 79.1649 186.711 77.4848C186.714 74.3702 187.252 71.4384 186.672 68.3327C187.358 68.9953 187.885 69.7472 188.185 70.7401C188.548 71.9427 188.531 73.2256 188.899 74.4304C189.55 76.5723 191.426 78.1787 192.077 80.2626C192.116 80.2314 192.158 80.2001 192.186 80.1734C192.29 80.064 192.366 79.8922 192.424 79.6914C191.969 78.5268 191.169 77.4938 190.449 76.3827C189.072 74.2564 189.425 71.9025 188.434 69.6959C187.665 67.9846 186.011 67.0565 184.572 65.932C182.526 64.3367 181.771 62.119 181.112 59.7406C180.537 57.6589 180.509 55.8138 181.175 53.9976C183.595 51.9338 185.589 49.1672 186.958 46.3627C187.37 45.5193 187.765 44.6581 188.404 43.9463C188.506 43.8325 188.619 43.7277 188.73 43.625C188.855 45.3296 188.254 46.7308 187.397 48.036C187.351 48.0182 187.296 48.0315 187.282 48.0918C187.27 48.1453 187.266 48.1989 187.256 48.2502C186.002 50.0909 184.279 51.7576 183.417 53.8303C182.258 56.617 182.341 59.8611 183.648 62.5875C185.02 65.4501 188.231 67.2506 189.197 70.2961C189.73 71.9762 189.388 73.7343 190.25 75.3385C190.714 76.2019 191.389 76.9427 191.883 77.7883C192.146 78.239 192.357 78.7053 192.523 79.185C192.59 78.6874 192.59 78.1229 192.574 77.6968C192.537 77.6432 192.497 77.5919 192.463 77.5384C192.442 77.5071 192.426 77.4737 192.407 77.4424C191.876 76.1685 191.62 74.7963 191.564 73.2479C191.481 70.9833 191.449 68.9262 190.139 66.965C188.658 64.7473 187.296 62.8776 186.933 60.1801C186.614 57.8084 187.039 55.3742 188.09 53.2123C188.132 53.3082 188.173 53.4064 188.217 53.4978C188.25 53.5648 188.356 53.5358 188.333 53.4621C188.282 53.3037 188.24 53.1453 188.197 52.9891C188.215 52.9512 188.231 52.9133 188.25 52.8776C188.273 52.8352 188.206 52.8017 188.18 52.8441C188.173 52.8553 188.169 52.8664 188.162 52.8776C187.961 52.1101 187.843 51.347 187.748 50.5773C187.875 50.2515 187.984 49.9146 188.063 49.5621C188.072 49.5197 188.009 49.5086 187.996 49.5487C187.915 49.8142 187.82 50.0708 187.718 50.3229C187.654 49.7696 187.596 49.2141 187.529 48.6518C188.684 47.1034 189.525 45.4211 189.005 43.4131C189.003 43.4019 188.993 43.3997 188.989 43.3908C189.407 43.0293 189.85 42.6947 190.225 42.2931C191.188 41.2623 191.779 39.9035 192.098 38.5604C193.264 38.1811 194.581 38.219 195.925 38.6094C195.935 38.6295 195.946 38.6496 195.955 38.6697C195.738 38.6518 195.519 38.6608 195.283 38.7277C195.202 38.75 195.202 38.8839 195.292 38.8928C195.588 38.9218 195.877 38.9887 196.166 39.0646C196.179 39.0802 196.198 39.0824 196.219 39.078C196.366 39.1181 196.517 39.1605 196.664 39.2052C196.685 39.2342 196.704 39.2632 196.724 39.2922C196.724 39.3301 196.722 39.3658 196.722 39.4037C196.722 39.4439 196.745 39.4483 196.773 39.4439C196.743 39.5621 196.708 39.6804 196.683 39.7986C196.676 39.8343 196.722 39.8053 196.729 39.7897C196.805 39.6201 196.888 39.4573 196.967 39.2922C197.23 39.368 197.494 39.4417 197.762 39.4907C197.602 39.6782 197.443 39.8633 197.29 40.0574C197.258 40.0976 197.309 40.1155 197.337 40.082C197.505 39.8923 197.674 39.696 197.842 39.5019C198.311 39.58 198.787 39.5911 199.284 39.4394C199.392 39.406 199.42 39.2743 199.367 39.194C200.838 39.3926 202.434 38.8973 203.772 38.3886C204.527 38.1007 205.239 37.7348 205.945 37.3511C206.454 37.0766 207.126 36.5501 207.703 36.5367C208.992 36.5055 209.158 37.4403 208.745 38.2748C208.054 39.6692 207.274 40.9878 207.396 42.5853C207.5 43.9753 208.225 45.5014 209.484 46.2801ZM182.244 64.1917C183.085 65.4701 184.228 66.3938 185.603 67.4135C185.755 67.5273 185.903 67.641 186.046 67.7571C186.037 67.7705 186.025 67.7816 186.025 67.8017C185.769 71.7017 184.318 75.2314 183.394 78.9998C182.967 80.7401 182.51 82.7146 182.736 84.5442C182.286 83.3884 182.004 82.197 181.93 80.8985C181.814 78.8726 182.286 76.9828 182.604 74.9993C183.196 71.347 181.824 67.7883 182.244 64.1917ZM181.41 62.5429C181.613 63.0918 181.854 63.5781 182.129 64.0199C181.708 65.5996 181.962 67.206 182.212 68.8235C182.611 71.4117 182.549 73.799 182.055 76.3782C181.551 79.0087 181.417 81.9449 182.415 84.4862C181.556 83.0627 180.967 81.5366 180.851 79.7963C180.706 77.6455 181.454 75.5661 181.346 73.4108C181.119 68.9641 178.752 64.2653 180.604 59.9369C180.821 60.8361 181.105 61.7151 181.41 62.5429ZM191.754 76.8601C191.816 76.9784 191.892 77.0877 191.959 77.2037C191.973 77.2439 191.992 77.2818 192.005 77.322C191.929 77.2037 191.855 77.0832 191.772 76.9672C191.176 76.1149 190.469 75.2983 190.139 74.3032C189.744 73.1096 189.938 71.8311 189.654 70.6196C188.959 67.6477 186.025 65.9365 184.468 63.4487C182.2 59.8276 182.489 55.1177 185.034 51.7107C185.672 50.8584 186.448 50.0039 187.155 49.1114C187.132 49.7696 187.21 50.4367 187.365 51.0927C186.416 53.0516 185.085 54.7718 184.96 57.0855C184.817 59.754 185.843 62.3845 187.273 64.6245C188.051 65.845 188.961 66.9851 189.7 68.2301C190.675 69.8744 191.017 71.4518 191.045 73.3238C191.063 74.5799 191.153 75.7267 191.754 76.8601ZM188.044 53.0784C185.824 57.1636 186.217 62.0253 188.968 65.807C190.024 67.2595 190.874 68.5692 191.137 70.372C191.213 70.9007 191.243 71.4318 191.264 71.9628C191.017 69.6535 189.802 67.8017 188.444 65.8874C186.716 63.4487 185.226 60.816 185.182 57.7772C185.157 56.0637 185.626 54.5599 186.462 53.065C186.794 52.4693 187.134 51.8959 187.423 51.3024C187.58 51.9182 187.797 52.5161 188.044 53.0784ZM192.825 30.9098C192.645 30.2895 192.555 30.1021 192.939 29.5332C193.354 28.9151 193.754 28.9107 194.484 28.8125C195.045 28.7366 195.588 28.7188 196.129 28.5671C195.895 29.2052 195.75 29.9035 195.583 30.4613C195.05 32.2708 194.803 34.1985 195.216 35.9901C195.212 35.9789 195.205 35.9678 195.2 35.9566C194.867 35.2181 194.592 34.4662 194.11 33.8013C194.103 33.7924 194.096 33.7857 194.089 33.7768C193.636 32.8352 193.121 31.9227 192.825 30.9098ZM186.711 38.6697C185.783 39.0311 184.753 39.1806 183.736 39.3658C184.692 38.0829 185.425 36.6349 186.245 35.2717C187.132 33.7991 188.705 30.9745 190.874 31.3605C192.105 31.5791 193.599 33.7344 194.207 34.783C194.161 34.7429 194.112 34.7116 194.064 34.6759C193.246 33.5693 192.202 32.7884 190.606 33.3172C187.792 34.252 187.155 37.1324 185.254 38.9642C185.249 38.9687 185.256 38.9731 185.261 38.9709C186.762 38.0695 187.379 36.0213 188.663 34.8388C189.841 33.7522 191.708 32.7527 193.151 34.0378C193.269 34.1427 193.382 34.2565 193.491 34.377C193.218 34.2989 192.918 34.2855 192.583 34.3703C191.088 34.7451 189.705 36.4207 188.834 37.63C188.15 38.0182 187.45 38.3819 186.711 38.6697ZM188.834 42.92C187.808 43.7968 187.208 44.725 186.633 45.912C185.272 48.712 183.445 51.0771 181.413 53.4198C181.627 52.9401 181.877 52.4604 182.196 51.9784C183.447 50.082 184.563 48.3685 185.476 46.2868C186.002 45.0887 186.776 44.2408 187.642 43.2681C188.328 42.4961 188.756 41.6393 189.303 40.7736C190.014 39.6492 190.95 38.933 192.015 38.5648C191.065 40.2449 190.359 41.617 188.834 42.92ZM191.269 38.393C190.687 38.6719 190.222 39.0557 189.818 39.4952C186.651 41.6036 184.974 45.2984 181.944 47.6277C180.177 48.9842 177.881 50.7223 177.232 52.9021C177.123 51.4519 177.795 50.1779 178.079 48.712C178.188 48.152 178.26 47.5519 178.331 46.9383C180.338 44.9102 183.579 44.0266 185.792 42.2373C187.982 40.4657 192.32 35.5215 195.521 37.9222C195.533 37.9312 195.542 37.9245 195.549 37.9178C195.632 38.0517 195.713 38.1878 195.791 38.3283C194.408 37.6255 192.655 37.7304 191.269 38.393ZM196.133 38.663C196.131 38.6563 196.129 38.6496 196.124 38.6429C196.147 38.6496 196.168 38.6541 196.191 38.663C196.235 38.6764 196.272 38.6094 196.232 38.5827C196.175 38.5447 196.112 38.5157 196.055 38.48C195.493 37.2038 194.673 35.8517 193.1 35.7357C192.197 35.671 191.407 36.1574 190.661 36.5769C190.118 36.8825 189.585 37.2016 189.044 37.5095C189.705 36.7799 190.391 36.0726 191.165 35.4501C191.876 34.879 192.731 34.1494 193.782 34.7116C194.299 35.352 194.743 36.1016 195.207 36.7241C195.218 36.7397 195.232 36.742 195.246 36.742C195.583 37.4069 195.932 38.065 196.343 38.7054C196.272 38.6898 196.202 38.6741 196.133 38.663Z" fill="#8E4D36"/>
<path d="M175.439 80.3689C174.829 78.6086 175.543 76.8683 176.042 75.1794C176.416 73.9076 176.707 72.6203 176.887 71.3084C177.063 70.0299 177.144 68.7381 177.123 67.4463C176.929 69.1152 176.807 70.8644 176.594 72.618C176.518 73.2383 176.206 73.7581 175.809 74.1977C175.666 74.7666 175.509 75.3333 175.338 75.8978C174.592 78.3408 174.467 80.5452 176.241 82.5956C177.107 83.5974 178.19 84.3582 179.384 84.9003C179.615 84.8022 179.849 84.7152 180.084 84.6505C178.01 83.8539 176.148 82.4193 175.439 80.3689Z" fill="#A35D40"/>
<path d="M186.915 49.384C186.915 49.384 186.49 54.9598 187.931 59.9131C189.372 64.8664 189.883 65.7432 191.627 67.8071C192.243 68.5367 196.743 73.0705 198.986 73.4833C201.229 73.8961 202.19 73.4833 202.19 73.4833C202.19 73.4833 206.509 70.8527 209.505 66.9816C212.498 63.1126 212.713 56.4056 212.286 48.9757C212.286 48.9757 211.018 45.6222 210.156 45.0019C209.295 44.3816 208.334 42.8867 208.334 42.8867C208.334 42.8867 208.81 44.848 209.505 45.3634C209.505 45.3634 207.424 44.2277 207.532 42.32C207.639 40.4101 207.747 40.2048 207.747 40.2048L204.915 38.3998C204.915 38.3998 200.053 39.6894 196.02 38.1945C196.02 38.1945 191.828 37.9357 191.936 38.5046C192.042 39.0713 190.068 42.2196 189.104 42.9425C188.143 43.6609 190.599 43.6029 186.915 49.384Z" fill="#CC705D"/>
<path d="M187.471 49.7103C187.471 49.7103 187.18 55.1989 187.471 56.5242C187.762 57.8495 189.499 64.0208 190.271 65.5937C191.287 67.6687 196.353 72.7177 198.623 73.1907C200.894 73.6637 202.411 73.0368 202.605 72.8962C202.802 72.7534 209.565 68.4027 210.87 64.6165C212.177 60.8303 212.254 52.7715 212.009 49.1593C212.009 49.1593 210.907 46.0825 210.38 45.5538C210.38 45.5538 209.493 46.0981 207.715 43.9072C205.936 41.714 205.518 41.1004 205.518 41.1004L203.707 39.9559C203.707 39.9559 199.154 39.9045 195.925 38.5859L192.414 39.3668C192.414 39.3668 190.629 42.6131 189.88 43.5591C189.88 43.5591 190.689 47.4279 188.594 48.7643C187.619 49.3846 187.711 51.0356 187.711 51.0356L187.471 49.7103Z" fill="#FAB986"/>
<path d="M190.393 53.7107C190.393 53.7107 190.188 53.365 190.303 52.7203C190.419 52.0778 190.968 51.5581 191.225 51.4822C191.481 51.4086 194.426 50.32 197.182 53.9071C197.182 53.9071 196.297 54.4647 195.965 54.5138C195.632 54.5651 193.084 54.5272 190.393 53.7107Z" fill="#FFEDEB"/>
<path d="M190.393 53.7109C190.393 53.7109 190.352 53.8313 190.855 54.0163C191.361 54.2012 193.865 54.7361 196.018 54.5266L195.955 54.5132C195.604 54.5645 193.07 54.5221 190.393 53.7109Z" fill="#CC4B31"/>
<path d="M192.338 51.2817C191.906 51.6297 191.624 52.1473 191.624 52.7341C191.624 53.3186 191.904 53.8361 192.336 54.1842C193.103 54.3292 193.805 54.4162 194.387 54.4675C195.075 54.173 195.558 53.5082 195.558 52.7341C195.558 52.5645 195.528 52.4039 195.484 52.2477C194.269 51.3933 193.135 51.2393 192.338 51.2817Z" fill="black"/>
<path d="M189.68 51.865C190.52 50.6783 191.987 49.94 193.498 50.2545C194.509 50.4664 195.362 51.0174 196.251 51.4925C196.288 51.5126 196.33 51.4568 196.295 51.4323C194.2 50.027 191.128 49.2307 189.61 51.8315C189.585 51.8739 189.652 51.9029 189.68 51.865Z" fill="#A8412D"/>
<path d="M189.467 52.1797C189.511 52.6951 190.269 53.0677 190.269 53.0677H190.275C190.275 52.9985 190.287 52.916 190.294 52.8379C189.846 52.6772 189.592 52.3805 189.467 52.1797Z" fill="black"/>
<path d="M191.816 50.7286C190.562 50.8267 189.522 51.5074 189.46 52.0764C189.46 52.0786 189.46 52.0786 189.46 52.0808C189.716 52.5004 190.095 52.6454 190.312 52.6967C190.437 52.0652 190.975 51.5564 191.229 51.4828C191.486 51.4092 194.431 50.3202 197.186 53.9084C195.108 50.3581 193.07 50.6304 191.816 50.7286Z" fill="black"/>
<path d="M203.448 53.501C203.395 53.4162 205.352 50.0797 208.791 51.4076C208.791 51.4076 209.519 52.0504 209.743 53.0681C209.743 53.0681 207.983 54.2821 204.46 54.2621C204.46 54.2643 203.772 54.0099 203.448 53.501Z" fill="#FFEDEB"/>
<path d="M204.46 54.2635C204.46 54.2635 208.334 54.6765 209.743 53.0693C209.743 53.0671 207.98 54.2814 204.46 54.2635Z" fill="#CC4B31"/>
<path d="M208.008 52.7044C208.008 52.0081 207.608 51.3431 207.015 51.0352C205.8 51.0976 204.832 51.727 204.229 52.3273C204.213 52.4254 204.229 52.5995 204.229 52.7022C204.229 53.3583 204.59 53.9273 205.125 54.2487C206.063 54.2107 206.855 54.0858 207.507 53.9318C207.814 53.6082 208.008 53.1797 208.008 52.7044Z" fill="black"/>
<path d="M210.112 51.6662C209.939 51.1127 209.336 50.8003 209.336 50.8003C205.86 49.2917 203.975 52.4339 203.543 53.2909C203.97 52.57 205.828 50.2625 208.789 51.4073C208.789 51.4073 209.14 51.7242 209.429 52.2598C209.639 52.2085 209.981 52.0813 210.112 51.6662Z" fill="black"/>
<path d="M209.505 52.4121C209.576 52.5638 209.643 52.7244 209.694 52.905L209.74 52.9006C210.129 52.4523 210.2 52.0687 210.131 51.752C210.029 52.0107 209.842 52.2895 209.505 52.4121Z" fill="black"/>
<path d="M203.162 59.0083C203.033 58.8499 202.797 58.6625 202.645 58.6402C202.917 59.1422 203.012 59.865 202.945 60.0056C202.857 60.193 201.254 60.6035 200.319 60.6102C199.383 60.6169 198.191 60.1796 198.023 60.0167C197.903 59.9007 198.129 59.2069 198.272 58.8142C198.263 58.7674 198.256 58.7295 198.247 58.7049C198.187 58.5398 197.789 58.7138 197.789 58.7138C197.789 58.7138 197.274 59.3586 197.122 59.9074C196.967 60.4562 197.198 60.9917 198.623 61.6743C200.051 62.3548 202.301 61.6743 202.301 61.6743C202.301 61.6743 203.455 60.8288 203.543 60.5076C203.633 60.1841 203.312 59.1913 203.162 59.0083Z" fill="#DB8370"/>
<path d="M210.858 47.6283C210.256 46.9479 209.332 46.6267 209.124 46.6289C208.916 46.6289 203.67 47.452 203.46 47.5033C203.319 47.5368 202.772 47.7733 202.425 47.9985C202.319 48.893 202.864 49.4953 202.864 49.4953C202.388 49.1273 202.287 48.5116 202.275 48.1056C202.183 48.1792 202.125 48.2506 202.132 48.3041C202.132 48.3041 202.22 49.3637 202.73 49.6693C203.243 49.9749 207.86 48.3198 208.244 48.0632C208.627 47.8089 208.978 47.5502 209.392 47.5814C209.805 47.6126 210.738 47.8513 211.475 48.7927C211.475 48.7949 211.461 48.3086 210.858 47.6283Z" fill="#41271D"/>
<path d="M197.789 58.7155C197.457 59.0947 196.847 59.8042 196.942 60.3017C197.055 60.8996 198.02 61.5443 198.621 61.8008C198.663 61.8187 198.748 61.7339 198.706 61.7071C198.187 61.3591 197.563 61.0133 197.274 60.4868C196.944 59.8867 197.568 59.271 197.81 58.7155C197.819 58.7021 197.796 58.7066 197.789 58.7155Z" fill="#A8412D"/>
<path d="M203.014 58.8793C203.377 59.6138 203.804 60.3281 203.049 61.0291C202.767 61.2903 202.421 61.4689 202.222 61.7859C202.194 61.8305 202.263 61.8261 202.287 61.8015C202.735 61.3796 203.476 61.038 203.666 60.4643C203.857 59.8883 203.446 59.299 203.03 58.8659C203.026 58.8592 203.012 58.8748 203.014 58.8793Z" fill="#A8412D"/>
<path d="M201.404 61.5037C201.97 61.3831 202.596 61.151 202.924 60.7314C202.959 60.6889 202.963 60.5818 202.864 60.6175C202.628 60.7023 202.439 60.8273 202.229 60.9479C201.972 61.093 201.7 61.2224 201.42 61.3362C201.351 61.3675 201.256 61.5349 201.404 61.5037Z" fill="#A8412D"/>
<path d="M199.436 61.5037C198.882 61.3831 198.267 61.151 197.946 60.7314C197.914 60.6889 197.907 60.5818 198.004 60.6175C198.235 60.7023 198.422 60.8273 198.628 60.9479C198.88 61.093 199.148 61.2224 199.42 61.3362C199.489 61.3675 199.582 61.5349 199.436 61.5037Z" fill="#A8412D"/>
<path d="M192.539 77.0124C192.539 77.0124 196.992 85.7582 200.984 87.4293C200.984 87.4293 206.539 83.043 208.581 76.584C208.581 76.584 212.662 98.1921 201.328 87.938C201.326 87.938 192.075 98.7343 192.539 77.0124Z" fill="#F9F9F9"/>
<path d="M201.737 109.038C201.822 105.387 201.857 101.735 201.929 98.0849C201.991 94.8654 202.185 91.6302 201.497 88.4553C201.42 88.1028 200.859 88.2746 200.942 88.6271C201.725 91.9248 201.603 95.3317 201.633 98.6918C201.663 102.141 201.647 105.59 201.684 109.04C201.686 109.073 201.737 109.071 201.737 109.038Z" fill="#D9DADD"/>
<path d="M203.855 137.13L203.735 137.063C203.615 136.951 203.409 136.965 203.273 137.056C203.137 137.148 203.058 137.302 203.007 137.456C202.915 137.744 202.913 138.078 203.097 138.319C203.259 138.531 203.552 138.641 203.82 138.585C203.89 138.571 203.957 138.545 204.01 138.502C204.084 138.442 204.125 138.351 204.151 138.261C204.266 137.869 204.192 137.382 203.855 137.13Z" fill="#E2B147"/>
<path d="M203.855 125.903L203.735 125.836C203.615 125.725 203.409 125.738 203.273 125.83C203.137 125.921 203.058 126.075 203.007 126.229C202.915 126.517 202.913 126.852 203.097 127.093C203.259 127.305 203.552 127.414 203.82 127.358C203.89 127.345 203.957 127.318 204.01 127.276C204.084 127.215 204.125 127.124 204.151 127.032C204.266 126.64 204.192 126.153 203.855 125.903Z" fill="#E2B147"/>
<path d="M203.666 115.764L203.545 115.697C203.425 115.585 203.22 115.599 203.084 115.69C202.947 115.781 202.869 115.935 202.818 116.089C202.725 116.377 202.723 116.711 202.908 116.952C203.07 117.164 203.363 117.273 203.631 117.218C203.7 117.204 203.767 117.178 203.82 117.135C203.894 117.075 203.936 116.983 203.961 116.892C204.077 116.5 204.001 116.013 203.666 115.764Z" fill="#E2B147"/>
<path d="M172.459 146.721C172.459 146.721 174.832 149.965 175.391 150.583C175.95 151.201 177.786 150.931 178.705 150.275C179.625 149.619 183.177 147.306 183.177 147.306C183.177 147.306 185.653 147.768 186.252 148.154C186.85 148.54 190.005 150.699 191.481 150.005C191.481 150.005 192.359 149.653 192.239 148.827C192.239 148.827 193.835 148.562 193.717 147.761C193.717 147.761 190.883 141.369 190.603 140.713C190.324 140.057 189.964 139.363 188.287 139.479C186.61 139.595 186.249 139.671 186.249 139.671L189.005 138.783C189.005 138.783 194.556 141.675 195.433 139.785C195.433 139.785 190.562 136.314 189.883 136.276C189.204 136.238 184.332 136.7 183.136 136.778L178.186 143.872L175.89 142.224C175.887 142.226 173.162 143.515 172.459 146.721Z" fill="#FAB986"/>
<path d="M193.715 147.76C193.715 147.76 190.881 141.367 190.601 140.711C190.322 140.055 189.961 139.362 188.284 139.478C186.607 139.594 186.247 139.669 186.247 139.669L189.003 138.781C189.003 138.781 194.553 141.673 195.431 139.783C195.431 139.783 190.56 136.312 189.88 136.274C189.201 136.236 184.33 136.698 183.133 136.776L178.183 143.871L175.887 142.222C175.887 142.222 175.767 142.28 175.578 142.394C176.416 143.036 179.287 145.243 179.558 145.546C179.558 145.546 179.876 145.495 178.461 144.275C178.461 144.275 182.849 137.583 183.166 137.329C183.482 137.075 189.594 136.412 189.936 136.515C190.278 136.617 194.851 139.649 195.073 139.821C195.295 139.995 194.255 140.533 192.44 139.897C190.622 139.261 189.252 138.295 189.067 138.344C188.883 138.395 183.367 139.968 183.688 140.035C184.009 140.1 183.905 140.303 184.535 140.227C185.168 140.151 189.224 139.337 189.751 139.897C190.278 140.457 193.281 147.519 193.387 147.753C193.493 147.987 192.569 148.674 191.911 148.369C191.252 148.063 188.407 142.516 187.959 142.338C187.51 142.159 182.454 142.49 182.743 142.644C183.032 142.798 187.589 142.465 187.721 142.668C187.852 142.871 191.855 148.851 191.855 148.851C191.855 148.851 187.194 144.806 186.614 144.754C186.035 144.703 182.611 145.339 182.48 145.39C182.348 145.441 186.071 144.899 186.501 145.017C186.931 145.136 191.83 149.232 191.83 149.232C191.83 149.232 191.855 150.555 189.432 149.716C187.009 148.877 186.323 147.751 186.323 147.751C186.323 147.751 183.083 147.043 183.004 147.043C182.925 147.043 178.685 150.377 177.209 150.504C175.733 150.631 175.444 150.377 174.522 149.129C173.795 148.143 172.926 146.733 172.593 146.184C172.54 146.354 172.492 146.53 172.453 146.713C172.453 146.713 174.825 149.957 175.384 150.575C175.943 151.193 177.779 150.923 178.698 150.267C179.618 149.611 183.17 147.298 183.17 147.298C183.17 147.298 185.646 147.76 186.245 148.146C186.843 148.532 189.998 150.691 191.474 149.997C191.474 149.997 192.352 149.645 192.232 148.819C192.239 148.826 193.835 148.561 193.715 147.76Z" fill="#CE6857"/>
<path d="M226.6 143.263C226.6 143.263 225.715 144.102 225.48 144.14C225.244 144.178 223.715 143.636 223.322 143.263C223.322 143.263 217.555 136.826 217.083 136.826C216.612 136.826 211.591 138.484 211.316 138.602C211.041 138.72 207.313 143.914 207.313 143.914C207.313 143.914 209.235 144.294 210.57 142.966C211.905 141.639 213.669 140.485 213.669 140.485L209.706 147.516C209.706 147.516 209.627 148.35 210.295 148.502C210.962 148.653 210.962 148.653 210.962 148.653C210.962 148.653 211.512 149.677 212.297 149.753C212.297 149.753 212.651 150.588 214.141 150.208C215.633 149.829 221.243 147.404 221.401 147.442C221.558 147.48 225.364 151.308 226.383 151.65C227.404 151.991 229.148 150.851 230.591 147.687C230.589 147.683 228.584 143.749 226.6 143.263Z" fill="#FAB986"/>
<path d="M230.589 147.684C230.589 147.684 230.536 147.581 230.448 147.422C229.647 148.674 228.034 151.03 227.05 151.343C225.701 151.771 221.789 147.211 221.671 147.097C221.553 146.983 216.296 149.029 215.039 149.712C213.783 150.394 213.039 149.939 212.921 149.787C212.803 149.636 213.235 149.484 215.471 147.759C217.707 146.035 219.502 144.33 220.557 144.701C221.615 145.071 222.103 144.937 222.103 144.937C222.103 144.937 221.16 144.444 220.377 144.265C219.592 144.087 218.691 144.709 218.495 144.861C218.298 145.013 213.706 149.069 212.491 149.297C211.274 149.524 211.313 148.728 211.313 148.614C211.313 148.5 216.192 142.452 216.728 142.474C217.264 142.496 217.395 142.701 218.728 142.797C220.063 142.893 219.788 142.626 219.788 142.626C219.788 142.626 217.12 141.905 216.61 142.095C216.099 142.284 211.47 147.969 210.881 148.31C210.292 148.652 210.018 147.759 210.018 147.759C210.018 147.759 213.981 140.691 214.217 140.35C214.452 140.008 215.591 140.122 217.827 141.033C220.063 141.943 220.377 141.601 220.377 141.601C220.377 141.601 215.746 139.897 215.159 139.631C214.57 139.366 213.824 140.087 213.824 140.087C213.824 140.087 211.902 141.414 210.567 142.739C209.232 144.067 207.86 143.603 207.86 143.603C207.86 143.603 210.863 139.112 211.313 138.987C211.764 138.862 216.728 137.206 217.003 137.206C217.277 137.206 222.849 143.232 222.849 143.232C222.849 143.232 223.202 143.953 224.496 144.27C225.792 144.587 225.909 144.181 226.027 144.268C226.099 144.319 226.452 143.763 226.725 143.311C226.683 143.297 226.642 143.277 226.6 143.266C226.6 143.266 225.715 144.105 225.48 144.143C225.244 144.181 223.715 143.638 223.322 143.266C223.322 143.266 217.555 136.829 217.083 136.829C216.612 136.829 211.591 138.487 211.316 138.605C211.041 138.723 207.313 143.917 207.313 143.917C207.313 143.917 209.235 144.297 210.57 142.969C211.905 141.642 213.669 140.488 213.669 140.488L209.706 147.518C209.706 147.518 209.627 148.353 210.295 148.505C210.962 148.656 210.962 148.656 210.962 148.656C210.962 148.656 211.512 149.68 212.297 149.756C212.297 149.756 212.651 150.591 214.141 150.211C215.633 149.832 221.243 147.407 221.401 147.445C221.558 147.483 225.364 151.311 226.383 151.653C227.402 151.987 229.148 150.847 230.589 147.684Z" fill="#CE6857"/>
<path d="M276.617 359.152C276.617 359.152 277.183 358.603 273.862 354.126C273.896 354.179 276.386 358.09 276.162 358.985C275.938 359.886 274.375 363.032 273.312 363.895C272.25 364.759 269.233 364.596 265.209 364.574C261.185 364.551 260.405 361.629 258.28 355.638C256.157 349.648 254.591 348.621 253.306 347.595C252.024 346.573 251.274 344.331 251.267 344.315C251.519 345.944 251.743 347.191 251.743 347.191L253.808 365.033H254.736C254.736 365.033 255.665 354.467 256.388 353.072C256.388 353.072 261.135 365.134 261.959 365.033C262.784 364.933 273 365.033 273 365.033C273 365.033 276.308 362.144 276.617 359.152Z" fill="#1C1E23"/>
<path d="M193.444 365.035C197.572 365.035 200.462 362.942 200.875 362.143C201.055 361.797 200.633 357.195 200.025 351.996C200.037 352.114 200.852 360.325 200.381 361.34C199.905 362.362 196.507 363.642 193.602 363.355C190.696 363.067 187.046 360.044 186.598 359.613C186.15 359.18 186.226 353.857 186.226 353.857C186.055 356.777 185.968 359.017 185.912 359.455C185.808 360.251 189.317 365.035 193.444 365.035Z" fill="#1C1E23"/>
<path d="M179.546 152.919C179.329 155.112 178.631 157.013 177.44 158.894C176.8 159.902 176.111 160.913 175.271 161.78C174.622 162.452 173.779 162.918 173.176 163.619C173.051 163.764 173.19 164.005 173.391 163.938C175.347 163.28 176.765 160.966 177.802 159.349C179.017 157.455 180.168 155.223 179.752 152.934C179.733 152.834 179.56 152.794 179.546 152.919Z" fill="#313648"/>
<path d="M222.003 153.281C222.689 155.967 224.001 158.716 225.494 161.072C226.173 162.143 226.951 163.164 227.852 164.072C228.958 165.188 230.289 166.04 231.402 167.149C231.672 167.419 232.033 167.042 231.885 166.754C231.298 165.601 230.03 164.972 229.081 164.124C227.944 163.106 226.99 161.919 226.177 160.648C224.644 158.243 223.824 155.554 222.505 153.055C222.352 152.77 221.932 153.002 222.003 153.281Z" fill="#313648"/>
<path d="M200.73 155.609C200.73 155.609 199.764 155.085 199.704 155.609C199.644 156.133 200.367 169.646 200.73 169.997C201.092 170.347 202.501 171.445 202.501 171.445C202.501 171.445 201.194 169.997 201.143 168.772C201.092 167.551 200.73 155.609 200.73 155.609Z" fill="#313648"/>
<path d="M196.02 63.7197L195.265 64.0499C195.265 64.0499 197.265 66.4792 198.912 66.5773C200.557 66.6755 204.229 65.0069 204.229 65.0069C204.229 65.0069 204.721 64.293 205.024 64.0053L196.02 63.7197Z" fill="#38221A"/>
<path d="M205.555 151.416C205.555 151.416 205.858 165.686 206.038 165.512C206.218 165.338 207.003 151.262 206.461 150.932C205.915 150.6 205.555 151.416 205.555 151.416Z" fill="#313648"/>
<path d="M196.152 63.7281L196.42 63.9825C196.42 63.9825 196.498 64.4243 196.743 64.605C197.12 64.884 197.861 65.3526 200.554 65.2901C203.245 65.2276 204.088 64.2815 204.125 64.2168C204.162 64.152 204.34 63.6299 204.34 63.6299L196.152 63.7281Z" fill="#E8E8E8"/>
<path d="M201.215 141.88C201.215 141.88 201.46 141.994 201.868 142.177C201.965 140.709 201.938 139.219 201.945 137.829C201.956 135.174 201.843 132.519 201.755 129.866C201.665 127.213 201.607 124.558 201.644 121.905C201.684 119.083 202.116 116.254 202.095 113.44C202.095 113.353 202.118 113.367 202.095 113.44C201.326 115.93 201.178 118.786 201.125 121.365C201.069 124.02 201.152 126.671 201.224 129.324C201.296 131.979 201.358 134.636 201.333 137.293C201.319 138.828 201.178 140.385 201.081 141.941C201.166 141.9 201.215 141.88 201.215 141.88Z" fill="#E2B147"/>
<path d="M195.56 52.6237C195.56 52.8423 195.376 53.0208 195.149 53.0208C194.923 53.0208 194.738 52.8423 194.738 52.6237C194.738 52.405 194.923 52.2266 195.149 52.2266C195.376 52.2266 195.56 52.405 195.56 52.6237Z" fill="white"/>
<path d="M207.872 51.7265C207.872 51.8984 207.729 52.0369 207.551 52.0369C207.373 52.0369 207.23 51.8984 207.23 51.7265C207.23 51.5545 207.373 51.416 207.551 51.416C207.729 51.416 207.872 51.5545 207.872 51.7265Z" fill="white"/>
<path d="M199.272 59.5629C199.265 59.5696 199.261 59.5741 199.254 59.5808C199.171 59.6656 199.131 59.8107 199.221 59.9066C199.489 60.1923 199.85 60.2325 200.27 60.2526C200.746 60.2749 201.196 60.1388 201.441 59.8799C201.492 59.8263 201.467 59.7459 201.381 59.7281C201.21 59.6946 201.097 59.7325 200.926 59.7616C200.626 59.8107 200.353 59.8062 200.067 59.7102C199.868 59.6455 199.476 59.3531 199.272 59.5629Z" fill="#F1C2B8"/>
<path d="M194.581 63.7185C194.581 63.7185 196.496 66.1907 197.258 66.8824C198.048 67.5986 198.672 68.3438 200.432 68.2323C202.192 68.1207 202.799 67.3108 203.326 66.724C203.853 66.1371 205.629 63.5088 205.629 63.5088C205.629 63.5088 204.393 65.1353 200.827 66.0077C200.827 66.0077 197.993 66.5655 195.149 63.9773L194.581 63.7185Z" fill="#E0675D"/>
<path d="M194.872 63.9097C194.872 63.9097 198.609 62.7412 200.52 62.7412C202.43 62.7412 205.629 63.5106 205.629 63.5106L205.024 64.0079C205.024 64.0079 199.004 63.5373 195.643 64.3602L194.872 63.9097Z" fill="#E0675D"/>
<path d="M195.519 64.4631C195.519 64.4631 198.432 64.1351 200.268 64.1351C202.102 64.1351 204.901 64.1351 204.901 64.1351L205.523 63.6934C205.523 63.6934 204.922 64.0414 204.811 63.9633C204.7 63.8852 202.333 63.6956 200.048 63.7826C197.762 63.8718 195.387 64.2601 195.387 64.2601L194.964 63.9633L195.519 64.4631Z" fill="#A8412D"/>
<path d="M194.701 63.8908C196.288 65.1738 198.145 66.1444 200.235 66.2337C202.598 66.3341 204.155 64.6495 205.982 63.4446C206.042 63.4044 205.869 63.3442 205.809 63.3843C203.991 64.6071 202.063 66.2337 199.76 65.928C197.817 65.6714 196.487 64.8414 194.856 63.8328C194.805 63.8016 194.627 63.7748 194.673 63.8127L194.701 63.8908Z" fill="#A8412D"/>
<path d="M200.552 65.2875C202.19 65.2495 203.141 64.8838 203.645 64.5894C202.765 64.4913 201.381 64.3552 200.533 64.3574C199.489 64.3597 197.75 64.6451 197.147 64.8503C197.644 65.0934 198.568 65.3343 200.552 65.2875Z" fill="white"/>
<path d="M197.57 48.8394C198.094 50.6288 198.503 52.3937 198.528 54.2612C198.528 54.3259 198.625 54.3169 198.63 54.2567C198.746 52.3825 198.762 50.582 197.889 48.8863C197.872 48.855 197.561 48.8082 197.57 48.8394Z" fill="#A8412D"/>
<path d="M203.497 52.7932C204.557 51.2472 205.55 50.1875 208.01 50.1741C208.091 50.1741 208.084 50.0558 208.003 50.0536C204.931 49.9421 204.412 51.2338 203.458 52.7754C203.444 52.7977 203.465 52.849 203.478 52.8267L203.497 52.7932Z" fill="#A8412D"/>
<path d="M187.649 49.7595C187.589 49.8219 188.185 48.8602 188.34 48.6928C188.494 48.5254 189.721 47.5414 190.255 47.4766C190.79 47.4097 195.794 47.4923 196.018 47.5771C196.242 47.6596 197.588 48.01 197.658 48.1104C197.727 48.2108 197.313 49.4448 196.812 49.5274C196.311 49.6099 191.239 48.8602 190.668 48.7263C190.1 48.5924 188.806 48.5924 187.649 49.7595Z" fill="#41271D"/>
<path d="M192.539 77.0127C192.511 78.2598 192.518 79.3954 192.553 80.4372C192.703 79.7813 193.061 78.3624 193.269 78.7216C193.364 78.8822 193.553 79.0518 193.759 79.2035C193.001 77.9207 192.539 77.0127 192.539 77.0127Z" fill="#D9DADD"/>
<path d="M208.579 76.584C208.371 77.2444 208.117 77.878 207.846 78.4916V78.5139C207.846 78.5139 208.468 77.3894 208.881 78.5139C208.722 77.3448 208.579 76.584 208.579 76.584Z" fill="#D9DADD"/>
<path d="M123.828 20.7252C124.024 20.9773 127.577 42.7423 127.577 42.7423C127.577 42.7423 130.118 55.5 136.927 58.9382C137.385 59.0654 144.46 59.3175 145.245 58.4965C152 55.5 154.415 46.475 154.743 45.6539C155.071 44.8329 160.573 30.6873 161.294 29.8819C162.014 29.0787 162.539 27.1175 162.735 26.611C162.931 26.1045 164.373 23.5744 164.241 22.6262C164.109 21.6779 163.585 19.9064 163.585 19.9064L161.162 20.54C161.162 20.54 161.49 17.6931 161.947 17.3138C162.405 16.9345 163.781 15.5422 163.781 14.7836C163.781 14.0251 159.931 6.62207 159.924 6.18031C159.917 5.73854 154.154 1.81393 153.826 1.49934C153.498 1.18474 150.618 0 150.618 0L150.749 3.45383C150.749 3.45383 147.802 6.04867 147.737 5.85902C147.673 5.66937 147.536 2.75994 147.407 2.25347C147.278 1.747 141.646 0.48193 140.27 0.419458C138.895 0.356985 133.157 0.609106 131.834 1.68452C130.51 2.75994 130.118 3.20394 130.118 3.20394C130.118 3.20394 131.993 3.39359 132.398 3.58324C132.802 3.77289 133.375 5.03795 133.375 5.03795C133.375 5.03795 130.296 4.4043 129.42 4.59618C128.545 4.78583 126.055 6.61984 126.055 6.61984L124.68 12.1866C124.68 12.1866 127.039 13.3245 127.235 13.3892C127.431 13.4516 128.184 14.3374 127.579 14.4021C126.974 14.4646 123.634 15.2879 123.83 15.6672C124.027 16.0465 124.091 19.1478 124.091 19.1478L124.68 20.4753H123.821L123.828 20.7252Z" fill="#2C251F"/>
<path d="M156.824 23.7906C153.824 23.6299 150.731 23.5139 148.287 25.4912C148.135 25.6162 148.331 25.8059 148.486 25.739C150.627 24.8239 152.569 24.2169 154.944 24.2928C156.887 24.3553 158.804 24.6119 160.73 24.2236C161.917 23.9848 163.158 23.5384 164.241 22.8845C164.25 22.7886 164.253 22.6993 164.241 22.6212C164.227 22.523 164.209 22.4136 164.188 22.2998C162.047 23.5786 159.095 23.9134 156.824 23.7906Z" fill="#4A3D35"/>
<path d="M140.623 19.706C139.625 19.4717 138.697 19.0568 137.9 18.4834C137.553 17.098 137.613 15.601 137.969 14.0638C138.558 11.5272 140.244 9.84278 141.785 7.82374C143.298 5.84262 144.171 3.56478 144.42 1.19993C144.252 1.15754 144.078 1.11738 143.908 1.07722C143.739 2.39574 143.372 3.69194 142.794 4.92122C141.72 7.21021 139.748 8.82099 138.44 10.9516C137.366 12.6985 136.678 15.273 136.897 17.6111C136.32 16.9909 135.862 16.2569 135.569 15.4225C134.761 13.1179 135.654 10.8869 136.777 8.84776C138.332 6.02556 139.588 3.41084 139.861 0.410156C139.752 0.410156 139.634 0.410156 139.505 0.412387C139.309 2.50059 138.657 4.49064 137.576 6.40483C136.514 8.28778 135.206 10.1328 134.802 12.2813C134.361 14.6193 135.299 16.9931 137.04 18.537C137.38 20.15 138.218 21.5689 139.754 22.4055C139.992 22.5349 140.246 22.2181 140.043 22.0329C139.163 21.2275 138.556 20.3262 138.175 19.358C138.874 19.7618 139.657 20.0496 140.496 20.1834C140.815 20.2325 140.946 19.7818 140.623 19.706Z" fill="#4A3D35"/>
<path d="M163.019 26.0112C163.132 25.7835 163.266 25.5155 163.403 25.2253C162.299 25.616 161.137 25.8482 159.915 25.8616C157.58 25.8839 155.371 24.7453 153.05 24.9417C152.842 24.9596 152.787 25.2454 153.004 25.3034C156.367 26.1786 159.855 26.8864 163.019 26.0112Z" fill="#4A3D35"/>
<path d="M145.624 18.3711C145.797 18.5162 146.049 18.3354 145.942 18.1346C145.82 17.9003 145.73 17.675 145.668 17.4541C146.495 16.0507 147.391 14.7879 148.918 13.8151C150.962 12.5143 153.417 12.1038 155.745 11.5281C157.739 11.035 159.746 10.3456 161.273 9.15193C161.192 8.9846 161.114 8.82172 161.037 8.66108C158.376 10.6513 154.172 10.9748 151.147 12.019C149.174 12.6995 147.1 13.998 145.776 15.7317C146.307 14.4175 147.774 13.3555 148.934 12.434C150.687 11.0417 152.523 9.76774 154.408 8.54952C156.08 7.4674 157.48 6.22464 158.155 4.63828C158.039 4.55126 157.921 4.46425 157.799 4.375C157.15 5.90558 155.745 7.0524 154.129 8.08543C152.433 9.16532 150.772 10.2854 149.181 11.5036C147.793 12.5656 144.15 15.1248 144.855 17.3002C144.642 17.8066 144.487 18.3354 144.42 18.891C144.397 19.0896 144.704 19.1409 144.794 18.9847C144.97 18.6746 145.141 18.3711 145.312 18.0699C145.404 18.1703 145.504 18.2707 145.624 18.3711Z" fill="#4A3D35"/>
<path d="M125.662 24.3303C125.858 24.2031 127.889 22.4316 127.889 21.9251C127.889 21.4187 128.346 16.865 128.674 16.4834C129.002 16.1042 130.711 15.4705 130.806 15.3456C130.901 15.2184 143.141 15.408 145.534 15.3456C147.929 15.2831 148.65 14.7499 148.846 15.301C149.042 15.852 149.828 16.8003 149.828 16.8003L150.089 15.9145C150.089 15.9145 153.454 17.3692 153.408 17.7485C153.362 18.1278 153.408 20.785 153.408 20.785C153.408 20.785 160.173 20.6579 159.912 20.6579C159.651 20.6579 154.149 22.4294 154.082 22.7462C154.018 23.063 154.607 26.2267 154.868 26.4164C155.129 26.606 155.916 27.6814 155.916 27.6814C155.916 27.6814 152.512 42.4849 152.38 42.8017C152.248 43.1186 149.809 44.7629 149.49 44.7004C149.172 44.6379 145.111 41.8134 144.718 41.8334C144.326 41.8535 137.579 42.447 134.174 41.5166C134.174 41.5166 131.3 43.625 130.804 43.4331C130.309 43.2435 128.147 40.3274 128.147 40.3274L125.662 24.3303Z" fill="#FAB986"/>
<path d="M126.434 25.7953C126.434 25.7953 127.725 23.3022 128.076 23.1193C128.427 22.9387 133.137 22.1002 133.379 21.9575C133.622 21.8148 136.632 22.4771 136.742 22.6711C136.853 22.8651 137.147 23.3156 137.147 23.3156C137.147 23.3156 136.835 25.0862 136.481 25.0349C136.128 24.9836 130.078 24.4551 129.617 24.4417C129.155 24.4283 127.794 25.0527 127.713 25.1397C127.635 25.2289 126.434 25.7953 126.434 25.7953Z" fill="#2C251F"/>
<path d="M141.792 26.2215C141.792 26.2215 141.505 28.0371 141.611 28.4162C141.715 28.7954 142.207 29.266 142.508 29.2058C142.808 29.1456 147.797 28.6103 148.22 28.6593C148.643 28.7084 154.376 29.4757 154.48 29.3507C154.586 29.2281 153.482 28.2199 153.235 27.9657C152.988 27.7114 148.255 26.5672 148.255 26.5672C147.848 26.2081 142.401 25.6996 141.792 26.2215Z" fill="#2C251F"/>
<path d="M129.621 31.0374C129.621 31.0374 130.513 33.2757 132.635 33.0949C134.756 32.9119 135.135 32.1822 135.283 32.2625C135.43 32.3429 135.576 32.2625 135.576 32.2625L134.714 30.8142L133.412 29.9595C133.414 29.9595 130.6 29.8524 129.621 31.0374Z" fill="white"/>
<path d="M143.776 30.9081L143.399 31.8585C143.399 31.8585 143.621 31.7938 143.776 31.8585C143.931 31.9232 146.326 33.7862 149.696 31.6443L149.347 30.6046C149.347 30.6046 146.693 29.5159 145.986 29.6631C145.282 29.8081 143.995 30.3614 143.776 30.9081Z" fill="white"/>
<path d="M131.647 30.5343C131.647 30.5343 131.758 33.0683 133.398 32.988C135.038 32.9077 134.666 29.8896 133.548 29.9632C132.43 30.0346 131.647 30.5343 131.647 30.5343Z" fill="black"/>
<path d="M145.402 29.967C145.402 29.967 144.919 32.4547 147.012 32.6042C149.105 32.7537 148.493 29.7506 147.735 29.7104C146.975 29.6725 145.402 29.967 145.402 29.967Z" fill="black"/>
<path d="M135.363 39.7173C135.396 39.532 137.706 35.9678 137.962 35.8116C138.218 35.6576 139.918 35.0684 140.655 35.8116C141.392 36.5548 142.676 39.9025 142.676 39.9025C142.676 39.9025 141.009 42.0094 138.667 41.8241C136.327 41.6389 135.363 39.7173 135.363 39.7173Z" fill="#F49963"/>
<path d="M142.676 39.9045C142.676 39.9045 142.545 39.5608 142.341 39.0675C142.316 39.4648 142.281 39.8331 142.228 39.9358C142.099 40.1835 140.207 41.362 138.893 41.4535C137.579 41.5473 136.07 39.8733 135.788 39.717C135.691 39.6635 135.761 39.2907 135.888 38.8242C135.588 39.3019 135.373 39.6612 135.363 39.717C135.363 39.717 136.327 41.6388 138.667 41.824C141.009 42.0115 142.676 39.9045 142.676 39.9045Z" fill="#93462D"/>
<path d="M131.377 45.5225C131.377 45.5225 134.026 43.0127 134.176 43.0127C134.326 43.0127 138.375 46.4394 144.873 43.3496C144.873 43.3496 149.123 45.5694 149.222 45.7635C149.322 45.9576 144.697 52.8601 144.037 52.4742C143.374 52.0882 142.076 49.2884 142.124 49.0474C142.175 48.8065 143.868 47.952 144.046 47.7512C144.224 47.5505 139.625 48.4339 137.126 47.4612C137.126 47.4612 138.576 48.4183 139.775 48.5165C139.775 48.5165 138.475 53.1501 138.027 52.9092C137.574 52.666 133.176 50.3971 131.377 45.5225Z" fill="#FAB986"/>
<path d="M133.541 45.9358C133.885 45.2888 135.474 46.4065 136.052 46.5783C137.144 46.904 138.306 47.0735 139.45 47.1048C140.579 47.136 141.739 47.0267 142.829 46.7322C144.175 46.3686 145.483 45.2665 146.894 45.7618C147.16 45.8555 147.405 45.4539 147.174 45.2821C145.712 44.1979 144.106 45.6011 142.626 46.0049C141.411 46.3351 140.143 46.4355 138.886 46.3574C137.761 46.2883 134.749 46.1254 134.197 44.9832C134.118 44.8226 133.887 44.7869 133.74 44.8649C133.317 45.0858 133.148 45.2955 133.044 45.7439C132.98 46.025 133.398 46.2057 133.541 45.9358Z" fill="#A55034"/>
<path d="M143.688 30.9086C143.67 30.8952 144.309 29.5234 144.466 29.4387C144.621 29.3561 147.49 29.4231 147.957 29.5881C148.423 29.7554 148.77 29.8223 148.855 29.9227C148.941 30.0231 149.426 30.7078 149.426 30.7078C149.426 30.7078 149.287 30.8238 149.01 30.7569C148.733 30.69 148.319 30.3398 148.162 30.3063C148.005 30.2729 144.499 30.0387 144.448 30.1547C144.395 30.2729 143.947 31.0937 143.688 30.9086Z" fill="black"/>
<path d="M129.621 31.0371C129.621 31.0371 129.688 30.8297 129.82 30.6402C129.951 30.4485 130.413 29.8933 130.478 29.8598C130.545 29.8286 131.945 29.2712 132.901 29.5744C133.857 29.8776 134.4 30.1051 134.483 30.2612C134.566 30.4172 134.714 30.8141 134.714 30.8141C134.714 30.8141 134.005 30.5287 133.874 30.4172C133.742 30.3057 130.462 30.6402 130.215 30.7673C129.968 30.8944 129.621 31.0371 129.621 31.0371Z" fill="black"/>
<path d="M55.1794 273.588L53.1791 278.887L52.5069 283.523L56.9511 282.53C56.9511 282.53 58.9514 274.251 58.9514 274.083C58.9514 273.918 55.1794 273.588 55.1794 273.588Z" fill="url(#paint2_linear)"/>
<path d="M53.4077 238.2C53.4077 238.2 46.6237 243.445 46.0163 245.431C45.4065 247.419 46.3974 253.485 46.0163 254.094C45.6351 254.703 42.6069 260.005 42.4914 260.832C42.3783 261.66 42.0133 268.063 48.3954 271.653C54.7775 275.241 62.8365 276.566 70.3805 272.813C77.9244 269.061 78.8969 264.422 78.8969 264.422C78.8969 264.422 78.6682 266.575 79.8116 266.852C80.9549 267.128 82.2115 267.68 83.6413 266.908C85.0711 266.136 88.4411 261.441 87.1268 258.461C85.8125 255.48 81.3545 257.577 78.8391 260.228L79.9247 248.358L74.8385 241.292L66.0657 236.986L56.8356 237.926L53.4077 238.2Z" fill="#ECB584"/>
<path d="M53.8559 261.021C53.7519 261.017 51.3335 260.892 50.7745 259.754C50.5089 259.212 50.5181 258.529 50.7976 257.88C51.0817 257.227 51.6061 256.716 52.1997 256.515C53.4817 256.084 54.8329 258.324 54.8907 258.42L54.5534 258.607C54.2093 258.032 53.1329 256.595 52.329 256.87C51.8347 257.037 51.3982 257.467 51.1579 258.025C50.92 258.576 50.9085 259.147 51.1256 259.593C51.5067 260.37 53.2391 260.617 53.8743 260.646L53.8559 261.021Z" fill="#B5673B"/>
<path d="M60.4944 258.74C60.4944 258.74 63.3517 253.491 65.5806 254.154C67.8096 254.816 68.7243 256.869 69.0107 258.74C69.2971 260.612 68.782 261.826 67.5809 261.881C66.3821 261.937 59.6952 261.946 60.4944 258.74Z" fill="#F6EDD9"/>
<path d="M50.7768 256.087C50.7768 256.087 50.7214 252.388 49.2361 252.388C47.7509 252.388 46.2633 254.706 46.0347 256.087C45.806 257.467 47.6308 258.625 50.7768 256.087Z" fill="#F6EDD9"/>
<path d="M35.6335 314.825L34.661 334.423C34.661 334.423 46.7785 338.011 46.9494 337.737C47.1204 337.46 48.0928 333.651 48.0928 333.651L51.3497 338.013L64.8369 335.97L60.0371 320.126L37.9179 312.896L35.6335 314.825Z" fill="#3A3E51"/>
<path d="M37.1765 315.542L42.9142 323.712L45.9123 319.406C46.5429 319.674 50.5528 324.589 50.5528 324.589L60.0393 320.125L46.6215 315.674L37.1765 315.542Z" fill="#394C65"/>
<path d="M37.1765 315.541L42.7201 322.386L46.1503 318.301L50.7792 323.997L60.037 320.124L49.0653 314.272L38.835 313.774L37.1765 315.541Z" fill="#F3E2C1"/>
<path d="M37.8048 336.686C37.8048 336.851 48.363 365.944 48.363 365.944C48.363 365.944 50.3195 366.495 50.435 365.944C50.5481 365.393 49.2338 347.12 48.1482 345.739C47.0626 344.358 43.8496 341.096 44.6627 339.28C45.4781 337.464 37.8048 336.686 37.8048 336.686Z" fill="url(#paint3_linear)"/>
<path d="M33.9196 331.44V336.686L47.5777 340.771L47.4137 336.224L33.9196 331.44Z" fill="#313648"/>
<path d="M54.5511 339.168L60.2611 366.881C60.2611 366.881 62.2176 366.881 62.3908 366.551C62.5617 366.221 62.9521 349.989 62.668 347.118C62.3816 344.246 62.0974 338.008 62.0974 338.008L54.5511 339.168Z" fill="url(#paint4_linear)"/>
<path d="M50.5505 336.862L51.5229 341.101L66.5531 338.506L64.8392 333.207L50.5505 336.862Z" fill="#313648"/>
<path d="M48.3007 365.945C48.3007 365.945 38.4237 371.212 42.5607 371.504C46.7 371.797 50.435 365.945 50.435 365.945C49.2247 365.945 48.3007 365.945 48.3007 365.945Z" fill="#1C1E23"/>
<path d="M60.2935 366.476C60.2935 366.476 56.5492 373.911 60.2935 374C64.0377 374.089 62.4093 365.945 62.4093 365.945L60.2935 366.476Z" fill="#1C1E23"/>
<path d="M53.5994 257.033L53.2183 256.959C53.2321 256.899 54.4726 250.909 54.528 248.961C54.5788 247.172 52.1003 246.946 52.0772 246.944L52.1095 246.569C52.1373 246.572 54.9784 246.83 54.916 248.97C54.8606 250.951 53.6502 256.785 53.5994 257.033Z" fill="#B5673B"/>
<path d="M46.6075 248.413C46.6075 248.413 48.4693 245.807 50.495 246.316C52.5185 246.825 51.2388 247.034 50.495 247.088C49.7512 247.144 46.6075 248.413 46.6075 248.413Z" fill="#2C251F"/>
<path d="M66.3821 248.414C66.3821 248.414 70.1541 247.695 71.2397 251.394C71.2397 251.394 70.1541 249.406 67.6387 249.297C65.1256 249.185 66.3821 248.414 66.3821 248.414Z" fill="#2C251F"/>
<path d="M47.7625 253.072C47.7625 253.072 47.6355 255.203 49.5203 254.596C51.4074 253.989 49.9407 252.744 49.9407 252.744C49.9407 252.744 49.2062 251.934 47.7625 253.072Z" fill="#453021"/>
<path d="M75.64 320.827C75.6909 320.568 77.5203 317.516 77.5203 317.516V321.119C77.5203 321.117 75.4114 321.969 75.64 320.827Z" fill="#DB9769"/>
<path d="M63.9383 254.534C63.9383 254.534 63.25 256.582 65.1025 257.109C66.955 257.636 68.4587 256.564 67.3939 255.223C66.3244 253.878 64.9269 253.708 63.9383 254.534Z" fill="#453021"/>
<path d="M50.4858 263.209C50.4858 263.209 52.2667 264.092 52.4954 264.534C52.7241 264.976 50.0954 266.687 49.7512 266.136C49.4071 265.583 50.2479 263.43 50.4858 263.209Z" fill="#762211"/>
<path d="M47.4068 236.987C47.4068 236.987 57.3322 227.27 60.4274 226.498C63.5226 225.726 73.1824 224.622 75.3536 225.229C77.5249 225.836 86.8659 234.834 87.4249 235.938C87.9839 237.043 88.3835 249.849 88.0994 250.733C87.813 251.616 85.5285 256.998 85.5285 256.998C85.5285 256.998 81.8697 256.915 80.0981 259.677L78.8415 261.665L76.6702 261.114C76.6702 261.114 78.7838 256.141 78.271 254.1C77.7559 252.06 75.5269 245.711 74.1571 244.497C72.7851 243.283 73.2424 242.786 73.2424 242.786C73.2424 242.786 62.0974 244.22 58.2122 240.191C58.2122 240.191 57.5262 240.963 54.7267 239.307C54.7267 239.307 53.3616 238.716 51.5853 239.675C49.8113 240.633 46.4574 244.698 46.0185 246.253C45.5797 247.81 46.104 253.589 46.104 253.589C46.104 253.589 44.4363 250.57 44.665 246.761C44.8913 242.948 47.4068 236.987 47.4068 236.987Z" fill="#2C251F"/>
<path d="M51.0887 279.568C51.0887 279.568 31.1177 279.16 28.7756 278.553C26.4334 277.946 6.37233 274.191 6.37233 274.191C6.37233 274.191 5.91498 275.903 6.37233 276.289C6.82968 276.675 8.88776 281.313 15.9744 282.527C23.061 283.741 25.2322 283.52 25.976 284.073C26.7198 284.624 36.2063 288.214 39.2923 287.386C42.3782 286.558 35.3494 302.016 35.6335 310.407V314.822C35.6335 314.822 52.8372 323.269 60.037 320.121L59.351 292.408C59.351 292.408 62.8366 299.695 68.9531 303.725C75.0695 307.754 74.0971 306.208 74.1548 308.196C74.2126 310.184 75.1273 315.152 77.6981 316.808L80.4977 316.698C80.4977 316.698 82.1562 303.339 76.668 298.812C71.1821 294.285 58.2723 281.393 58.2723 281.393L51.0887 279.568Z" fill="#F2E048"/>
<path d="M49.7928 284.185C49.7628 284.216 49.5942 284.975 49.5942 284.975L53.5694 281.175L54.0245 286.756C54.0245 286.756 57.0134 284.578 58.2723 281.396L56.6739 280.276L53.1121 280.055L50.8761 282.436L49.7928 284.185Z" fill="#C1C041"/>
<path d="M57.7526 277.946C57.7526 277.946 58.0945 279.251 58.3232 280.891C58.5518 282.529 54.0937 286.393 54.0937 286.393L53.8119 280.155L57.7526 277.946Z" fill="#F3E2C1"/>
<path d="M49.4071 284.572C49.4071 284.572 50.6637 279.768 51.4075 279.105C52.1512 278.443 53.812 277.209 53.812 277.209V280.154L49.4071 284.572Z" fill="#F3E2C1"/>
<path d="M0.0965002 274.636C0.0965002 274.636 -0.120625 272.608 0.0965002 272.539C0.313626 272.469 2.38325 271.546 3.23327 271.546C4.0856 271.546 6.37004 274.196 6.37004 274.196L3.85462 276.9C3.85462 276.9 3.11085 277.855 2.02522 277.212C0.941904 276.568 -0.178371 274.966 0.0965002 274.636Z" fill="#DB9769"/>
<path d="M46.6075 133.41C47.0649 133.41 66.851 133.773 72.5864 131.772C78.3217 129.771 94.5138 118.858 94.5138 118.858C94.5138 118.858 101.67 150.725 105.435 154.616C109.2 158.505 108.447 166.872 108.447 166.872C108.447 166.872 66.791 171.484 62.0904 180.212C62.0904 180.212 57.8703 154.853 52.7494 150.859C47.6285 146.87 46.6075 133.41 46.6075 133.41Z" fill="#DD4D3A"/>
<path d="M96.096 325.221C94.3244 325.221 92.3402 324.91 90.1181 324.174C87.3902 323.268 83.177 322.093 77.8436 320.602C56.1588 314.545 19.8641 304.409 7.00753 291.403C-4.62486 279.639 4.1618 257.774 10.5762 241.81C12.9854 235.813 15.0666 230.634 15.4338 227.417C16.4248 218.711 41.3965 197.462 54.8121 186.047C58.9167 182.556 62.1574 179.796 62.3145 179.394C62.3099 178.142 91.0629 124.848 94.3405 118.774L94.6847 118.948C83.6968 139.301 62.8735 178.131 62.6979 179.432C62.6979 179.798 61.2543 181.067 55.0708 186.328C42.6461 196.9 16.7967 218.896 15.8219 227.457C15.45 230.723 13.3619 235.924 10.9412 241.946C4.56371 257.816 -4.16982 279.552 7.29164 291.145C20.0789 304.076 56.3089 314.197 77.9545 320.243C83.2925 321.733 87.5103 322.911 90.2475 323.819C103.661 328.268 108.283 316.753 108.329 316.635L108.694 316.767C108.65 316.867 105.296 325.221 96.096 325.221Z" fill="#412733"/>
<path d="M48.5062 254.339C48.5062 254.542 48.3376 254.705 48.1274 254.705C47.9172 254.705 47.7486 254.542 47.7486 254.339C47.7486 254.136 47.9172 253.973 48.1274 253.973C48.3376 253.973 48.5062 254.136 48.5062 254.339Z" fill="white"/>
<path d="M65.7793 257.276C65.7793 257.647 65.4698 257.946 65.0864 257.946C64.703 257.946 64.3934 257.647 64.3934 257.276C64.3934 256.906 64.703 256.606 65.0864 256.606C65.4698 256.606 65.7793 256.908 65.7793 257.276Z" fill="white"/>
<path d="M81.0567 260.607C81.1329 260.549 83.3734 257.405 85.0434 258.213C86.7134 259.02 86.3369 261.466 85.8795 262.742C85.4222 264.019 80.9758 267.479 80.2482 265.163C79.5206 262.847 82.3501 263.862 81.9991 263.055C81.648 262.247 80.0334 261.388 81.0567 260.607Z" fill="#DB9769"/>
<path d="M3.85692 273.587C3.85692 273.587 0.542296 270.386 0.142693 271.543C-0.25691 272.703 2.08527 273.917 2.31395 274.745C2.54262 275.572 1.8566 276.733 3.85692 276.898C5.85725 277.063 6.37234 276.291 6.37234 276.291V274.194L3.85692 273.587Z" fill="#ECB584"/>
<path d="M77.6981 316.811C77.6981 316.811 76.3838 321.945 76.3838 322.498C76.3838 323.051 80.2828 324.1 80.7332 323.989C81.1836 323.879 81.7565 322 81.7565 322L80.4999 316.701L77.6981 316.811Z" fill="#ECB584"/>
<defs>
<linearGradient id="paint0_linear" x1="165.154" y1="130.98" x2="181.132" y2="113.83" gradientUnits="userSpaceOnUse">
<stop stop-color="#EAB783"/>
<stop offset="0.3269" stop-color="#E69D71"/>
<stop offset="1" stop-color="#DC5D43"/>
</linearGradient>
<linearGradient id="paint1_linear" x1="209.607" y1="134.169" x2="194.736" y2="130.202" gradientUnits="userSpaceOnUse">
<stop stop-color="#EAB783"/>
<stop offset="0.3269" stop-color="#E69D71"/>
<stop offset="1" stop-color="#DC5D43"/>
</linearGradient>
<linearGradient id="paint2_linear" x1="55.4383" y1="272.325" x2="55.68" y2="278.08" gradientUnits="userSpaceOnUse">
<stop stop-color="#DB9769"/>
<stop offset="1" stop-color="#ECB584"/>
</linearGradient>
<linearGradient id="paint3_linear" x1="42.2972" y1="338.712" x2="46.7523" y2="355.279" gradientUnits="userSpaceOnUse">
<stop stop-color="#DB9769"/>
<stop offset="1" stop-color="#ECB584"/>
</linearGradient>
<linearGradient id="paint4_linear" x1="56.1424" y1="334.973" x2="60.6286" y2="351.655" gradientUnits="userSpaceOnUse">
<stop stop-color="#DB9769"/>
<stop offset="1" stop-color="#ECB584"/>
</linearGradient>
</defs>
</svg>
