<svg width="276" height="369" viewBox="0 0 276 369" fill="none" xmlns="http://www.w3.org/2000/svg">
<g clip-path="url(#clip0)">
<path d="M155.154 87.0113C155.154 87.0113 159.15 72.3956 164.935 62.4534L213.14 52.0692L227.218 34.6484L236.985 40.7879C236.985 40.7879 224.995 66.383 223.923 67.2013L197.173 74.4041" fill="#F9E047"/>
<path d="M243.011 23.8272L245.426 23.1314C251.68 18.0027 251.776 12.8566 251.465 11.9289C251.155 11.0012 250.091 10.5767 250.091 10.5767C250.091 10.5767 250.428 9.98597 250.853 9.05826C251.277 8.13056 249.172 6.77838 249.172 6.77838C249.514 4.75668 247.746 3.99089 247.746 3.99089C247.746 3.99089 246.315 1.96481 245.978 1.62349C245.645 1.28654 237.046 0 237.046 0L231.891 3.61455L232.565 4.37597C234.329 7.08032 234.15 13.2373 234.15 13.2373C234.657 13.4911 236.224 18.1034 236.224 18.1034L227.218 34.6489L236.219 44.1711L243.011 23.8272ZM237.615 9.53087C238.801 7.08907 234.591 4.80044 234.591 4.80044C235.602 4.9711 237.716 3.79397 237.716 3.79397C237.97 4.21844 240.075 4.81357 240.075 4.81357L241.667 9.03638L237.615 9.53087Z" fill="url(#paint0_linear)"/>
<path d="M245.3 13.7403C245.689 13.6921 246.078 13.7096 246.464 13.7928C247.579 13.9853 247.584 14.633 246.477 15.7445C245.864 16.0683 244.477 15.4644 244.122 14.8605C243.707 14.1472 243.098 10.6946 243.908 10.117C244.219 9.89815 245.763 10.3139 246.153 10.3708C246.897 10.4802 247.641 10.6071 248.376 10.7646C249.605 11.0315 250.643 11.386 251.54 12.3181C251.522 12.1518 251.496 12.0161 251.465 11.9242C251.155 10.9965 250.091 10.5721 250.091 10.5721C250.091 10.5721 250.428 9.9813 250.853 9.05359C250.861 9.03609 250.861 9.01421 250.87 8.99233C250.883 8.85667 250.888 8.72102 250.879 8.58536C250.66 7.72767 249.172 6.76933 249.172 6.76933C249.378 5.56594 248.831 4.8089 248.358 4.39318C248.034 4.135 247.663 3.92058 247.269 3.75867C245.496 3.0235 243.413 2.27521 241.519 1.93389C240.709 1.7851 240.022 1.66695 239.926 2.60779C239.773 4.09562 240.74 5.95103 241.488 7.15442C241.506 7.18505 241.527 7.20256 241.554 7.22443C241.698 8.42345 242.276 9.80626 242.906 10.7121C242.744 11.9899 243.147 13.7534 243.523 14.8211C243.89 15.8626 244.547 15.972 245.588 16.1383C246.442 16.2739 247.772 16.5321 248.31 15.6175C249.277 13.9591 246.429 13.0313 245.269 13.4427C245.116 13.4996 245.116 13.7534 245.3 13.7403ZM249.137 6.57242C247.733 5.90289 245.864 5.67097 244.534 5.43466C243.575 5.264 241.873 4.70825 241.584 6.06918C241.576 6.10856 241.571 6.15232 241.567 6.19171C241.094 5.38653 240.687 4.49383 240.582 3.59238C240.608 3.18104 240.635 2.77407 240.661 2.36273C241.09 2.37586 241.506 2.4415 241.908 2.5684C242.359 2.68218 242.796 2.83971 243.238 2.98412C244.262 3.31669 245.295 3.64051 246.315 3.99059C247.838 4.51133 248.533 5.06271 249.128 6.56366C249.128 6.56804 249.133 6.56804 249.137 6.57242ZM245.059 9.56996C244.184 9.47368 243.413 9.24176 243.072 10.0251C242.783 9.36429 242.473 8.71227 242.298 8.00336C242.004 6.81747 241.602 5.88539 243.584 5.72785C244.009 5.69285 244.542 5.89852 244.949 5.98604C245.943 6.19608 246.936 6.45426 247.899 6.78246C248.507 6.98813 249.36 7.21131 249.816 7.69704C250.673 8.61162 250.187 9.5437 249.684 10.292C248.157 9.77125 246.205 9.70124 245.059 9.56996Z" fill="#EB6D5E"/>
<path d="M251.194 15.0839C251.238 14.8563 251.29 14.6594 251.347 14.4844C251.308 14.6813 251.255 14.8782 251.194 15.0839Z" fill="#F49963"/>
<path d="M236.994 37.2485L243.488 22.7115C243.488 22.7115 247.501 21.3506 249.785 18.248C248.857 19.7796 247.474 21.4556 245.431 23.1316L244.586 23.0441L238.442 37.7868L236.994 37.2485Z" fill="#F49963"/>
<path d="M242.661 20.4096C242.547 19.2106 243.238 18.121 244.184 17.4514C244.267 17.3946 244.363 17.5258 244.289 17.5915C243.501 18.3179 242.915 19.5213 243.265 20.6153C243.602 21.6786 244.612 21.7749 245.348 22.3919C245.479 22.5013 245.361 22.707 245.212 22.7114C244.022 22.7332 242.77 21.5867 242.661 20.4096Z" fill="#EB6D5E"/>
<path d="M228.058 29.4375C228.058 29.4375 225.568 33.2621 224.426 34.6011C223.284 35.9446 221.936 38.1151 221.936 38.1151L237.558 45.7424C237.558 45.7424 239.655 39.1259 240.25 38.1938C240.845 37.2617 241.125 35.2969 241.125 35.2969L228.058 29.4375Z" fill="#F2B348"/>
<path d="M142.805 77.9281C142.805 77.9281 156.498 69.3905 168.208 65.7979L213.407 92.5351L237.011 89.0912L240.21 100.954C240.21 100.954 212.331 112.297 210.9 112.161L184.775 98.4514" fill="#F9E047"/>
<path d="M257.185 92.0493L259.574 93.2527C268.173 93.7647 271.967 89.8088 272.4 88.8592C272.829 87.9096 272.304 86.8113 272.304 86.8113C272.304 86.8113 272.995 86.5968 273.997 86.1767C274.999 85.7566 274.33 83.1792 274.33 83.1792C276.058 81.8445 275.227 79.9672 275.227 79.9672C275.227 79.9672 275.577 77.3504 275.555 76.8428C275.537 76.3352 269.739 69.1104 269.739 69.1104L263.097 68.209L263.075 69.2899C262.501 72.6812 257.907 77.3591 257.907 77.3591C258.117 77.9236 256.012 82.6672 256.012 82.6672L237.007 89.0911L237.16 103.042L257.185 92.0493ZM263.298 76.9697C265.993 75.9151 264.352 71.084 264.352 71.084C265.022 71.9504 267.521 72.5543 267.521 72.5543C267.411 73.0663 268.628 75.0574 268.628 75.0574L266.82 79.5078L263.298 76.9697Z" fill="url(#paint1_linear)"/>
<path d="M266.265 85.8179C266.602 86.063 266.895 86.3561 267.14 86.7018C267.875 87.6602 267.407 88.1722 265.74 88.2334C265.031 88.0453 264.379 86.5706 264.541 85.8398C264.733 84.9821 266.755 81.8445 267.801 81.9758C268.203 82.0283 269.109 83.4724 269.372 83.7962C269.875 84.422 270.365 85.0565 270.825 85.7129C271.595 86.8069 272.146 87.8352 272.177 89.2137C272.286 89.0692 272.361 88.9467 272.404 88.8548C272.833 87.9052 272.308 86.8069 272.308 86.8069C272.308 86.8069 272.999 86.5924 274.002 86.1723C274.023 86.1636 274.041 86.1461 274.058 86.1373C274.168 86.0411 274.269 85.936 274.356 85.8267C274.802 84.9996 274.334 83.1748 274.334 83.1748C275.362 82.3784 275.485 81.3938 275.415 80.7286C275.349 80.291 275.209 79.8578 275.021 79.4465C274.163 77.5911 273.078 75.4993 271.844 73.8627C271.315 73.1626 270.864 72.5718 270.111 73.237C268.917 74.2872 268.33 76.4402 268.046 77.9193C268.037 77.9543 268.041 77.9893 268.046 78.0199C267.289 79.0614 266.742 80.5623 266.58 81.722C265.53 82.6059 264.567 84.2732 264.09 85.3759C263.622 86.4524 264.055 87.0169 264.751 87.8965C265.32 88.6185 266.173 89.7869 267.254 89.4543C269.21 88.8592 267.652 86.0717 266.449 85.5553C266.295 85.4941 266.116 85.6954 266.265 85.8179ZM274.444 82.9866C273.831 81.4463 272.536 79.9147 271.665 78.7682C271.039 77.9411 270.111 76.2783 268.899 77.1316C268.864 77.1578 268.829 77.1885 268.794 77.2147C269.009 76.2433 269.332 75.2543 269.906 74.471C270.221 74.169 270.54 73.8671 270.855 73.5695C271.179 73.889 271.459 74.2434 271.687 74.6329C271.958 75.0486 272.186 75.4906 272.426 75.9194C272.986 76.9215 273.56 77.9193 274.102 78.9301C274.921 80.4398 275.065 81.3719 274.444 82.9779C274.444 82.9779 274.448 82.9823 274.444 82.9866ZM269.092 82.3828C268.479 81.6738 268.046 80.9387 267.21 81.3019C267.459 80.5755 267.691 79.8447 268.068 79.162C268.694 78.0199 269.057 77.0047 270.72 78.3131C271.074 78.5932 271.345 79.1358 271.604 79.499C272.229 80.3829 272.816 81.3019 273.332 82.2559C273.656 82.8597 274.163 83.6518 274.168 84.3563C274.177 85.691 273.122 86.0673 272.19 86.2905C271.367 84.7764 269.893 83.3148 269.092 82.3828Z" fill="#EB6D5E"/>
<path d="M269.901 91.1308C270.103 90.982 270.286 90.8683 270.453 90.7764C270.282 90.8945 270.098 91.0127 269.901 91.1308Z" fill="#F49963"/>
<path d="M242.775 98.1938L258.362 91.5205C258.362 91.5205 262.484 93.3584 266.51 92.5795C264.676 93.1046 262.383 93.4153 259.57 93.249L258.974 92.5707L243.51 99.6554L242.775 98.1938Z" fill="#F49963"/>
<path d="M259.377 89.1217C260.156 88.1021 261.482 87.7477 262.707 87.9096C262.812 87.9227 262.795 88.0934 262.69 88.0934C261.548 88.0934 260.222 88.6098 259.701 89.7169C259.198 90.7934 259.915 91.5986 260.047 92.6094C260.068 92.7888 259.828 92.8676 259.71 92.7582C258.76 91.9224 258.611 90.1239 259.377 89.1217Z" fill="#EB6D5E"/>
<path d="M241.436 85.625C241.436 85.625 236.723 86.8109 234.858 87.0384C232.994 87.2616 230.369 87.9836 230.369 87.9836L237.068 105.247C237.068 105.247 243.492 101.589 244.63 101.291C245.768 100.993 247.404 99.6587 247.404 99.6587L241.436 85.625Z" fill="#F2B348"/>
<path d="M120.405 90.3941C120.405 90.3941 116.41 75.7784 110.625 65.8362L62.4189 55.452L48.3414 38.0312L38.5742 44.1707C38.5742 44.1707 50.5644 69.7658 51.6365 70.5841L78.3868 77.7869" fill="#F9E047"/>
<path d="M39.3444 47.5539L48.3458 38.0317L39.3356 21.4862C39.3356 21.4862 40.9066 16.8739 41.4098 16.6201C41.4098 16.6201 41.2261 10.4631 42.994 7.75878L43.6679 6.99736L38.513 3.38281C38.513 3.38281 29.9142 4.66935 29.5772 5.0063C29.2403 5.34325 27.8093 7.3737 27.8093 7.3737C27.8093 7.3737 26.0414 8.13512 26.3828 10.1612C26.3828 10.1612 24.2779 11.5177 24.7024 12.4411C25.1269 13.3688 25.4638 13.9595 25.4638 13.9595C25.4638 13.9595 24.4004 14.384 24.0898 15.3117C23.7791 16.2394 23.8753 21.3856 30.1286 26.5142L32.5441 27.21L39.3444 47.5539ZM33.8963 12.4192L35.4892 8.19638C35.4892 8.19638 37.5984 7.60125 37.8478 7.17678C37.8478 7.17678 39.957 8.35392 40.9723 8.18325C40.9723 8.18325 36.7582 10.4719 37.9485 12.9137L33.8963 12.4192Z" fill="url(#paint2_linear)"/>
<path d="M30.2949 16.8294C29.1396 16.4181 26.2865 17.3458 27.2536 19.0043C27.7918 19.9232 29.1221 19.6607 29.9754 19.525C31.0169 19.3587 31.6733 19.2493 32.0409 18.2078C32.4172 17.1445 32.8154 15.381 32.6579 14.0988C33.288 13.193 33.8657 11.8102 34.0101 10.6112C34.032 10.5937 34.0582 10.5718 34.0757 10.5411C34.824 9.33775 35.7911 7.48233 35.6379 5.9945C35.5417 5.05367 34.8546 5.17182 34.0451 5.3206C32.1547 5.66193 30.0673 6.41022 28.2951 7.14538C27.9012 7.3073 27.5249 7.51734 27.2054 7.7799C26.7328 8.19562 26.1858 8.95266 26.3915 10.1561C26.3915 10.1561 24.9081 11.1144 24.6849 11.9721C24.6761 12.1077 24.6761 12.2434 24.6936 12.379C24.7024 12.4009 24.7024 12.4184 24.7111 12.4403C25.1356 13.368 25.4726 13.9588 25.4726 13.9588C25.4726 13.9588 24.4092 14.3832 24.0985 15.3109C24.0679 15.4028 24.0416 15.5341 24.0241 15.7048C24.9256 14.7771 25.9627 14.4183 27.1879 14.1513C27.9231 13.9938 28.667 13.8625 29.4109 13.7575C29.8004 13.7006 31.3451 13.2805 31.6558 13.5037C32.4654 14.0813 31.8571 17.5339 31.4414 18.2472C31.0869 18.8511 29.6997 19.455 29.0871 19.1312C27.9756 18.0241 27.98 17.372 29.1002 17.1795C29.4897 17.0963 29.8748 17.0788 30.2642 17.127C30.4437 17.1357 30.448 16.8819 30.2949 16.8294ZM26.4353 9.95038C27.0304 8.44505 27.7262 7.89368 29.249 7.37731C30.2686 7.03161 31.3014 6.70341 32.3253 6.37084C32.7673 6.22643 33.2049 6.0689 33.6556 5.95512C34.0626 5.83259 34.4783 5.76258 34.9028 5.74945C34.929 6.16079 34.9553 6.56776 34.9815 6.9791C34.8765 7.88492 34.4696 8.77325 33.997 9.57842C33.9882 9.53904 33.9882 9.49528 33.9794 9.4559C33.6906 8.09059 31.9884 8.65072 31.03 8.82138C29.6997 9.05768 27.8268 9.28961 26.4265 9.95913C26.4265 9.95476 26.4309 9.95476 26.4353 9.95038ZM25.8708 13.6787C25.3719 12.9348 24.8862 11.9983 25.7395 11.0838C26.1946 10.598 27.0479 10.3749 27.6562 10.1692C28.6189 9.84098 29.6122 9.5828 30.6056 9.37275C31.0125 9.28523 31.5464 9.08394 31.9709 9.11457C33.9532 9.27211 33.555 10.2042 33.2574 11.3901C33.0824 12.099 32.7761 12.751 32.4829 13.4118C32.1415 12.6285 31.3714 12.856 30.4962 12.9567C29.354 13.0836 27.4067 13.1536 25.8708 13.6787Z" fill="#EB6D5E"/>
<path d="M24.3654 18.4716C24.3217 18.244 24.2692 18.0471 24.2123 17.8721C24.256 18.0646 24.3042 18.2615 24.3654 18.4716Z" fill="#F49963"/>
<path d="M38.5655 40.6313L32.0716 26.0944C32.0716 26.0944 28.0588 24.7334 25.7745 21.6309C26.7022 23.1625 28.085 24.8384 30.1286 26.5144L30.9732 26.4269L37.1171 41.1696L38.5655 40.6313Z" fill="#F49963"/>
<path d="M32.903 23.7973C33.0168 22.5983 32.3254 21.5087 31.3802 20.8391C31.297 20.7823 31.2007 20.9135 31.2751 20.9792C32.0628 21.7056 32.6492 22.909 32.2991 24.003C31.9622 25.0663 30.9513 25.1626 30.2161 25.7796C30.0849 25.889 30.203 26.0947 30.3518 26.0991C31.5421 26.1166 32.7892 24.9744 32.903 23.7973Z" fill="#EB6D5E"/>
<path d="M47.5012 32.8203C47.5012 32.8203 49.9912 36.6449 51.1333 37.984C52.2754 39.3274 53.6232 41.4979 53.6232 41.4979L38.001 49.1252C38.001 49.1252 35.9049 42.5087 35.3098 41.5766C34.7146 40.6445 34.4346 38.6797 34.4346 38.6797L47.5012 32.8203Z" fill="#F2B348"/>
<path d="M132.758 81.3099C132.758 81.3099 119.066 72.7724 107.356 69.1797L62.1563 95.9168L38.5523 92.473L35.3535 104.336C35.3535 104.336 63.2328 115.679 64.6637 115.543L90.7883 101.833" fill="#F9E047"/>
<path d="M38.3991 106.424L38.5523 92.473L19.5475 86.049C19.5475 86.049 17.4382 81.3055 17.6527 80.741C17.6527 80.741 13.0579 76.0587 12.4846 72.6717L12.4628 71.5908L5.82003 72.4923C5.82003 72.4923 0.026246 79.717 0.0043661 80.2246C-0.0131378 80.7322 0.332564 83.3491 0.332564 83.3491C0.332564 83.3491 -0.498871 85.2264 1.22964 86.561C1.22964 86.561 0.564491 89.1429 1.56221 89.5586C2.56431 89.9787 3.25571 90.1931 3.25571 90.1931C3.25571 90.1931 2.7306 91.2914 3.15944 92.241C3.58829 93.1906 7.38226 97.1421 15.9854 96.6345L18.3747 95.4311L38.3991 106.424ZM8.73881 82.894L6.93153 78.4436C6.93153 78.4436 8.14805 76.4525 8.03865 75.9405C8.03865 75.9405 10.5417 75.3323 11.2069 74.4702C11.2069 74.4702 9.56587 79.3057 12.2615 80.3559L8.73881 82.894Z" fill="url(#paint3_linear)"/>
<path d="M9.11074 88.9421C7.90735 89.4584 6.3495 92.2415 8.30556 92.841C9.38643 93.1692 10.2397 92.0052 10.8086 91.2832C11.5044 90.3993 11.9376 89.8391 11.4694 88.7626C10.9924 87.6599 10.0297 85.9926 8.97946 85.1087C8.81755 83.9447 8.27056 82.4481 7.51351 81.4066C7.51789 81.376 7.52226 81.341 7.51351 81.306C7.22907 79.8225 6.64269 77.6739 5.44805 76.6237C4.69101 75.9585 4.24028 76.5493 3.71517 77.2494C2.48552 78.8861 1.3959 80.9778 0.538212 82.8332C0.350045 83.2445 0.210014 83.6821 0.144374 84.1154C0.0743586 84.7849 0.196886 85.7695 1.22524 86.5615C1.22524 86.5615 0.75701 88.3863 1.20336 89.2134C1.29088 89.3271 1.39153 89.4322 1.50093 89.5241C1.52281 89.5328 1.53593 89.5503 1.55781 89.5591C2.55991 89.9792 3.25131 90.1936 3.25131 90.1936C3.25131 90.1936 2.7262 91.2919 3.15504 92.2415C3.1988 92.3334 3.27319 92.456 3.38259 92.6004C3.41323 91.2219 3.96897 90.1936 4.73477 89.0996C5.19425 88.4432 5.68436 87.8087 6.18759 87.1829C6.45015 86.8591 7.35598 85.415 7.75857 85.3625C8.80442 85.2269 10.8305 88.3688 11.0187 89.2265C11.1806 89.9529 10.5286 91.4276 9.81965 91.6201C8.14803 91.5545 7.68418 91.0425 8.41934 90.0886C8.66439 89.7429 8.95321 89.4497 9.29453 89.2046C9.44769 89.0777 9.26828 88.8764 9.11074 88.9421ZM1.11584 86.3558C0.494452 84.7499 0.638859 83.8134 1.45279 82.3081C1.99979 81.2972 2.56866 80.2995 3.12879 79.2974C3.36947 78.8642 3.59702 78.4222 3.86833 78.0109C4.09588 77.6214 4.37156 77.2669 4.69976 76.9475C5.01483 77.2494 5.33428 77.5514 5.64935 77.849C6.2226 78.6323 6.54642 79.6212 6.76084 80.5927C6.72584 80.5664 6.69083 80.5358 6.65582 80.5095C5.44368 79.6519 4.51597 81.3191 3.89021 82.1462C3.01939 83.297 1.7241 84.8286 1.11146 86.3646C1.11584 86.3646 1.12022 86.3646 1.11584 86.3558ZM3.37384 89.6816C2.44614 89.4584 1.39153 89.0821 1.3959 87.7474C1.40028 87.0385 1.90789 86.2465 2.23171 85.6469C2.74808 84.693 3.33446 83.774 3.96022 82.8901C4.21403 82.5269 4.48534 81.9843 4.84417 81.7042C6.50704 80.3958 6.87024 81.411 7.49601 82.5531C7.87234 83.2358 8.09989 83.9666 8.3537 84.693C7.51789 84.3298 7.08467 85.0606 6.47203 85.7738C5.66685 86.6972 4.19215 88.1588 3.37384 89.6816Z" fill="#EB6D5E"/>
<path d="M5.65812 94.5127C5.45683 94.3639 5.27304 94.2501 5.10675 94.1582C5.27741 94.2764 5.46558 94.3945 5.65812 94.5127Z" fill="#F49963"/>
<path d="M32.7848 101.576L17.1976 94.9023C17.1976 94.9023 13.0754 96.7402 9.0495 95.9613C10.883 96.4864 13.176 96.7971 15.9898 96.6308L16.5849 95.9526L32.0496 103.037L32.7848 101.576Z" fill="#F49963"/>
<path d="M16.1867 92.5085C15.4078 91.4888 14.0818 91.1344 12.8566 91.2963C12.7515 91.3094 12.7691 91.4801 12.8741 91.4801C14.0162 91.4801 15.3421 91.9965 15.8629 93.1036C16.3661 94.1801 15.6484 94.9853 15.5172 95.9961C15.4953 96.1755 15.736 96.2543 15.8541 96.1449C16.7993 95.3047 16.9481 93.5106 16.1867 92.5085Z" fill="#EB6D5E"/>
<path d="M34.1238 89.0068C34.1238 89.0068 38.8367 90.1927 40.7009 90.4203C42.565 90.6435 45.1906 91.3655 45.1906 91.3655L38.491 108.629C38.491 108.629 32.0671 104.97 30.9293 104.673C29.7916 104.375 28.155 103.041 28.155 103.041L34.1238 89.0068Z" fill="#F2B348"/>
<path d="M143.02 348.052L141.58 359.438L131.384 361.175L130.391 357.215L132.001 351.644L143.02 348.052Z" fill="#F9E047"/>
<path d="M125.962 55.3252L126.487 63.4032L133.423 69.7615L137.813 71.9495L145.357 69.6302L147.076 60.572L147.623 57.802L125.962 55.3252Z" fill="#F49963"/>
<path d="M161.08 99.1946C161.08 99.1946 164.029 143.287 163.845 144.018C163.661 144.753 163.889 152.905 164.256 153.273C164.624 153.64 165.377 159.202 165.197 160.305C165.014 161.408 163.819 159.005 163.819 159.281C163.819 159.557 163.819 162.861 163.819 162.861C142.254 178.737 109.128 163.871 109.128 163.871L109.771 161.303C109.771 161.303 109.399 158.563 110.038 158.012C110.677 157.461 108.844 155.26 108.48 154.433C108.113 153.605 109.22 149.124 109.22 149.124C109.22 149.124 110.047 145.545 111.513 144.538C112.983 143.528 109.771 139.309 109.312 138.115C108.852 136.92 109.452 102.853 109.452 102.853L99.2471 136.434C98.3281 137.629 75.0392 147.82 75.0392 147.82L67.67 139.314L83.7867 120.427L96.2101 69.9369C107.312 63.513 126.247 59.0976 126.247 59.0976C132.119 68.3659 137.817 69.7575 137.817 69.7575L147.628 57.8154L177.717 69.6393L161.08 99.1946Z" fill="#F9E047"/>
<path d="M109.312 138.11C109.771 139.305 112.983 143.523 111.513 144.534C110.349 145.335 109.592 147.742 109.325 148.709C109.894 147.374 112.568 144.039 112.708 143.348C112.865 142.565 110.358 137.244 110.358 136.15C110.358 135.056 110.288 97.7548 110.288 97.7548L109.014 96.7002L99.5884 135.287L75.0392 147.812L75.6606 149.203C75.6606 149.203 99.2033 137.62 100.122 136.425L109.452 102.844C109.452 102.848 108.852 136.915 109.312 138.11Z" fill="#F2B348"/>
<path d="M125.949 57.2021L124.343 82.0533L136.902 69.096L133.717 66.2998L126.339 77.4016L125.949 57.2021Z" fill="#F2B348"/>
<path d="M137.812 69.7437L140.11 66.4398L147.623 75.8044V57.2021L149.461 82.3202L137.812 69.7437Z" fill="#F2B348"/>
<path d="M78.2643 149.365L67.67 139.305L49.1991 149.304C49.1991 149.304 44.0573 147.54 43.7772 146.976C43.7772 146.976 36.9113 147.164 33.9007 145.19L33.0561 144.438L29.0127 150.175C29.0127 150.175 30.4218 159.767 30.7981 160.143C31.1744 160.519 33.4324 162.117 33.4324 162.117C33.4324 162.117 34.277 164.09 36.535 163.714C36.535 163.714 38.0403 166.064 39.0731 165.596C40.1058 165.127 40.7666 164.751 40.7666 164.751C40.7666 164.751 41.2348 165.937 42.2719 166.283C43.3046 166.628 49.0415 166.536 54.7828 159.574L55.5617 156.883L78.2643 149.365ZM39.0731 155.347L34.3689 153.562C34.3689 153.562 33.7125 151.212 33.2399 150.927C33.2399 150.927 34.5571 148.577 34.3689 147.448C34.3689 147.448 36.907 152.153 39.6376 150.835L39.0731 155.347Z" fill="url(#paint4_linear)"/>
<path d="M43.9785 159.373C43.5147 160.664 44.543 163.845 46.3941 162.769C47.418 162.174 47.1336 160.686 46.9848 159.736C46.8054 158.572 46.6829 157.841 45.5232 157.43C44.3374 157.01 42.3725 156.559 40.946 156.734C39.9395 156.03 38.3992 155.382 37.0601 155.22C37.0382 155.194 37.0164 155.168 36.9857 155.146C35.6467 154.306 33.5812 153.225 31.9227 153.391C30.8725 153.496 31.0038 154.262 31.1657 155.168C31.542 157.277 32.3734 159.605 33.1874 161.583C33.3668 162.021 33.6031 162.441 33.8919 162.799C34.3558 163.329 35.196 163.937 36.5394 163.714C36.5394 163.714 37.6027 165.373 38.5567 165.622C38.7055 165.635 38.8586 165.631 39.0074 165.618C39.0293 165.609 39.0512 165.609 39.0731 165.6C40.1058 165.132 40.7666 164.756 40.7666 164.756C40.7666 164.756 41.2348 165.941 42.2719 166.287C42.3725 166.322 42.5213 166.353 42.7095 166.37C41.6768 165.364 41.2786 164.204 40.9897 162.834C40.8147 162.012 40.6747 161.185 40.5565 160.353C40.4953 159.92 40.0314 158.196 40.2765 157.85C40.9197 156.949 44.7706 157.636 45.5626 158.1C46.2365 158.494 46.9017 160.043 46.5429 160.725C45.3045 161.959 44.578 161.955 44.368 160.708C44.2761 160.275 44.2586 159.841 44.3111 159.408C44.3242 159.211 44.0398 159.207 43.9785 159.373ZM36.2987 163.662C34.6227 162.992 34.0101 162.217 33.4368 160.515C33.0517 159.377 32.6929 158.227 32.3253 157.084C32.1678 156.59 31.9884 156.104 31.8658 155.601C31.7302 155.15 31.6558 154.686 31.6427 154.209C32.0978 154.179 32.5572 154.153 33.0123 154.122C34.0232 154.24 35.0122 154.695 35.9092 155.225C35.8655 155.233 35.8173 155.238 35.7692 155.247C34.2464 155.566 34.8634 157.465 35.0515 158.533C35.3141 160.021 35.5635 162.104 36.3074 163.67C36.3031 163.67 36.3031 163.666 36.2987 163.662ZM40.4559 164.3C39.6244 164.856 38.583 165.394 37.5634 164.436C37.0251 163.928 36.7757 162.975 36.5481 162.296C36.1849 161.22 35.9005 160.113 35.6642 159.005C35.5679 158.55 35.3447 157.955 35.3841 157.483C35.5679 155.273 36.6006 155.719 37.9266 156.052C38.7142 156.249 39.4406 156.594 40.1758 156.918C39.3006 157.299 39.5544 158.152 39.6638 159.132C39.8039 160.415 39.8782 162.589 40.4559 164.3Z" fill="#EB6D5E"/>
<path d="M45.7945 165.989C45.5364 166.037 45.3176 166.094 45.1294 166.16C45.3394 166.116 45.5626 166.055 45.7945 165.989Z" fill="#F49963"/>
<path d="M70.5407 150.214L54.3146 157.417C54.3146 157.417 52.783 161.889 49.3216 164.423C51.0326 163.39 52.9055 161.854 54.7784 159.578L54.6822 158.638L71.1358 151.824L70.5407 150.214Z" fill="#F49963"/>
<path d="M51.7546 156.484C50.4156 156.353 49.2034 157.123 48.4552 158.173C48.3895 158.265 48.5383 158.37 48.6127 158.292C49.4266 157.416 50.7657 156.764 51.9866 157.154C53.1724 157.535 53.2775 158.659 53.9601 159.477C54.0826 159.622 54.3102 159.495 54.3146 159.329C54.3408 158.007 53.0674 156.616 51.7546 156.484Z" fill="#EB6D5E"/>
<path d="M61.8544 140.233C61.8544 140.233 66.1253 137.463 67.6219 136.194C69.1229 134.925 71.5472 133.424 71.5472 133.424L80.0147 150.862C80.0147 150.862 72.628 153.181 71.5909 153.847C70.5538 154.512 68.3615 154.814 68.3615 154.814L61.8544 140.233Z" fill="#F2B348"/>
<path d="M116.396 230.75C117.333 221.814 109.22 212.835 109.579 203.851C110.021 192.793 109.124 163.867 109.124 163.867L137.493 169.14L163.81 162.861C161.119 144.438 168.554 242.429 143.016 351.535L131.209 352.231C131.209 352.231 133.441 278.579 134.32 272.702C135.2 266.825 138.43 266.532 138.43 252.722C138.43 238.911 140.762 201.566 140.762 201.566" fill="#353C50"/>
<path d="M118.685 36.3207C118.685 36.3207 116.029 29.713 116.287 29.4548C116.545 29.1967 118.296 27.1225 118.296 27.1225L116.611 25.6696C116.611 25.6696 117.499 19.8715 117.477 19.2851C117.455 18.7031 117.307 17.8585 117.477 17.7316C117.648 17.6003 120.046 16.6945 120.046 16.6945C120.046 16.6945 123.416 18.3793 123.35 18.6374C123.284 18.8956 123.674 19.5433 123.674 19.5433C123.674 19.5433 123.157 17.2109 122.51 16.6945C121.862 16.1782 119.53 15.5305 119.53 15.5305L119.14 14.8829C119.14 14.8829 123.092 12.8743 123.674 12.6161C124.256 12.3579 127.319 9.9599 127.319 9.9599C127.319 9.9599 129.349 10.415 129.783 10.4763C130.216 10.5419 133.52 12.2267 133.585 12.5505C133.651 12.8743 134.233 13.7801 134.233 13.7801C134.233 13.7801 134.491 11.7059 134.622 11.4477C134.754 11.1895 134.754 9.89426 134.106 9.43916C133.458 8.98406 133.003 8.14387 133.524 7.95133C134.04 7.75878 139.869 8.66461 140.324 9.05407C140.779 9.44353 140.714 9.9599 140.972 10.3494C141.23 10.7388 146.477 12.0997 146.67 12.3579C146.862 12.6161 148.03 16.8914 147.965 17.1496C147.899 17.4078 147.4 20.9042 147.199 21.1011C146.993 21.2937 146.319 25.3108 146.319 25.3108L147.969 22.1251L149.833 18.1867L151.658 19.482C151.658 19.482 151.724 21.6569 152.174 22.1251C152.63 22.5933 153.015 25.1183 153.212 25.2452C153.404 25.3764 153.212 29.8443 153.212 29.8443L149.374 54.9843C149.291 55.5313 149.089 56.052 148.787 56.5115L143.773 65.0052C142.692 66.6462 140.202 67.9634 138.237 67.9328C135.664 67.8934 133.393 67.4339 131.594 66.8869C128.146 65.8367 122.987 55.3912 122.987 55.3912L118.685 36.3207Z" fill="#2C251F"/>
<path d="M153.076 24.948C153.041 24.8342 153.006 24.6942 152.967 24.541C151.768 25.4294 150.722 26.5934 149.72 27.648C148.647 28.7726 147.606 29.9191 146.683 31.1575C146.678 31.1531 146.67 31.1444 146.665 31.14C147.448 29.9672 148.162 28.7201 149.002 27.613C150.14 26.1164 151.365 24.6986 152.665 23.342C152.621 23.1801 152.573 23.0226 152.525 22.8738C151.059 24.3091 149.667 25.8232 148.385 27.4292C147.602 28.4138 146.713 29.4596 145.991 30.5711C144.381 29.2189 142.749 27.9499 140.854 27.2629C141.156 26.9303 141.414 26.5584 141.628 26.1514C143.081 24.9874 144.359 23.6746 144.923 21.7973C145.882 18.616 145.392 14.962 144.792 11.6932C144.678 11.6582 144.56 11.6232 144.438 11.5838C144.88 14.8614 145.3 18.7516 144.21 21.8586C143.79 23.0488 143.077 23.9371 142.188 24.7073C142.862 22.2918 142.6 19.3117 142.324 17.3032C142.062 15.3734 141.812 13.3298 140.946 11.5619C140.346 10.341 139.213 9.50082 138.307 8.52061C138.141 8.48997 137.97 8.45934 137.799 8.42871C138.228 8.97133 138.749 9.45706 139.239 10.0128C140.517 11.4569 140.95 13.3123 141.248 15.1677C141.821 18.7823 142.241 22.6287 140.604 25.8888C140.158 26.1864 139.699 26.4971 139.3 26.8559C138.745 26.764 138.171 26.7203 137.563 26.7421C137.047 26.764 136.53 26.8078 136.014 26.8734C135.095 23.0707 134.255 18.8129 131.918 15.6578C130.338 13.5223 128.08 11.6801 125.494 11.3606C125.31 11.4963 125.127 11.6363 124.947 11.7676C128.312 11.9601 131.183 14.9358 132.631 17.8502C134.054 20.7208 134.207 24.0465 135.436 26.9609C134.907 27.0441 134.377 27.1491 133.857 27.2716C133.043 26.0201 132.426 24.5235 131.765 23.3726C130.723 21.561 129.621 19.78 128.334 18.1302C126.864 16.2529 124.606 13.6536 122.085 13.4042C121.845 13.5267 121.591 13.6536 121.341 13.7761C125.07 13.6405 128.422 19.0579 130.032 21.6791C131.03 23.2983 131.94 24.9655 132.872 26.6196C133.012 26.869 133.152 27.1404 133.297 27.4117C132.754 27.5517 132.216 27.7092 131.686 27.8799C130.723 28.1906 129.629 28.51 128.654 28.987C124.973 28.7376 122.659 24.6854 120.265 22.3487C119.521 21.6223 118.475 20.7252 117.39 20.3007C117.372 20.4232 117.359 20.5589 117.337 20.6946C119.499 21.6223 121.818 24.8123 122.882 25.9632C124.072 27.2498 125.927 29.2321 127.866 29.429C127.853 29.4377 127.84 29.4465 127.827 29.4552C126.343 29.2014 125.197 28.7157 123.998 27.6742C122.93 26.7465 121.998 25.6919 120.869 24.8298C119.718 23.9503 118.44 23.0838 117.049 22.8038C117.031 22.9394 117.009 23.0707 116.992 23.2064C119.407 23.8059 121.486 26.1776 123.153 27.7617C124.216 28.7726 125.599 29.9103 127.113 30.0285C127.056 30.081 127.004 30.1335 126.951 30.1904C126.899 30.2473 126.969 30.3479 127.039 30.3042C127.179 30.2123 127.328 30.1248 127.476 30.0373C127.726 30.0285 127.975 29.9935 128.234 29.9235C128.387 29.8797 128.43 29.6653 128.325 29.5646C128.426 29.5121 128.531 29.4596 128.636 29.4071C128.689 29.3984 128.745 29.394 128.798 29.3852C128.872 29.3677 128.916 29.3196 128.929 29.2627C130.347 28.5844 131.896 28.0462 133.458 27.683C133.927 28.51 134.491 29.2933 135.432 29.5121C135.673 29.569 135.786 29.2496 135.59 29.1183C134.999 28.7288 134.5 28.1775 134.058 27.5517C134.574 27.4467 135.086 27.3679 135.598 27.3023C135.673 27.4598 135.747 27.6217 135.826 27.7749C135.935 27.9893 136.263 27.8405 136.207 27.6173C136.176 27.4948 136.145 27.3679 136.115 27.2454C136.517 27.206 136.911 27.1797 137.305 27.171C137.865 27.1579 138.395 27.1972 138.902 27.2716C138.692 27.5167 138.513 27.7836 138.386 28.0899C138.29 28.3219 138.535 28.5057 138.731 28.3481C138.977 28.1512 139.23 27.963 139.484 27.7705C139.497 27.9849 139.694 28.1731 139.93 28.0287C140.114 27.9149 140.289 27.788 140.451 27.6523C142.416 28.3262 144.048 29.6215 145.711 31.0306C145.409 31.5382 145.142 32.0546 144.945 32.5841C144.853 32.8335 145.225 33.0304 145.396 32.8379C145.742 32.444 146.061 32.0239 146.368 31.5863C146.372 31.5907 146.372 31.5907 146.376 31.5951C146.166 31.897 145.956 32.199 145.759 32.5141C145.698 32.6103 145.838 32.711 145.917 32.6322C146.171 32.374 146.416 32.1071 146.661 31.8402C146.783 31.9452 146.906 32.0502 147.033 32.1552C147.304 32.3828 147.698 31.9889 147.422 31.7614C147.291 31.652 147.164 31.5426 147.033 31.4332C148.98 29.2496 150.831 26.834 153.076 24.948Z" fill="#4A3D35"/>
<path d="M124.759 50.1132L127.319 52.2224C127.319 52.2224 131.848 48.691 132.207 48.691C132.566 48.691 140.499 49.2599 142.455 48.691C142.455 48.691 145.61 51.1415 146.293 51.5397C146.976 51.938 149.825 38.6044 149.825 38.6044L147.886 34.3815L148.626 31.3184L144.468 25.6777C144.468 25.6777 134.01 26.6448 132.203 26.4742C130.395 26.3035 126.059 26.5748 125.713 26.8067C125.372 27.0343 121.906 32.0448 121.906 32.0448L122.532 34.3859L121.337 36.9634L124.759 50.1132Z" fill="#FAB986"/>
<path d="M125.962 39.8216C125.962 39.8216 126.947 41.4495 127.581 41.8346C128.216 42.2153 130.509 42.6004 132.041 41.1475C132.041 41.1475 132.469 39.2834 131.927 39.0865C131.927 39.0865 129.831 37.2923 128.207 38.0275C126.588 38.7583 125.962 39.8216 125.962 39.8216Z" fill="#FFFBF8"/>
<path d="M139.559 39.5855C139.559 39.5855 139.821 41.826 141.987 41.9747C144.416 42.1454 145.357 39.8218 145.357 39.8218C145.357 39.8218 144.516 36.9642 142.241 37.6163C139.961 38.2683 139.559 39.5855 139.559 39.5855Z" fill="#FFFBF8"/>
<path d="M127.319 54.6609C127.319 54.6609 131.235 50.1055 131.586 50.1055C131.94 50.1055 135.966 50.4249 137.979 50.3155C139.992 50.2105 142.464 49.9961 142.709 50.1055C142.954 50.2105 146.346 52.7179 146.311 53.0374C146.276 53.3568 140.372 60.2534 140.372 60.2534L138.246 58.6999C138.246 58.6999 138.399 57.0764 138.504 57.0764C138.609 57.0764 139.633 56.792 139.633 56.792C139.633 56.792 133.879 56.827 133.24 56.792L135.747 57.3565L135.712 58.7699C135.712 58.7699 133.804 60.5728 133.629 60.5728C133.454 60.5728 130.041 58.8662 127.319 54.6609Z" fill="#FAB986"/>
<path d="M123.166 37.6855C123.389 37.7949 126.711 35.7513 127.354 36.0227C127.997 36.294 130.435 36.9329 130.745 36.9197C131.056 36.9066 134.023 36.5171 134.023 36.5171C134.023 36.5171 134.412 36.0052 134.224 35.7513C134.036 35.4975 132.776 33.8828 132.776 33.8828L132.684 34.4211L130.903 34.001C130.903 34.001 125.857 34.2766 125.713 34.2416C125.573 34.2023 122.26 37.2392 123.166 37.6855Z" fill="#2C251F"/>
<path d="M139.064 36.1892L138.342 35.5284C138.342 35.5284 138.311 34.6007 138.552 34.3644C138.793 34.1281 141.143 33.3317 141.143 33.3317C141.143 33.3317 142.254 33.4279 142.679 33.6292C143.103 33.8261 146.394 33.0822 146.648 33.1566C146.897 33.231 148.332 36.3248 148.332 36.3248C148.332 36.3248 148.157 36.6836 147.965 36.5217C147.772 36.3642 146.564 35.0908 146.188 35.082C145.816 35.0733 144.101 35.7909 143.707 35.7384C143.313 35.6947 139.064 36.1892 139.064 36.1892Z" fill="#2C251F"/>
<path d="M125.888 40.0399C125.888 40.0399 125.507 39.5411 125.888 39.121C126.269 38.7009 128.028 37.7425 128.028 37.7425C128.028 37.7425 130.246 37.3224 130.592 37.55C130.938 37.7775 132.097 39.1166 132.15 39.3792C132.202 39.6417 132.036 39.3485 131.73 39.2348C131.375 39.1078 130.365 38.3158 130.172 38.202C129.98 38.0882 128.107 38.2808 127.879 38.4339C127.652 38.5871 125.888 40.0399 125.888 40.0399Z" fill="black"/>
<path d="M131.585 39.8217C131.585 41.0382 130.632 42.0272 129.45 42.0272C128.268 42.0272 127.315 41.0382 127.315 39.8217C127.315 38.6052 128.268 37.6162 129.45 37.6162C130.632 37.6162 131.585 38.6008 131.585 39.8217Z" fill="black"/>
<path d="M139.388 39.5806C139.388 39.5806 140.381 37.8696 140.648 37.6158C140.915 37.362 142.635 37.3883 143.134 37.3752C143.633 37.362 144.779 38.2022 144.779 38.2022C144.779 38.2022 145.278 39.7557 145.352 39.8213C145.427 39.887 144.359 38.8805 144.32 38.6004C144.28 38.3204 142.635 37.7865 142.635 37.7865C142.635 37.7865 140.95 38.0928 140.801 38.2066C140.648 38.316 139.734 39.8082 139.388 39.5806Z" fill="black"/>
<path d="M143.357 37.6553L141.173 37.7778C141.173 37.7778 140.526 38.3642 140.053 38.8018C140.04 38.8937 140.031 38.9899 140.031 39.0862C140.031 40.2021 140.906 41.1079 141.983 41.1079C143.064 41.1079 143.935 40.2021 143.935 39.0862C143.939 38.5261 143.716 38.0185 143.357 37.6553Z" fill="black"/>
<path d="M142.674 51.7982C142.674 51.7982 142.7 52.3102 142.613 52.4721C142.525 52.634 139.401 53.9118 139.121 53.9993C136.115 54.9183 133.143 54.0606 132.618 53.9293C132.093 53.798 130.513 52.9228 130.535 52.6384C130.553 52.3583 130.999 51.4919 131.117 51.4175C131.235 51.3431 131.765 51.1637 131.922 51.1505C132.08 51.1374 135.874 51.9645 141.817 51.4131C142.04 51.3912 142.674 51.7982 142.674 51.7982Z" fill="#842424"/>
<path d="M141.173 52.603C141.173 52.603 139.432 53.5833 138.596 53.6576C137.76 53.732 135.69 54.2484 133.06 53.6489C132.776 53.5832 131.445 53.0012 131.437 52.9487C131.424 52.8962 131.577 52.7212 131.577 52.7212L133.016 52.4936L132.999 52.2923C132.999 52.2923 131.721 52.2092 131.651 52.0867C131.577 51.9598 131.756 51.509 131.905 51.5353C136.907 52.4892 141.099 51.614 141.099 51.614C141.099 51.614 141.221 51.9291 141.23 52.0298C141.239 52.1304 140.617 52.2792 140.565 52.2748C140.517 52.2704 140.132 52.6074 140.049 52.568C139.97 52.5286 138.994 52.4717 138.911 52.4674C138.828 52.4586 137.839 52.7299 137.839 52.7299L139.016 52.6118L140.123 52.7124L140.762 52.568L141.173 52.603Z" fill="#FFFBF8"/>
<path d="M134.382 44.8672C134.299 44.9766 134.215 45.0904 134.132 45.1998C133.918 45.4886 133.314 46.1756 133.441 46.5738C133.55 46.9283 135.979 48.5999 137.073 48.5342C138.163 48.4686 140.167 46.797 140.193 46.7095C140.215 46.6176 140.351 46.2194 139.436 45.2173C138.521 44.2152 137.699 43.4362 137.432 43.3006C137.165 43.1649 135.83 43.2131 135.629 43.41C135.178 43.852 134.767 44.3596 134.382 44.8672Z" fill="#F49963"/>
<path d="M140.189 46.7057C140.211 46.6138 140.346 46.2156 139.432 45.2135C139.397 45.1785 139.366 45.1435 139.335 45.1085C139.611 45.6161 139.72 46.08 139.72 46.3732C139.72 46.7758 138.093 47.7078 137.09 47.8654C136.088 48.0229 133.905 46.7758 133.817 46.4388C133.73 46.1062 134.692 44.4696 134.71 44.4434C134.596 44.5834 134.487 44.7234 134.382 44.8678C134.299 44.9772 134.215 45.091 134.132 45.2004C133.918 45.4892 133.314 46.1762 133.441 46.5745C133.55 46.9289 135.979 48.6005 137.073 48.5349C138.163 48.4649 140.167 46.7976 140.189 46.7057Z" fill="#93462D"/>
<path d="M119.276 171.056L116.9 169.866C116.9 169.866 113.088 185.799 109.959 186.753L110.401 187.786C110.397 187.786 115.154 183.9 119.276 171.056Z" fill="#44526E"/>
<path d="M138.596 193.847C138.342 192.372 135.016 191.781 134.872 191.781C134.723 191.781 146.665 191.781 147.107 191.781L141.392 193.12C141.392 193.12 139.917 254.463 140.276 257.99C140.635 261.517 136.688 270.593 135.314 274.413C133.94 278.233 131.66 350.857 131.66 350.857C131.66 350.857 131.568 278.29 132.443 272.413C133.323 266.536 136.023 266.864 136.023 253.054C136.018 239.247 138.596 193.847 138.596 193.847Z" fill="#2C3346"/>
<path d="M115.92 348.052L113.937 354.244L104.279 361.175L103.29 357.215L104.901 351.644L115.92 348.052Z" fill="#F9E047"/>
<path d="M76.0544 364.891L77.0433 368.479H103.535L107.251 366.685L107.868 368.479H115.915C115.915 368.479 115.705 359.281 113.933 357.215C113.933 357.215 109.601 359.849 102.914 352.218C102.914 352.218 87.7907 363.403 84.395 363.902C81.008 364.396 76.0544 364.891 76.0544 364.891Z" fill="#14181D"/>
<path d="M110.099 203.378C110.099 203.378 110.393 240.722 110.393 254.533C110.393 268.343 107.596 268.636 106.721 274.513C105.842 280.39 104.061 352.226 104.061 352.226L115.302 351.557C137.392 239.943 136.828 208.607 138.876 195.011" fill="#353C50"/>
<path d="M109.85 190.123C109.85 190.123 111.876 256.279 112.235 259.806C112.594 263.333 110.835 272.409 109.461 276.229C108.087 280.049 104.476 351.557 104.476 351.557C104.476 351.557 105.715 280.11 106.59 274.234C107.47 268.357 108.419 268.685 108.419 254.874C108.419 241.064 110.099 203.378 110.099 203.378" fill="#2C3346"/>
<path d="M108.59 166.129C108.332 166.041 109.614 161.911 109.614 161.911C109.614 161.911 135.546 167.131 163.815 160.615V165.674C163.815 165.674 135.638 175.502 108.59 166.129Z" fill="#14181D"/>
<path d="M114.616 168.304C114.616 168.304 115.123 161.491 115.85 161.583C116.576 161.675 117.727 161.574 117.666 162.217C117.604 162.861 116.939 169.215 116.939 169.215L114.616 168.304Z" fill="#353C50"/>
<path d="M154.148 169.634C154.148 169.634 153.785 162.703 154.148 162.366C154.511 162.029 155.785 161.578 155.785 161.578L156.332 168.772L154.148 169.634Z" fill="#353C50"/>
<path d="M153.986 168.934L156.327 167.901C156.327 167.901 159.797 177.152 163.189 178.824C163.189 178.824 159.474 179.174 153.986 168.934Z" fill="#44526E"/>
<path d="M130.793 162.948V171.031C130.793 171.031 139.497 172.615 143.602 170.484V162.948C143.606 162.948 132.701 163.858 130.793 162.948ZM142.482 169.517C141.265 170.772 132.299 170.396 132.299 170.396V169.005L133.66 167.95V166.685L132.299 166.13V164.629C133.301 165.447 142.482 164.458 142.482 164.458V169.517Z" fill="#ACAFB8"/>
<path d="M144.368 175.503C144.368 175.503 143.151 190.994 140.412 192.683H135.887L135.449 176.094L136.583 192.035H139.909C139.909 192.031 143.116 186.924 144.368 175.503Z" fill="#44526E"/>
<path d="M150.617 59.4648C150.617 59.4648 166.921 63.8802 178.028 70.3041L189.729 124.032L209.193 139.685L202.371 150.594C202.371 150.594 173.801 137.292 172.886 136.097L164.786 106.288" fill="#F9E047"/>
<path d="M221.297 157.268L222.076 159.959C227.813 166.917 233.55 167.013 234.587 166.667C235.62 166.322 236.092 165.136 236.092 165.136C236.092 165.136 236.749 165.512 237.786 165.98C238.819 166.448 240.324 164.099 240.324 164.099C242.582 164.475 243.427 162.501 243.427 162.501C243.427 162.501 245.685 160.904 246.061 160.528C246.437 160.151 247.846 150.559 247.846 150.559L243.803 144.822L242.958 145.575C239.948 147.549 233.082 147.361 233.082 147.361C232.802 147.925 227.66 149.689 227.66 149.689L209.189 139.689L198.595 149.75L221.297 157.268ZM237.221 151.211C239.948 152.529 242.49 147.824 242.49 147.824C242.302 148.953 243.619 151.303 243.619 151.303C243.151 151.583 242.49 153.938 242.49 153.938L237.786 155.723L237.221 151.211Z" fill="url(#paint5_linear)"/>
<path d="M232.548 159.789C232.6 160.222 232.583 160.655 232.491 161.089C232.281 162.336 231.555 162.34 230.316 161.106C229.957 160.423 230.623 158.874 231.296 158.481C232.088 158.017 235.939 157.33 236.583 158.231C236.828 158.577 236.368 160.301 236.303 160.734C236.184 161.566 236.044 162.393 235.869 163.215C235.576 164.585 235.182 165.745 234.15 166.751C234.338 166.734 234.487 166.703 234.587 166.668C235.62 166.322 236.092 165.136 236.092 165.136C236.092 165.136 236.749 165.513 237.786 165.981C237.808 165.99 237.83 165.994 237.852 165.998C238.005 166.016 238.154 166.016 238.302 166.003C239.256 165.753 240.32 164.095 240.32 164.095C241.663 164.318 242.503 163.71 242.967 163.18C243.256 162.821 243.492 162.401 243.672 161.964C244.486 159.986 245.313 157.658 245.693 155.549C245.855 154.643 245.987 153.877 244.936 153.772C243.278 153.606 241.212 154.687 239.873 155.527C239.838 155.549 239.821 155.575 239.799 155.601C238.46 155.763 236.92 156.411 235.913 157.115C234.487 156.94 232.522 157.391 231.336 157.811C230.176 158.222 230.054 158.953 229.874 160.117C229.725 161.067 229.441 162.555 230.465 163.15C232.316 164.226 233.344 161.045 232.881 159.754C232.819 159.583 232.535 159.588 232.548 159.789ZM240.547 164.051C241.291 162.485 241.545 160.397 241.803 158.914C241.991 157.846 242.608 155.947 241.085 155.627C241.042 155.619 240.994 155.614 240.945 155.606C241.843 155.076 242.836 154.621 243.842 154.503C244.297 154.533 244.757 154.56 245.212 154.59C245.199 155.067 245.124 155.531 244.989 155.982C244.866 156.485 244.687 156.975 244.529 157.465C244.162 158.607 243.803 159.758 243.418 160.896C242.845 162.598 242.232 163.373 240.556 164.042C240.552 164.042 240.552 164.047 240.547 164.051ZM237.195 159.513C237.3 158.537 237.558 157.68 236.683 157.299C237.418 156.975 238.145 156.629 238.932 156.433C240.254 156.1 241.291 155.654 241.475 157.864C241.514 158.336 241.287 158.931 241.195 159.386C240.963 160.493 240.674 161.605 240.311 162.677C240.079 163.355 239.834 164.309 239.296 164.817C238.276 165.775 237.235 165.233 236.403 164.681C236.981 162.966 237.055 160.791 237.195 159.513Z" fill="#EB6D5E"/>
<path d="M231.065 166.37C231.323 166.418 231.541 166.475 231.73 166.541C231.515 166.493 231.292 166.436 231.065 166.37Z" fill="#F49963"/>
<path d="M206.314 150.59L222.54 157.793C222.54 157.793 224.072 162.265 227.533 164.799C225.822 163.766 223.949 162.23 222.076 159.954L222.173 159.014L205.719 152.2L206.314 150.59Z" fill="#F49963"/>
<path d="M225.104 156.865C226.443 156.734 227.656 157.504 228.404 158.554C228.47 158.646 228.321 158.751 228.246 158.672C227.432 157.797 226.093 157.145 224.873 157.535C223.687 157.915 223.582 159.04 222.899 159.858C222.776 160.003 222.549 159.876 222.544 159.71C222.518 158.388 223.792 156.992 225.104 156.865Z" fill="#EB6D5E"/>
<path d="M215 140.609C215 140.609 210.729 137.839 209.233 136.57C207.732 135.301 205.308 133.8 205.308 133.8L196.84 151.238C196.84 151.238 204.227 153.557 205.264 154.222C206.301 154.888 208.493 155.19 208.493 155.19L215 140.609Z" fill="#F2B348"/>
<path d="M163.692 137.777C163.233 138.972 160.021 143.19 161.491 144.201C162.655 145.002 163.412 147.409 163.679 148.376C163.11 147.041 160.436 143.711 160.296 143.015C160.139 142.232 162.646 136.911 162.646 135.817C162.646 134.723 160.966 96.5469 160.966 96.5469L163.99 96.8051L173.415 134.955L197.965 147.479L197.343 148.87C197.343 148.87 173.801 137.287 172.882 136.093L163.552 102.949C163.552 102.953 164.151 136.583 163.692 137.777Z" fill="#F2B348"/>
<path d="M129.756 359.031L129.538 368.041L152.564 368.479C152.564 368.479 155.837 369.122 150.897 361.762L146.066 359.128L141.598 357.338C141.598 357.338 132.579 362.987 129.756 359.031Z" fill="#14181D"/>
<path d="M88.2021 102.477L64.6638 115.543L38.3992 106.424L39.6376 104.166L63.9855 113.994L88.2021 102.477Z" fill="#F2B348"/>
<path d="M87.852 80.7152L51.6365 70.5848L39.3444 47.5541L41.2304 46.4863L52.5073 69.6308L87.852 80.7152Z" fill="#F2B348"/>
<path d="M87.5501 103.203L90.11 90.3943L92.0048 87.0117L88.2021 102.476L87.5501 103.203Z" fill="#F2B348"/>
<path d="M183.598 97.7852L211.136 112.305L237.011 102.135L235.681 99.9294L211.749 110.725L183.598 97.7852Z" fill="#F2B348"/>
<path d="M189.121 77.021L225.139 66.1992L236.99 42.9366L235.082 41.9082L224.251 65.2584L189.121 77.021Z" fill="#F2B348"/>
<path d="M184.185 98.5642L182.719 85.5851L181.117 82.0537L183.598 97.7853L184.185 98.5642Z" fill="#F2B348"/>
</g>
<defs>
<linearGradient id="paint0_linear" x1="239.25" y1="17.8241" x2="246.029" y2="-7.19205" gradientUnits="userSpaceOnUse">
<stop stop-color="#FAB986"/>
<stop offset="0.3237" stop-color="#FA9F74"/>
<stop offset="1" stop-color="#FA5E47"/>
</linearGradient>
<linearGradient id="paint1_linear" x1="258.583" y1="84.6276" x2="281.97" y2="69.97" gradientUnits="userSpaceOnUse">
<stop stop-color="#FAB986"/>
<stop offset="0.3237" stop-color="#FA9F74"/>
<stop offset="1" stop-color="#FA5E47"/>
</linearGradient>
<linearGradient id="paint2_linear" x1="36.312" y1="21.2079" x2="29.5323" y2="-3.80826" gradientUnits="userSpaceOnUse">
<stop stop-color="#FAB986"/>
<stop offset="0.3237" stop-color="#FA9F74"/>
<stop offset="1" stop-color="#FA5E47"/>
</linearGradient>
<linearGradient id="paint3_linear" x1="16.9666" y1="88.0144" x2="-6.42058" y2="73.3568" gradientUnits="userSpaceOnUse">
<stop stop-color="#FAB986"/>
<stop offset="0.3237" stop-color="#FA9F74"/>
<stop offset="1" stop-color="#FA5E47"/>
</linearGradient>
<linearGradient id="paint4_linear" x1="48.8791" y1="152.678" x2="20.9674" y2="160.172" gradientUnits="userSpaceOnUse">
<stop stop-color="#FAB986"/>
<stop offset="0.3237" stop-color="#FA9F74"/>
<stop offset="1" stop-color="#FA5E47"/>
</linearGradient>
<linearGradient id="paint5_linear" x1="227.979" y1="153.054" x2="255.891" y2="160.549" gradientUnits="userSpaceOnUse">
<stop stop-color="#FAB986"/>
<stop offset="0.3237" stop-color="#FA9F74"/>
<stop offset="1" stop-color="#FA5E47"/>
</linearGradient>
<clipPath id="clip0">
<rect width="275.559" height="368.496" fill="white"/>
</clipPath>
</defs>
</svg>
