<svg width="165" height="50" viewBox="0 0 165 50" fill="none" xmlns="http://www.w3.org/2000/svg">
<path d="M44.5623 34.3192V24.8133H42.624V34.3192H44.5623ZM48.2752 34.3192V27.8151L50.4988 30.8705H51.583L53.7664 27.8151V34.3192H55.6914V24.8133H53.7664L51.0141 28.7529L48.2617 24.8133H46.3235V34.3192H48.2752ZM59.3984 34.3192V30.5578H61.5953C62.6124 30.5578 63.4265 30.2856 64.0087 29.7561C64.6063 29.2268 64.9051 28.5342 64.9051 27.6787C64.9051 26.8233 64.6063 26.1443 64.0087 25.6151C63.4265 25.0856 62.6124 24.8133 61.5953 24.8133H57.4467V34.3192H59.3984ZM59.3984 26.524H61.4594C62.3959 26.524 62.9514 26.9461 62.9514 27.7057C62.9514 28.4672 62.3959 28.8871 61.4594 28.8871H59.3984V26.524ZM73.3421 34.3192V32.568H68.1764V30.1225H72.2177V28.3981H68.1764V26.5662H73.1927V24.8133H66.2247V34.3192H73.3421ZM76.9516 34.3192V30.4774H78.593L81.3588 34.3192H83.6228L80.6942 30.2586C81.9297 29.8789 82.6613 28.8871 82.6613 27.625C82.6613 26.7965 82.3625 26.1174 81.7803 25.6016C81.196 25.0721 80.3973 24.8133 79.3937 24.8133H74.9999V34.3192H76.9516ZM76.9516 26.524H79.2844C80.1656 26.524 80.6942 26.9596 80.6942 27.6787C80.6942 28.4268 80.1656 28.8334 79.2844 28.8334H76.9516V26.524ZM86.885 34.3192V24.8133H84.9467V34.3192H86.885ZM90.2509 34.3192L91.1855 32.1192H95.1982L96.1347 34.3192H98.2091L94.1409 24.7596H92.2695L88.2032 34.3192H90.2509ZM93.1928 27.2031L94.5756 30.5041H91.7965L93.1928 27.2031Z" fill="#898989"/>
<path d="M103.504 34.3117V29.6486H109.168V34.3117H110.172V24.7715H109.168V28.7391H103.504V24.7715H102.5V34.3117H103.504ZM113.542 25.9951C112.63 26.9354 112.183 28.1088 112.183 29.5115C112.183 30.9143 112.63 32.099 113.542 33.0393C114.454 33.9797 115.595 34.4459 116.973 34.4459C118.347 34.4459 119.477 33.9797 120.385 33.0393C121.298 32.099 121.763 30.9143 121.763 29.5115C121.763 28.1088 121.298 26.9354 120.385 25.9951C119.477 25.0547 118.347 24.577 116.973 24.577C115.595 24.577 114.454 25.0547 113.542 25.9951ZM114.29 32.359C113.569 31.5945 113.202 30.6428 113.202 29.5115C113.202 28.3801 113.569 27.4246 114.29 26.6639C115.011 25.8994 115.912 25.5172 116.973 25.5172C118.034 25.5172 118.931 25.8994 119.653 26.6639C120.374 27.4246 120.74 28.3801 120.74 29.5115C120.74 30.6428 120.374 31.5945 119.653 32.359C118.931 33.1235 118.034 33.5057 116.973 33.5057C115.912 33.5057 115.011 33.1235 114.29 32.359ZM130.103 34.3863V33.4729H124.783V24.8461H123.775V34.3863H130.103ZM135.432 34.391C136.97 34.391 138.207 33.9553 139.161 33.0686C140.112 32.1819 140.589 31.0389 140.589 29.6209C140.589 28.2029 140.112 27.06 139.161 26.1733C138.207 25.2865 136.97 24.8508 135.432 24.8508H132.318V34.391H135.432ZM133.322 25.7643H135.31C136.631 25.7643 137.665 26.1197 138.424 26.8115C139.188 27.5072 139.57 28.4475 139.57 29.6209C139.57 30.7943 139.188 31.7346 138.424 32.4264C137.665 33.1221 136.631 33.4776 135.31 33.4776H133.322V25.7643ZM143.662 34.3863V24.8461H142.654V34.3863H143.662ZM147.243 34.3863V26.5623L153.273 34.3863H154.128V24.8461H153.147V32.6397L147.136 24.8461H146.262V34.3863H147.243ZM161.171 34.5018C162.709 34.5018 164.056 33.8748 164.873 32.9613V28.8563H163.88V32.5639C163.213 33.2328 162.316 33.5615 161.171 33.5615C160.098 33.5615 159.186 33.1906 158.438 32.4416C157.701 31.6924 157.335 30.7406 157.335 29.5787C157.335 28.4207 157.701 27.4535 158.449 26.7045C159.197 25.9553 160.136 25.5731 161.255 25.5731C162.354 25.5731 163.335 25.9018 164.22 26.5668V25.5463C163.403 24.9348 162.396 24.6328 161.197 24.6328C159.797 24.6328 158.64 25.0953 157.701 26.0356C156.777 26.9643 156.312 28.1377 156.312 29.5672C156.312 30.9967 156.777 32.1856 157.701 33.1104C158.64 34.0354 159.797 34.5018 161.171 34.5018Z" fill="#898989"/>
<path fill-rule="evenodd" clip-rule="evenodd" d="M20.8757 8.34514C22.2646 6.44061 24.1915 6.48981 27.3121 6.48998L6.62098 34.7713C5.22454 36.6699 3.02848 36.6756 0.102966 36.6754L20.8757 8.34514Z" fill="#61BF1A"/>
<path fill-rule="evenodd" clip-rule="evenodd" d="M33.1711 18.1523C34.5599 16.2478 36.6866 16.1992 39.7096 16.1993L26.3042 34.5834C24.9078 36.4822 22.6575 36.6775 19.7319 36.6774L33.1711 18.1523Z" fill="#FECC00"/>
<path fill-rule="evenodd" clip-rule="evenodd" d="M35.088 2.20361C36.4769 0.299078 38.5275 0.150098 41.648 0.150253L29.4574 16.8488C28.0611 18.7476 25.8818 18.7998 22.9562 18.7997L35.088 2.20361Z" fill="#44AEDC"/>
<path fill-rule="evenodd" clip-rule="evenodd" d="M18.9394 24.2555C20.3282 22.3508 22.3742 22.2467 25.4947 22.2469L6.56638 48.0471C5.16992 49.9459 3.01728 49.9457 0.0917358 49.9455L18.9394 24.2555Z" fill="#087FC4"/>
</svg>
