<svg width="217" height="585" viewBox="0 0 217 585" fill="none" xmlns="http://www.w3.org/2000/svg">
<g clip-path="url(#clip0)">
<path d="M121.05 551.57L122.44 564.9L106.57 573.22L102.5 568L103.5 555.5L121.05 551.57Z" fill="#F9E047"/>
<path d="M165.09 576.77L163.67 584.99H121.39L116.05 582.24L115.16 584.99L99.85 584.24C99.85 584.24 100.16 570.16 102.7 567C102.7 567 112.67 571.77 122.28 560.1C122.28 560.1 145.7 574.49 150.57 575.24C155.46 576.01 165.09 576.77 165.09 576.77Z" fill="#14181D"/>
<path d="M32.3 564.27V569.88L31.19 574.82L7.5 567.5L13.5 559.5L32.3 564.27Z" fill="#F9E047"/>
<path d="M33.05 571.07L29.65 585H0.819991C0.819991 585 -2.57001 580.14 4.40999 569.29L8.14999 566.05H22.36C22.36 566.05 29.06 576.9 33.05 571.07Z" fill="#14181D"/>
<path d="M152.36 259.02C152.36 259.02 173.94 343.39 122.93 561.12L102.03 560.07C102.03 560.07 105.8 441.49 107.3 431.46C108.8 421.43 113.57 420.93 113.57 397.35C113.57 373.77 122.55 314.47 122.55 314.47C122.55 314.47 121.67 421.8 32.3 564.27L11.61 562.66C20.43 535.55 29.39 511.49 38.57 484.51C43.9 468.86 47.48 452.34 54.06 437.15C57.07 430.21 58.03 423.65 60.19 416.39C65.65 398.05 62.02 378.85 62.46 359.84C62.86 342.37 61.41 329.25 62.03 313.92C62.79 295.04 67.11 258.43 67.11 258.43L152.36 259.02Z" fill="#353C50"/>
<path d="M112.94 77.1198L84.23 80.2898H46.52L49.29 90.4998L16.85 111.58C16.85 111.58 6.29999 149.12 13.8 179.01C18.56 197.97 18.53 213.43 22 228.24C23.62 235.14 33.85 245 40.91 244.23C53.55 242.86 73.66 239.52 84.57 231.69L73.85 208.61C73.85 208.61 63.02 207.33 55.49 208.07C55.49 208.07 53.94 173.78 53.45 151.43C53.45 151.43 57.5 195.85 64.96 223.61C64.96 223.61 66.1 241.23 64.97 242.92C63.84 244.61 65.33 247.04 66.27 247.99C67.2 248.92 67.2 255.86 67.2 255.86C67.2 255.86 139.69 265.13 153.44 258.3L154.94 255.49C154.94 255.49 157.19 250.99 155.87 249.86C154.55 248.73 151.93 242.36 152.3 241.05C152.67 239.73 155.17 205.98 153.29 195.86C152.39 190.97 159.34 174.51 156.36 147.37C154.4 129.54 144.88 106.37 137.84 91.1698C133.41 81.6198 123.39 75.9698 112.94 77.1198Z" fill="#F9E047"/>
<path d="M80.34 66.1899C80.34 66.1899 87.79 90.2099 87.14 103.39L81.08 105.16C81.08 105.16 65.9 94.6399 63.24 91.2099C60.59 87.7799 80.34 66.1899 80.34 66.1899Z" fill="#FAB986"/>
<path d="M63.25 91.2099C60.59 87.7799 80.35 66.1899 80.35 66.1899C80.35 66.1899 82.65 73.6199 84.59 82.4799C82.66 80.2499 80.37 77.6999 80.35 77.9599C80.31 78.3599 75.65 94.3099 75.1 95.4199C74.79 96.0499 76.2 99.6299 77.47 102.6C72.8 99.2599 65.08 93.5699 63.25 91.2099Z" fill="#F49963"/>
<path d="M84.64 65.93C84.64 65.93 81.09 87.84 77.36 92.59C74.59 96.12 67.51 97.27 62.49 97.66C58.95 97.92 53.24 97.27 50.9 94.6C48.22 91.54 47.01 86.09 44.79 80.3C44.79 80.3 33 51.89 30.22 47.49C27.45 43.09 25.49 39.72 25.49 37.87C25.49 36.02 25.83 32.21 25.49 30.58C25.15 28.95 26.3 24.71 26.3 24.71C26.3 24.71 29.88 31.02 31.03 31.13C31.03 31.13 26.06 21.66 29.99 16.44C33.94 11.21 46.18 0 46.18 0C46.18 0 63.05 0 63.86 0.98C64.67 1.96 66.39 4.13 66.39 4.13C66.39 4.13 60.56 3.26 58.05 6.42C58.05 6.42 72.15 5.01 75.63 7.4L74.7 11.97C74.7 11.97 78.52 9.47 79.44 10.12C80.36 10.77 89.83 26.38 89.37 26.52C88.91 26.66 84.87 27.64 85.1 28.29C85.33 28.94 90.64 30.14 90.87 31.55C91.1 32.96 89.14 40.9 89.14 40.9C89.14 40.9 81.17 49.07 84.64 65.93Z" fill="#2C251F"/>
<path d="M70.3 84.4999C70.3 84.4999 74.69 79.0799 74.7 73.6699C74.7 73.6699 74.04 73.2499 74 72.9699C73.46 69.3199 68 68.8999 65.07 69.0999C64.7 69.1199 64.65 69.3599 64.46 69.5899C64.27 69.8099 61.23 74.9599 56.93 74.8299C52.63 74.6999 50.05 74.5699 49.82 74.6499C49.59 74.7299 48.89 75.0499 48.84 75.3099C48.8 75.5699 48.98 79.3999 49.36 79.7999C49.73 80.1999 56.17 88.5999 56.81 88.3399C57.45 88.0799 59.92 83.3599 59.88 83.2399C59.84 83.1099 58.31 81.3899 58.31 81.3899C58.31 81.3899 64.61 80.3899 66.52 78.9699C66.52 78.9699 65.82 79.7499 63.62 80.6999C63.62 80.6999 63.66 82.5299 63.9 82.7499C64.13 82.9499 69.82 85.1299 70.3 84.4999Z" fill="#FAB986"/>
<path d="M25.65 33.1301C27.06 35.7601 29.65 36.7201 32.96 36.0401C34.82 35.6701 36.63 34.9201 38.45 34.5701C38.41 34.5401 38.37 34.5101 38.33 34.4701C38.25 34.3701 38.17 34.2601 38.08 34.1601C38.06 34.3801 37.86 34.5901 37.61 34.4901C33.27 32.8201 29.76 27.3601 29.43 23.0401C29.23 20.3701 30.56 18.2901 31.97 16.0801C32.96 14.5301 33.83 12.9301 34.58 11.2701C35.04 10.7801 35.52 10.2901 36.01 9.8101C35.68 10.7501 35.32 11.6901 34.9 12.6001C33.76 15.0701 31.86 17.3101 30.92 19.8501C28.9 25.3601 33.25 29.4601 37.03 32.9801C34.78 30.6201 31.86 28.2401 32.18 24.9201C32.49 21.5901 35.99 18.3201 38.51 16.3001C42.05 13.4801 46.43 11.8201 50.01 9.0501C53.36 6.4501 56.33 3.3301 59.33 0.350098C59.58 0.360098 59.82 0.380098 60.06 0.390098C57.56 2.9101 55.07 5.4501 52.45 7.8401C49.76 10.2901 46.67 12.0401 43.5 13.8701C39.68 16.0801 35.93 18.8401 33.85 22.6901C31.16 27.6901 36.98 30.3301 39.29 33.9901C39.4 34.1701 39.38 34.3301 39.3 34.4601C40.52 34.3201 41.75 34.4001 43.01 34.9401C43.24 35.0401 43.13 35.4101 42.88 35.4001C39.56 35.1601 36.8 36.3301 33.66 37.0401C31.6 37.5001 29.32 37.6901 27.43 36.6401C26.7 36.2401 26.11 35.7101 25.61 35.1001C25.62 34.4201 25.65 33.7601 25.65 33.1301Z" fill="#4A3D35"/>
<path d="M54.8 14.4201C57.88 12.1301 61.58 10.6201 65.32 9.5601C68.62 8.6301 72.21 8.3501 75.59 7.6001L75.49 8.1001C73.63 8.4801 71.73 8.7301 69.88 9.1201C66.25 9.8901 62.66 10.9001 59.34 12.5301C56.03 14.1501 52.13 16.6201 51.2 20.2701C50.08 24.6501 53.76 27.8801 56.28 31.0401C56.53 31.3601 56 31.6801 55.71 31.4401C53.06 29.2101 50.51 26.0701 50.23 22.5901C49.94 19.2001 52.1 16.4301 54.8 14.4201Z" fill="#4A3D35"/>
<path d="M61.16 32.5199C57.89 27.4299 55.63 20.6899 62.55 17.5299C68.46 14.8299 75.24 14.7999 81.4 12.8599C81.5 13.0199 81.61 13.1799 81.72 13.3499C77.44 14.7799 72.87 15.2799 68.43 16.3199C65.39 17.0299 61.16 18.0399 59.41 20.7399C57.15 24.2399 60.17 29.0099 61.58 32.2899C61.7 32.5699 61.32 32.7799 61.16 32.5199Z" fill="#4A3D35"/>
<path d="M206.81 196.3C206.81 196.3 189.14 239.66 170.19 221.57C151.24 203.47 175.19 188.35 175.19 188.35L206.81 196.3Z" fill="#FABE8F"/>
<path d="M176.74 200.14C176.74 200.14 165.78 217.05 171.02 222.64L172.55 223.57C172.55 223.57 169.95 224.86 168.99 223.57C168.04 222.28 148.32 211.26 150.35 203.17C152.38 195.08 176.74 200.14 176.74 200.14Z" fill="#F2B348"/>
<path d="M74.71 69.3901C74.71 69.3901 74.64 60.4801 74.71 60.0301C74.78 59.5701 78.77 48.1101 78.7 47.4801C78.63 46.8401 74.68 35.0901 74.68 35.0901C74.68 35.0901 68.36 33.1401 68.36 32.8601C68.36 32.5801 65.47 27.5001 64.82 27.1501C64.16 26.8001 52.12 25.8901 50.27 27.1501C48.42 28.4101 39.19 32.6501 37.93 32.9901C36.67 33.3401 34.39 35.2801 33.94 35.6301C33.5 35.9801 33.94 48.2001 33.94 48.2001L33.35 49.3501C33.35 49.3501 38.64 67.6201 46.47 71.6601C46.47 71.6601 51.07 72.0301 52.62 71.9501C54.17 71.8801 62.89 66.0501 64.66 65.7501C71.21 64.6601 74.71 69.3901 74.71 69.3901Z" fill="#FAB986"/>
<path d="M74.32 44.87C74.32 44.87 70.67 43.37 69.11 43.38C67.54 43.38 59.4 47.35 58.41 47.68C57.42 48.01 54.14 48.38 53.52 47.88C52.9 47.39 51.55 44.38 51.89 43.84C52.24 43.29 54.01 41.77 54.01 41.77C54.01 41.77 53.76 43.49 54.44 43.05C55.11 42.62 57.89 42.18 58.76 42.16C59.63 42.14 65.07 38.9 65.83 38.81C66.59 38.72 70.25 40.48 71.27 40.98C72.28 41.48 74.32 44.87 74.32 44.87Z" fill="#2C251F"/>
<path d="M45.59 50.5901C45.59 50.5901 44.64 47.4201 44.06 46.9701C43.49 46.5201 41.68 45.8901 41.68 45.8901C41.68 45.8901 42.25 46.7901 41.68 46.7901C41.11 46.7901 39.3 46.8801 38.35 47.1501C37.4 47.4201 35.49 49.5701 35.21 49.8401C34.93 50.1101 36.35 54.3201 36.35 54.3201C36.35 54.3201 36.73 52.8001 37.11 52.0801C37.51 51.3701 45.99 51.5401 45.59 50.5901Z" fill="#2C251F"/>
<path d="M69.57 49.6098C69.57 49.6098 70 50.3298 67.85 51.7898C65.7 53.2498 62.18 54.0198 60.09 53.8998C60.09 53.8998 58.86 54.0198 58.71 54.2398C58.56 54.4498 58.14 51.7998 58.14 51.7998C58.14 51.7998 61.94 46.7198 69.57 49.6098Z" fill="white"/>
<path d="M45.42 57.8602C45.42 57.8602 43.36 59.3902 41.26 59.1402C41.26 59.1402 39.18 57.3802 40.09 55.2302C40.99 53.0802 43.47 53.1602 45.42 57.8602Z" fill="white"/>
<path d="M67.45 49.0501C67.45 49.0501 68.33 50.9701 67.85 51.8001C67.85 51.8001 65.45 53.5301 63.45 53.2701C63.45 53.2701 61.89 52.3101 61.63 50.3001C61.64 50.3001 64.05 48.3001 67.45 49.0501Z" fill="black"/>
<path d="M45.22 55.3799C45.22 55.3799 45.98 57.2999 45.42 57.8699C44.86 58.4399 43.58 58.6599 43.58 58.6599C43.58 58.6599 42.18 58.3999 41.62 56.5899C41.06 54.7799 42.22 53.9199 42.22 53.9199C42.22 53.9199 44.57 54.8199 45.22 55.3799Z" fill="black"/>
<path d="M58.85 67.0298C58.96 66.8698 59.09 65.0298 59.11 64.8398C59.13 64.6498 52.45 59.8298 51.92 59.7698C51.39 59.7098 49.75 59.9198 49.63 60.3498C49.51 60.7798 49.01 67.8198 48.68 68.2898C48.35 68.7598 53.38 71.1998 54.24 70.7198C55.11 70.2398 57.38 69.2198 58.85 67.0298Z" fill="#F49963"/>
<path d="M54.25 70.7198C53.38 71.1998 48.37 68.7698 48.69 68.2898C48.81 68.1198 48.95 67.0898 49.09 65.8198C49.3 66.7498 49.54 67.8298 49.58 68.0798C49.67 68.5298 51.73 69.6798 53.5 70.0398C55.27 70.4098 58.03 66.7698 58.07 66.1098C58.11 65.4498 57.52 63.5498 57.52 63.5498C58.45 64.2398 59.12 64.7698 59.11 64.8298C59.09 65.0198 58.96 66.8498 58.85 67.0198C57.38 69.2198 55.11 70.2398 54.25 70.7198Z" fill="#93462D"/>
<path d="M51.86 77.5998C51.81 77.2598 51.91 77.2598 51.91 77.2598C51.91 77.2598 52.87 76.2098 57.53 75.6098C62.2 75.0198 64.7 70.5198 69.32 70.0098C69.32 70.0098 70.34 70.7698 70.42 71.0698C70.49 71.3798 70.52 71.7098 70.52 71.7098C70.52 71.7098 68.7 74.3098 67.84 74.7498C66.98 75.1898 63.98 77.2898 62.31 77.7598C60.38 78.3098 58.08 79.3098 56.01 79.2198C56.03 79.2198 52.09 79.1898 51.86 77.5998Z" fill="#682323"/>
<path d="M68.79 70.8L68.98 71.82C68.98 71.82 68.14 73.22 67.73 73.54C67.32 73.86 66.54 75.07 62.89 76.68C58.04 78.81 54.89 78.77 54.65 78.67C54.41 78.56 53.12 77.82 53.17 77.65C53.21 77.49 53.63 76.94 53.79 76.9C53.95 76.86 57.28 76.46 60 75.25C62.71 74.04 67.99 70.39 68.79 70.8Z" fill="white"/>
<path d="M54.93 79.92C54.93 79.92 50.87 80.54 50.77 77.96C50.76 77.96 50.11 81.41 54.93 79.92Z" fill="#F49963"/>
<path d="M82.69 53.5802C82.59 53.4302 80.41 39.8602 85.73 39.0902C91.05 38.3102 92 48.3002 91.56 50.7502C90.98 53.9902 86.73 59.3702 82.69 53.5802Z" fill="#FAB986"/>
<path d="M83.42 47.2799C83.91 46.1099 84.73 44.9499 86.01 44.6099C87.42 44.2199 88.98 45.0099 89.78 46.1799C90.58 47.3499 90.76 48.7899 90.74 50.1799C90.73 51.1099 90.62 52.0599 90.25 52.9199C89.85 53.8399 89.14 54.6499 88.2 55.0799C87.26 55.5099 86.09 55.5499 85.17 55.0799C84.72 54.8499 84.34 54.5099 84.01 54.1399C83.3 53.3499 82.54 52.2299 82.57 51.1499C82.59 49.8499 82.92 48.4699 83.42 47.2799Z" fill="#F49963"/>
<path d="M81.08 105.15L77.72 103.87L64.81 126.59L52.83 97.0601L65.11 131.81L81.08 105.15Z" fill="#F2B348"/>
<path d="M87.16 103.39L102.71 116.76C102.71 116.76 89.12 84.3799 88.82 84.3999C88.53 84.4099 96.3 108.22 96.3 108.22L87.07 101.34L87.16 103.39Z" fill="#F2B348"/>
<path d="M153.85 250.74C153.85 250.74 94.15 264.11 67.11 253V264.39C67.11 264.39 127.98 270.31 153.85 259.75V250.74Z" fill="#14181D"/>
<path d="M106.89 255.78C106.89 255.78 124.43 253.09 126.61 253.06C126.61 253.06 129.1 265.15 128.38 265.93C127.67 266.71 108.68 267.83 108.49 267.44C108.31 267.06 106.89 255.78 106.89 255.78ZM109.85 265.36L125.72 264.41L125.35 261.76L121.96 262.13L121.74 260.31L125.1 259.85L124.45 255.13L108.75 257.29L109.85 265.36Z" fill="#ACAFB8"/>
<path d="M91.37 273.17L87.31 271.14C87.31 271.14 80.8 298.34 75.45 299.97L76.21 301.73C76.19 301.73 84.32 295.1 91.37 273.17Z" fill="#44526E"/>
<path d="M127.96 268.82C127.96 268.82 125.88 295.27 121.2 298.15H113.47L112.72 269.83L114.66 297.05H120.34C120.34 297.05 125.82 288.32 127.96 268.82Z" fill="#44526E"/>
<path d="M25.62 575.57V577.8L15.34 576.69L25.62 575.57Z" fill="#3E4A59"/>
<path d="M69.57 49.6202C69.57 49.6202 69.77 49.3202 69.57 49.1302C69.37 48.9402 67.43 47.6002 64.93 48.2302C64.46 48.3502 59.01 49.9602 58.41 50.6102C57.81 51.2502 58.13 51.8102 58.13 51.8102C58.13 51.8102 58.93 51.1302 59.25 50.9402C59.57 50.7502 65.13 49.5002 65.57 49.3702C66.01 49.2402 69.57 49.6202 69.57 49.6202Z" fill="black"/>
<path d="M45.22 55.3798C45.22 55.2698 43.42 53.6998 43.06 53.5798C42.7 53.4598 40.66 53.3298 40.5 53.5798C40.34 53.8298 40.06 55.3798 40.06 55.3798C40.06 55.3798 40.86 54.9698 41.06 54.7698C41.26 54.5798 43.02 54.5098 43.3 54.5798C43.58 54.6698 45.22 55.3798 45.22 55.3798Z" fill="black"/>
<path d="M82.37 51.2998C82.69 46.6498 84.96 40.5498 89.43 40.8098C89.56 40.9898 89.68 41.1798 89.8 41.3798C85.8 41.2598 84.57 45.0398 84.06 48.8498C84.39 48.2998 84.8 47.8198 85.29 47.4498C86.49 46.5498 88.12 46.6698 88.57 48.1698C89.07 49.8198 88.69 52.2298 87.37 53.4898C86.38 54.4498 84.7 54.4998 83.6 53.7298C83.57 54.0398 83.53 54.3198 83.5 54.5898C83.23 54.2998 82.95 53.9598 82.68 53.5698C82.67 53.5498 82.5 52.6398 82.37 51.2998ZM86.7 52.8398C87.55 52.0498 87.81 50.5598 87.79 49.4998C87.77 48.6098 87.24 47.3098 86.06 47.9498C85.61 48.1898 85.26 48.6098 84.98 48.9998C84.56 49.5898 84.13 50.2498 83.84 50.9398C83.78 51.6598 83.73 52.3498 83.68 52.9898C84.7 53.2698 85.81 53.6698 86.7 52.8398Z" fill="#A55034"/>
<path d="M113.89 394.05C113.89 370.47 120.07 319.22 120.07 319.22C120.07 319.22 120.35 418.81 35.18 557.99C111.56 432.69 118.29 312.26 117.86 309.79C117.43 307.27 111.74 306.26 111.5 306.26C111.25 306.26 131.65 306.26 132.41 306.26L122.65 308.55C122.65 308.55 118.32 396.46 118.93 402.48C119.54 408.5 114.93 426.64 112.58 433.16C110.23 439.68 102.03 560.06 102.03 560.06C102.03 560.06 106.18 439.78 107.68 429.74C109.18 419.72 113.89 417.63 113.89 394.05Z" fill="#2C3346"/>
<path d="M143.05 266.05C143.05 266.05 143.57 253.05 143.05 252.74C142.53 252.43 138.67 251.93 138.6 252.74C138.53 253.55 139.34 266.05 139.34 266.05H143.05Z" fill="#353C50"/>
<path d="M89.68 267.79C89.68 267.79 90.61 257.14 89.68 256.67C88.75 256.2 86.79 254.91 86.37 255.38C85.96 255.85 85.44 266.44 85.44 266.44L89.68 267.79Z" fill="#353C50"/>
<path d="M53.43 151.42L55.47 208.07L50.73 208.23L53.43 151.42Z" fill="#F2B348"/>
<path d="M157.46 117.79L214.27 135.81C216.05 136.37 217.03 138.27 216.47 140.05L188.97 226.8C188.4 228.59 186.49 229.57 184.7 228.99L128.87 210.88C127.11 210.31 126.14 208.44 126.68 206.67L153.19 120C153.75 118.23 155.66 117.22 157.46 117.79Z" fill="#353C50"/>
<path d="M204.56 206.33C204.56 206.33 209.89 198.29 209.99 195.28C210.09 192.27 209.69 190.66 209.49 189.35C209.29 188.04 207.08 182.82 206.57 181.92C206.07 181.02 200.83 177.4 200.24 177C199.63 176.6 186.86 175.29 186.86 175.29C186.86 175.29 186.56 179.31 191.68 180.41C196.81 181.52 196.81 181.52 196.81 181.52L197.92 182.63L186.85 183.32C186.85 183.32 187.05 187.06 190.78 187.26C194.5 187.46 196.81 189.17 196.81 189.17L185.85 188.17C185.85 188.17 185.65 192.29 189.67 192.99C193.69 193.69 196.81 194.6 196.81 194.6L203.55 200.33L185.85 199.13C185.85 199.13 185.65 202.34 190.88 203.05C196.11 203.71 204.66 207.53 204.56 206.33Z" fill="url(#paint0_linear)"/>
<path d="M197.51 182.65L197.92 182.63L196.81 181.52C196.81 181.52 196.81 181.52 191.68 180.42C191.66 180.41 191.64 180.41 191.61 180.41C190.57 180.09 189.61 179.71 188.79 179.18C186.68 177.58 186.85 175.3 186.85 175.3C186.85 175.3 187.01 175.31 187.27 175.34C188.54 179.87 193.29 179.38 196.82 181.2C200.04 182.87 202.92 186.27 205.29 188.93C205.44 189.09 205.22 189.31 205.04 189.17C203.18 187.62 201.52 185.82 199.69 184.22C198.99 183.6 198.27 183.09 197.51 182.65Z" fill="#EB6D5E"/>
<path d="M203.64 194.96C201.75 193.27 199.95 191.51 197.84 190.09C197.35 189.76 196.82 189.41 196.3 189.1L196.81 189.14C196.81 189.14 194.5 187.43 190.78 187.23C187.06 187.03 186.85 183.29 186.85 183.29L187.11 183.28C188.55 187.8 193.34 186.1 196.56 188.12C199.28 189.83 201.97 192.1 204.07 194.52C204.34 194.83 203.94 195.23 203.64 194.96Z" fill="#EB6D5E"/>
<path d="M176.14 123.72L176.81 121.2C177.03 120.39 177.88 119.92 178.68 120.18L198.63 126.53C199.42 126.78 199.85 127.65 199.57 128.43L198.69 130.87L176.14 123.72Z" fill="#ACAFB8"/>
<path d="M137.82 193.98C137.04 192.4 136.66 192.55 136.93 190.81C137 190.36 137.09 189.91 137.28 189.49C137.4 189.22 137.56 188.98 137.82 188.82C138.11 188.63 138.4 188.64 138.65 188.87C138.8 189.01 138.94 189.17 139.04 189.34C139.21 189.62 139.36 189.91 139.51 190.21C140.23 191.65 140.01 191.05 140.83 192.44C141.53 193.63 142.31 194.77 143.14 195.87C143.18 195.93 143.24 195.98 143.3 196.06C143.4 195.9 143.48 195.76 143.56 195.63C144.15 194.68 144.8 193.78 145.59 192.98C146.48 192.08 147.52 191.51 148.79 191.33C149.14 191.28 149.47 191.28 149.78 191.47C149.79 191.47 149.81 191.47 149.84 191.47C149.88 191.42 149.93 191.36 149.98 191.3C150.27 190.94 150.58 190.6 150.95 190.31C151.31 190.03 151.71 189.79 152.15 189.67C152.39 189.61 152.62 189.57 152.87 189.61C153.25 189.67 153.53 189.86 153.65 190.23C153.71 190.41 153.76 190.61 153.75 190.8C153.74 191.24 153.73 191.67 153.67 192.1C153.47 193.49 153.06 194.83 152.67 196.17C152.37 197.17 152.07 198.18 151.78 199.19C151.73 199.36 151.68 199.52 151.63 199.69C151.58 199.85 151.55 200.02 151.51 200.18L151.55 200.19C151.59 200.13 151.64 200.07 151.69 200.01C152.09 199.46 152.48 198.9 152.89 198.37C154.21 196.67 155.69 195.13 157.4 193.81C158.17 193.22 158.97 192.69 159.86 192.29C160.1 192.18 160.33 192.09 160.58 192.01C160.88 191.91 161.18 191.84 161.49 191.8C161.81 191.77 162.13 191.78 162.44 191.88C163.04 192.06 163.36 192.56 163.22 193.14C163.19 193.26 163.14 193.37 163.09 193.48C162.63 194.47 162.07 195.4 161.5 196.32C160.87 197.34 160.27 198.38 159.75 199.46C159.19 200.64 158.63 201.82 158 202.97C157.53 203.82 157.06 204.67 156.53 205.49C155.78 206.66 154.8 207.54 153.56 208.16C151.48 209.19 149.38 210.16 147.22 210.99C145.15 211.79 143.07 212.54 140.99 213.29C139.09 213.98 137.13 214.31 135.1 214.13C133.52 213.99 131.94 213.87 130.36 213.72C128.19 213.51 126.03 213.26 123.9 212.74C122.95 212.51 122.02 212.26 121.09 211.95C120.07 211.6 119.18 211.02 118.32 210.39C116.84 209.3 115.55 208.01 114.37 206.6C113.41 205.45 112.56 204.23 111.9 202.88C111.39 201.84 111.04 200.75 110.96 199.58C110.88 198.41 111.19 200.34 111.81 199.36C112.37 198.48 113.13 197.79 114.01 197.23C114.72 196.78 115.48 196.43 116.27 196.15C118.5 195.37 120.8 195.03 123.15 194.99C125.24 194.95 127.46 194.2 129.14 193.94C131.2 193.62 133.76 194.34 135.08 194.64C135.83 194.81 135.22 194.82 135.99 194.87C136 194.89 136.67 195.49 137.82 193.98Z" fill="url(#paint1_linear)"/>
<path d="M160.57 192.01C160.32 192.09 160.08 192.18 159.85 192.29C158.97 192.69 158.16 193.22 157.39 193.81C155.68 195.13 154.2 196.67 152.88 198.37C152.46 198.91 152.08 199.46 151.68 200.01C151.63 200.07 151.59 200.13 151.54 200.19L151.5 200.18C151.54 200.02 151.57 199.85 151.62 199.69C151.67 199.52 151.72 199.36 151.77 199.19C151.72 199.26 151.67 199.33 151.62 199.4C151.39 199.72 151.26 200.08 151.23 200.48C151.21 200.69 151.24 200.89 151.32 201.08C151.46 201.38 151.69 201.53 152.02 201.54C152.29 201.54 152.52 201.44 152.74 201.3C153.03 201.11 153.27 200.87 153.45 200.59C153.77 200.12 154.08 199.64 154.36 199.15C154.99 198.06 155.6 196.96 156.36 195.95C157.33 194.64 158.5 193.53 159.81 192.57C160.02 192.42 160.24 192.29 160.46 192.15C160.5 192.13 160.53 192.1 160.57 192.08V192.01Z" fill="#EB6D5E"/>
<path d="M148.1 193.33C148.08 193.34 148.06 193.35 148.04 193.37C147.97 193.41 147.91 193.44 147.86 193.48C147.5 193.74 147.2 194.06 146.92 194.4C145.87 195.65 144.93 196.98 144.14 198.41C143.78 199.05 143.46 199.7 143.24 200.41C143.19 200.56 143.17 200.71 143.15 200.87C143.14 200.97 143.16 201.07 143.26 201.13C143.37 201.2 143.47 201.16 143.56 201.09C143.82 200.91 144.04 200.67 144.24 200.42C144.68 199.85 145.04 199.23 145.36 198.59C145.48 198.35 145.6 198.11 145.72 197.87C146.21 196.9 146.72 195.93 147.29 195C147.46 194.71 147.63 194.43 147.81 194.15C147.91 193.98 148 193.81 148.09 193.63C148.12 193.56 148.18 193.47 148.1 193.33Z" fill="#EB6D5E"/>
<path d="M151.11 190.26C151.03 190.29 150.95 190.32 150.87 190.36C150.56 190.55 150.28 190.77 150.03 191.03C149.46 191.62 148.96 192.27 148.48 192.93C148.33 193.14 148.18 193.34 148.04 193.55C147.47 194.4 146.95 195.28 146.48 196.19C146.2 196.73 145.94 197.28 145.67 197.83C145.63 197.9 145.62 197.99 145.6 198.07C145.62 198.08 145.64 198.09 145.66 198.1C145.67 198.08 145.69 198.06 145.71 198.04C145.74 198 145.77 197.97 145.79 197.93C146.02 197.5 146.25 197.07 146.47 196.64C146.73 196.14 147 195.66 147.28 195.18C147.45 194.89 147.62 194.61 147.8 194.33C148.44 193.31 149.15 192.33 149.93 191.41C150.25 191.03 150.61 190.7 151 190.39C151.04 190.36 151.08 190.32 151.12 190.29C151.12 190.29 151.12 190.27 151.11 190.26Z" fill="#EB6D5E"/>
<path d="M146.05 192.65C145.78 192.77 145.57 192.93 145.4 193.14C145 193.63 144.59 194.12 144.22 194.63C143.41 195.74 142.64 196.87 141.92 198.04C141.63 198.51 141.36 199 141.09 199.48C141.03 199.58 140.99 199.7 140.94 199.84C141.05 199.81 141.09 199.75 141.13 199.68C141.42 199.22 141.72 198.77 142 198.31C142.64 197.26 143.32 196.24 144.03 195.23C144.46 194.62 144.9 194.01 145.35 193.41C145.55 193.14 145.8 192.91 146.05 192.65Z" fill="#EB6D5E"/>
<path d="M137.82 193.98C137.91 194.22 137.73 193.74 137.82 193.98C138.09 194.72 138.1 194.87 138.22 195.77C138.41 196.68 138.3 197.14 138.6 197.73C138.64 197.81 138.67 197.9 138.71 198.01C138.53 197.97 138.49 197.85 138.42 197.76C138.34 197.66 138.28 197.55 138.2 197.44C137.88 197.71 137.75 198.08 137.54 198.4C137.56 197.95 137.78 197.59 138.09 197.27C138.06 197.22 138.05 197.19 138.04 197.16C137.52 196.29 137.54 195.42 137.18 194.48C137.18 194.47 137.39 194.26 137.82 193.98Z" fill="#EB6D5E"/>
<path d="M163.39 185.22C163.34 185.23 163.29 185.25 163.25 185.26C162.27 185.67 161.3 186.12 160.38 186.65C160.37 186.65 160.37 186.66 160.36 186.66C160.27 186.71 160.19 186.77 160.12 186.84C160.03 186.92 159.95 187 159.87 187.07C159.28 187.61 158.69 188.16 158.12 188.71C155.37 191.35 152.61 193.98 149.87 196.64C143.67 202.65 137.52 208.72 131.46 214.87C129.81 216.54 128.22 218.27 126.59 219.97C125.87 220.73 125.14 221.49 124.42 222.25C124.23 222.46 124.04 222.68 123.87 222.91C123.65 223.2 123.58 223.54 123.61 223.9C123.66 224.4 123.87 224.78 124.15 225.05C124.29 225.18 124.44 225.29 124.61 225.37C125.26 225.63 125.75 225.62 126.19 225.28C126.54 225 126.89 224.72 127.22 224.4C128.5 223.16 129.75 221.9 131.02 220.66C135.05 216.73 139 212.72 142.94 208.7C147.24 204.31 151.5 199.89 155.78 195.48C157.45 193.75 159.13 192.02 160.8 190.29C161.24 189.83 161.66 189.36 162.1 188.89C162.29 188.68 162.45 188.46 162.55 188.19C162.77 187.65 163 187.12 163.22 186.58L163.27 186.45C163.35 186.26 163.43 186.06 163.51 185.87C163.57 185.73 163.61 185.59 163.64 185.44C163.68 185.28 163.58 185.18 163.39 185.22Z" fill="#F9E047"/>
<path d="M125.08 221.55C124.73 221.95 124.32 222.23 124.06 222.66C124.03 222.71 123.99 222.77 123.95 222.82C123.6 223.22 123.54 223.69 123.65 224.19C123.82 224.92 124.47 225.5 125.22 225.58C125.51 225.61 125.79 225.56 126.04 225.41C126.64 225.04 127.12 224.55 127.6 224.05C127.61 224.04 127.62 224.01 127.63 223.97C126.57 223.41 125.78 222.56 125.08 221.55Z" fill="#FFA6D3"/>
<path d="M128.96 222.7C129.12 222.54 129.25 222.41 129.42 222.25C128.26 221.7 127.44 220.85 126.79 219.77C126.6 219.97 126.43 220.15 126.24 220.34C126.93 221.38 127.79 222.2 128.96 222.7Z" fill="white"/>
<path d="M163.39 185.22C163.34 185.23 163.29 185.25 163.25 185.27C162.76 185.48 162.27 185.69 161.79 185.92H161.78C161.3 186.15 160.83 186.39 160.37 186.65C160.36 186.65 160.36 186.66 160.35 186.66C160.35 187.01 160.59 187.16 160.86 187.3C160.82 187.36 160.79 187.41 160.76 187.46C160.69 187.59 160.61 187.71 160.56 187.85C160.42 188.25 160.63 188.53 161.05 188.52C161.28 188.51 161.49 188.45 161.68 188.3C161.72 188.27 161.76 188.24 161.81 188.2C161.84 188.24 161.87 188.28 161.9 188.32C161.94 188.36 161.97 188.42 162.01 188.45C162.2 188.59 162.39 188.55 162.48 188.33C162.72 187.77 162.96 187.21 163.19 186.65L163.26 186.48C163.34 186.29 163.42 186.1 163.5 185.9C163.56 185.76 163.6 185.62 163.63 185.47C163.69 185.28 163.58 185.18 163.39 185.22Z" fill="#FFCCE6"/>
<path d="M163.39 185.22C163.34 185.23 163.29 185.25 163.25 185.27C162.76 185.48 162.27 185.69 161.79 185.92H161.78C162.22 186.31 162.69 186.52 163.2 186.64L163.27 186.47C163.35 186.28 163.43 186.09 163.51 185.89C163.57 185.75 163.61 185.61 163.64 185.46C163.69 185.28 163.58 185.18 163.39 185.22Z" fill="black"/>
<path opacity="0.6" d="M158.28 191.45C158.35 191.44 158.47 191.45 158.6 191.41C159.22 191.23 159.73 190.36 159.72 190C159.72 189.83 159.67 189.64 159.6 189.5C159.49 189.29 159.29 189.29 159.11 189.44C158.54 189.92 158.78 189.68 158.21 190.16C158.13 190.23 158.05 190.32 157.98 190.41C157.71 190.83 157.84 191.34 158.28 191.45Z" fill="white"/>
<path opacity="0.4" d="M159.98 187.09L159.86 187.08C159.27 187.62 158.68 188.17 158.11 188.72C155.36 191.36 152.6 193.99 149.86 196.65C143.66 202.66 137.51 208.73 131.45 214.88C129.8 216.55 128.21 218.28 126.58 219.98C125.86 220.74 125.13 221.5 124.41 222.26C124.22 222.47 124.03 222.69 123.86 222.92C123.64 223.21 123.57 223.55 123.6 223.91C123.65 224.41 123.86 224.79 124.14 225.06C124.16 225.07 124.17 225.07 124.19 225.07C124.09 224.11 125.26 222.93 125.26 222.93L159.98 187.09Z" fill="#FF5097"/>
<path d="M153.97 196.49C153.66 196.46 153.36 196.45 153.06 196.45C151.61 196.43 150.18 196.63 148.77 197.01C147.86 197.25 146.97 197.56 146.1 197.95C145.16 198.37 144.18 198.69 143.18 198.95C142.04 199.25 140.88 199.29 139.72 199.11C139.54 199.08 139.35 199.05 139.17 199.01C137.7 198.68 136.22 198.35 134.76 198C134.71 197.99 134.67 197.98 134.62 197.97C133.8 197.77 133 197.5 132.19 197.26C129.65 196.51 127.09 195.85 124.45 195.6C122.79 195.44 121.13 195.39 119.46 195.43C117.39 195.48 115.41 195.91 113.49 196.67C112.03 197.25 110.63 197.96 109.26 198.74C107.39 199.81 105.51 200.88 103.62 201.91C101.08 203.28 98.44 204.39 95.69 205.25C93.32 205.99 90.93 206.71 88.52 207.29C87.74 207.48 86.94 207.62 86.15 207.79C85.73 207.88 85.31 207.97 84.9 208.07C84.61 208.14 84.33 208.26 84.08 208.42C83.72 208.66 83.55 208.99 83.57 209.43C83.6 209.96 83.66 210.48 83.74 211C83.91 212.05 84.18 213.08 84.52 214.1C85.64 217.39 87.35 220.34 89.68 222.92C90.69 224.04 91.79 225.07 93.05 225.91C93.54 226.24 94.06 226.53 94.56 226.75C95.01 226.94 95.44 227.05 95.87 227.13C96.26 227.2 96.61 227.11 96.91 226.86C97.11 226.7 97.31 226.51 97.49 226.32C98.11 225.65 98.72 224.96 99.33 224.28C100.94 222.49 102.6 220.75 104.44 219.18C106.79 217.18 109.31 215.44 112.09 214.08C113.1 213.59 114.14 213.13 115.22 212.79C117.5 212.07 119.8 211.92 122.14 212.44C123.04 212.64 123.94 212.83 124.84 213.01C125.43 213.13 126.03 213.17 126.63 213.16C127.52 213.15 128.37 212.96 129.18 212.59C129.88 212.27 130.56 211.9 131.19 211.45C132.1 210.81 133 210.15 133.9 209.5C134.38 209.16 134.85 208.81 135.34 208.49C136.06 208.02 136.84 207.7 137.67 207.49C138.95 207.17 140.26 207.02 141.57 206.96C142.33 206.92 143.08 206.9 143.84 206.9C145.53 206.88 147.1 206.47 148.58 205.67C148.98 205.45 149.39 205.23 149.78 205.01C151.42 204.07 153.05 203.1 154.73 202.22C155.37 201.88 155.98 201.47 156.59 201.08C156.84 200.92 157.08 200.73 157.3 200.52C157.89 199.95 158.01 199.2 157.64 198.46C157.44 198.05 157.13 197.74 156.76 197.49C155.94 196.9 155 196.57 153.97 196.49Z" fill="#FABE8F"/>
<path opacity="0.2" d="M153.06 196.44C151.61 196.42 150.18 196.62 148.77 197C147.86 197.24 146.97 197.55 146.1 197.94C145.16 198.36 144.18 198.68 143.18 198.94C142.04 199.24 140.88 199.28 139.72 199.1C139.85 199.15 139.98 199.19 140.11 199.24C140.74 199.45 141.37 199.64 142.03 199.76C142.91 199.91 143.77 199.84 144.61 199.53C145.51 199.2 146.38 198.8 147.23 198.35C148.38 197.74 149.58 197.29 150.82 196.91C151.55 196.67 152.3 196.53 153.06 196.44Z" fill="#FFCDC2"/>
<path d="M97.64 230.43C97.64 229.84 91.62 204.4 91.45 199.32C91.45 199.32 85.44 199.44 84.57 200.69C83.7 201.94 83.19 202.45 82.51 202.65C81.82 202.84 79.24 201.87 77.01 201.67C74.77 201.47 67.89 203.45 67.54 204.43C67.2 205.41 68.4 232.39 72.36 240.8C72.36 240.8 76.49 240.61 78.38 238.84C80.27 237.08 84.78 234.15 87 234.54C89.21 234.93 97.64 230.43 97.64 230.43Z" fill="#F2B348"/>
<path d="M132.37 125.49L143.14 152.92L141.79 157.34L132.37 125.49Z" fill="#F2B348"/>
</g>
<defs>
<linearGradient id="paint0_linear" x1="210.002" y1="190.924" x2="185.848" y2="190.924" gradientUnits="userSpaceOnUse">
<stop stop-color="#FAB986"/>
<stop offset="0.3237" stop-color="#FA9F74"/>
<stop offset="1" stop-color="#FA5E47"/>
</linearGradient>
<linearGradient id="paint1_linear" x1="115.562" y1="215.281" x2="165.607" y2="180.668" gradientUnits="userSpaceOnUse">
<stop stop-color="#FAB986"/>
<stop offset="0.3237" stop-color="#FA9F74"/>
<stop offset="1" stop-color="#FA5E47"/>
</linearGradient>
<clipPath id="clip0">
<rect width="216.63" height="585" fill="white"/>
</clipPath>
</defs>
</svg>
