<svg width="183" height="62" viewBox="0 0 183 62" fill="none" xmlns="http://www.w3.org/2000/svg">
<path d="M0.0712144 61.5633C0.0712144 41.5197 0.079433 21.4741 0.0429974 1.43081C0.0429974 0.460314 0.230655 0.269287 1.18346 0.269287C61.6535 0.296936 122.124 0.294422 182.595 0.294422C182.595 19.5803 182.595 38.8632 182.59 58.1471C182.59 59.2793 182.563 60.4118 182.549 61.546C182.085 61.5521 181.621 61.5627 181.157 61.5627C120.8 61.5633 60.4346 61.5633 0.0712144 61.5633ZM14.6118 24.9207C15.0528 25.7474 15.5079 26.5623 15.9295 27.3996C18.4485 32.3909 20.8836 37.4285 23.4933 42.3712C25.3036 45.8035 28.0113 48.2174 31.9179 48.9382C33.9435 49.3141 35.9888 49.0664 38.0224 49.1303C38.8469 49.1527 38.6993 48.5349 38.6993 48.0397C38.702 36.6021 38.6922 25.1631 38.7185 13.7236C38.7212 12.8237 38.4045 12.6017 37.5928 12.6199C35.5056 12.6623 33.4158 12.7017 31.3338 12.6081C30.1961 12.5573 29.9449 12.9642 29.9586 14.0492C30.046 21.2298 30.0761 28.4131 30.1134 35.595C30.1158 36.0204 30.2383 36.4876 29.9101 37.0523C28.1267 33.3868 26.4418 29.8723 24.7127 26.3769C23.5023 23.936 22.4997 21.3775 21.0113 19.0961C17.5463 13.7889 12.4163 12.2741 6.49813 12.633C5.76997 12.6788 5.87078 13.1734 5.87078 13.6356C5.86667 25.1235 5.87325 36.6066 5.85325 48.0939C5.85325 48.8787 6.05269 49.1736 6.85975 49.1454C8.66427 49.0957 10.4751 49.1289 12.2829 49.1289C14.5899 49.1289 14.6074 49.1289 14.5814 46.8201C14.5066 39.5468 14.4195 32.2725 14.3362 24.9939C14.4296 24.9724 14.5189 24.9464 14.6118 24.9207ZM43.157 30.9481C43.1148 32.5576 43.2321 34.1542 43.4666 35.7506C44.5115 42.8164 48.8174 47.6783 55.5591 49.2775C58.5214 49.9754 61.522 50.0003 64.5426 49.6361C71.3568 48.8153 76.2954 44.5127 78.0363 37.7536C79.1524 33.4195 79.1634 29.0373 78.1536 24.7032C76.6978 18.4543 72.8685 14.4614 66.7375 12.8525C64.156 12.1738 61.5124 12.0638 58.8668 12.2604C51.4129 12.8128 46.1289 16.8155 44.143 23.3986C43.4 25.858 43.079 28.3782 43.157 30.9481ZM147.031 25.7907H147.119C147.119 21.8199 147.098 17.8519 147.136 13.8839C147.147 13.0407 146.941 12.7304 146.055 12.7533C143.605 12.8134 141.144 12.8265 138.688 12.7506C137.667 12.7154 137.49 13.0846 137.496 14.0327C137.537 20.7879 137.509 27.5415 137.523 34.2992C137.526 35.7291 137.346 37.1249 136.942 38.4881C136.167 41.1114 134.265 42.5497 131.599 42.5935C128.838 42.6438 126.904 41.2499 126.033 38.6046C125.526 37.061 125.419 35.461 125.417 33.8535C125.411 27.2387 125.395 20.626 125.439 14.0112C125.443 13.0265 125.179 12.7246 124.199 12.7525C121.749 12.8207 119.288 12.8008 116.833 12.7584C116.082 12.7466 115.796 12.9237 115.796 13.761C115.845 21.4146 115.76 29.068 115.889 36.7183C115.99 42.5765 119.152 46.943 124.372 48.7675C127.905 50.0028 131.556 50.1028 135.218 49.5911C142.538 48.5567 146.737 43.9056 147.01 36.4125C147.136 32.8751 147.032 29.33 147.032 25.7907H147.031ZM78.37 12.8212C78.37 13.0494 78.3481 13.1494 78.3728 13.2343C82.1612 24.9612 85.9651 36.6856 89.7305 48.424C89.9881 49.225 90.4735 49.2362 91.1055 49.2362C94.1162 49.2244 97.1311 49.1691 100.142 49.2577C101.311 49.2943 101.827 48.9133 102.193 47.775C105.044 38.9548 107.958 30.158 110.856 21.3546C111.776 18.5551 112.703 15.7578 113.674 12.8232C110.563 12.8232 107.645 12.8612 104.73 12.8042C103.835 12.788 103.797 13.4046 103.642 13.9604C102.215 19.134 100.807 24.3116 99.3879 29.4841C98.3461 33.2698 97.2976 37.0465 96.2279 40.9075C95.6608 40.457 95.6827 39.8951 95.5512 39.4226C93.2133 30.9377 90.8915 22.4482 88.5857 13.9543C88.3945 13.2597 88.2446 12.788 87.3556 12.8042C84.3942 12.8592 81.4298 12.8212 78.37 12.8212ZM173.836 22.529C175.773 18.4928 174.414 14.374 170.404 13.1119C164.707 11.324 159.108 11.8018 154.027 15.249C148.757 18.8263 148.626 28.3374 154.42 31.8192C155.788 32.647 157.22 33.2647 158.726 33.7602C160.789 34.4383 162.95 34.8664 164.865 35.9629C166.453 36.8753 167.135 38.0935 166.879 39.501C166.573 41.17 165.411 41.9347 163.91 42.291C161.094 42.9501 158.394 42.5633 155.782 41.3485C154.131 40.5749 152.737 39.4343 151.384 38.1828C149.733 42.2045 150.694 45.6013 154.007 47.7345C159.103 51.0163 168.366 50.3628 173.103 46.5883C177.744 42.8921 179.01 31.7036 170.863 28.5477C169.346 27.9609 167.839 27.3753 166.274 26.9382C164.623 26.4769 162.95 26.0468 161.45 25.1749C160.004 24.3353 159.545 22.7636 160.315 21.4241C161.017 20.2065 162.22 19.7876 163.472 19.6066C167.283 19.0531 170.727 19.9881 173.836 22.529Z" fill="#51AF30"/>
<path d="M0.0712166 61.563H181.16C181.624 61.563 182.087 61.5577 182.551 61.5491C182.564 61.6493 182.578 61.7465 182.595 61.8465C122.169 61.8465 61.7482 61.8465 1.32181 61.8303C0.914715 61.8303 0.378317 62.1582 0.0712166 61.563Z" fill="#7CC263"/>
<path d="M182.595 61.8475C182.579 61.7486 182.565 61.6494 182.551 61.5501C182.565 60.4181 182.595 59.2823 182.595 58.1479V0.297413C183.143 0.254404 182.862 0.688404 182.862 0.864629C182.874 21.0018 182.874 41.1412 182.862 61.2803C182.857 61.4579 183.143 61.8919 182.595 61.8472V61.8475ZM14.3373 24.9946C14.4208 32.2679 14.5079 39.5479 14.583 46.8209C14.606 49.1297 14.5885 49.1297 12.2843 49.1297C10.4762 49.1297 8.66619 49.0962 6.86167 49.1459C6.05132 49.1738 5.85188 48.8794 5.85462 48.0944C5.87517 36.6074 5.86941 25.1237 5.87243 13.6361C5.87243 13.1741 5.77107 12.6793 6.50005 12.6335C12.4207 12.274 17.5502 13.7897 21.0132 19.0968C22.5016 21.3774 23.5043 23.9359 24.7143 26.3774C26.444 29.8728 28.1294 33.3873 29.912 37.0528C30.2407 36.4915 30.1177 36.0237 30.1153 35.5955C30.078 28.4169 30.0484 21.233 29.9613 14.0497C29.9479 12.965 30.1996 12.5578 31.3365 12.6086C33.4186 12.7022 35.5083 12.6661 37.5955 12.6206C38.4108 12.6027 38.7237 12.8225 38.7212 13.7243C38.6922 25.1636 38.705 36.6054 38.702 48.0402C38.702 48.5357 38.8494 49.1531 38.0248 49.1308C35.9882 49.0668 33.9459 49.3112 31.9198 48.9389C28.0138 48.2181 25.306 45.804 23.4952 42.3717C20.8869 37.4312 18.4504 32.3916 15.9322 27.4001C15.5103 26.5656 15.0548 25.7481 14.6145 24.9215C14.5559 24.8162 14.474 24.6143 14.4386 24.6196C14.2091 24.6737 14.2975 24.8469 14.3373 24.9946ZM43.1595 30.9511C43.0795 28.3778 43.4 25.8579 44.1402 23.4022C46.1269 16.8179 51.4104 12.8153 58.8652 12.2631C61.5099 12.0671 64.1541 12.1766 66.735 12.8552C72.8685 14.4613 76.6953 18.457 78.1511 24.7064C79.1634 29.0397 79.1486 33.4255 78.0339 37.7535C76.2929 44.5126 71.3544 48.8186 64.539 49.6394C61.52 50.0033 58.5181 49.9812 55.5566 49.2799C48.8141 47.6833 44.5065 42.8213 43.4641 35.7539C43.2346 34.1592 43.1148 32.56 43.1595 30.9511ZM69.0433 31.1905C68.9452 29.0299 68.8247 26.7172 67.9502 24.5363C66.7265 21.4768 64.6228 19.571 61.2587 19.4549C58.0458 19.3431 55.6199 20.8049 54.3721 23.7706C52.338 28.5867 52.3295 33.5314 54.4071 38.3434C55.6649 41.2498 58.0323 42.6769 61.1861 42.5993C64.2869 42.5239 66.3882 40.8993 67.7018 38.1043C68.705 35.9622 68.8811 33.6618 69.0433 31.1905ZM147.032 25.7906C147.032 29.3299 147.136 32.8751 147.01 36.4133C146.737 43.9063 142.541 48.5572 135.218 49.5916C131.556 50.1032 127.905 50.0033 124.372 48.7683C119.152 46.941 115.99 42.5711 115.889 36.7191C115.761 29.0685 115.843 21.4154 115.796 13.7615C115.796 12.9245 116.085 12.7474 116.833 12.7589C119.288 12.8016 121.749 12.8217 124.199 12.7533C125.181 12.7251 125.443 13.027 125.439 14.0117C125.395 20.6264 125.411 27.2392 125.417 33.8539C125.419 35.4618 125.526 37.0609 126.033 38.605C126.906 41.2529 128.838 42.6443 131.599 42.594C134.266 42.5468 136.167 41.111 136.942 38.4886C137.346 37.1257 137.526 35.729 137.523 34.2997C137.51 27.5419 137.537 20.7853 137.496 14.0335C137.49 13.0851 137.668 12.7158 138.688 12.7513C141.144 12.8304 143.605 12.8167 146.054 12.7538C146.939 12.7315 147.146 13.0415 147.137 13.8844C147.097 17.8518 147.119 21.8204 147.119 25.7911C147.092 25.7906 147.062 25.7906 147.032 25.7906ZM78.3697 12.8211C81.4295 12.8211 84.3939 12.8591 87.3545 12.8016C88.2435 12.7851 88.3942 13.2576 88.5846 13.9522C90.8866 22.4485 93.2155 30.9374 95.5501 39.423C95.6816 39.8906 95.6597 40.4578 96.227 40.908C97.2971 37.0469 98.3449 33.2672 99.3868 29.4815C100.809 24.309 102.216 19.1301 103.641 13.9575C103.796 13.4029 103.832 12.7851 104.729 12.8013C107.644 12.8591 110.563 12.8211 113.674 12.8211C112.702 15.7552 111.774 18.5522 110.856 21.352C107.957 30.156 105.044 38.9527 102.192 47.7729C101.827 48.9074 101.31 49.2883 100.141 49.2576C97.1308 49.1654 94.1162 49.2185 91.1047 49.2302C90.4732 49.2361 89.9905 49.2246 89.7294 48.4181C85.9639 36.6856 82.1601 24.9614 78.3716 13.2317C78.3473 13.1518 78.3697 13.0493 78.3697 12.8211ZM173.836 22.5289C170.726 19.9908 167.282 19.0535 163.473 19.6051C162.219 19.7861 161.018 20.205 160.316 21.4224C159.55 22.7621 160.008 24.3339 161.449 25.1737C162.95 26.0453 164.625 26.4754 166.275 26.9367C167.838 27.3738 169.351 27.9589 170.862 28.5462C179.009 31.7021 177.743 42.8906 173.105 46.5868C168.368 50.3616 159.102 51.021 154.008 47.733C150.693 45.5993 149.735 42.2033 151.386 38.1817C152.739 39.4328 154.133 40.5793 155.784 41.347C158.398 42.5619 161.093 42.9489 163.912 42.2896C165.41 41.9366 166.572 41.1685 166.884 39.4996C167.14 38.092 166.458 36.8732 164.867 35.9617C162.949 34.8599 160.791 34.4368 158.725 33.7587C157.225 33.2633 155.789 32.6458 154.425 31.8177C148.63 28.3359 148.761 18.8242 154.03 15.2475C159.113 11.8012 164.711 11.3194 170.403 13.1107C174.415 14.3731 175.774 18.4927 173.836 22.5289H173.836Z" fill="#FCFDFC"/>
<path d="M14.3373 24.9949C14.2975 24.8469 14.2058 24.6707 14.4353 24.619C14.4682 24.6137 14.5504 24.8156 14.6112 24.9209C14.5189 24.9463 14.4296 24.9726 14.3373 24.9949Z" fill="#7CC263"/>
<path d="M69.0433 31.1906C68.8811 33.6614 68.705 35.9624 67.7023 38.1039C66.3887 40.8964 64.2875 42.521 61.1869 42.5986C58.0354 42.674 55.6657 41.2441 54.408 38.3433C52.3303 33.5282 52.3413 28.5838 54.3724 23.7677C55.6208 20.8026 58.0463 19.3405 61.2592 19.4517C64.6234 19.5693 66.7273 21.4742 67.9511 24.534C68.8228 26.718 68.9455 29.0307 69.0433 31.1906Z" fill="#51AF30"/>
</svg>
