<svg width="227" height="228" viewBox="0 0 227 228" fill="none" xmlns="http://www.w3.org/2000/svg">
<ellipse cx="113" cy="114" rx="113" ry="114" fill="#DCE6EF"/>
<g clip-path="url(#clip0)">
<path d="M227 191.395H2V209.001H227V191.395Z" fill="#99CB0A"/>
<path d="M201.024 23.1836H27.9758V191.394H201.024V23.1836Z" fill="#CED5E0"/>
<path d="M198.042 26.1758H30.958V188.422H198.042V26.1758Z" fill="#55BFEA"/>
<path d="M131.714 151.611H97.7998V188.422H131.714V151.611Z" fill="#29434F"/>
<path d="M30.958 143.29V188.422H97.7381V150.607H133.524V188.422H198.021V143.29H30.958Z" fill="#496673"/>
<path opacity="0.1" d="M42.8661 57.6572L64.0293 141.65H52.5942L42.8661 102.892V57.6572Z" fill="white"/>
<path opacity="0.1" d="M83.6911 31.8115H103.209L130.83 141.65H111.23L83.6911 31.8115Z" fill="white"/>
<path opacity="0.1" d="M43.2363 31.8115H76.3487L103.949 141.65H70.7751L43.2363 31.8115Z" fill="white"/>
<path opacity="0.1" d="M112.197 31.8115H123.632L151.232 141.65H139.818L112.197 31.8115Z" fill="white"/>
<path opacity="0.1" d="M130.378 31.8115H163.552L186.134 121.461V141.65H157.999L130.378 31.8115Z" fill="white"/>
<path d="M190.083 143.598H36.7578V149.931H190.083V143.598Z" fill="#36515F"/>
<path opacity="0.05" d="M42.8661 154.48L64.0293 188.422H52.5942L42.8661 172.763V154.48Z" fill="white"/>
<path opacity="0.05" d="M83.691 144.048H103.209L130.83 188.422H111.23L83.691 144.048Z" fill="white"/>
<path opacity="0.05" d="M43.2363 144.048H76.3487L103.949 188.422H70.7751L43.2363 144.048Z" fill="white"/>
<path opacity="0.05" d="M112.197 144.048H123.632L151.232 188.422H139.818L112.197 144.048Z" fill="white"/>
<path opacity="0.05" d="M130.378 144.048H163.552L186.134 180.264V188.422H157.999L130.378 144.048Z" fill="white"/>
<path d="M201.024 22.7734H27.9758V31.8122H201.024V22.7734Z" fill="#FBFBFB"/>
<path d="M201.024 49.0078H27.9758V58.0465H201.024V49.0078Z" fill="#CED5E0"/>
<path d="M201.024 72.8652H27.9758V75.2633H201.024V72.8652Z" fill="#CED5E0"/>
<path d="M201.024 90.0615H27.9758V92.4595H201.024V90.0615Z" fill="#CED5E0"/>
<path d="M201.024 107.258H27.9758V109.656H201.024V107.258Z" fill="#CED5E0"/>
<path d="M201.024 124.454H27.9758V126.852H201.024V124.454Z" fill="#CED5E0"/>
<path d="M42.8661 9H27.9758V191.394H42.8661V9Z" fill="#FBFBFB"/>
<path d="M201.024 9H186.134V191.394H201.024V9Z" fill="#FBFBFB"/>
<path d="M42.8661 9H27.9758V15.9481H42.8661V9Z" fill="#CED5E0"/>
<path d="M201.024 9H186.134V15.9481H201.024V9Z" fill="#CED5E0"/>
<path d="M139.591 10.0654H89.4086V144.048H139.591V10.0654Z" fill="#FBFBFB"/>
<g opacity="0.2">
<g opacity="0.2">
<g opacity="0.2">
<path opacity="0.2" d="M106.397 10.0654H105.656V144.048H106.397V10.0654Z" fill="#FBFBFB"/>
</g>
<g opacity="0.2">
<path opacity="0.2" d="M123.323 10.0654H122.583V144.048H123.323V10.0654Z" fill="#FBFBFB"/>
</g>
</g>
<g opacity="0.2">
<g opacity="0.2">
<path opacity="0.2" d="M139.591 25.2529H89.4086V25.9908H139.591V25.2529Z" fill="#FBFBFB"/>
</g>
<g opacity="0.2">
<path opacity="0.2" d="M139.591 42.1211H89.4086V42.859H139.591V42.1211Z" fill="#FBFBFB"/>
</g>
</g>
<g opacity="0.2">
<g opacity="0.2">
<path opacity="0.2" d="M139.591 60.5059H89.4086V61.2437H139.591V60.5059Z" fill="#FBFBFB"/>
</g>
<g opacity="0.2">
<path opacity="0.2" d="M139.591 77.374H89.4086V78.1119H139.591V77.374Z" fill="#FBFBFB"/>
</g>
</g>
<g opacity="0.2">
<g opacity="0.2">
<path opacity="0.2" d="M139.591 95.7793H89.4086V96.5172H139.591V95.7793Z" fill="#FBFBFB"/>
</g>
</g>
<g opacity="0.2">
<g opacity="0.2">
<path opacity="0.2" d="M139.591 112.647H89.4086V113.385H139.591V112.647Z" fill="#FBFBFB"/>
</g>
</g>
<g opacity="0.2">
<g opacity="0.2">
<path opacity="0.2" d="M139.591 131.033H89.4086V131.771H139.591V131.033Z" fill="#FBFBFB"/>
</g>
</g>
</g>
<path d="M103.682 69.4834H93.0284V133.062H103.682V69.4834Z" fill="#FBFBFB"/>
<path d="M102.715 70.4258H93.995V132.098H102.715V70.4258Z" fill="#FBFBFB"/>
<path opacity="0.05" d="M100.679 70.4258L93.995 79.5465V74.6275L97.08 70.4258H100.679Z" fill="#FBFBFB"/>
<path opacity="0.05" d="M102.715 88.0117V96.4151L93.995 108.303V99.8584L102.715 88.0117Z" fill="#FBFBFB"/>
<path opacity="0.05" d="M102.715 70.5898V84.8346L93.995 96.7222V82.457L102.715 70.5898Z" fill="#FBFBFB"/>
<path opacity="0.05" d="M102.715 100.269V105.188L93.995 117.075V112.156L102.715 100.269Z" fill="#FBFBFB"/>
<path opacity="0.05" d="M102.715 108.098V122.383L95.5992 132.098H93.995V119.985L102.715 108.098Z" fill="#FBFBFB"/>
<path d="M119.827 69.4834H109.173V133.062H119.827V69.4834Z" fill="#FBFBFB"/>
<path d="M118.86 70.4258H110.14V132.098H118.86V70.4258Z" fill="#FBFBFB"/>
<path opacity="0.05" d="M116.804 70.4258L110.14 79.5465V74.6275L113.225 70.4258H116.804Z" fill="#FBFBFB"/>
<path opacity="0.05" d="M118.86 88.0117V96.4151L110.14 108.303V99.8584L118.86 88.0117Z" fill="#FBFBFB"/>
<path opacity="0.05" d="M118.86 70.5898V84.8346L110.14 96.7222V82.457L118.86 70.5898Z" fill="#FBFBFB"/>
<path opacity="0.05" d="M118.86 100.269V105.188L110.14 117.075V112.156L118.86 100.269Z" fill="#FBFBFB"/>
<path opacity="0.05" d="M118.86 108.098V122.383L111.744 132.098H110.14V119.985L118.86 108.098Z" fill="#FBFBFB"/>
<path d="M135.972 69.4834H125.318V133.062H135.972V69.4834Z" fill="#FBFBFB"/>
<path d="M135.005 70.4258H126.285V132.098H135.005V70.4258Z" fill="#FBFBFB"/>
<path opacity="0.05" d="M132.948 70.4258L126.285 79.5465V74.6275L129.37 70.4258H132.948Z" fill="#FBFBFB"/>
<path opacity="0.05" d="M135.005 88.0117V96.4151L126.285 108.303V99.8584L135.005 88.0117Z" fill="#FBFBFB"/>
<path opacity="0.05" d="M135.005 70.5898V84.8346L126.285 96.7222V82.457L135.005 70.5898Z" fill="#FBFBFB"/>
<path opacity="0.05" d="M135.005 100.269V105.188L126.285 117.075V112.156L135.005 100.269Z" fill="#FBFBFB"/>
<path opacity="0.05" d="M135.005 108.098V122.383L127.889 132.098H126.285V119.985L135.005 108.098Z" fill="#FBFBFB"/>
<path d="M141.011 9H87.9689V12.1154H141.011V9Z" fill="#FBFBFB"/>
<g clip-path="url(#clip1)">
<path d="M97.2905 76.2192V70.0356H96V76.2192H97.2905ZM99.7623 76.2192V71.9884L101.242 73.9754H101.964L103.418 71.9884V76.2192H104.698V70.0356H103.417L101.585 72.5982L99.7532 70.0356H98.4628V76.2192H99.7623ZM107.166 76.2192V73.7722H108.628C109.304 73.7722 109.847 73.5956 110.234 73.2512C110.631 72.9069 110.831 72.4559 110.831 71.8994C110.831 71.3429 110.633 70.9008 110.234 70.5565C109.847 70.2122 109.304 70.0356 108.628 70.0356H105.867V76.2192H107.166ZM107.166 71.1473H108.538C109.162 71.1473 109.532 71.4217 109.532 71.9159C109.532 72.4114 109.162 72.6846 108.538 72.6846H107.166V71.1473ZM116.447 76.2192V75.0795H113.008V73.4888H115.698V72.367H113.008V71.1752H116.347V70.0356H111.709V76.2192H116.447ZM118.85 76.2192V73.7201H119.944L121.784 76.2192H123.292L121.342 73.5778C122.164 73.3313 122.652 72.6859 122.652 71.8651C122.652 71.3264 122.453 70.8843 122.065 70.5489C121.675 70.2046 121.144 70.0356 120.476 70.0356H117.551V76.2192H118.85ZM118.85 71.1473H120.403C120.99 71.1473 121.342 71.4306 121.342 71.8981C121.342 72.3848 120.99 72.649 120.403 72.649H118.85V71.1473ZM125.462 76.2192V70.0356H124.172V76.2192H125.462ZM127.703 76.2192L128.325 74.7886H130.996L131.619 76.2192H133L130.292 70H129.047L126.34 76.2192H127.703ZM129.661 71.5894L130.581 73.7366H128.731L129.661 71.5894Z" fill="#898989"/>
<path d="M96.3349 81.9373V80.4152H98.2265V81.9373H98.5614V78.8233H98.2265V80.1179H96.3349V78.8233H96V81.9373H96.3349ZM102.394 79.2222C102.089 79.5297 101.939 79.9121 101.939 80.3708C101.939 80.8282 102.089 81.2157 102.394 81.5219C102.699 81.8293 103.079 81.9805 103.54 81.9805C104 81.9805 104.376 81.8281 104.68 81.5219C104.985 81.2144 105.14 80.8282 105.14 80.3708C105.14 79.9134 104.984 79.5297 104.68 79.2222C104.376 78.9148 104 78.7598 103.54 78.7598C103.079 78.7598 102.699 78.916 102.394 79.2222ZM102.643 81.2995C102.402 81.0505 102.28 80.7392 102.28 80.3695C102.28 79.9998 102.402 79.6885 102.643 79.4395C102.885 79.1905 103.184 79.0647 103.539 79.0647C103.893 79.0647 104.193 79.1892 104.433 79.4395C104.675 79.6872 104.797 79.9998 104.797 80.3695C104.797 80.7392 104.675 81.0492 104.433 81.2995C104.192 81.5485 103.893 81.6743 103.539 81.6743C103.186 81.6743 102.885 81.5498 102.643 81.2995ZM110.631 81.9615V81.6629H108.854V78.8474H108.518V81.9615H110.631ZM115.049 81.964C115.563 81.964 115.976 81.8217 116.295 81.532C116.614 81.2423 116.772 80.8701 116.772 80.4064C116.772 79.9439 116.612 79.5704 116.295 79.2807C115.977 78.991 115.563 78.8487 115.049 78.8487H114.009V81.9627H115.049V81.964ZM114.344 79.1473H115.009C115.45 79.1473 115.796 79.2629 116.049 79.489C116.303 79.7165 116.432 80.0227 116.432 80.4064C116.432 80.79 116.305 81.0962 116.049 81.3224C115.796 81.5498 115.449 81.6654 115.009 81.6654H114.344V79.1473ZM120.504 81.9615V78.8474H120.168V81.9615H120.504ZM124.406 81.9615V79.4077L126.42 81.9615H126.706V78.8474H126.379V81.391L124.371 78.8474H124.078V81.9615H124.406ZM131.764 81.9996C132.278 81.9996 132.727 81.795 133.001 81.4964V80.1573H132.67V81.3681C132.447 81.5867 132.147 81.6934 131.765 81.6934C131.407 81.6934 131.102 81.5727 130.853 81.3275C130.607 81.0823 130.484 80.7723 130.484 80.3924C130.484 80.0138 130.606 79.6987 130.857 79.4547C131.107 79.2095 131.42 79.085 131.794 79.085C132.161 79.085 132.488 79.1917 132.784 79.409V79.0761C132.512 78.8767 132.176 78.7776 131.774 78.7776C131.306 78.7776 130.92 78.9287 130.606 79.2349C130.297 79.5386 130.141 79.921 130.141 80.3873C130.141 80.8536 130.297 81.2423 130.606 81.5435C130.918 81.8471 131.304 81.9996 131.764 81.9996Z" fill="#898989"/>
</g>
<path d="M61.952 144.048H59.5457V188.422H61.952V144.048Z" fill="#CED5E0"/>
<path d="M80.1124 144.048H77.7061V188.422H80.1124V144.048Z" fill="#CED5E0"/>
<path d="M151.294 144.048H148.888V188.422H151.294V144.048Z" fill="#CED5E0"/>
<path d="M169.434 144.048H167.027V188.422H169.434V144.048Z" fill="#CED5E0"/>
<path d="M135.19 144.048H129.617V188.422H135.19V144.048Z" fill="#FBFBFB"/>
<path d="M99.3835 144.048H93.8099V188.422H99.3835V144.048Z" fill="#FBFBFB"/>
<path d="M130.974 144.048H93.8099V152.984H130.974V144.048Z" fill="#FBFBFB"/>
<path d="M201.024 141.65H27.9758V144.048H201.024V141.65Z" fill="#CED5E0"/>
<path d="M17.3634 199.859H15.4918C15.1422 196.805 15.2244 193.73 15.718 190.676C12.7975 186.68 11.7075 181.412 12.7564 176.616L14.5046 176.985C13.7025 180.736 14.3401 184.733 16.2322 188.032C17.1371 184.097 18.7413 180.367 20.9831 176.985L22.505 178.01C18.2477 184.425 16.4584 192.275 17.3634 199.859Z" fill="#9E710D"/>
<path d="M10.0005 179.629C10.0005 183.236 12.9621 186.147 16.5818 186.147C19.9342 186.147 22.7313 183.605 23.1015 180.326C23.122 180.1 23.122 179.875 23.122 179.609C23.122 178.748 22.9575 176.842 22.6284 174.464C21.7029 167.249 19.5229 155.608 16.9314 154.542C16.8492 154.521 16.7052 154.48 16.5818 154.48C15.9237 154.48 15.2655 155.218 14.6485 156.428C14.6485 156.448 14.6485 156.448 14.628 156.489C11.9543 161.941 10.0005 176.698 10.0005 179.629Z" fill="#7AC11E"/>
<path opacity="0.05" d="M14.6074 169.525C14.6074 172.619 17.1165 175.079 20.181 175.079C21.0654 175.079 21.9292 174.874 22.649 174.485C21.7235 167.27 19.5434 155.628 16.952 154.562C15.5329 160.158 14.6074 167.659 14.6074 169.525Z" fill="white"/>
<path opacity="0.05" d="M11.7898 174.874C11.7898 178.707 14.957 181.822 18.803 181.822C20.4484 181.822 21.9292 181.269 23.122 180.326C23.1426 180.1 23.1426 179.875 23.1426 179.609C23.1426 178.748 22.9781 176.842 22.649 174.464C21.7235 167.249 19.5434 155.608 16.952 154.542C16.8492 154.521 16.7052 154.48 16.5818 154.48C15.9237 154.48 15.2655 155.218 14.6485 156.428C14.6485 156.448 14.6485 156.448 14.628 156.489C12.9209 163.458 11.7898 172.578 11.7898 174.874Z" fill="white"/>
<path d="M36.2847 191.496H35.2975C35.1124 189.877 35.1536 188.257 35.4209 186.659C33.8784 184.548 33.3026 181.781 33.8579 179.239L34.7834 179.424C34.3515 181.391 34.6805 183.502 35.6883 185.245C36.1613 183.174 37.0251 181.207 38.1974 179.424L38.9995 179.957C36.7578 183.359 35.8117 187.479 36.2847 191.496Z" fill="#9E710D"/>
<path d="M32.4182 180.818C32.4182 182.724 33.9813 184.261 35.894 184.261C37.6627 184.261 39.1435 182.908 39.3286 181.207C39.3492 181.084 39.3492 180.961 39.3492 180.838C39.3492 180.387 39.2669 179.383 39.0818 178.112C38.5882 174.3 37.4365 168.172 36.0791 167.618C36.0174 167.598 35.9351 167.598 35.8734 167.598C35.5238 167.598 35.1741 167.987 34.8656 168.622C34.8656 168.643 34.8656 168.643 34.8451 168.643C33.4465 171.492 32.4182 179.28 32.4182 180.818Z" fill="#7AC11E"/>
<path opacity="0.05" d="M34.8245 175.489C34.8245 177.128 36.1408 178.42 37.7655 178.42C38.2386 178.42 38.691 178.317 39.0612 178.112C38.5676 174.3 37.4159 168.172 36.0585 167.618C35.3181 170.57 34.8245 174.505 34.8245 175.489Z" fill="white"/>
<path opacity="0.05" d="M33.3437 178.317C33.3437 180.346 35.0096 181.986 37.0457 181.986C37.9095 181.986 38.691 181.699 39.308 181.207C39.3286 181.084 39.3286 180.961 39.3286 180.838C39.3286 180.387 39.2463 179.383 39.0612 178.112C38.5676 174.3 37.4159 168.172 36.0585 167.618C35.9968 167.598 35.9145 167.598 35.8528 167.598C35.5032 167.598 35.1536 167.987 34.8451 168.622C34.8451 168.643 34.8451 168.643 34.8245 168.643C33.9401 172.291 33.3437 177.108 33.3437 178.317Z" fill="white"/>
<path d="M211.637 199.859H213.508C213.858 196.805 213.776 193.73 213.282 190.676C216.202 186.68 217.293 181.412 216.244 176.616L214.495 176.985C215.298 180.736 214.681 184.733 212.788 188.032C211.883 184.097 210.279 180.367 208.037 176.985L206.516 178.01C210.732 184.425 212.542 192.275 211.637 199.859Z" fill="#9E710D"/>
<path d="M218.979 179.629C218.979 183.236 216.017 186.147 212.398 186.147C209.045 186.147 206.248 183.605 205.878 180.326C205.857 180.1 205.857 179.875 205.857 179.609C205.857 178.748 206.022 176.842 206.351 174.464C207.277 167.249 209.457 155.608 212.048 154.542C212.171 154.521 212.315 154.48 212.418 154.48C213.076 154.48 213.734 155.218 214.351 156.428C214.351 156.448 214.351 156.448 214.372 156.489C217.025 161.941 218.979 176.698 218.979 179.629Z" fill="#7AC11E"/>
<path opacity="0.05" d="M214.393 169.525C214.393 172.619 211.904 175.079 208.819 175.079C207.935 175.079 207.071 174.874 206.351 174.485C207.277 167.27 209.457 155.628 212.048 154.562C213.467 160.158 214.393 167.659 214.393 169.525Z" fill="white"/>
<path opacity="0.05" d="M217.21 174.874C217.21 178.707 214.043 181.822 210.197 181.822C208.552 181.822 207.071 181.269 205.899 180.326C205.878 180.1 205.878 179.875 205.878 179.609C205.878 178.748 206.043 176.842 206.372 174.464C207.297 167.249 209.477 155.608 212.069 154.542C212.192 154.521 212.336 154.48 212.439 154.48C213.097 154.48 213.755 155.218 214.372 156.428C214.372 156.448 214.372 156.448 214.393 156.489C216.079 163.458 217.21 172.578 217.21 174.874Z" fill="white"/>
<path d="M192.715 191.496H193.702C193.888 189.877 193.846 188.257 193.579 186.659C195.122 184.548 195.697 181.781 195.142 179.239L194.217 179.424C194.649 181.391 194.319 183.502 193.312 185.245C192.839 183.174 191.975 181.207 190.803 179.424L190 179.957C192.242 183.359 193.188 187.479 192.715 191.496Z" fill="#9E710D"/>
<path d="M196.582 180.818C196.582 182.724 195.019 184.261 193.106 184.261C191.337 184.261 189.856 182.908 189.671 181.207C189.651 181.084 189.651 180.961 189.651 180.838C189.651 180.387 189.733 179.383 189.918 178.112C190.412 174.3 191.564 168.172 192.921 167.618C192.983 167.598 193.065 167.598 193.127 167.598C193.476 167.598 193.826 167.987 194.134 168.622C194.134 168.643 194.134 168.643 194.155 168.643C195.553 171.492 196.582 179.28 196.582 180.818Z" fill="#7AC11E"/>
<path opacity="0.05" d="M194.155 175.489C194.155 177.128 192.839 178.42 191.214 178.42C190.741 178.42 190.288 178.317 189.918 178.112C190.412 174.3 191.564 168.172 192.921 167.618C193.682 170.57 194.155 174.505 194.155 175.489Z" fill="white"/>
<path opacity="0.05" d="M195.636 178.317C195.636 180.346 193.97 181.986 191.934 181.986C191.07 181.986 190.288 181.699 189.671 181.207C189.651 181.084 189.651 180.961 189.651 180.838C189.651 180.387 189.733 179.383 189.918 178.112C190.412 174.3 191.564 168.172 192.921 167.618C192.983 167.598 193.065 167.598 193.127 167.598C193.476 167.598 193.826 167.987 194.134 168.622C194.134 168.643 194.134 168.643 194.155 168.643C195.06 172.291 195.636 177.108 195.636 178.317Z" fill="white"/>
<path fill-rule="evenodd" clip-rule="evenodd" d="M115.426 23.7168C116.742 21.9132 118.593 21.9542 121.554 21.9542L101.831 48.7834C100.494 50.5871 98.3963 50.5871 95.6198 50.5871L115.426 23.7168Z" fill="#61BF1A"/>
<path fill-rule="evenodd" clip-rule="evenodd" d="M127.149 33.0214C128.465 31.2178 130.501 31.1768 133.38 31.1768L120.608 48.6189C119.271 50.4225 117.133 50.607 114.335 50.607L127.149 33.0214Z" fill="#FECC00"/>
<path fill-rule="evenodd" clip-rule="evenodd" d="M128.979 17.8954C130.295 16.0917 132.249 15.9482 135.231 15.9482L123.611 31.7917C122.274 33.5953 120.197 33.6363 117.42 33.6363L128.979 17.8954Z" fill="#44AEDC"/>
<path fill-rule="evenodd" clip-rule="evenodd" d="M113.595 38.8221C114.911 37.0185 116.865 36.916 119.847 36.916L101.81 61.3882C100.473 63.1919 98.4168 63.1919 95.6403 63.1919L113.595 38.8221Z" fill="#087FC4"/>
</g>
<defs>
<clipPath id="clip0">
<rect width="225" height="200" fill="white" transform="translate(2 9)"/>
</clipPath>
<clipPath id="clip1">
<rect width="37" height="12" fill="white" transform="translate(96 70)"/>
</clipPath>
</defs>
</svg>
