<svg width="226" height="281" viewBox="0 0 226 281" fill="none" xmlns="http://www.w3.org/2000/svg">
<ellipse cx="113" cy="162" rx="113" ry="114" fill="#DCE6EF"/>
<g clip-path="url(#clip0)">
<path d="M140.86 180.614L139.635 189.095C139.635 189.095 147.476 192.945 148.298 189.971C149.12 186.997 148.659 179.489 149.618 175.386C150.58 171.284 140.86 180.614 140.86 180.614Z" fill="#F9E047"/>
<path d="M143.981 257.056L145.086 260.633L148.847 265.057L152.693 259.041L149.166 253.709L143.981 257.056Z" fill="#F9E047"/>
<path d="M125.631 133.15C125.631 133.15 145.32 119.613 158.447 120.495C158.447 120.495 159.854 121.378 159.744 124.575C159.633 127.773 148.909 180.942 148.909 180.942C148.909 180.942 141.023 183.997 138.809 183.556C138.809 183.556 139.693 148.818 140.909 146.801C142.125 144.784 143.672 141.819 143.672 141.819C143.672 141.819 128.856 158.324 120.787 159.757C120.787 159.757 125.208 191.385 126.759 195.134C128.306 198.883 134.057 205.172 135.162 209.255C136.267 213.335 150.401 255.604 150.401 255.604C150.401 255.604 147.879 259.443 144.56 259.002C144.56 259.002 97.6878 196.954 91.0791 146.794L125.631 133.15Z" fill="#353C50"/>
<path d="M127.796 108.216C127.796 108.216 139.489 104.529 139.69 103.857C139.892 103.183 141.312 101.003 141.784 100.666C142.258 100.329 145.636 99.3167 146.11 99.453C146.585 99.5892 150.164 100.329 150.164 100.329C150.164 100.329 149.758 101.341 149.488 101.409C149.488 101.409 150.908 101.477 151.11 101.882C151.311 102.288 150.704 104.444 150.704 104.444C150.704 104.444 151.461 104.645 151.149 105.187C150.837 105.725 150.297 106.805 150.297 106.805L149.891 108.223C149.891 108.223 149.689 110.246 148.945 110.178C148.945 110.178 144.283 111.923 141.917 110.506L128.4 117.057L127.796 108.216Z" fill="url(#paint0_linear)"/>
<path d="M144.803 103.776C145.07 104.159 145.47 104.444 145.964 104.525C147.001 104.694 148.178 104.584 149.228 104.587C149.771 104.59 150.271 104.574 150.772 104.46C150.733 104.447 150.707 104.441 150.707 104.441C150.707 104.441 150.743 104.311 150.795 104.113C149.634 104.399 148.347 104.24 147.17 104.227C146.149 104.214 144.94 104.146 144.963 102.907C144.976 102.187 145.103 102.394 145.668 102.326C145.902 102.297 146.146 102.248 146.38 102.216C146.422 102.21 146.439 102.171 146.435 102.135C147.007 102.154 147.583 102.106 148.152 101.992C148.766 101.869 149.163 101.678 149.511 101.412C149.498 101.412 149.491 101.412 149.491 101.412C149.507 101.409 149.524 101.399 149.54 101.389C149.563 101.373 149.582 101.353 149.605 101.337C149.803 101.146 150.031 100.653 150.122 100.436C150.027 100.523 149.94 100.62 149.839 100.737C149.4 101.237 148.922 101.519 148.253 101.668C146.994 101.947 145.782 101.859 144.527 101.603C144.4 101.577 144.355 101.756 144.478 101.798C144.956 101.953 145.447 102.054 145.941 102.106C145.502 102.138 145.06 102.151 144.621 102.158C144.566 102.158 144.511 102.2 144.498 102.255C144.387 102.728 144.475 103.218 144.699 103.627C144.095 103.614 144.079 104.85 144.241 105.751C143.975 105.66 143.861 105.754 143.741 106.024C143.63 106.27 143.591 107.091 143.682 107.626C143.402 107.856 143.295 108.232 143.393 108.618C143.552 109.241 144.205 109.562 144.748 109.782C145.632 110.139 146.695 110.389 147.771 110.473C148.483 110.324 148.948 110.181 148.948 110.181C149.094 110.194 149.221 110.126 149.328 110.006C148.753 110.071 148.178 110.116 147.589 110.081C146.903 110.039 146.221 109.945 145.558 109.763C144.846 109.572 143.087 108.741 143.747 107.885C143.77 107.95 143.796 108.005 143.828 108.041C144.283 108.599 145.899 108.589 146.569 108.631C147.661 108.702 148.756 108.638 149.849 108.55C149.881 108.355 149.894 108.222 149.894 108.222L149.907 108.174C148.86 108.271 147.807 108.349 146.754 108.31C146.107 108.284 145.34 108.3 144.738 108.057C144.186 107.83 144.066 107.438 143.984 106.938C143.955 106.769 143.903 105.826 144.235 105.907C144.251 105.91 144.264 105.907 144.274 105.904C144.348 106.251 144.446 106.526 144.54 106.627C145.057 107.172 146.741 106.834 147.385 106.808C148.392 106.766 149.416 106.705 150.421 106.565C150.473 106.461 150.538 106.338 150.609 106.199C149.465 106.309 148.327 106.445 147.177 106.487C146.611 106.507 145.879 106.653 145.333 106.52C144.618 106.348 144.527 105.719 144.478 105.086C144.459 104.759 144.316 103.89 144.803 103.776Z" fill="#F49963"/>
<path d="M107.57 27.2466C107.706 27.0456 120.215 8.46855 120.215 8.46855C120.215 8.46855 120.079 5.36157 120.553 4.28158C121.028 3.2016 123.125 -1.12158 123.125 -1.12158L125.832 -2.20156C125.832 -2.20156 126.034 -2.80804 126.44 -2.87614C126.847 -2.94425 128.947 -3.34965 128.947 -3.34965L129.216 -2.94425C129.216 -2.94425 131.248 -3.68694 131.45 -3.34965C131.651 -3.01236 131.856 -2.47074 131.856 -2.47074C131.856 -2.47074 134.021 -3.41776 134.427 -2.73993C134.834 -2.06535 134.427 2.52702 134.427 2.52702L134.97 4.62212C134.97 4.62212 130.162 10.6318 129.418 10.6999C128.673 10.768 126.642 11.248 126.642 11.248C126.642 11.248 117.764 28.0769 117.608 30.3958C117.459 32.7114 107.57 27.2466 107.57 27.2466Z" fill="url(#paint1_linear)"/>
<path d="M130.809 6.36061C131.212 6.24385 131.521 5.78332 131.797 5.50441C132.34 4.95631 132.873 4.39199 133.436 3.86659C134.242 3.11417 134.401 2.50769 134.515 1.45041C134.609 0.0493541 134.713 -2.27277 134.434 -2.73979C134.401 -2.79168 134.359 -2.83384 134.31 -2.86628C134.2 -1.11171 134.476 0.792046 133.982 2.50769C133.738 3.35741 132.971 3.96389 132.366 4.56388C132.113 4.8136 131.856 5.06333 131.602 5.31306C131.433 5.47846 131.264 5.64711 131.095 5.81251C130.364 5.9844 129.99 5.81575 129.974 5.30981C129.967 5.26765 129.948 5.24171 129.925 5.219C130.153 4.95631 130.361 4.64496 130.546 4.42442C130.949 3.94767 131.398 3.45146 131.703 2.90336C132.259 1.91743 132.064 0.565022 132.1 -0.527934C132.122 -1.23171 132.135 -1.89656 132.009 -2.53223C131.918 -2.49655 131.866 -2.47385 131.866 -2.47385C131.866 -2.47385 131.664 -3.01546 131.459 -3.35276C131.443 -3.3787 131.417 -3.39492 131.385 -3.41113C132.015 -1.93548 131.726 -0.164696 131.671 1.40177C131.632 2.52391 131.128 3.21147 130.419 4.05145C130.182 4.33361 129.922 4.74874 129.623 4.95955C129.408 5.34549 129.073 5.38116 128.621 5.07306C128.465 4.89793 128.342 4.70658 128.248 4.49253C128.244 4.48929 128.241 4.48604 128.241 4.4828C128.501 4.31091 128.716 4.09686 128.849 3.82443C129.48 2.53688 129.441 0.555292 129.444 -0.836037C129.444 -1.36468 129.525 -2.32466 129.252 -2.95709C129.239 -2.9506 129.229 -2.9506 129.229 -2.9506L128.96 -3.356C128.96 -3.356 128.706 -3.30735 128.358 -3.23924C128.641 -3.15816 128.872 -3.01222 129.002 -2.79168C129.411 -2.0944 129.187 -0.553879 129.138 0.230973C129.08 1.20393 129.034 2.33256 128.725 3.2666C128.352 4.40496 127.058 4.7228 125.959 4.78442C126.037 4.63847 126.099 4.47631 126.144 4.39523C126.411 3.92497 126.665 3.44498 126.889 2.95526C127.201 2.27743 127.409 1.66446 127.35 0.912044C127.285 0.0915155 127.224 -0.917117 127.022 -1.71819C126.879 -2.28574 126.626 -2.36682 126.057 -2.30845C125.995 -2.30196 125.936 -2.29223 125.875 -2.28574C125.855 -2.2371 125.845 -2.20791 125.845 -2.20791L125.156 -1.93224C125.845 -1.98737 126.489 -1.89008 126.821 -1.36143C127.019 -1.04036 126.96 -0.129021 126.996 0.263405C127.051 0.863396 127.097 1.45366 126.925 2.04067C126.759 2.60823 126.45 3.14985 126.187 3.672C126.089 3.86659 125.992 4.05794 125.891 4.24929C125.813 4.39199 125.738 4.53793 125.667 4.68063C125.637 4.85577 125.569 4.87523 125.455 4.73577C124.844 4.68063 124.623 3.20822 124.61 2.76715C124.587 2.04716 124.844 1.41798 125.029 0.743398C125.046 0.681777 124.955 0.642859 124.922 0.701236C124.269 1.9077 124.1 3.61038 125.055 4.70982C125.228 4.90766 125.436 5.1736 125.715 5.06982C125.741 5.12495 125.793 5.16711 125.875 5.15738C126.476 5.08603 127.285 4.96603 127.929 4.65469C127.932 4.65793 127.929 4.66442 127.932 4.66766C128.072 4.94333 128.27 5.26117 128.517 5.47522C127.981 5.61792 127.451 5.82548 126.951 5.99737C126.203 6.25358 125.728 6.59087 125.215 7.19411C125.153 7.26546 125.247 7.35627 125.319 7.29465C125.969 6.75628 126.561 6.48385 127.367 6.25034C128.108 6.03629 128.891 5.699 129.668 5.71846C129.688 5.71846 129.704 5.71197 129.723 5.70873C129.896 6.16602 130.266 6.51628 130.809 6.36061Z" fill="#F49963"/>
<path d="M120.599 81.6706L121.106 83.9959L119.991 96.9038L111.36 96.012L109.738 79.4684L112.423 63.2168L120.599 81.6706Z" fill="#FAB986"/>
<path d="M120.274 93.6347L121.106 83.9927L120.599 81.6673L112.423 63.2168L109.784 79.1992L110.102 80.0587C110.258 79.3711 111.65 76.0533 111.65 76.0533L119.991 85.9354L117.907 94.1504L120.274 93.6347Z" fill="#F49963"/>
<path d="M111.62 61.981C111.562 62.2664 111.978 74.4705 111.978 74.4705C111.978 74.4705 116.808 81.852 120.599 83.9957C120.599 83.9957 122.598 84.1157 123.97 83.519C123.97 83.519 126.502 82.2509 127.796 76.6142C128.488 73.5948 132.262 62.8826 132.678 62.3669C133.094 61.8512 133.751 60.661 133.751 60.661L133.153 56.9086C133.153 56.9086 131.719 57.3237 131.541 57.1453C131.362 56.967 132.139 51.1325 131.898 50.2406C131.661 49.3487 130.647 49.1087 130.647 49.1087L130.348 48.1552C130.348 48.1552 126.528 46.3682 126.229 45.8331L125.452 46.4298C125.452 46.4298 125.751 48.2752 125.332 48.5736L123.362 45.0612C123.362 45.0612 118.577 44.5845 117.894 44.4645C117.215 44.3445 116.139 44.4645 116.139 44.4645L116.08 46.3098L114.052 46.845L110.769 59.4059L111.62 61.981Z" fill="#2C251F"/>
<path d="M128.062 59.5164C128.3 59.7693 128.514 60.0483 128.787 60.2688C128.908 60.3628 129.09 60.4601 129.275 60.5672C128.995 60.658 128.725 60.765 128.478 60.8915C128.335 60.9661 128.397 61.2093 128.563 61.1963C128.956 61.1672 129.379 61.0893 129.798 60.9823C129.905 61.1282 129.954 61.3001 129.896 61.5077C129.834 61.725 130.172 61.8126 130.237 61.5953C130.322 61.3066 130.315 61.0926 130.188 60.8753C130.819 60.6872 131.437 60.4374 131.966 60.165C132.597 59.8439 133.117 59.3867 133.462 58.8029L133.394 58.3813C132.74 59.7823 131.154 60.0256 129.723 60.431C129.558 60.3401 129.376 60.2688 129.223 60.165C128.856 59.9153 128.602 59.5877 128.303 59.2731C127.854 58.7996 127.373 58.3294 126.863 57.911C126.879 57.9045 126.899 57.898 126.915 57.8915C128.394 57.6191 129.668 56.5748 130.455 55.2743C131.482 53.5813 131.697 51.6289 131.615 49.696C131.541 49.6084 131.459 49.5338 131.378 49.469C131.424 51.7781 130.978 54.2657 129.587 55.8548C129.688 55.6505 129.775 55.4332 129.847 55.1997C130.611 52.7641 130.426 50.1241 129.532 47.7598C129.402 47.695 129.262 47.6268 129.112 47.5523C130.032 49.936 130.227 52.6505 129.424 55.0927C128.96 56.5035 127.965 57.0418 126.606 57.4051C126.505 57.431 126.401 57.457 126.294 57.4829C125.927 57.2753 125.524 57.1943 125.143 57.0743C125.709 54.7002 125.026 51.6646 123.235 49.9619C121.129 47.9609 117.676 47.2571 116.451 44.4355C116.311 44.4453 116.207 44.455 116.171 44.4582C117.049 46.6831 119.272 47.7241 121.213 48.9306C122.65 49.8225 123.862 50.9057 124.412 52.55C124.903 54.0159 124.691 55.4364 124.76 56.9283C124.656 56.8797 124.555 56.8245 124.461 56.7564C124.012 56.4353 123.485 55.9294 122.91 55.8062C122.569 54.0062 121.32 52.4722 120.02 51.2398C119.23 50.4938 118.382 49.803 117.628 49.0214C117.059 48.4312 116.113 47.3998 115.765 46.3912L115.453 46.4755C115.804 47.7566 117.062 49.0928 117.793 49.8387C118.652 50.7111 119.611 51.4895 120.426 52.4073C121.372 53.4711 121.863 54.5673 122.305 55.8418C122.218 55.871 122.13 55.91 122.039 55.9683C121.535 56.2862 121.564 56.964 121.736 57.6094C121.034 57.5153 120.361 57.337 119.692 56.9348C118.535 56.2408 117.936 55.1802 117.277 54.0516C116.831 53.2895 116.327 52.5792 115.55 52.1187C114.848 51.7035 113.831 51.1716 112.966 51.0517L112.911 51.2657C113.509 51.3954 114.146 51.8235 114.669 52.0733C115.372 52.4106 115.95 52.8095 116.405 53.4516C117.033 54.3338 117.407 55.3748 118.112 56.2051C118.993 57.2397 120.472 58.0796 121.919 58.164C121.928 58.1899 121.938 58.2159 121.951 58.2418C121.083 58.2386 120.257 58.031 119.396 57.564C118.252 56.9445 117.228 56.1272 116.1 55.4818C115.115 54.9175 114.071 54.4181 112.992 54.0581C112.739 53.9738 112.478 53.8992 112.228 53.8797L112.163 54.123C113.22 54.1457 114.78 55.1608 115.43 55.524C116.467 56.1078 117.394 56.8343 118.375 57.4959C119.409 58.1867 120.872 58.9229 122.195 58.8094C122.198 58.8126 122.198 58.8191 122.201 58.8223C122.26 58.9456 122.442 58.8904 122.461 58.7769C122.855 58.7056 123.232 58.5531 123.576 58.2937C123.687 58.2126 123.628 58.031 123.482 58.0634C123.066 58.1575 122.669 58.2159 122.279 58.2353C122.273 58.2126 122.263 58.1932 122.257 58.1705C122.627 58.1607 122.994 58.0991 123.342 57.9726C123.476 57.924 123.456 57.7326 123.31 57.7261C122.89 57.7034 122.484 57.6872 122.084 57.6483C122 57.3467 121.954 57.058 122.006 56.8472C122.097 56.4872 122.244 56.2862 122.419 56.1953C122.439 56.2537 122.458 56.3121 122.478 56.3737C122.562 56.6332 123.004 56.6072 122.978 56.3056C122.975 56.2602 122.965 56.2148 122.962 56.1694C123.359 56.2862 123.778 56.6267 124.044 56.844C124.548 57.2591 124.964 57.3337 125.579 57.5348C125.589 57.538 125.598 57.5413 125.608 57.5445C125.553 57.5737 125.517 57.6288 125.504 57.6905C124.977 57.8461 124.474 58.0569 124.103 58.4461C124.005 58.5499 124.103 58.7413 124.249 58.6926C124.971 58.4656 125.748 58.2613 126.499 58.0245C127.081 58.4526 127.607 59.0299 128.062 59.5164Z" fill="#4A3D35"/>
<path d="M133.699 60.3072L133.637 59.918C133.338 60.2034 133.016 60.4628 132.659 60.6899C132.09 61.0466 131.453 61.238 130.868 61.5525C130.767 61.6077 130.812 61.7698 130.926 61.7666C131.966 61.7374 132.942 61.0823 133.699 60.3072Z" fill="#4A3D35"/>
<path d="M113.486 68.5749C113.486 68.5749 113.554 60.2431 113.763 59.8993C113.971 59.5555 117.351 58.1091 117.351 58.1091L119.077 54.5967C119.077 54.5967 129.363 57.6939 129.844 58.3847C130.328 59.0723 130.809 63.6874 130.809 63.6874L131.086 65.1338L128.186 72.778L127.081 73.7413L125.975 71.6073L120.04 71.3316L119.211 73.7413C119.214 73.738 114.868 70.7089 113.486 68.5749Z" fill="#FAB986"/>
<path d="M105.051 32.3125L116.877 34.6768C116.877 34.6768 110.317 55.9651 110.782 82.8317L114.296 94.1537H116.877C116.877 94.1537 120.293 91.0759 121.106 83.996C121.106 83.996 131.03 88.5592 133.758 91.864C133.758 91.864 131.476 104.058 126.57 109.076C126.57 109.076 124.857 125.204 125.634 127.189C126.411 129.17 124.136 129.002 124.509 130.186C124.886 131.369 125.634 133.153 125.634 133.153C125.634 133.153 99.8788 147.747 90.7345 142.338C90.7345 142.338 92.9353 139.805 91.752 138.958C90.5655 138.115 87.8577 137.437 88.5338 136.085C89.21 134.733 89.21 134.733 89.21 134.733C89.21 134.733 86.8077 110.246 91.8625 78.9334C94.1965 64.4428 100.175 45.9436 105.051 32.3125Z" fill="#F9E047"/>
<path d="M91.0791 146.798L90.7313 142.335C90.7313 142.335 115.307 139.088 125.244 130.899L125.631 133.15C125.631 133.15 100.233 149.055 91.0791 146.798Z" fill="#14181D"/>
<path d="M116.877 60.1095C116.877 60.1095 118.336 58.4619 118.749 58.4619C119.162 58.4619 120.843 58.8479 121.697 59.7268C122.552 60.6057 123.323 61.1019 123.323 61.1019V62.0359L123.68 61.5138C123.68 61.5138 123.544 62.8597 122.855 62.8597C122.166 62.8597 120.761 61.0176 120.28 60.4143C119.796 59.8078 118.557 58.9841 116.877 60.1095Z" fill="#2C251F"/>
<path d="M127.181 63.3825C127.181 63.3825 127.016 62.8603 127.428 62.4485C127.841 62.0366 128.173 61.9814 128.173 61.9814C128.173 61.9814 129.551 62.202 129.717 62.4777C129.883 62.7533 129.938 63.963 129.717 63.963C129.496 63.963 129.606 63.522 129.385 63.3857C129.164 63.2495 128.752 63.2495 128.339 63.2495C127.923 63.2463 127.185 63.8657 127.181 63.3825Z" fill="#2C251F"/>
<path d="M121.821 63.5318C121.132 62.7859 120.04 62.2864 119.081 62.2637C118.947 62.2605 118.951 62.4648 119.081 62.4713C119.578 62.494 120.036 62.6302 120.462 62.8572C119.559 62.6464 118.554 62.7696 117.836 63.214C117.702 63.295 117.787 63.5123 117.943 63.4702C118.743 63.2529 119.52 63.1199 120.326 63.3859C120.979 63.5999 121.408 64.0572 121.948 64.4529C122.159 64.6085 122.409 64.3069 122.292 64.1026C122.166 63.8853 122.003 63.6972 121.821 63.5318Z" fill="black"/>
<path d="M129.145 65.7306C128.813 65.2798 128.283 65.2247 127.747 65.2344C127.412 65.2409 127.116 65.3544 126.791 65.4192C126.645 65.4484 126.557 65.4484 126.512 65.6073C126.489 65.6884 126.515 65.7857 126.577 65.8409C126.863 66.1068 127.113 65.9057 127.428 65.8084C127.796 65.6949 128.618 65.6106 128.927 65.8992C129.034 66.003 129.239 65.8636 129.145 65.7306Z" fill="black"/>
<path d="M122.559 70.0988C122.559 70.0988 124.35 67.1086 125 67.0794C125.65 67.047 125.741 67.2643 125.803 67.5107C125.865 67.7572 126.684 70.809 126.684 70.809C126.684 70.809 124.565 72.6252 122.559 70.0988Z" fill="#F49963"/>
<path d="M125.897 67.874L126.235 70.6534C124.012 72.1031 122.868 69.9756 122.868 69.9756L123.102 69.2394C122.783 69.7259 122.559 70.0989 122.559 70.0989C124.568 72.6253 126.681 70.8091 126.681 70.8091C126.681 70.8091 126.128 68.74 125.897 67.874Z" fill="#93462D"/>
<path d="M125.761 72.3854C125.761 72.3854 124.467 71.8503 123.684 73.4557C122.897 75.0643 124.808 75.2427 125.225 74.4676C125.641 73.6924 125.462 72.6806 125.462 72.6806L125.761 72.3854Z" fill="#842424"/>
<path d="M107.664 24.8955C107.664 24.8955 115.732 25.2003 119.682 27.4316C119.682 27.4316 119.812 28.2424 119.077 29.3613C118.343 30.477 117.774 34.4369 117.904 35.2477C118.034 36.0585 117.325 37.5828 117.325 37.5828C117.325 37.5828 105.424 36.772 103.188 34.0315C103.188 34.0315 102.782 32.4067 103.695 31.9007C104.612 31.3916 106.517 24.8047 107.664 24.8955Z" fill="#F2B348"/>
<path d="M125.481 126.31C125.15 122.275 124.62 109.072 124.62 109.072L127.107 91.1211C127.103 91.1211 123.326 117.196 125.481 126.31Z" fill="#F2B348"/>
<path d="M126.118 107.629H128.878V117.521L124.688 119.882C124.688 119.878 125.254 108.728 126.118 107.629Z" fill="#F2B348"/>
<path d="M118.336 134.71L112.121 138.132L112.979 143.746L118.658 140.058L118.336 134.71ZM113.512 142.344V140.801L114.156 140.415V139.568L113.19 139.889L112.869 138.232L117.637 136.095L118.118 139.516L113.512 142.344Z" fill="#ACAFB8"/>
<path d="M105.743 146.95C105.743 146.95 104.778 141.443 105.099 141.177C105.421 140.911 106.601 140.697 106.601 140.697L107.352 146.363L105.743 146.95Z" fill="#353C50"/>
<path d="M102.687 160.117C102.687 160.117 107.034 154.746 107.073 148.827H106.192C106.192 148.827 105.233 154.555 102.307 159.199L102.687 160.117Z" fill="#44526E"/>
<path d="M116.396 141.524C116.321 141.573 116.223 143.745 117.251 144.209C118.278 144.67 119.471 144.345 119.578 144.832C119.685 145.318 120.784 155.872 120.784 155.872L121.301 155.762C121.301 155.762 120.118 147.349 120.443 146.953C120.768 146.561 122.175 144.209 122.175 144.209C122.175 144.209 122.12 141.946 121.85 141.524C121.58 141.102 119.477 141.838 118.635 139.539L118.115 139.915C118.115 139.915 118.869 141.537 119.955 141.699C121.038 141.861 121.658 142.169 121.632 143.658L120.443 145.857C120.443 145.857 120.28 143.846 119.63 143.823C118.98 143.804 117.254 144.465 116.968 141.148L116.396 141.524Z" fill="#44526E"/>
<path d="M135.159 209.258C134.053 205.178 128.303 198.89 126.756 195.137C125.208 191.388 120.784 159.761 120.784 159.761C128.856 158.327 140.932 144.732 140.932 144.732C140.932 144.732 140.6 141.881 140.906 144.21C141.211 146.541 138.806 183.559 138.806 183.559C138.806 183.559 141.637 146.804 142.304 145.325C142.97 143.846 144.166 140.143 144.166 140.143C144.166 140.143 141.27 142.611 137.941 145.257C134.613 147.904 124.597 156.949 119.263 156.842C119.263 156.842 119.689 157.448 121.509 171.569C123.329 185.69 123.164 192.332 127.49 198.971C131.817 205.613 149.159 255.737 149.163 255.743C147.333 249.707 136.173 213.001 135.159 209.258Z" fill="#2C3346"/>
<path d="M109.813 84.0059C109.813 84.0772 109.813 98.438 109.813 98.237C109.813 98.0359 114.296 94.1538 114.296 94.1538L113.737 92.6522L110.782 96.0154L109.813 84.0059Z" fill="#F2B348"/>
<path d="M116.877 94.1503C116.877 94.1503 121.675 98.3729 121.675 98.2367C121.675 98.1005 122.559 85.6953 122.559 85.6953L120.882 95.7427L117.949 93.2195L116.877 94.1503Z" fill="#F2B348"/>
<path d="M136.303 192.793C136.303 192.793 139.151 187.286 139.784 186.906C139.784 186.906 143.688 190.195 144.956 189.851C146.224 189.507 149.598 188.285 149.598 188.285C149.598 188.285 151.497 198.15 151.604 202.354C151.708 206.56 156.109 212.907 156.109 212.907L154.77 214.207C154.77 214.207 144.218 204.724 143.692 202.431C143.165 200.138 143.903 197.69 143.903 197.69L140.526 197.995L136.303 192.793Z" fill="#14181D"/>
<path d="M144.872 259.926L147.238 261.807L151.448 259.926V257.396C151.448 257.396 157.393 263.623 157.667 264.142C157.936 264.661 162.585 275.104 162.497 275.364C162.409 275.623 158.726 277.958 158.034 277.504C157.341 277.05 148.207 266.931 148.031 266.348C147.853 265.764 144.872 259.926 144.872 259.926Z" fill="#14181D"/>
<path d="M123.5 36.9807L124.558 27.8758L129 33.0059L134.764 26.7549L136.047 34.9784L142.807 34.6105L136.292 42.5045L123.5 36.9807Z" fill="#F9E047"/>
<path d="M80.4171 94.1886C69.003 92.2659 53.6654 89.9586 42.608 87.6514" stroke="white" stroke-width="3" stroke-linecap="round" stroke-linejoin="round"/>
<path d="M79.5578 114.735C65.4612 118.886 47.7502 123.452 34.0151 125.942" stroke="white" stroke-width="3" stroke-linecap="round" stroke-linejoin="round"/>
<path d="M81.2764 139.018C70.1527 146.504 55.704 159.05 48.6231 164.233" stroke="white" stroke-width="3" stroke-linecap="round" stroke-linejoin="round"/>
</g>
<defs>
<linearGradient id="paint0_linear" x1="143.222" y1="107.352" x2="162.117" y2="104.571" gradientUnits="userSpaceOnUse">
<stop stop-color="#FAB986"/>
<stop offset="1" stop-color="#FA5E47"/>
</linearGradient>
<linearGradient id="paint1_linear" x1="128.525" y1="2.67487" x2="138" y2="-14.0845" gradientUnits="userSpaceOnUse">
<stop stop-color="#FAB986"/>
<stop offset="0.3728" stop-color="#FA926B"/>
<stop offset="0.7832" stop-color="#FA6C51"/>
<stop offset="1" stop-color="#FA5E47"/>
</linearGradient>
<clipPath id="clip0">
<rect width="171" height="281" fill="white" transform="translate(28)"/>
</clipPath>
</defs>
</svg>
